solid OpenSCAD_Model
  facet normal -1 -0 -0
    outer loop
      vertex 0 0 0
      vertex 0 0 8
      vertex 0 31 0
    endloop
  endfacet
  facet normal -1 0 0
    outer loop
      vertex 0 31 0
      vertex 0 0 8
      vertex 0 31 8
    endloop
  endfacet
  facet normal 0 -1 0
    outer loop
      vertex 0 0 8
      vertex 0 0 0
      vertex 31 0 0
    endloop
  endfacet
  facet normal 0 -1 0
    outer loop
      vertex 31 0 8
      vertex 0 0 8
      vertex 31 0 0
    endloop
  endfacet
  facet normal -0 -0 -1
    outer loop
      vertex 0 0 0
      vertex 0 31 0
      vertex 31 0 0
    endloop
  endfacet
  facet normal 0 0 -1
    outer loop
      vertex 31 0 0
      vertex 0 31 0
      vertex 31 31 0
    endloop
  endfacet
  facet normal 0 1 0
    outer loop
      vertex 0 31 0
      vertex 0 31 8
      vertex 31 31 0
    endloop
  endfacet
  facet normal 0 1 0
    outer loop
      vertex 31 31 0
      vertex 0 31 8
      vertex 31 31 8
    endloop
  endfacet
  facet normal 0 -0 1
    outer loop
      vertex 16.8066 3.06848 8
      vertex 0 0 8
      vertex 31 0 8
    endloop
  endfacet
  facet normal 0 0 1
    outer loop
      vertex 16.8066 3.06848 8
      vertex 14.1934 3.06848 8
      vertex 0 0 8
    endloop
  endfacet
  facet normal 0 -0 1
    outer loop
      vertex 0 31 8
      vertex 0 0 8
      vertex 3.27316 12.9011 8
    endloop
  endfacet
  facet normal 0 -0 1
    outer loop
      vertex 21.75 4.67468 8
      vertex 19.3627 3.61179 8
      vertex 31 0 8
    endloop
  endfacet
  facet normal 0 0 1
    outer loop
      vertex 0 31 8
      vertex 3.27316 12.9011 8
      vertex 3 15.5 8
    endloop
  endfacet
  facet normal 0 0 1
    outer loop
      vertex 0 31 8
      vertex 3 15.5 8
      vertex 3.27316 18.0989 8
    endloop
  endfacet
  facet normal 0 0 1
    outer loop
      vertex 0 31 8
      vertex 3.27316 18.0989 8
      vertex 4.08068 20.5842 8
    endloop
  endfacet
  facet normal 0 0 1
    outer loop
      vertex 0 31 8
      vertex 4.08068 20.5842 8
      vertex 5.38729 22.8473 8
    endloop
  endfacet
  facet normal -0 0 1
    outer loop
      vertex 9.25 26.3253 8
      vertex 0 31 8
      vertex 7.13587 24.7893 8
    endloop
  endfacet
  facet normal -0 0 1
    outer loop
      vertex 11.6373 27.3882 8
      vertex 0 31 8
      vertex 9.25 26.3253 8
    endloop
  endfacet
  facet normal 0 0 1
    outer loop
      vertex 16.8066 27.9315 8
      vertex 19.3627 27.3882 8
      vertex 31 31 8
    endloop
  endfacet
  facet normal -0 0 1
    outer loop
      vertex 14.1934 27.9315 8
      vertex 0 31 8
      vertex 11.6373 27.3882 8
    endloop
  endfacet
  facet normal 0 -0 1
    outer loop
      vertex 28 15.5 8
      vertex 27.7268 12.9011 8
      vertex 31 0 8
    endloop
  endfacet
  facet normal 0 0 1
    outer loop
      vertex 31 31 8
      vertex 0 31 8
      vertex 14.1934 27.9315 8
    endloop
  endfacet
  facet normal 0 -0 1
    outer loop
      vertex 26.9193 10.4158 8
      vertex 25.6127 8.15268 8
      vertex 31 0 8
    endloop
  endfacet
  facet normal 0 0 1
    outer loop
      vertex 31 31 8
      vertex 19.3627 27.3882 8
      vertex 21.75 26.3253 8
    endloop
  endfacet
  facet normal 0 -0 1
    outer loop
      vertex 25.6127 8.15268 8
      vertex 23.8641 6.21069 8
      vertex 31 0 8
    endloop
  endfacet
  facet normal 0 0 1
    outer loop
      vertex 31 31 8
      vertex 21.75 26.3253 8
      vertex 23.8641 24.7893 8
    endloop
  endfacet
  facet normal 0 0 1
    outer loop
      vertex 31 31 8
      vertex 23.8641 24.7893 8
      vertex 25.6127 22.8473 8
    endloop
  endfacet
  facet normal 0 -0 1
    outer loop
      vertex 27.7268 12.9011 8
      vertex 26.9193 10.4158 8
      vertex 31 0 8
    endloop
  endfacet
  facet normal 0 0 1
    outer loop
      vertex 31 31 8
      vertex 25.6127 22.8473 8
      vertex 26.9193 20.5842 8
    endloop
  endfacet
  facet normal 0 0 1
    outer loop
      vertex 31 31 8
      vertex 27.7268 18.0989 8
      vertex 31 0 8
    endloop
  endfacet
  facet normal 0 0 1
    outer loop
      vertex 31 31 8
      vertex 26.9193 20.5842 8
      vertex 27.7268 18.0989 8
    endloop
  endfacet
  facet normal 0 0 1
    outer loop
      vertex 27.7268 18.0989 8
      vertex 28 15.5 8
      vertex 31 0 8
    endloop
  endfacet
  facet normal 0 -0 1
    outer loop
      vertex 19.3627 3.61179 8
      vertex 16.8066 3.06848 8
      vertex 31 0 8
    endloop
  endfacet
  facet normal 0 -0 1
    outer loop
      vertex 11.6373 3.61179 8
      vertex 0 0 8
      vertex 14.1934 3.06848 8
    endloop
  endfacet
  facet normal 0 -0 1
    outer loop
      vertex 9.25 4.67468 8
      vertex 0 0 8
      vertex 11.6373 3.61179 8
    endloop
  endfacet
  facet normal 0 -0 1
    outer loop
      vertex 7.13587 6.21069 8
      vertex 0 0 8
      vertex 9.25 4.67468 8
    endloop
  endfacet
  facet normal 0 -0 1
    outer loop
      vertex 5.38729 8.15268 8
      vertex 0 0 8
      vertex 7.13587 6.21069 8
    endloop
  endfacet
  facet normal 0 -0 1
    outer loop
      vertex 4.08068 10.4158 8
      vertex 0 0 8
      vertex 5.38729 8.15268 8
    endloop
  endfacet
  facet normal 0 -0 1
    outer loop
      vertex 3.27316 12.9011 8
      vertex 0 0 8
      vertex 4.08068 10.4158 8
    endloop
  endfacet
  facet normal 0 0 1
    outer loop
      vertex 5.38729 22.8473 8
      vertex 7.13587 24.7893 8
      vertex 0 31 8
    endloop
  endfacet
  facet normal 0 0 1
    outer loop
      vertex 14.1934 27.9315 8
      vertex 16.8066 27.9315 8
      vertex 31 31 8
    endloop
  endfacet
  facet normal 0 -0 1
    outer loop
      vertex 23.8641 6.21069 8
      vertex 21.75 4.67468 8
      vertex 31 0 8
    endloop
  endfacet
  facet normal 1 0 -0
    outer loop
      vertex 31 0 8
      vertex 31 0 0
      vertex 31 31 0
    endloop
  endfacet
  facet normal 1 0 0
    outer loop
      vertex 31 31 8
      vertex 31 0 8
      vertex 31 31 0
    endloop
  endfacet
  facet normal 0.994522 0.104528 0
    outer loop
      vertex 3 15.5 8
      vertex 3.27316 12.9011 8
      vertex 3.27316 12.9011 2.1
    endloop
  endfacet
  facet normal 0.994522 0.104528 -2.80801e-16
    outer loop
      vertex 3.1051 14.5 4
      vertex 3 15.5 8
      vertex 3.27316 12.9011 2.1
    endloop
  endfacet
  facet normal 0.994522 0.104528 0
    outer loop
      vertex 3.1051 14.5 2.1
      vertex 3.1051 14.5 4
      vertex 3.27316 12.9011 2.1
    endloop
  endfacet
  facet normal 0.994522 0.104528 0
    outer loop
      vertex 3.1051 14.5 4
      vertex 3 15.5 4
      vertex 3 15.5 8
    endloop
  endfacet
  facet normal 0.951056 0.309017 0
    outer loop
      vertex 3.27316 12.9011 8
      vertex 4.08068 10.4158 8
      vertex 4.08068 10.4158 2.1
    endloop
  endfacet
  facet normal 0.951056 0.309017 0
    outer loop
      vertex 3.27316 12.9011 2.1
      vertex 3.27316 12.9011 8
      vertex 4.08068 10.4158 2.1
    endloop
  endfacet
  facet normal 0.866025 0.5 0
    outer loop
      vertex 4.08068 10.4158 8
      vertex 5.38729 8.15268 8
      vertex 5.38729 8.15268 2.1
    endloop
  endfacet
  facet normal 0.866025 0.5 0
    outer loop
      vertex 4.08068 10.4158 2.1
      vertex 4.08068 10.4158 8
      vertex 5.38729 8.15268 2.1
    endloop
  endfacet
  facet normal 0.743145 0.669131 0
    outer loop
      vertex 5.38729 8.15268 8
      vertex 7.13587 6.21069 8
      vertex 7.13587 6.21069 2.1
    endloop
  endfacet
  facet normal 0.743145 0.669131 0
    outer loop
      vertex 5.38729 8.15268 2.1
      vertex 5.38729 8.15268 8
      vertex 7.13587 6.21069 2.1
    endloop
  endfacet
  facet normal 0.587785 0.809017 -0
    outer loop
      vertex 9.25 4.67468 8
      vertex 9.25 4.67468 2.1
      vertex 7.13587 6.21069 8
    endloop
  endfacet
  facet normal 0.587785 0.809017 -0
    outer loop
      vertex 7.13587 6.21069 8
      vertex 9.25 4.67468 2.1
      vertex 7.13587 6.21069 2.1
    endloop
  endfacet
  facet normal 0.406736 0.913546 -0
    outer loop
      vertex 11.6373 3.61179 8
      vertex 11.6373 3.61179 2.1
      vertex 9.25 4.67468 8
    endloop
  endfacet
  facet normal 0.406736 0.913546 -0
    outer loop
      vertex 9.25 4.67468 8
      vertex 11.6373 3.61179 2.1
      vertex 9.25 4.67468 2.1
    endloop
  endfacet
  facet normal 0.207912 0.978148 -0
    outer loop
      vertex 14.1934 3.06848 8
      vertex 14.1934 3.06848 2.1
      vertex 11.6373 3.61179 8
    endloop
  endfacet
  facet normal 0.207912 0.978148 -0
    outer loop
      vertex 11.6373 3.61179 8
      vertex 14.1934 3.06848 2.1
      vertex 11.6373 3.61179 2.1
    endloop
  endfacet
  facet normal 0 1 0
    outer loop
      vertex 14.5 3.06848 4
      vertex 14.1934 3.06848 8
      vertex 16.5 3.06848 4
    endloop
  endfacet
  facet normal 0 1 0
    outer loop
      vertex 16.8066 3.06848 8
      vertex 16.8066 3.06848 2.1
      vertex 16.5 3.06848 4
    endloop
  endfacet
  facet normal 0 1 0
    outer loop
      vertex 16.8066 3.06848 8
      vertex 16.5 3.06848 4
      vertex 14.1934 3.06848 8
    endloop
  endfacet
  facet normal 0 1 0
    outer loop
      vertex 14.1934 3.06848 8
      vertex 14.5 3.06848 4
      vertex 14.5 3.06848 2.1
    endloop
  endfacet
  facet normal 0 1 -0
    outer loop
      vertex 14.1934 3.06848 8
      vertex 14.5 3.06848 2.1
      vertex 14.1934 3.06848 2.1
    endloop
  endfacet
  facet normal 0 1 -0
    outer loop
      vertex 16.5 3.06848 4
      vertex 16.8066 3.06848 2.1
      vertex 16.5 3.06848 2.1
    endloop
  endfacet
  facet normal -0.207912 0.978148 0
    outer loop
      vertex 19.3627 3.61179 8
      vertex 19.3627 3.61179 2.1
      vertex 16.8066 3.06848 8
    endloop
  endfacet
  facet normal -0.207912 0.978148 0
    outer loop
      vertex 16.8066 3.06848 8
      vertex 19.3627 3.61179 2.1
      vertex 16.8066 3.06848 2.1
    endloop
  endfacet
  facet normal -0.406736 0.913546 0
    outer loop
      vertex 21.75 4.67468 8
      vertex 21.75 4.67468 2.1
      vertex 19.3627 3.61179 8
    endloop
  endfacet
  facet normal -0.406736 0.913546 0
    outer loop
      vertex 19.3627 3.61179 8
      vertex 21.75 4.67468 2.1
      vertex 19.3627 3.61179 2.1
    endloop
  endfacet
  facet normal -0.587785 0.809017 0
    outer loop
      vertex 23.8641 6.21069 8
      vertex 23.8641 6.21069 2.1
      vertex 21.75 4.67468 8
    endloop
  endfacet
  facet normal -0.587785 0.809017 0
    outer loop
      vertex 21.75 4.67468 8
      vertex 23.8641 6.21069 2.1
      vertex 21.75 4.67468 2.1
    endloop
  endfacet
  facet normal -0.743145 0.669131 0
    outer loop
      vertex 25.6127 8.15268 8
      vertex 25.6127 8.15268 2.1
      vertex 23.8641 6.21069 8
    endloop
  endfacet
  facet normal -0.743145 0.669131 0
    outer loop
      vertex 23.8641 6.21069 8
      vertex 25.6127 8.15268 2.1
      vertex 23.8641 6.21069 2.1
    endloop
  endfacet
  facet normal -0.866025 0.5 0
    outer loop
      vertex 26.9193 10.4158 8
      vertex 26.9193 10.4158 2.1
      vertex 25.6127 8.15268 8
    endloop
  endfacet
  facet normal -0.866025 0.5 0
    outer loop
      vertex 25.6127 8.15268 8
      vertex 26.9193 10.4158 2.1
      vertex 25.6127 8.15268 2.1
    endloop
  endfacet
  facet normal -0.951056 0.309017 0
    outer loop
      vertex 27.7268 12.9011 8
      vertex 27.7268 12.9011 2.1
      vertex 26.9193 10.4158 8
    endloop
  endfacet
  facet normal -0.951056 0.309017 0
    outer loop
      vertex 26.9193 10.4158 8
      vertex 27.7268 12.9011 2.1
      vertex 26.9193 10.4158 2.1
    endloop
  endfacet
  facet normal -0.994522 0.104528 0
    outer loop
      vertex 28 15.5 8
      vertex 28 15.5 4
      vertex 27.7268 12.9011 8
    endloop
  endfacet
  facet normal -0.994522 0.104528 1.25143e-15
    outer loop
      vertex 27.7268 12.9011 8
      vertex 28 15.5 4
      vertex 27.8949 14.5 4
    endloop
  endfacet
  facet normal -0.994522 0.104528 0
    outer loop
      vertex 27.7268 12.9011 8
      vertex 27.8949 14.5 4
      vertex 27.8949 14.5 2.1
    endloop
  endfacet
  facet normal -0.994522 0.104528 0
    outer loop
      vertex 27.7268 12.9011 8
      vertex 27.8949 14.5 2.1
      vertex 27.7268 12.9011 2.1
    endloop
  endfacet
  facet normal -0.994522 -0.104528 0
    outer loop
      vertex 27.8949 16.5 4
      vertex 28 15.5 4
      vertex 28 15.5 8
    endloop
  endfacet
  facet normal -0.994522 -0.104528 4.81526e-16
    outer loop
      vertex 27.8949 16.5 4
      vertex 28 15.5 8
      vertex 27.7268 18.0989 8
    endloop
  endfacet
  facet normal -0.994522 -0.104528 0
    outer loop
      vertex 27.8949 16.5 4
      vertex 27.7268 18.0989 8
      vertex 27.8949 16.5 2.1
    endloop
  endfacet
  facet normal -0.994522 -0.104528 0
    outer loop
      vertex 27.7268 18.0989 8
      vertex 27.7268 18.0989 2.1
      vertex 27.8949 16.5 2.1
    endloop
  endfacet
  facet normal -0.951056 -0.309017 0
    outer loop
      vertex 27.7268 18.0989 8
      vertex 26.9193 20.5842 8
      vertex 27.7268 18.0989 2.1
    endloop
  endfacet
  facet normal -0.951056 -0.309017 0
    outer loop
      vertex 27.7268 18.0989 2.1
      vertex 26.9193 20.5842 8
      vertex 26.9193 20.5842 2.1
    endloop
  endfacet
  facet normal -0.866025 -0.5 0
    outer loop
      vertex 26.9193 20.5842 8
      vertex 25.6127 22.8473 8
      vertex 26.9193 20.5842 2.1
    endloop
  endfacet
  facet normal -0.866025 -0.5 0
    outer loop
      vertex 26.9193 20.5842 2.1
      vertex 25.6127 22.8473 8
      vertex 25.6127 22.8473 2.1
    endloop
  endfacet
  facet normal -0.743145 -0.669131 0
    outer loop
      vertex 25.6127 22.8473 8
      vertex 23.8641 24.7893 8
      vertex 25.6127 22.8473 2.1
    endloop
  endfacet
  facet normal -0.743145 -0.669131 0
    outer loop
      vertex 25.6127 22.8473 2.1
      vertex 23.8641 24.7893 8
      vertex 23.8641 24.7893 2.1
    endloop
  endfacet
  facet normal -0.587785 -0.809017 -0
    outer loop
      vertex 23.8641 24.7893 2.1
      vertex 23.8641 24.7893 8
      vertex 21.75 26.3253 8
    endloop
  endfacet
  facet normal -0.587785 -0.809017 -0
    outer loop
      vertex 21.75 26.3253 2.1
      vertex 23.8641 24.7893 2.1
      vertex 21.75 26.3253 8
    endloop
  endfacet
  facet normal -0.406736 -0.913546 -0
    outer loop
      vertex 21.75 26.3253 2.1
      vertex 21.75 26.3253 8
      vertex 19.3627 27.3882 8
    endloop
  endfacet
  facet normal -0.406736 -0.913546 -0
    outer loop
      vertex 19.3627 27.3882 2.1
      vertex 21.75 26.3253 2.1
      vertex 19.3627 27.3882 8
    endloop
  endfacet
  facet normal -0.207912 -0.978148 -0
    outer loop
      vertex 19.3627 27.3882 2.1
      vertex 19.3627 27.3882 8
      vertex 16.8066 27.9315 8
    endloop
  endfacet
  facet normal -0.207912 -0.978148 -0
    outer loop
      vertex 16.8066 27.9315 2.1
      vertex 19.3627 27.3882 2.1
      vertex 16.8066 27.9315 8
    endloop
  endfacet
  facet normal 0 -1 0
    outer loop
      vertex 16.8066 27.9315 8
      vertex 14.5 27.9315 4
      vertex 16.5 27.9315 4
    endloop
  endfacet
  facet normal 0 -1 0
    outer loop
      vertex 14.5 27.9315 2.1
      vertex 14.5 27.9315 4
      vertex 14.1934 27.9315 8
    endloop
  endfacet
  facet normal -0 -1 -0
    outer loop
      vertex 16.5 27.9315 2.1
      vertex 16.8066 27.9315 2.1
      vertex 16.5 27.9315 4
    endloop
  endfacet
  facet normal 0 -1 0
    outer loop
      vertex 16.8066 27.9315 2.1
      vertex 16.8066 27.9315 8
      vertex 16.5 27.9315 4
    endloop
  endfacet
  facet normal 0 -1 0
    outer loop
      vertex 16.8066 27.9315 8
      vertex 14.1934 27.9315 8
      vertex 14.5 27.9315 4
    endloop
  endfacet
  facet normal 0 -1 0
    outer loop
      vertex 14.1934 27.9315 8
      vertex 14.1934 27.9315 2.1
      vertex 14.5 27.9315 2.1
    endloop
  endfacet
  facet normal 0.207912 -0.978148 0
    outer loop
      vertex 14.1934 27.9315 2.1
      vertex 14.1934 27.9315 8
      vertex 11.6373 27.3882 8
    endloop
  endfacet
  facet normal 0.207912 -0.978148 0
    outer loop
      vertex 11.6373 27.3882 2.1
      vertex 14.1934 27.9315 2.1
      vertex 11.6373 27.3882 8
    endloop
  endfacet
  facet normal 0.406736 -0.913546 0
    outer loop
      vertex 11.6373 27.3882 2.1
      vertex 11.6373 27.3882 8
      vertex 9.25 26.3253 8
    endloop
  endfacet
  facet normal 0.406736 -0.913546 0
    outer loop
      vertex 9.25 26.3253 2.1
      vertex 11.6373 27.3882 2.1
      vertex 9.25 26.3253 8
    endloop
  endfacet
  facet normal 0.587785 -0.809017 0
    outer loop
      vertex 9.25 26.3253 2.1
      vertex 9.25 26.3253 8
      vertex 7.13587 24.7893 8
    endloop
  endfacet
  facet normal 0.587785 -0.809017 0
    outer loop
      vertex 7.13587 24.7893 2.1
      vertex 9.25 26.3253 2.1
      vertex 7.13587 24.7893 8
    endloop
  endfacet
  facet normal 0.743145 -0.669131 0
    outer loop
      vertex 7.13587 24.7893 2.1
      vertex 7.13587 24.7893 8
      vertex 5.38729 22.8473 8
    endloop
  endfacet
  facet normal 0.743145 -0.669131 0
    outer loop
      vertex 5.38729 22.8473 2.1
      vertex 7.13587 24.7893 2.1
      vertex 5.38729 22.8473 8
    endloop
  endfacet
  facet normal 0.866025 -0.5 0
    outer loop
      vertex 5.38729 22.8473 2.1
      vertex 5.38729 22.8473 8
      vertex 4.08068 20.5842 8
    endloop
  endfacet
  facet normal 0.866025 -0.5 0
    outer loop
      vertex 4.08068 20.5842 2.1
      vertex 5.38729 22.8473 2.1
      vertex 4.08068 20.5842 8
    endloop
  endfacet
  facet normal 0.951056 -0.309017 0
    outer loop
      vertex 4.08068 20.5842 2.1
      vertex 4.08068 20.5842 8
      vertex 3.27316 18.0989 8
    endloop
  endfacet
  facet normal 0.951056 -0.309017 0
    outer loop
      vertex 3.27316 18.0989 2.1
      vertex 4.08068 20.5842 2.1
      vertex 3.27316 18.0989 8
    endloop
  endfacet
  facet normal 0.994522 -0.104528 0
    outer loop
      vertex 3.1051 16.5 4
      vertex 3.1051 16.5 2.1
      vertex 3.27316 18.0989 2.1
    endloop
  endfacet
  facet normal 0.994522 -0.104528 -1.1018e-17
    outer loop
      vertex 3 15.5 8
      vertex 3.1051 16.5 4
      vertex 3.27316 18.0989 8
    endloop
  endfacet
  facet normal 0.994522 -0.104528 0
    outer loop
      vertex 3.27316 18.0989 8
      vertex 3.1051 16.5 4
      vertex 3.27316 18.0989 2.1
    endloop
  endfacet
  facet normal 0.994522 -0.104528 0
    outer loop
      vertex 3 15.5 4
      vertex 3.1051 16.5 4
      vertex 3 15.5 8
    endloop
  endfacet
  facet normal 0 0 1
    outer loop
      vertex 3.1051 16.5 4
      vertex 3 15.5 4
      vertex 3.1051 14.5 4
    endloop
  endfacet
  facet normal -0 -0 1
    outer loop
      vertex 10 15.5 4
      vertex 3.1051 16.5 4
      vertex 10.2679 14.5 4
    endloop
  endfacet
  facet normal -0 0 1
    outer loop
      vertex 10.2679 14.5 4
      vertex 3.1051 16.5 4
      vertex 3.1051 14.5 4
    endloop
  endfacet
  facet normal 0 0 1
    outer loop
      vertex 10.2679 16.5 4
      vertex 3.1051 16.5 4
      vertex 10 15.5 4
    endloop
  endfacet
  facet normal 0 -1 0
    outer loop
      vertex 3.1051 14.5 4
      vertex 3.1051 14.5 2.1
      vertex 10.2679 14.5 2.1
    endloop
  endfacet
  facet normal 0 -1 0
    outer loop
      vertex 10.2679 14.5 4
      vertex 3.1051 14.5 4
      vertex 10.2679 14.5 2.1
    endloop
  endfacet
  facet normal 0 0 1
    outer loop
      vertex 3.27316 12.9011 2.1
      vertex 4.08068 10.4158 2.1
      vertex 5.38729 8.15268 2.1
    endloop
  endfacet
  facet normal 0 0 1
    outer loop
      vertex 9.25 4.67468 2.1
      vertex 3.27316 12.9011 2.1
      vertex 7.13587 6.21069 2.1
    endloop
  endfacet
  facet normal 0 0 1
    outer loop
      vertex 7.13587 6.21069 2.1
      vertex 3.27316 12.9011 2.1
      vertex 5.38729 8.15268 2.1
    endloop
  endfacet
  facet normal 0 0 1
    outer loop
      vertex 11.6373 3.61179 2.1
      vertex 3.27316 12.9011 2.1
      vertex 9.25 4.67468 2.1
    endloop
  endfacet
  facet normal 0 0 1
    outer loop
      vertex 14.1934 3.06848 2.1
      vertex 3.27316 12.9011 2.1
      vertex 11.6373 3.61179 2.1
    endloop
  endfacet
  facet normal -0 0 1
    outer loop
      vertex 14.5 3.06848 2.1
      vertex 3.27316 12.9011 2.1
      vertex 14.1934 3.06848 2.1
    endloop
  endfacet
  facet normal -0 0 1
    outer loop
      vertex 14.5 10.2679 2.1
      vertex 3.27316 12.9011 2.1
      vertex 14.5 3.06848 2.1
    endloop
  endfacet
  facet normal -0 -0 1
    outer loop
      vertex 12.75 10.7369 2.1
      vertex 3.27316 12.9011 2.1
      vertex 14.5 10.2679 2.1
    endloop
  endfacet
  facet normal -0 -0 1
    outer loop
      vertex 10.7369 12.75 2.1
      vertex 3.27316 12.9011 2.1
      vertex 12.75 10.7369 2.1
    endloop
  endfacet
  facet normal 0 -0 1
    outer loop
      vertex 10.2679 14.5 2.1
      vertex 3.27316 12.9011 2.1
      vertex 10.7369 12.75 2.1
    endloop
  endfacet
  facet normal 0 0 1
    outer loop
      vertex 3.1051 14.5 2.1
      vertex 3.27316 12.9011 2.1
      vertex 10.2679 14.5 2.1
    endloop
  endfacet
  facet normal -1 -0 -0
    outer loop
      vertex 14.5 3.06848 2.1
      vertex 14.5 3.06848 4
      vertex 14.5 10.2679 2.1
    endloop
  endfacet
  facet normal -1 0 0
    outer loop
      vertex 14.5 10.2679 2.1
      vertex 14.5 3.06848 4
      vertex 14.5 10.2679 4
    endloop
  endfacet
  facet normal 0 -0 1
    outer loop
      vertex 14.5 10.2679 4
      vertex 14.5 3.06848 4
      vertex 16.5 3.06848 4
    endloop
  endfacet
  facet normal -0 -0 1
    outer loop
      vertex 15.5 10 4
      vertex 14.5 10.2679 4
      vertex 16.5 3.06848 4
    endloop
  endfacet
  facet normal 0 0 1
    outer loop
      vertex 16.5 10.2679 4
      vertex 15.5 10 4
      vertex 16.5 3.06848 4
    endloop
  endfacet
  facet normal 1 0 -0
    outer loop
      vertex 16.5 3.06848 4
      vertex 16.5 3.06848 2.1
      vertex 16.5 10.2679 2.1
    endloop
  endfacet
  facet normal 1 0 0
    outer loop
      vertex 16.5 10.2679 4
      vertex 16.5 3.06848 4
      vertex 16.5 10.2679 2.1
    endloop
  endfacet
  facet normal 0 0 1
    outer loop
      vertex 16.8066 3.06848 2.1
      vertex 19.3627 3.61179 2.1
      vertex 21.75 4.67468 2.1
    endloop
  endfacet
  facet normal 0 0 1
    outer loop
      vertex 25.6127 8.15268 2.1
      vertex 16.8066 3.06848 2.1
      vertex 23.8641 6.21069 2.1
    endloop
  endfacet
  facet normal 0 0 1
    outer loop
      vertex 23.8641 6.21069 2.1
      vertex 16.8066 3.06848 2.1
      vertex 21.75 4.67468 2.1
    endloop
  endfacet
  facet normal 0 0 1
    outer loop
      vertex 26.9193 10.4158 2.1
      vertex 16.8066 3.06848 2.1
      vertex 25.6127 8.15268 2.1
    endloop
  endfacet
  facet normal 0 0 1
    outer loop
      vertex 27.7268 12.9011 2.1
      vertex 16.8066 3.06848 2.1
      vertex 26.9193 10.4158 2.1
    endloop
  endfacet
  facet normal 0 0 1
    outer loop
      vertex 27.8949 14.5 2.1
      vertex 16.8066 3.06848 2.1
      vertex 27.7268 12.9011 2.1
    endloop
  endfacet
  facet normal 0 -0 1
    outer loop
      vertex 20.2631 12.75 2.1
      vertex 16.8066 3.06848 2.1
      vertex 27.8949 14.5 2.1
    endloop
  endfacet
  facet normal 0 -0 1
    outer loop
      vertex 20.7321 14.5 2.1
      vertex 20.2631 12.75 2.1
      vertex 27.8949 14.5 2.1
    endloop
  endfacet
  facet normal 0 0 1
    outer loop
      vertex 16.5 10.2679 2.1
      vertex 16.8066 3.06848 2.1
      vertex 18.25 10.7369 2.1
    endloop
  endfacet
  facet normal 0 0 1
    outer loop
      vertex 16.5 3.06848 2.1
      vertex 16.8066 3.06848 2.1
      vertex 16.5 10.2679 2.1
    endloop
  endfacet
  facet normal 0 0 1
    outer loop
      vertex 20.2631 12.75 2.1
      vertex 18.25 10.7369 2.1
      vertex 16.8066 3.06848 2.1
    endloop
  endfacet
  facet normal 0 -1 0
    outer loop
      vertex 20.7321 14.5 4
      vertex 20.7321 14.5 2.1
      vertex 27.8949 14.5 2.1
    endloop
  endfacet
  facet normal 0 -1 0
    outer loop
      vertex 27.8949 14.5 4
      vertex 20.7321 14.5 4
      vertex 27.8949 14.5 2.1
    endloop
  endfacet
  facet normal 0 -0 1
    outer loop
      vertex 21 15.5 4
      vertex 20.7321 14.5 4
      vertex 27.8949 14.5 4
    endloop
  endfacet
  facet normal 0 -0 1
    outer loop
      vertex 27.8949 16.5 4
      vertex 21 15.5 4
      vertex 28 15.5 4
    endloop
  endfacet
  facet normal 0 0 1
    outer loop
      vertex 28 15.5 4
      vertex 21 15.5 4
      vertex 27.8949 14.5 4
    endloop
  endfacet
  facet normal 0 0 1
    outer loop
      vertex 20.7321 16.5 4
      vertex 21 15.5 4
      vertex 27.8949 16.5 4
    endloop
  endfacet
  facet normal 0 0 1
    outer loop
      vertex 18.25 20.2631 2.1
      vertex 20.2631 18.25 2.1
      vertex 27.8949 16.5 2.1
    endloop
  endfacet
  facet normal -0 0 1
    outer loop
      vertex 27.8949 16.5 2.1
      vertex 20.2631 18.25 2.1
      vertex 20.7321 16.5 2.1
    endloop
  endfacet
  facet normal 0 0 1
    outer loop
      vertex 18.25 20.2631 2.1
      vertex 27.8949 16.5 2.1
      vertex 27.7268 18.0989 2.1
    endloop
  endfacet
  facet normal 0 0 1
    outer loop
      vertex 18.25 20.2631 2.1
      vertex 27.7268 18.0989 2.1
      vertex 26.9193 20.5842 2.1
    endloop
  endfacet
  facet normal 0 0 1
    outer loop
      vertex 18.25 20.2631 2.1
      vertex 26.9193 20.5842 2.1
      vertex 25.6127 22.8473 2.1
    endloop
  endfacet
  facet normal 0 0 1
    outer loop
      vertex 18.25 20.2631 2.1
      vertex 25.6127 22.8473 2.1
      vertex 23.8641 24.7893 2.1
    endloop
  endfacet
  facet normal 0 0 1
    outer loop
      vertex 18.25 20.2631 2.1
      vertex 23.8641 24.7893 2.1
      vertex 21.75 26.3253 2.1
    endloop
  endfacet
  facet normal 0 0 1
    outer loop
      vertex 18.25 20.2631 2.1
      vertex 21.75 26.3253 2.1
      vertex 19.3627 27.3882 2.1
    endloop
  endfacet
  facet normal 0 0 1
    outer loop
      vertex 18.25 20.2631 2.1
      vertex 19.3627 27.3882 2.1
      vertex 16.8066 27.9315 2.1
    endloop
  endfacet
  facet normal 0 0 1
    outer loop
      vertex 18.25 20.2631 2.1
      vertex 16.8066 27.9315 2.1
      vertex 16.5 27.9315 2.1
    endloop
  endfacet
  facet normal 0 0 1
    outer loop
      vertex 18.25 20.2631 2.1
      vertex 16.5 27.9315 2.1
      vertex 16.5 20.7321 2.1
    endloop
  endfacet
  facet normal 0 1 0
    outer loop
      vertex 20.7321 16.5 2.1
      vertex 20.7321 16.5 4
      vertex 27.8949 16.5 2.1
    endloop
  endfacet
  facet normal 0 1 0
    outer loop
      vertex 27.8949 16.5 2.1
      vertex 20.7321 16.5 4
      vertex 27.8949 16.5 4
    endloop
  endfacet
  facet normal 0 0 1
    outer loop
      vertex 14.5 27.9315 2.1
      vertex 10.7369 18.25 2.1
      vertex 12.75 20.2631 2.1
    endloop
  endfacet
  facet normal 0 0 1
    outer loop
      vertex 10.2679 16.5 2.1
      vertex 10.7369 18.25 2.1
      vertex 11.6373 27.3882 2.1
    endloop
  endfacet
  facet normal -0 0 1
    outer loop
      vertex 14.5 20.7321 2.1
      vertex 14.5 27.9315 2.1
      vertex 12.75 20.2631 2.1
    endloop
  endfacet
  facet normal 0 0 1
    outer loop
      vertex 14.5 27.9315 2.1
      vertex 14.1934 27.9315 2.1
      vertex 10.7369 18.25 2.1
    endloop
  endfacet
  facet normal 0 0 1
    outer loop
      vertex 14.1934 27.9315 2.1
      vertex 11.6373 27.3882 2.1
      vertex 10.7369 18.25 2.1
    endloop
  endfacet
  facet normal 0 0 1
    outer loop
      vertex 11.6373 27.3882 2.1
      vertex 9.25 26.3253 2.1
      vertex 10.2679 16.5 2.1
    endloop
  endfacet
  facet normal 0 -0 1
    outer loop
      vertex 9.25 26.3253 2.1
      vertex 7.13587 24.7893 2.1
      vertex 10.2679 16.5 2.1
    endloop
  endfacet
  facet normal 0 -0 1
    outer loop
      vertex 7.13587 24.7893 2.1
      vertex 5.38729 22.8473 2.1
      vertex 10.2679 16.5 2.1
    endloop
  endfacet
  facet normal 0 -0 1
    outer loop
      vertex 5.38729 22.8473 2.1
      vertex 4.08068 20.5842 2.1
      vertex 10.2679 16.5 2.1
    endloop
  endfacet
  facet normal 0 -0 1
    outer loop
      vertex 4.08068 20.5842 2.1
      vertex 3.27316 18.0989 2.1
      vertex 10.2679 16.5 2.1
    endloop
  endfacet
  facet normal 0 -0 1
    outer loop
      vertex 3.27316 18.0989 2.1
      vertex 3.1051 16.5 2.1
      vertex 10.2679 16.5 2.1
    endloop
  endfacet
  facet normal -1 2.46734e-16 0
    outer loop
      vertex 14.5 20.7321 2.1
      vertex 14.5 20.7321 4
      vertex 14.5 27.9315 2.1
    endloop
  endfacet
  facet normal -1 2.46734e-16 0
    outer loop
      vertex 14.5 27.9315 2.1
      vertex 14.5 20.7321 4
      vertex 14.5 27.9315 4
    endloop
  endfacet
  facet normal 1 0 -0
    outer loop
      vertex 16.5 20.7321 4
      vertex 16.5 20.7321 2.1
      vertex 16.5 27.9315 2.1
    endloop
  endfacet
  facet normal 1 0 0
    outer loop
      vertex 16.5 27.9315 4
      vertex 16.5 20.7321 4
      vertex 16.5 27.9315 2.1
    endloop
  endfacet
  facet normal 0 -0 1
    outer loop
      vertex 14.5 27.9315 4
      vertex 14.5 20.7321 4
      vertex 15.5 21 4
    endloop
  endfacet
  facet normal 0 0 1
    outer loop
      vertex 16.5 20.7321 4
      vertex 14.5 27.9315 4
      vertex 15.5 21 4
    endloop
  endfacet
  facet normal 0 0 1
    outer loop
      vertex 16.5 20.7321 4
      vertex 16.5 27.9315 4
      vertex 14.5 27.9315 4
    endloop
  endfacet
  facet normal 0 1 0
    outer loop
      vertex 3.1051 16.5 2.1
      vertex 3.1051 16.5 4
      vertex 10.2679 16.5 2.1
    endloop
  endfacet
  facet normal 0 1 0
    outer loop
      vertex 10.2679 16.5 2.1
      vertex 3.1051 16.5 4
      vertex 10.2679 16.5 4
    endloop
  endfacet
  facet normal -0.965926 0.258819 0
    outer loop
      vertex 10 15.5 4
      vertex 10 15.5 6.1
      vertex 10.2679 16.5 4
    endloop
  endfacet
  facet normal -0.965926 0.258819 5.2401e-16
    outer loop
      vertex 10.2679 16.5 4
      vertex 10 15.5 6.1
      vertex 10.7369 18.25 6.1
    endloop
  endfacet
  facet normal -0.965926 0.258819 0
    outer loop
      vertex 10.2679 16.5 4
      vertex 10.7369 18.25 6.1
      vertex 10.7369 18.25 2.1
    endloop
  endfacet
  facet normal -0.965926 0.258819 0
    outer loop
      vertex 10.2679 16.5 4
      vertex 10.7369 18.25 2.1
      vertex 10.2679 16.5 2.1
    endloop
  endfacet
  facet normal -0.965926 -0.258819 -0
    outer loop
      vertex 10 15.5 4
      vertex 10.2679 14.5 4
      vertex 10 15.5 6.1
    endloop
  endfacet
  facet normal -0.965926 -0.258819 0
    outer loop
      vertex 10.7369 12.75 2.1
      vertex 10.2679 14.5 4
      vertex 10.2679 14.5 2.1
    endloop
  endfacet
  facet normal -0.965926 -0.258819 1.69166e-15
    outer loop
      vertex 10 15.5 6.1
      vertex 10.2679 14.5 4
      vertex 10.7369 12.75 2.1
    endloop
  endfacet
  facet normal -0.965926 -0.258819 0
    outer loop
      vertex 10 15.5 6.1
      vertex 10.7369 12.75 2.1
      vertex 10.7369 12.75 6.1
    endloop
  endfacet
  facet normal -0.707107 -0.707107 0
    outer loop
      vertex 10.7369 12.75 6.1
      vertex 10.7369 12.75 2.1
      vertex 12.75 10.7369 2.1
    endloop
  endfacet
  facet normal -0.707107 -0.707107 0
    outer loop
      vertex 12.75 10.7369 6.1
      vertex 10.7369 12.75 6.1
      vertex 12.75 10.7369 2.1
    endloop
  endfacet
  facet normal -0.258819 -0.965926 0
    outer loop
      vertex 12.75 10.7369 6.1
      vertex 12.75 10.7369 2.1
      vertex 14.5 10.2679 2.1
    endloop
  endfacet
  facet normal -0.258819 -0.965926 1.97408e-15
    outer loop
      vertex 15.5 10 4
      vertex 12.75 10.7369 6.1
      vertex 14.5 10.2679 4
    endloop
  endfacet
  facet normal -0.258819 -0.965926 0
    outer loop
      vertex 14.5 10.2679 4
      vertex 12.75 10.7369 6.1
      vertex 14.5 10.2679 2.1
    endloop
  endfacet
  facet normal -0.258819 -0.965926 0
    outer loop
      vertex 15.5 10 6.1
      vertex 12.75 10.7369 6.1
      vertex 15.5 10 4
    endloop
  endfacet
  facet normal 0.258819 -0.965926 0
    outer loop
      vertex 15.5 10 6.1
      vertex 15.5 10 4
      vertex 16.5 10.2679 4
    endloop
  endfacet
  facet normal 0.258819 -0.965926 2.67095e-16
    outer loop
      vertex 18.25 10.7369 2.1
      vertex 15.5 10 6.1
      vertex 16.5 10.2679 4
    endloop
  endfacet
  facet normal 0.258819 -0.965926 0
    outer loop
      vertex 16.5 10.2679 2.1
      vertex 18.25 10.7369 2.1
      vertex 16.5 10.2679 4
    endloop
  endfacet
  facet normal 0.258819 -0.965926 0
    outer loop
      vertex 18.25 10.7369 2.1
      vertex 18.25 10.7369 6.1
      vertex 15.5 10 6.1
    endloop
  endfacet
  facet normal 0.707107 -0.707107 0
    outer loop
      vertex 18.25 10.7369 6.1
      vertex 18.25 10.7369 2.1
      vertex 20.2631 12.75 2.1
    endloop
  endfacet
  facet normal 0.707107 -0.707107 0
    outer loop
      vertex 20.2631 12.75 6.1
      vertex 18.25 10.7369 6.1
      vertex 20.2631 12.75 2.1
    endloop
  endfacet
  facet normal 0.965926 -0.258819 0
    outer loop
      vertex 20.2631 12.75 6.1
      vertex 20.2631 12.75 2.1
      vertex 20.7321 14.5 2.1
    endloop
  endfacet
  facet normal 0.965926 -0.258819 -8.15631e-16
    outer loop
      vertex 21 15.5 4
      vertex 20.2631 12.75 6.1
      vertex 20.7321 14.5 4
    endloop
  endfacet
  facet normal 0.965926 -0.258819 0
    outer loop
      vertex 20.7321 14.5 4
      vertex 20.2631 12.75 6.1
      vertex 20.7321 14.5 2.1
    endloop
  endfacet
  facet normal 0.965926 -0.258819 0
    outer loop
      vertex 21 15.5 6.1
      vertex 20.2631 12.75 6.1
      vertex 21 15.5 4
    endloop
  endfacet
  facet normal 0.965926 0.258819 0
    outer loop
      vertex 20.7321 16.5 2.1
      vertex 20.2631 18.25 2.1
      vertex 20.2631 18.25 6.1
    endloop
  endfacet
  facet normal 0.965926 0.258819 -0
    outer loop
      vertex 20.7321 16.5 4
      vertex 20.7321 16.5 2.1
      vertex 20.2631 18.25 6.1
    endloop
  endfacet
  facet normal 0.965926 0.258819 -2.96593e-16
    outer loop
      vertex 21 15.5 6.1
      vertex 20.7321 16.5 4
      vertex 20.2631 18.25 6.1
    endloop
  endfacet
  facet normal 0.965926 0.258819 0
    outer loop
      vertex 21 15.5 4
      vertex 20.7321 16.5 4
      vertex 21 15.5 6.1
    endloop
  endfacet
  facet normal 0.707107 0.707107 0
    outer loop
      vertex 18.25 20.2631 2.1
      vertex 18.25 20.2631 6.1
      vertex 20.2631 18.25 2.1
    endloop
  endfacet
  facet normal 0.707107 0.707107 0
    outer loop
      vertex 20.2631 18.25 2.1
      vertex 18.25 20.2631 6.1
      vertex 20.2631 18.25 6.1
    endloop
  endfacet
  facet normal 0.258819 0.965926 0
    outer loop
      vertex 15.5 21 4
      vertex 15.5 21 6.1
      vertex 16.5 20.7321 4
    endloop
  endfacet
  facet normal 0.258819 0.965926 -2.97348e-16
    outer loop
      vertex 16.5 20.7321 4
      vertex 15.5 21 6.1
      vertex 18.25 20.2631 6.1
    endloop
  endfacet
  facet normal 0.258819 0.965926 0
    outer loop
      vertex 16.5 20.7321 4
      vertex 18.25 20.2631 6.1
      vertex 18.25 20.2631 2.1
    endloop
  endfacet
  facet normal 0.258819 0.965926 -0
    outer loop
      vertex 16.5 20.7321 4
      vertex 18.25 20.2631 2.1
      vertex 16.5 20.7321 2.1
    endloop
  endfacet
  facet normal -0.258819 0.965926 0
    outer loop
      vertex 12.75 20.2631 2.1
      vertex 12.75 20.2631 6.1
      vertex 14.5 20.7321 2.1
    endloop
  endfacet
  facet normal -0.258819 0.965926 -2.97348e-16
    outer loop
      vertex 14.5 20.7321 4
      vertex 12.75 20.2631 6.1
      vertex 15.5 21 6.1
    endloop
  endfacet
  facet normal -0.258819 0.965926 0
    outer loop
      vertex 14.5 20.7321 2.1
      vertex 12.75 20.2631 6.1
      vertex 14.5 20.7321 4
    endloop
  endfacet
  facet normal -0.258819 0.965926 0
    outer loop
      vertex 14.5 20.7321 4
      vertex 15.5 21 6.1
      vertex 15.5 21 4
    endloop
  endfacet
  facet normal -0.707107 0.707107 0
    outer loop
      vertex 10.7369 18.25 2.1
      vertex 10.7369 18.25 6.1
      vertex 12.75 20.2631 2.1
    endloop
  endfacet
  facet normal -0.707107 0.707107 0
    outer loop
      vertex 12.75 20.2631 2.1
      vertex 10.7369 18.25 6.1
      vertex 12.75 20.2631 6.1
    endloop
  endfacet
  facet normal 0 0 1
    outer loop
      vertex 10.7369 18.25 6.1
      vertex 10 15.5 6.1
      vertex 10.7369 12.75 6.1
    endloop
  endfacet
  facet normal 0 0 1
    outer loop
      vertex 15.5 10 6.1
      vertex 10.7369 18.25 6.1
      vertex 12.75 10.7369 6.1
    endloop
  endfacet
  facet normal 0 0 1
    outer loop
      vertex 12.75 10.7369 6.1
      vertex 10.7369 18.25 6.1
      vertex 10.7369 12.75 6.1
    endloop
  endfacet
  facet normal -0 -0 1
    outer loop
      vertex 14.1144 14.7 6.1
      vertex 10.7369 18.25 6.1
      vertex 15.5 10 6.1
    endloop
  endfacet
  facet normal -0 -0 1
    outer loop
      vertex 15.5 13.9 6.1
      vertex 14.7 14.1144 6.1
      vertex 18.25 10.7369 6.1
    endloop
  endfacet
  facet normal 0 0 1
    outer loop
      vertex 14.7 16.8856 6.1
      vertex 15.5 17.1 6.1
      vertex 10.7369 18.25 6.1
    endloop
  endfacet
  facet normal 0 -0 1
    outer loop
      vertex 18.25 20.2631 6.1
      vertex 10.7369 18.25 6.1
      vertex 20.2631 18.25 6.1
    endloop
  endfacet
  facet normal 0 -0 1
    outer loop
      vertex 15.5 21 6.1
      vertex 10.7369 18.25 6.1
      vertex 18.25 20.2631 6.1
    endloop
  endfacet
  facet normal 0 -0 1
    outer loop
      vertex 12.75 20.2631 6.1
      vertex 10.7369 18.25 6.1
      vertex 15.5 21 6.1
    endloop
  endfacet
  facet normal -0 -0 1
    outer loop
      vertex 14.7 14.1144 6.1
      vertex 14.1144 14.7 6.1
      vertex 15.5 10 6.1
    endloop
  endfacet
  facet normal -0 0 1
    outer loop
      vertex 14.1144 16.3 6.1
      vertex 10.7369 18.25 6.1
      vertex 13.9 15.5 6.1
    endloop
  endfacet
  facet normal 0 0 1
    outer loop
      vertex 16.3 16.8856 6.1
      vertex 16.8856 16.3 6.1
      vertex 21 15.5 6.1
    endloop
  endfacet
  facet normal 0 -0 1
    outer loop
      vertex 16.8856 14.7 6.1
      vertex 16.3 14.1144 6.1
      vertex 20.2631 12.75 6.1
    endloop
  endfacet
  facet normal 0 0 1
    outer loop
      vertex 20.2631 18.25 6.1
      vertex 10.7369 18.25 6.1
      vertex 15.5 17.1 6.1
    endloop
  endfacet
  facet normal 0 -0 1
    outer loop
      vertex 20.2631 18.25 6.1
      vertex 16.3 16.8856 6.1
      vertex 21 15.5 6.1
    endloop
  endfacet
  facet normal 0 0 1
    outer loop
      vertex 20.2631 18.25 6.1
      vertex 15.5 17.1 6.1
      vertex 16.3 16.8856 6.1
    endloop
  endfacet
  facet normal -0 0 1
    outer loop
      vertex 21 15.5 6.1
      vertex 16.8856 16.3 6.1
      vertex 20.2631 12.75 6.1
    endloop
  endfacet
  facet normal 0 0 1
    outer loop
      vertex 16.8856 16.3 6.1
      vertex 17.1 15.5 6.1
      vertex 20.2631 12.75 6.1
    endloop
  endfacet
  facet normal 0 -0 1
    outer loop
      vertex 17.1 15.5 6.1
      vertex 16.8856 14.7 6.1
      vertex 20.2631 12.75 6.1
    endloop
  endfacet
  facet normal -0 0 1
    outer loop
      vertex 20.2631 12.75 6.1
      vertex 16.3 14.1144 6.1
      vertex 18.25 10.7369 6.1
    endloop
  endfacet
  facet normal 0 -0 1
    outer loop
      vertex 16.3 14.1144 6.1
      vertex 15.5 13.9 6.1
      vertex 18.25 10.7369 6.1
    endloop
  endfacet
  facet normal -0 0 1
    outer loop
      vertex 18.25 10.7369 6.1
      vertex 14.7 14.1144 6.1
      vertex 15.5 10 6.1
    endloop
  endfacet
  facet normal 0 0 1
    outer loop
      vertex 14.1144 14.7 6.1
      vertex 13.9 15.5 6.1
      vertex 10.7369 18.25 6.1
    endloop
  endfacet
  facet normal 0 0 1
    outer loop
      vertex 14.1144 16.3 6.1
      vertex 14.7 16.8856 6.1
      vertex 10.7369 18.25 6.1
    endloop
  endfacet
  facet normal -0.965926 -0.258819 -0
    outer loop
      vertex 13.9 15.5 6.1
      vertex 14.1144 14.7 6.1
      vertex 13.9 15.5 8
    endloop
  endfacet
  facet normal -0.965926 -0.258819 0
    outer loop
      vertex 13.9 15.5 8
      vertex 14.1144 14.7 6.1
      vertex 14.1144 14.7 8
    endloop
  endfacet
  facet normal -0.707107 -0.707107 0
    outer loop
      vertex 14.1144 14.7 8
      vertex 14.1144 14.7 6.1
      vertex 14.7 14.1144 6.1
    endloop
  endfacet
  facet normal -0.707107 -0.707107 0
    outer loop
      vertex 14.7 14.1144 8
      vertex 14.1144 14.7 8
      vertex 14.7 14.1144 6.1
    endloop
  endfacet
  facet normal -0.258819 -0.965926 0
    outer loop
      vertex 14.7 14.1144 8
      vertex 14.7 14.1144 6.1
      vertex 15.5 13.9 6.1
    endloop
  endfacet
  facet normal -0.258819 -0.965926 0
    outer loop
      vertex 15.5 13.9 8
      vertex 14.7 14.1144 8
      vertex 15.5 13.9 6.1
    endloop
  endfacet
  facet normal 0.258819 -0.965926 0
    outer loop
      vertex 15.5 13.9 8
      vertex 15.5 13.9 6.1
      vertex 16.3 14.1144 6.1
    endloop
  endfacet
  facet normal 0.258819 -0.965926 0
    outer loop
      vertex 16.3 14.1144 8
      vertex 15.5 13.9 8
      vertex 16.3 14.1144 6.1
    endloop
  endfacet
  facet normal 0.707107 -0.707107 0
    outer loop
      vertex 16.3 14.1144 8
      vertex 16.3 14.1144 6.1
      vertex 16.8856 14.7 6.1
    endloop
  endfacet
  facet normal 0.707107 -0.707107 0
    outer loop
      vertex 16.8856 14.7 8
      vertex 16.3 14.1144 8
      vertex 16.8856 14.7 6.1
    endloop
  endfacet
  facet normal 0.965926 -0.258819 0
    outer loop
      vertex 16.8856 14.7 8
      vertex 16.8856 14.7 6.1
      vertex 17.1 15.5 6.1
    endloop
  endfacet
  facet normal 0.965926 -0.258819 0
    outer loop
      vertex 17.1 15.5 8
      vertex 16.8856 14.7 8
      vertex 17.1 15.5 6.1
    endloop
  endfacet
  facet normal 0.965926 0.258819 0
    outer loop
      vertex 17.1 15.5 6.1
      vertex 16.8856 16.3 6.1
      vertex 16.8856 16.3 8
    endloop
  endfacet
  facet normal 0.965926 0.258819 -0
    outer loop
      vertex 17.1 15.5 8
      vertex 17.1 15.5 6.1
      vertex 16.8856 16.3 8
    endloop
  endfacet
  facet normal 0.707107 0.707107 0
    outer loop
      vertex 16.3 16.8856 6.1
      vertex 16.3 16.8856 8
      vertex 16.8856 16.3 6.1
    endloop
  endfacet
  facet normal 0.707107 0.707107 0
    outer loop
      vertex 16.8856 16.3 6.1
      vertex 16.3 16.8856 8
      vertex 16.8856 16.3 8
    endloop
  endfacet
  facet normal 0.258819 0.965926 0
    outer loop
      vertex 15.5 17.1 6.1
      vertex 15.5 17.1 8
      vertex 16.3 16.8856 6.1
    endloop
  endfacet
  facet normal 0.258819 0.965926 0
    outer loop
      vertex 16.3 16.8856 6.1
      vertex 15.5 17.1 8
      vertex 16.3 16.8856 8
    endloop
  endfacet
  facet normal -0.258819 0.965926 0
    outer loop
      vertex 14.7 16.8856 6.1
      vertex 14.7 16.8856 8
      vertex 15.5 17.1 6.1
    endloop
  endfacet
  facet normal -0.258819 0.965926 0
    outer loop
      vertex 15.5 17.1 6.1
      vertex 14.7 16.8856 8
      vertex 15.5 17.1 8
    endloop
  endfacet
  facet normal -0.707107 0.707107 0
    outer loop
      vertex 14.1144 16.3 6.1
      vertex 14.1144 16.3 8
      vertex 14.7 16.8856 6.1
    endloop
  endfacet
  facet normal -0.707107 0.707107 0
    outer loop
      vertex 14.7 16.8856 6.1
      vertex 14.1144 16.3 8
      vertex 14.7 16.8856 8
    endloop
  endfacet
  facet normal -0.965926 0.258819 0
    outer loop
      vertex 13.9 15.5 6.1
      vertex 13.9 15.5 8
      vertex 14.1144 16.3 6.1
    endloop
  endfacet
  facet normal -0.965926 0.258819 0
    outer loop
      vertex 14.1144 16.3 6.1
      vertex 13.9 15.5 8
      vertex 14.1144 16.3 8
    endloop
  endfacet
  facet normal 0 0 1
    outer loop
      vertex 14.1144 16.3 8
      vertex 13.9 15.5 8
      vertex 14.1144 14.7 8
    endloop
  endfacet
  facet normal 0 0 1
    outer loop
      vertex 15.5 13.9 8
      vertex 14.1144 16.3 8
      vertex 14.7 14.1144 8
    endloop
  endfacet
  facet normal 0 0 1
    outer loop
      vertex 14.7 14.1144 8
      vertex 14.1144 16.3 8
      vertex 14.1144 14.7 8
    endloop
  endfacet
  facet normal -0 0 1
    outer loop
      vertex 16.3 14.1144 8
      vertex 14.1144 16.3 8
      vertex 15.5 13.9 8
    endloop
  endfacet
  facet normal -0 0 1
    outer loop
      vertex 16.8856 14.7 8
      vertex 14.1144 16.3 8
      vertex 16.3 14.1144 8
    endloop
  endfacet
  facet normal -0 0 1
    outer loop
      vertex 17.1 15.5 8
      vertex 14.1144 16.3 8
      vertex 16.8856 14.7 8
    endloop
  endfacet
  facet normal 0 -0 1
    outer loop
      vertex 16.8856 16.3 8
      vertex 14.1144 16.3 8
      vertex 17.1 15.5 8
    endloop
  endfacet
  facet normal 0 -0 1
    outer loop
      vertex 16.3 16.8856 8
      vertex 14.1144 16.3 8
      vertex 16.8856 16.3 8
    endloop
  endfacet
  facet normal 0 -0 1
    outer loop
      vertex 15.5 17.1 8
      vertex 14.1144 16.3 8
      vertex 16.3 16.8856 8
    endloop
  endfacet
  facet normal 0 -0 1
    outer loop
      vertex 14.7 16.8856 8
      vertex 14.1144 16.3 8
      vertex 15.5 17.1 8
    endloop
  endfacet
endsolid OpenSCAD_Model
