solid OpenSCAD_Model
  facet normal -1 0 0
    outer loop
      vertex 0 0 7
      vertex 0 47.5 7
      vertex 0 0 0
    endloop
  endfacet
  facet normal -1 -0 0
    outer loop
      vertex 0 0 0
      vertex 0 47.5 7
      vertex 0 47.5 0
    endloop
  endfacet
  facet normal 0 0 1
    outer loop
      vertex 66.8 41.5 7
      vertex 69 0 7
      vertex 69 47.5 7
    endloop
  endfacet
  facet normal 0 0 1
    outer loop
      vertex 66 41.5 7
      vertex 66.8 41.5 7
      vertex 66 44.5 7
    endloop
  endfacet
  facet normal 0 -0 1
    outer loop
      vertex 0 47.5 7
      vertex 0 0 7
      vertex 2.2 6 7
    endloop
  endfacet
  facet normal 0 0 1
    outer loop
      vertex 0 47.5 7
      vertex 2.2 6 7
      vertex 2.2 20 7
    endloop
  endfacet
  facet normal -0 0 1
    outer loop
      vertex 6 23 7
      vertex 6 24.5 7
      vertex 3 23 7
    endloop
  endfacet
  facet normal -0 0 1
    outer loop
      vertex 3 24.5 7
      vertex 2.2 27.5 7
      vertex 3 23 7
    endloop
  endfacet
  facet normal 0 -0 1
    outer loop
      vertex 2.2 27.5 7
      vertex 2.2 20 7
      vertex 3 23 7
    endloop
  endfacet
  facet normal 0 0 1
    outer loop
      vertex 3 27.5 7
      vertex 2.2 27.5 7
      vertex 3 24.5 7
    endloop
  endfacet
  facet normal 0 -0 1
    outer loop
      vertex 3 24.5 7
      vertex 3 23 7
      vertex 6 24.5 7
    endloop
  endfacet
  facet normal 0 0 1
    outer loop
      vertex 2.2 27.5 7
      vertex 2.2 41.5 7
      vertex 0 47.5 7
    endloop
  endfacet
  facet normal 0 0 1
    outer loop
      vertex 0 47.5 7
      vertex 2.2 20 7
      vertex 2.2 27.5 7
    endloop
  endfacet
  facet normal 0 -0 1
    outer loop
      vertex 66 6 7
      vertex 66 3 7
      vertex 66.8 6 7
    endloop
  endfacet
  facet normal 0 0 1
    outer loop
      vertex 20 45.3 7
      vertex 27.5 45.3 7
      vertex 69 47.5 7
    endloop
  endfacet
  facet normal 0 0 1
    outer loop
      vertex 0 47.5 7
      vertex 2.2 41.5 7
      vertex 3 44.5 7
    endloop
  endfacet
  facet normal 0 -0 1
    outer loop
      vertex 20 45.3 7
      vertex 20 44.5 7
      vertex 27.5 45.3 7
    endloop
  endfacet
  facet normal 0 0 1
    outer loop
      vertex 0 47.5 7
      vertex 6 45.3 7
      vertex 69 47.5 7
    endloop
  endfacet
  facet normal 0 0 1
    outer loop
      vertex 0 47.5 7
      vertex 3 44.5 7
      vertex 6 45.3 7
    endloop
  endfacet
  facet normal 0 0 1
    outer loop
      vertex 6 45.3 7
      vertex 20 45.3 7
      vertex 69 47.5 7
    endloop
  endfacet
  facet normal 0 0 1
    outer loop
      vertex 27.5 45.3 7
      vertex 41.5 45.3 7
      vertex 69 47.5 7
    endloop
  endfacet
  facet normal -0 0 1
    outer loop
      vertex 6 44.5 7
      vertex 6 45.3 7
      vertex 3 44.5 7
    endloop
  endfacet
  facet normal 0 0 1
    outer loop
      vertex 63 44.5 7
      vertex 66 44.5 7
      vertex 69 47.5 7
    endloop
  endfacet
  facet normal -0 0 1
    outer loop
      vertex 46 41.5 7
      vertex 46 44.5 7
      vertex 44.5 41.5 7
    endloop
  endfacet
  facet normal -0 0 1
    outer loop
      vertex 23 44.5 7
      vertex 27.5 45.3 7
      vertex 20 44.5 7
    endloop
  endfacet
  facet normal 0 -0 1
    outer loop
      vertex 44.5 44.5 7
      vertex 44.5 41.5 7
      vertex 46 44.5 7
    endloop
  endfacet
  facet normal 0 -0 1
    outer loop
      vertex 41.5 45.3 7
      vertex 41.5 44.5 7
      vertex 69 47.5 7
    endloop
  endfacet
  facet normal 0 -0 1
    outer loop
      vertex 23 44.5 7
      vertex 23 41.5 7
      vertex 24.5 44.5 7
    endloop
  endfacet
  facet normal 0 0 1
    outer loop
      vertex 49 45.3 7
      vertex 63 45.3 7
      vertex 69 47.5 7
    endloop
  endfacet
  facet normal -0 0 1
    outer loop
      vertex 24.5 44.5 7
      vertex 27.5 45.3 7
      vertex 23 44.5 7
    endloop
  endfacet
  facet normal -0 0 1
    outer loop
      vertex 46 44.5 7
      vertex 49 45.3 7
      vertex 44.5 44.5 7
    endloop
  endfacet
  facet normal -0 0 1
    outer loop
      vertex 49 44.5 7
      vertex 49 45.3 7
      vertex 46 44.5 7
    endloop
  endfacet
  facet normal -0 0 1
    outer loop
      vertex 27.5 44.5 7
      vertex 27.5 45.3 7
      vertex 24.5 44.5 7
    endloop
  endfacet
  facet normal 0 -0 1
    outer loop
      vertex 63 45.3 7
      vertex 63 44.5 7
      vertex 69 47.5 7
    endloop
  endfacet
  facet normal 0 0 1
    outer loop
      vertex 41.5 44.5 7
      vertex 49 45.3 7
      vertex 69 47.5 7
    endloop
  endfacet
  facet normal 0 0 1
    outer loop
      vertex 41.5 44.5 7
      vertex 44.5 44.5 7
      vertex 49 45.3 7
    endloop
  endfacet
  facet normal -0 0 1
    outer loop
      vertex 24.5 41.5 7
      vertex 24.5 44.5 7
      vertex 23 41.5 7
    endloop
  endfacet
  facet normal 0 -0 1
    outer loop
      vertex 66.8 41.5 7
      vertex 66.8 27.5 7
      vertex 69 0 7
    endloop
  endfacet
  facet normal 0 0 1
    outer loop
      vertex 66 44.5 7
      vertex 66.8 41.5 7
      vertex 69 47.5 7
    endloop
  endfacet
  facet normal 0 0 1
    outer loop
      vertex 66.8 20 7
      vertex 69 0 7
      vertex 66.8 27.5 7
    endloop
  endfacet
  facet normal 0 -0 1
    outer loop
      vertex 63 24.5 7
      vertex 63 23 7
      vertex 66 24.5 7
    endloop
  endfacet
  facet normal 0 0 1
    outer loop
      vertex 6 3 7
      vertex 3 3 7
      vertex 0 0 7
    endloop
  endfacet
  facet normal 0 0 1
    outer loop
      vertex 66 20 7
      vertex 66.8 20 7
      vertex 66 23 7
    endloop
  endfacet
  facet normal 0 -0 1
    outer loop
      vertex 44.5 6 7
      vertex 44.5 3 7
      vertex 46 6 7
    endloop
  endfacet
  facet normal 0 0 1
    outer loop
      vertex 63 23 7
      vertex 66 23 7
      vertex 66 24.5 7
    endloop
  endfacet
  facet normal 0 -0 1
    outer loop
      vertex 66.8 20 7
      vertex 66.8 6 7
      vertex 69 0 7
    endloop
  endfacet
  facet normal 0 0 1
    outer loop
      vertex 66 24.5 7
      vertex 66.8 20 7
      vertex 66.8 27.5 7
    endloop
  endfacet
  facet normal 0 0 1
    outer loop
      vertex 66 3 7
      vertex 69 0 7
      vertex 66.8 6 7
    endloop
  endfacet
  facet normal 0 0 1
    outer loop
      vertex 63 2.2 7
      vertex 69 0 7
      vertex 66 3 7
    endloop
  endfacet
  facet normal -0 0 1
    outer loop
      vertex 49 2.2 7
      vertex 49 3 7
      vertex 41.5 2.2 7
    endloop
  endfacet
  facet normal 0 0 1
    outer loop
      vertex 0 0 7
      vertex 69 0 7
      vertex 63 2.2 7
    endloop
  endfacet
  facet normal 0 0 1
    outer loop
      vertex 49 2.2 7
      vertex 41.5 2.2 7
      vertex 0 0 7
    endloop
  endfacet
  facet normal 0 0 1
    outer loop
      vertex 0 0 7
      vertex 63 2.2 7
      vertex 49 2.2 7
    endloop
  endfacet
  facet normal 0 -0 1
    outer loop
      vertex 63 3 7
      vertex 63 2.2 7
      vertex 66 3 7
    endloop
  endfacet
  facet normal 0 -0 1
    outer loop
      vertex 46 3 7
      vertex 41.5 2.2 7
      vertex 49 3 7
    endloop
  endfacet
  facet normal 0 0 1
    outer loop
      vertex 41.5 2.2 7
      vertex 27.5 2.2 7
      vertex 0 0 7
    endloop
  endfacet
  facet normal 0 0 1
    outer loop
      vertex 20 2.2 7
      vertex 6 2.2 7
      vertex 0 0 7
    endloop
  endfacet
  facet normal -0 0 1
    outer loop
      vertex 46 3 7
      vertex 46 6 7
      vertex 44.5 3 7
    endloop
  endfacet
  facet normal -0 0 1
    outer loop
      vertex 24.5 3 7
      vertex 24.5 6 7
      vertex 23 3 7
    endloop
  endfacet
  facet normal -0 0 1
    outer loop
      vertex 27.5 2.2 7
      vertex 27.5 3 7
      vertex 0 0 7
    endloop
  endfacet
  facet normal 0 -0 1
    outer loop
      vertex 44.5 3 7
      vertex 41.5 2.2 7
      vertex 46 3 7
    endloop
  endfacet
  facet normal 0 -0 1
    outer loop
      vertex 41.5 3 7
      vertex 41.5 2.2 7
      vertex 44.5 3 7
    endloop
  endfacet
  facet normal 0 0 1
    outer loop
      vertex 20 2.2 7
      vertex 27.5 3 7
      vertex 24.5 3 7
    endloop
  endfacet
  facet normal -0 0 1
    outer loop
      vertex 6 2.2 7
      vertex 6 3 7
      vertex 0 0 7
    endloop
  endfacet
  facet normal 0 -0 1
    outer loop
      vertex 20 3 7
      vertex 20 2.2 7
      vertex 23 3 7
    endloop
  endfacet
  facet normal 0 -0 1
    outer loop
      vertex 23 6 7
      vertex 23 3 7
      vertex 24.5 6 7
    endloop
  endfacet
  facet normal 0 -0 1
    outer loop
      vertex 23 3 7
      vertex 20 2.2 7
      vertex 24.5 3 7
    endloop
  endfacet
  facet normal 0 0 1
    outer loop
      vertex 0 0 7
      vertex 27.5 3 7
      vertex 20 2.2 7
    endloop
  endfacet
  facet normal 0 0 1
    outer loop
      vertex 66 23 7
      vertex 66.8 20 7
      vertex 66 24.5 7
    endloop
  endfacet
  facet normal 0 -0 1
    outer loop
      vertex 66 27.5 7
      vertex 66 24.5 7
      vertex 66.8 27.5 7
    endloop
  endfacet
  facet normal 0 -0 1
    outer loop
      vertex 2.2 6 7
      vertex 0 0 7
      vertex 3 3 7
    endloop
  endfacet
  facet normal 0 0 1
    outer loop
      vertex 2.2 6 7
      vertex 3 3 7
      vertex 3 6 7
    endloop
  endfacet
  facet normal -0 0 1
    outer loop
      vertex 3 20 7
      vertex 3 23 7
      vertex 2.2 20 7
    endloop
  endfacet
  facet normal -0 0 1
    outer loop
      vertex 3 41.5 7
      vertex 3 44.5 7
      vertex 2.2 41.5 7
    endloop
  endfacet
  facet normal -0 -1 0
    outer loop
      vertex 0 0 0
      vertex 69 0 0
      vertex 69 0 7
    endloop
  endfacet
  facet normal 0 -1 0
    outer loop
      vertex 0 0 7
      vertex 0 0 0
      vertex 69 0 7
    endloop
  endfacet
  facet normal 0 0 -1
    outer loop
      vertex 21 21 0
      vertex 26.5 21 0
      vertex 21 5 0
    endloop
  endfacet
  facet normal -0 0 -1
    outer loop
      vertex 64 5 0
      vertex 69 47.5 0
      vertex 69 0 0
    endloop
  endfacet
  facet normal -0 0 -1
    outer loop
      vertex 64 42.5 0
      vertex 69 47.5 0
      vertex 64 26.5 0
    endloop
  endfacet
  facet normal 0 0 -1
    outer loop
      vertex 0 47.5 0
      vertex 5 5 0
      vertex 0 0 0
    endloop
  endfacet
  facet normal -0 0 -1
    outer loop
      vertex 0 0 0
      vertex 21 5 0
      vertex 69 0 0
    endloop
  endfacet
  facet normal 0 0 -1
    outer loop
      vertex 5 26.5 0
      vertex 21 21 0
      vertex 5 21 0
    endloop
  endfacet
  facet normal 0 0 -1
    outer loop
      vertex 0 47.5 0
      vertex 5 21 0
      vertex 5 5 0
    endloop
  endfacet
  facet normal 0 0 -1
    outer loop
      vertex 21 26.5 0
      vertex 21 21 0
      vertex 5 26.5 0
    endloop
  endfacet
  facet normal 0 0 -1
    outer loop
      vertex 0 47.5 0
      vertex 5 26.5 0
      vertex 5 21 0
    endloop
  endfacet
  facet normal 0 0 -1
    outer loop
      vertex 42.5 26.5 0
      vertex 21 21 0
      vertex 26.5 26.5 0
    endloop
  endfacet
  facet normal 0 0 -1
    outer loop
      vertex 26.5 5 0
      vertex 21 5 0
      vertex 26.5 21 0
    endloop
  endfacet
  facet normal 0 0 -1
    outer loop
      vertex 0 47.5 0
      vertex 69 47.5 0
      vertex 21 42.5 0
    endloop
  endfacet
  facet normal 0 0 -1
    outer loop
      vertex 0 47.5 0
      vertex 21 42.5 0
      vertex 5 42.5 0
    endloop
  endfacet
  facet normal 0 0 -1
    outer loop
      vertex 26.5 26.5 0
      vertex 21 26.5 0
      vertex 26.5 42.5 0
    endloop
  endfacet
  facet normal 0 0 -1
    outer loop
      vertex 21 5 0
      vertex 26.5 5 0
      vertex 69 0 0
    endloop
  endfacet
  facet normal -0 0 -1
    outer loop
      vertex 48 21 0
      vertex 64 26.5 0
      vertex 64 21 0
    endloop
  endfacet
  facet normal 0 0 -1
    outer loop
      vertex 26.5 5 0
      vertex 42.5 5 0
      vertex 69 0 0
    endloop
  endfacet
  facet normal 0 0 -1
    outer loop
      vertex 48 26.5 0
      vertex 42.5 26.5 0
      vertex 48 42.5 0
    endloop
  endfacet
  facet normal 0 0 -1
    outer loop
      vertex 42.5 42.5 0
      vertex 48 42.5 0
      vertex 42.5 26.5 0
    endloop
  endfacet
  facet normal 0 0 -1
    outer loop
      vertex 5 26.5 0
      vertex 0 47.5 0
      vertex 5 42.5 0
    endloop
  endfacet
  facet normal 0 0 -1
    outer loop
      vertex 42.5 26.5 0
      vertex 26.5 21 0
      vertex 21 21 0
    endloop
  endfacet
  facet normal 0 0 -1
    outer loop
      vertex 21 26.5 0
      vertex 26.5 26.5 0
      vertex 21 21 0
    endloop
  endfacet
  facet normal -0 0 -1
    outer loop
      vertex 21 42.5 0
      vertex 69 47.5 0
      vertex 26.5 42.5 0
    endloop
  endfacet
  facet normal 0 0 -1
    outer loop
      vertex 69 47.5 0
      vertex 42.5 42.5 0
      vertex 26.5 42.5 0
    endloop
  endfacet
  facet normal 0 0 -1
    outer loop
      vertex 21 42.5 0
      vertex 26.5 42.5 0
      vertex 21 26.5 0
    endloop
  endfacet
  facet normal 0 0 -1
    outer loop
      vertex 42.5 5 0
      vertex 48 5 0
      vertex 69 0 0
    endloop
  endfacet
  facet normal -0 0 -1
    outer loop
      vertex 64 21 0
      vertex 69 47.5 0
      vertex 64 5 0
    endloop
  endfacet
  facet normal 0 0 -1
    outer loop
      vertex 48 5 0
      vertex 64 5 0
      vertex 69 0 0
    endloop
  endfacet
  facet normal -0 0 -1
    outer loop
      vertex 64 26.5 0
      vertex 69 47.5 0
      vertex 64 21 0
    endloop
  endfacet
  facet normal 0 0 -1
    outer loop
      vertex 42.5 21 0
      vertex 48 21 0
      vertex 42.5 5 0
    endloop
  endfacet
  facet normal 0 0 -1
    outer loop
      vertex 48 5 0
      vertex 42.5 5 0
      vertex 48 21 0
    endloop
  endfacet
  facet normal -0 0 -1
    outer loop
      vertex 42.5 21 0
      vertex 48 26.5 0
      vertex 48 21 0
    endloop
  endfacet
  facet normal -0 0 -1
    outer loop
      vertex 48 42.5 0
      vertex 69 47.5 0
      vertex 64 42.5 0
    endloop
  endfacet
  facet normal -0 0 -1
    outer loop
      vertex 42.5 42.5 0
      vertex 69 47.5 0
      vertex 48 42.5 0
    endloop
  endfacet
  facet normal 0 0 -1
    outer loop
      vertex 21 5 0
      vertex 0 0 0
      vertex 5 5 0
    endloop
  endfacet
  facet normal 0 0 -1
    outer loop
      vertex 64 26.5 0
      vertex 48 21 0
      vertex 48 26.5 0
    endloop
  endfacet
  facet normal 0 0 -1
    outer loop
      vertex 26.5 21 0
      vertex 42.5 26.5 0
      vertex 48 26.5 0
    endloop
  endfacet
  facet normal -0 0 -1
    outer loop
      vertex 26.5 21 0
      vertex 48 26.5 0
      vertex 42.5 21 0
    endloop
  endfacet
  facet normal 0 1 -0
    outer loop
      vertex 0 47.5 7
      vertex 69 47.5 7
      vertex 0 47.5 0
    endloop
  endfacet
  facet normal 0 1 0
    outer loop
      vertex 0 47.5 0
      vertex 69 47.5 7
      vertex 69 47.5 0
    endloop
  endfacet
  facet normal 1 0 0
    outer loop
      vertex 69 0 0
      vertex 69 47.5 0
      vertex 69 47.5 7
    endloop
  endfacet
  facet normal 1 0 -0
    outer loop
      vertex 69 0 7
      vertex 69 0 0
      vertex 69 47.5 7
    endloop
  endfacet
  facet normal 1 0 0
    outer loop
      vertex 2.2 6 4.9
      vertex 2.2 20 4.9
      vertex 2.2 20 7
    endloop
  endfacet
  facet normal 1 0 -0
    outer loop
      vertex 2.2 6 7
      vertex 2.2 6 4.9
      vertex 2.2 20 7
    endloop
  endfacet
  facet normal 0 1 -0
    outer loop
      vertex 2.2 6 7
      vertex 3 6 7
      vertex 2.2 6 4.9
    endloop
  endfacet
  facet normal 0 1 0
    outer loop
      vertex 2.2 6 4.9
      vertex 3 6 7
      vertex 3 6 4.9
    endloop
  endfacet
  facet normal 1 0 0
    outer loop
      vertex 3 20 4.9
      vertex 3 23 1.1
      vertex 3 23 7
    endloop
  endfacet
  facet normal 1 0 0
    outer loop
      vertex 3 20 4.9
      vertex 3 6 4.9
      vertex 3 3 1.1
    endloop
  endfacet
  facet normal 1 0 0
    outer loop
      vertex 3 3 1.1
      vertex 3 23 1.1
      vertex 3 20 4.9
    endloop
  endfacet
  facet normal 1 0 0
    outer loop
      vertex 3 6 7
      vertex 3 3 1.1
      vertex 3 6 4.9
    endloop
  endfacet
  facet normal 1 0 -0
    outer loop
      vertex 3 3 7
      vertex 3 3 1.1
      vertex 3 6 7
    endloop
  endfacet
  facet normal 1 0 -0
    outer loop
      vertex 3 20 7
      vertex 3 20 4.9
      vertex 3 23 7
    endloop
  endfacet
  facet normal 0 1 -0
    outer loop
      vertex 3 3 7
      vertex 6 3 7
      vertex 3 3 1.1
    endloop
  endfacet
  facet normal 0 1 0
    outer loop
      vertex 3 3 1.1
      vertex 6 3 7
      vertex 6 3 4.9
    endloop
  endfacet
  facet normal 0 1 0
    outer loop
      vertex 3 3 1.1
      vertex 6 3 4.9
      vertex 20 3 4.9
    endloop
  endfacet
  facet normal 0 1 0
    outer loop
      vertex 20 3 4.9
      vertex 20 3 7
      vertex 23 3 7
    endloop
  endfacet
  facet normal 0 1 0
    outer loop
      vertex 20 3 4.9
      vertex 23 3 7
      vertex 23 3 1.1
    endloop
  endfacet
  facet normal 0 1 -0
    outer loop
      vertex 20 3 4.9
      vertex 23 3 1.1
      vertex 3 3 1.1
    endloop
  endfacet
  facet normal 1 0 0
    outer loop
      vertex 6 2.2 4.9
      vertex 6 3 4.9
      vertex 6 3 7
    endloop
  endfacet
  facet normal 1 0 -0
    outer loop
      vertex 6 2.2 7
      vertex 6 2.2 4.9
      vertex 6 3 7
    endloop
  endfacet
  facet normal 0 1 -0
    outer loop
      vertex 6 2.2 7
      vertex 20 2.2 7
      vertex 6 2.2 4.9
    endloop
  endfacet
  facet normal 0 1 0
    outer loop
      vertex 6 2.2 4.9
      vertex 20 2.2 7
      vertex 20 2.2 4.9
    endloop
  endfacet
  facet normal -1 0 0
    outer loop
      vertex 20 2.2 7
      vertex 20 3 7
      vertex 20 2.2 4.9
    endloop
  endfacet
  facet normal -1 -0 0
    outer loop
      vertex 20 2.2 4.9
      vertex 20 3 7
      vertex 20 3 4.9
    endloop
  endfacet
  facet normal -1 0 0
    outer loop
      vertex 23 3 7
      vertex 23 6 7
      vertex 23 3 1.1
    endloop
  endfacet
  facet normal -1 0 0
    outer loop
      vertex 23 3 1.1
      vertex 23 6 7
      vertex 23 6 4.9
    endloop
  endfacet
  facet normal -1 0 0
    outer loop
      vertex 23 3 1.1
      vertex 23 6 4.9
      vertex 23 20 4.9
    endloop
  endfacet
  facet normal -1 0 -0
    outer loop
      vertex 23 20 4.9
      vertex 23 20 7
      vertex 23 23 7
    endloop
  endfacet
  facet normal -1 -0 0
    outer loop
      vertex 23 20 4.9
      vertex 23 23 7
      vertex 23 23 1.1
    endloop
  endfacet
  facet normal -1 0 0
    outer loop
      vertex 23 20 4.9
      vertex 23 23 1.1
      vertex 23 3 1.1
    endloop
  endfacet
  facet normal 0 1 -0
    outer loop
      vertex 23 6 7
      vertex 24.5 6 7
      vertex 23 6 4.9
    endloop
  endfacet
  facet normal 0 1 0
    outer loop
      vertex 23 6 4.9
      vertex 24.5 6 7
      vertex 24.5 6 4.9
    endloop
  endfacet
  facet normal 1 0 0
    outer loop
      vertex 24.5 20 4.9
      vertex 24.5 23 1.1
      vertex 24.5 23 7
    endloop
  endfacet
  facet normal 1 0 0
    outer loop
      vertex 24.5 20 4.9
      vertex 24.5 6 4.9
      vertex 24.5 3 1.1
    endloop
  endfacet
  facet normal 1 0 0
    outer loop
      vertex 24.5 3 1.1
      vertex 24.5 23 1.1
      vertex 24.5 20 4.9
    endloop
  endfacet
  facet normal 1 0 0
    outer loop
      vertex 24.5 6 7
      vertex 24.5 3 1.1
      vertex 24.5 6 4.9
    endloop
  endfacet
  facet normal 1 0 -0
    outer loop
      vertex 24.5 3 7
      vertex 24.5 3 1.1
      vertex 24.5 6 7
    endloop
  endfacet
  facet normal 1 0 -0
    outer loop
      vertex 24.5 20 7
      vertex 24.5 20 4.9
      vertex 24.5 23 7
    endloop
  endfacet
  facet normal 0 1 -0
    outer loop
      vertex 24.5 3 7
      vertex 27.5 3 7
      vertex 24.5 3 1.1
    endloop
  endfacet
  facet normal 0 1 0
    outer loop
      vertex 24.5 3 1.1
      vertex 27.5 3 7
      vertex 27.5 3 4.9
    endloop
  endfacet
  facet normal 0 1 0
    outer loop
      vertex 24.5 3 1.1
      vertex 27.5 3 4.9
      vertex 41.5 3 4.9
    endloop
  endfacet
  facet normal 0 1 0
    outer loop
      vertex 41.5 3 4.9
      vertex 41.5 3 7
      vertex 44.5 3 7
    endloop
  endfacet
  facet normal 0 1 0
    outer loop
      vertex 41.5 3 4.9
      vertex 44.5 3 7
      vertex 44.5 3 1.1
    endloop
  endfacet
  facet normal 0 1 -0
    outer loop
      vertex 41.5 3 4.9
      vertex 44.5 3 1.1
      vertex 24.5 3 1.1
    endloop
  endfacet
  facet normal 1 0 0
    outer loop
      vertex 27.5 2.2 4.9
      vertex 27.5 3 4.9
      vertex 27.5 3 7
    endloop
  endfacet
  facet normal 1 0 -0
    outer loop
      vertex 27.5 2.2 7
      vertex 27.5 2.2 4.9
      vertex 27.5 3 7
    endloop
  endfacet
  facet normal 0 1 -0
    outer loop
      vertex 27.5 2.2 7
      vertex 41.5 2.2 7
      vertex 27.5 2.2 4.9
    endloop
  endfacet
  facet normal 0 1 0
    outer loop
      vertex 27.5 2.2 4.9
      vertex 41.5 2.2 7
      vertex 41.5 2.2 4.9
    endloop
  endfacet
  facet normal -1 0 0
    outer loop
      vertex 41.5 2.2 7
      vertex 41.5 3 7
      vertex 41.5 2.2 4.9
    endloop
  endfacet
  facet normal -1 -0 0
    outer loop
      vertex 41.5 2.2 4.9
      vertex 41.5 3 7
      vertex 41.5 3 4.9
    endloop
  endfacet
  facet normal -1 0 0
    outer loop
      vertex 44.5 3 7
      vertex 44.5 6 7
      vertex 44.5 3 1.1
    endloop
  endfacet
  facet normal -1 0 0
    outer loop
      vertex 44.5 3 1.1
      vertex 44.5 6 7
      vertex 44.5 6 4.9
    endloop
  endfacet
  facet normal -1 0 0
    outer loop
      vertex 44.5 3 1.1
      vertex 44.5 6 4.9
      vertex 44.5 20 4.9
    endloop
  endfacet
  facet normal -1 0 -0
    outer loop
      vertex 44.5 20 4.9
      vertex 44.5 20 7
      vertex 44.5 23 7
    endloop
  endfacet
  facet normal -1 -0 0
    outer loop
      vertex 44.5 20 4.9
      vertex 44.5 23 7
      vertex 44.5 23 1.1
    endloop
  endfacet
  facet normal -1 0 0
    outer loop
      vertex 44.5 20 4.9
      vertex 44.5 23 1.1
      vertex 44.5 3 1.1
    endloop
  endfacet
  facet normal 0 1 -0
    outer loop
      vertex 44.5 6 7
      vertex 46 6 7
      vertex 44.5 6 4.9
    endloop
  endfacet
  facet normal 0 1 0
    outer loop
      vertex 44.5 6 4.9
      vertex 46 6 7
      vertex 46 6 4.9
    endloop
  endfacet
  facet normal 1 0 0
    outer loop
      vertex 46 20 4.9
      vertex 46 23 1.1
      vertex 46 23 7
    endloop
  endfacet
  facet normal 1 0 0
    outer loop
      vertex 46 20 4.9
      vertex 46 6 4.9
      vertex 46 3 1.1
    endloop
  endfacet
  facet normal 1 0 0
    outer loop
      vertex 46 3 1.1
      vertex 46 23 1.1
      vertex 46 20 4.9
    endloop
  endfacet
  facet normal 1 0 0
    outer loop
      vertex 46 6 7
      vertex 46 3 1.1
      vertex 46 6 4.9
    endloop
  endfacet
  facet normal 1 0 -0
    outer loop
      vertex 46 3 7
      vertex 46 3 1.1
      vertex 46 6 7
    endloop
  endfacet
  facet normal 1 0 -0
    outer loop
      vertex 46 20 7
      vertex 46 20 4.9
      vertex 46 23 7
    endloop
  endfacet
  facet normal 0 1 -0
    outer loop
      vertex 46 3 7
      vertex 49 3 7
      vertex 46 3 1.1
    endloop
  endfacet
  facet normal 0 1 0
    outer loop
      vertex 46 3 1.1
      vertex 49 3 7
      vertex 49 3 4.9
    endloop
  endfacet
  facet normal 0 1 0
    outer loop
      vertex 46 3 1.1
      vertex 49 3 4.9
      vertex 63 3 4.9
    endloop
  endfacet
  facet normal 0 1 0
    outer loop
      vertex 63 3 4.9
      vertex 63 3 7
      vertex 66 3 7
    endloop
  endfacet
  facet normal 0 1 0
    outer loop
      vertex 63 3 4.9
      vertex 66 3 7
      vertex 66 3 1.1
    endloop
  endfacet
  facet normal 0 1 -0
    outer loop
      vertex 63 3 4.9
      vertex 66 3 1.1
      vertex 46 3 1.1
    endloop
  endfacet
  facet normal 1 0 0
    outer loop
      vertex 49 2.2 4.9
      vertex 49 3 4.9
      vertex 49 3 7
    endloop
  endfacet
  facet normal 1 0 -0
    outer loop
      vertex 49 2.2 7
      vertex 49 2.2 4.9
      vertex 49 3 7
    endloop
  endfacet
  facet normal 0 1 -0
    outer loop
      vertex 49 2.2 7
      vertex 63 2.2 7
      vertex 49 2.2 4.9
    endloop
  endfacet
  facet normal 0 1 0
    outer loop
      vertex 49 2.2 4.9
      vertex 63 2.2 7
      vertex 63 2.2 4.9
    endloop
  endfacet
  facet normal -1 0 0
    outer loop
      vertex 63 2.2 7
      vertex 63 3 7
      vertex 63 2.2 4.9
    endloop
  endfacet
  facet normal -1 -0 0
    outer loop
      vertex 63 2.2 4.9
      vertex 63 3 7
      vertex 63 3 4.9
    endloop
  endfacet
  facet normal -1 0 0
    outer loop
      vertex 66 3 7
      vertex 66 6 7
      vertex 66 3 1.1
    endloop
  endfacet
  facet normal -1 0 0
    outer loop
      vertex 66 3 1.1
      vertex 66 6 7
      vertex 66 6 4.9
    endloop
  endfacet
  facet normal -1 0 0
    outer loop
      vertex 66 3 1.1
      vertex 66 6 4.9
      vertex 66 20 4.9
    endloop
  endfacet
  facet normal -1 0 -0
    outer loop
      vertex 66 20 4.9
      vertex 66 20 7
      vertex 66 23 7
    endloop
  endfacet
  facet normal -1 -0 0
    outer loop
      vertex 66 20 4.9
      vertex 66 23 7
      vertex 66 23 1.1
    endloop
  endfacet
  facet normal -1 0 0
    outer loop
      vertex 66 20 4.9
      vertex 66 23 1.1
      vertex 66 3 1.1
    endloop
  endfacet
  facet normal 0 1 -0
    outer loop
      vertex 66 6 7
      vertex 66.8 6 7
      vertex 66 6 4.9
    endloop
  endfacet
  facet normal 0 1 0
    outer loop
      vertex 66 6 4.9
      vertex 66.8 6 7
      vertex 66.8 6 4.9
    endloop
  endfacet
  facet normal -1 0 0
    outer loop
      vertex 66.8 6 7
      vertex 66.8 20 7
      vertex 66.8 6 4.9
    endloop
  endfacet
  facet normal -1 -0 0
    outer loop
      vertex 66.8 6 4.9
      vertex 66.8 20 7
      vertex 66.8 20 4.9
    endloop
  endfacet
  facet normal -0 -1 0
    outer loop
      vertex 66 20 4.9
      vertex 66.8 20 4.9
      vertex 66.8 20 7
    endloop
  endfacet
  facet normal 0 -1 0
    outer loop
      vertex 66 20 7
      vertex 66 20 4.9
      vertex 66.8 20 7
    endloop
  endfacet
  facet normal -0 -1 0
    outer loop
      vertex 63 23 4.9
      vertex 66 23 1.1
      vertex 66 23 7
    endloop
  endfacet
  facet normal 0 -1 0
    outer loop
      vertex 63 23 4.9
      vertex 49 23 4.9
      vertex 46 23 1.1
    endloop
  endfacet
  facet normal -0 -1 0
    outer loop
      vertex 46 23 1.1
      vertex 66 23 1.1
      vertex 63 23 4.9
    endloop
  endfacet
  facet normal 0 -1 0
    outer loop
      vertex 49 23 7
      vertex 46 23 1.1
      vertex 49 23 4.9
    endloop
  endfacet
  facet normal 0 -1 0
    outer loop
      vertex 46 23 7
      vertex 46 23 1.1
      vertex 49 23 7
    endloop
  endfacet
  facet normal 0 -1 0
    outer loop
      vertex 63 23 7
      vertex 63 23 4.9
      vertex 66 23 7
    endloop
  endfacet
  facet normal -1 0 0
    outer loop
      vertex 63 23 7
      vertex 63 24.5 7
      vertex 63 23 4.9
    endloop
  endfacet
  facet normal -1 -0 0
    outer loop
      vertex 63 23 4.9
      vertex 63 24.5 7
      vertex 63 24.5 4.9
    endloop
  endfacet
  facet normal 0 1 -0
    outer loop
      vertex 46 24.5 7
      vertex 49 24.5 7
      vertex 46 24.5 1.1
    endloop
  endfacet
  facet normal 0 1 0
    outer loop
      vertex 46 24.5 1.1
      vertex 49 24.5 7
      vertex 49 24.5 4.9
    endloop
  endfacet
  facet normal 0 1 0
    outer loop
      vertex 46 24.5 1.1
      vertex 49 24.5 4.9
      vertex 63 24.5 4.9
    endloop
  endfacet
  facet normal 0 1 0
    outer loop
      vertex 63 24.5 4.9
      vertex 63 24.5 7
      vertex 66 24.5 7
    endloop
  endfacet
  facet normal 0 1 0
    outer loop
      vertex 63 24.5 4.9
      vertex 66 24.5 7
      vertex 66 24.5 1.1
    endloop
  endfacet
  facet normal 0 1 -0
    outer loop
      vertex 63 24.5 4.9
      vertex 66 24.5 1.1
      vertex 46 24.5 1.1
    endloop
  endfacet
  facet normal -1 0 0
    outer loop
      vertex 66 24.5 7
      vertex 66 27.5 7
      vertex 66 24.5 1.1
    endloop
  endfacet
  facet normal -1 0 0
    outer loop
      vertex 66 24.5 1.1
      vertex 66 27.5 7
      vertex 66 27.5 4.9
    endloop
  endfacet
  facet normal -1 0 0
    outer loop
      vertex 66 24.5 1.1
      vertex 66 27.5 4.9
      vertex 66 41.5 4.9
    endloop
  endfacet
  facet normal -1 0 -0
    outer loop
      vertex 66 41.5 4.9
      vertex 66 41.5 7
      vertex 66 44.5 7
    endloop
  endfacet
  facet normal -1 -0 0
    outer loop
      vertex 66 41.5 4.9
      vertex 66 44.5 7
      vertex 66 44.5 1.1
    endloop
  endfacet
  facet normal -1 0 0
    outer loop
      vertex 66 41.5 4.9
      vertex 66 44.5 1.1
      vertex 66 24.5 1.1
    endloop
  endfacet
  facet normal 0 1 -0
    outer loop
      vertex 66 27.5 7
      vertex 66.8 27.5 7
      vertex 66 27.5 4.9
    endloop
  endfacet
  facet normal 0 1 0
    outer loop
      vertex 66 27.5 4.9
      vertex 66.8 27.5 7
      vertex 66.8 27.5 4.9
    endloop
  endfacet
  facet normal -1 0 0
    outer loop
      vertex 66.8 27.5 7
      vertex 66.8 41.5 7
      vertex 66.8 27.5 4.9
    endloop
  endfacet
  facet normal -1 -0 0
    outer loop
      vertex 66.8 27.5 4.9
      vertex 66.8 41.5 7
      vertex 66.8 41.5 4.9
    endloop
  endfacet
  facet normal -0 -1 0
    outer loop
      vertex 66 41.5 4.9
      vertex 66.8 41.5 4.9
      vertex 66.8 41.5 7
    endloop
  endfacet
  facet normal 0 -1 0
    outer loop
      vertex 66 41.5 7
      vertex 66 41.5 4.9
      vertex 66.8 41.5 7
    endloop
  endfacet
  facet normal -0 -1 0
    outer loop
      vertex 63 44.5 4.9
      vertex 66 44.5 1.1
      vertex 66 44.5 7
    endloop
  endfacet
  facet normal 0 -1 0
    outer loop
      vertex 63 44.5 4.9
      vertex 49 44.5 4.9
      vertex 46 44.5 1.1
    endloop
  endfacet
  facet normal -0 -1 0
    outer loop
      vertex 46 44.5 1.1
      vertex 66 44.5 1.1
      vertex 63 44.5 4.9
    endloop
  endfacet
  facet normal 0 -1 0
    outer loop
      vertex 49 44.5 7
      vertex 46 44.5 1.1
      vertex 49 44.5 4.9
    endloop
  endfacet
  facet normal 0 -1 0
    outer loop
      vertex 46 44.5 7
      vertex 46 44.5 1.1
      vertex 49 44.5 7
    endloop
  endfacet
  facet normal 0 -1 0
    outer loop
      vertex 63 44.5 7
      vertex 63 44.5 4.9
      vertex 66 44.5 7
    endloop
  endfacet
  facet normal -1 0 0
    outer loop
      vertex 63 44.5 7
      vertex 63 45.3 7
      vertex 63 44.5 4.9
    endloop
  endfacet
  facet normal -1 -0 0
    outer loop
      vertex 63 44.5 4.9
      vertex 63 45.3 7
      vertex 63 45.3 4.9
    endloop
  endfacet
  facet normal -0 -1 0
    outer loop
      vertex 49 45.3 4.9
      vertex 63 45.3 4.9
      vertex 63 45.3 7
    endloop
  endfacet
  facet normal 0 -1 0
    outer loop
      vertex 49 45.3 7
      vertex 49 45.3 4.9
      vertex 63 45.3 7
    endloop
  endfacet
  facet normal 1 0 0
    outer loop
      vertex 49 44.5 4.9
      vertex 49 45.3 4.9
      vertex 49 45.3 7
    endloop
  endfacet
  facet normal 1 0 -0
    outer loop
      vertex 49 44.5 7
      vertex 49 44.5 4.9
      vertex 49 45.3 7
    endloop
  endfacet
  facet normal 1 0 0
    outer loop
      vertex 46 41.5 4.9
      vertex 46 44.5 1.1
      vertex 46 44.5 7
    endloop
  endfacet
  facet normal 1 0 0
    outer loop
      vertex 46 41.5 4.9
      vertex 46 27.5 4.9
      vertex 46 24.5 1.1
    endloop
  endfacet
  facet normal 1 0 0
    outer loop
      vertex 46 24.5 1.1
      vertex 46 44.5 1.1
      vertex 46 41.5 4.9
    endloop
  endfacet
  facet normal 1 0 0
    outer loop
      vertex 46 27.5 7
      vertex 46 24.5 1.1
      vertex 46 27.5 4.9
    endloop
  endfacet
  facet normal 1 0 -0
    outer loop
      vertex 46 24.5 7
      vertex 46 24.5 1.1
      vertex 46 27.5 7
    endloop
  endfacet
  facet normal 1 0 -0
    outer loop
      vertex 46 41.5 7
      vertex 46 41.5 4.9
      vertex 46 44.5 7
    endloop
  endfacet
  facet normal -0 -1 0
    outer loop
      vertex 44.5 41.5 4.9
      vertex 46 41.5 4.9
      vertex 46 41.5 7
    endloop
  endfacet
  facet normal 0 -1 0
    outer loop
      vertex 44.5 41.5 7
      vertex 44.5 41.5 4.9
      vertex 46 41.5 7
    endloop
  endfacet
  facet normal -1 0 0
    outer loop
      vertex 44.5 24.5 7
      vertex 44.5 27.5 7
      vertex 44.5 24.5 1.1
    endloop
  endfacet
  facet normal -1 0 0
    outer loop
      vertex 44.5 24.5 1.1
      vertex 44.5 27.5 7
      vertex 44.5 27.5 4.9
    endloop
  endfacet
  facet normal -1 0 0
    outer loop
      vertex 44.5 24.5 1.1
      vertex 44.5 27.5 4.9
      vertex 44.5 41.5 4.9
    endloop
  endfacet
  facet normal -1 0 -0
    outer loop
      vertex 44.5 41.5 4.9
      vertex 44.5 41.5 7
      vertex 44.5 44.5 7
    endloop
  endfacet
  facet normal -1 -0 0
    outer loop
      vertex 44.5 41.5 4.9
      vertex 44.5 44.5 7
      vertex 44.5 44.5 1.1
    endloop
  endfacet
  facet normal -1 0 0
    outer loop
      vertex 44.5 41.5 4.9
      vertex 44.5 44.5 1.1
      vertex 44.5 24.5 1.1
    endloop
  endfacet
  facet normal -0 -1 0
    outer loop
      vertex 41.5 44.5 4.9
      vertex 44.5 44.5 1.1
      vertex 44.5 44.5 7
    endloop
  endfacet
  facet normal 0 -1 0
    outer loop
      vertex 41.5 44.5 4.9
      vertex 27.5 44.5 4.9
      vertex 24.5 44.5 1.1
    endloop
  endfacet
  facet normal -0 -1 0
    outer loop
      vertex 24.5 44.5 1.1
      vertex 44.5 44.5 1.1
      vertex 41.5 44.5 4.9
    endloop
  endfacet
  facet normal 0 -1 0
    outer loop
      vertex 27.5 44.5 7
      vertex 24.5 44.5 1.1
      vertex 27.5 44.5 4.9
    endloop
  endfacet
  facet normal 0 -1 0
    outer loop
      vertex 24.5 44.5 7
      vertex 24.5 44.5 1.1
      vertex 27.5 44.5 7
    endloop
  endfacet
  facet normal 0 -1 0
    outer loop
      vertex 41.5 44.5 7
      vertex 41.5 44.5 4.9
      vertex 44.5 44.5 7
    endloop
  endfacet
  facet normal -1 0 0
    outer loop
      vertex 41.5 44.5 7
      vertex 41.5 45.3 7
      vertex 41.5 44.5 4.9
    endloop
  endfacet
  facet normal -1 -0 0
    outer loop
      vertex 41.5 44.5 4.9
      vertex 41.5 45.3 7
      vertex 41.5 45.3 4.9
    endloop
  endfacet
  facet normal -0 -1 0
    outer loop
      vertex 27.5 45.3 4.9
      vertex 41.5 45.3 4.9
      vertex 41.5 45.3 7
    endloop
  endfacet
  facet normal 0 -1 0
    outer loop
      vertex 27.5 45.3 7
      vertex 27.5 45.3 4.9
      vertex 41.5 45.3 7
    endloop
  endfacet
  facet normal 1 0 0
    outer loop
      vertex 27.5 44.5 4.9
      vertex 27.5 45.3 4.9
      vertex 27.5 45.3 7
    endloop
  endfacet
  facet normal 1 0 -0
    outer loop
      vertex 27.5 44.5 7
      vertex 27.5 44.5 4.9
      vertex 27.5 45.3 7
    endloop
  endfacet
  facet normal 1 0 0
    outer loop
      vertex 24.5 41.5 4.9
      vertex 24.5 44.5 1.1
      vertex 24.5 44.5 7
    endloop
  endfacet
  facet normal 1 0 0
    outer loop
      vertex 24.5 41.5 4.9
      vertex 24.5 27.5 4.9
      vertex 24.5 24.5 1.1
    endloop
  endfacet
  facet normal 1 0 0
    outer loop
      vertex 24.5 24.5 1.1
      vertex 24.5 44.5 1.1
      vertex 24.5 41.5 4.9
    endloop
  endfacet
  facet normal 1 0 0
    outer loop
      vertex 24.5 27.5 7
      vertex 24.5 24.5 1.1
      vertex 24.5 27.5 4.9
    endloop
  endfacet
  facet normal 1 0 -0
    outer loop
      vertex 24.5 24.5 7
      vertex 24.5 24.5 1.1
      vertex 24.5 27.5 7
    endloop
  endfacet
  facet normal 1 0 -0
    outer loop
      vertex 24.5 41.5 7
      vertex 24.5 41.5 4.9
      vertex 24.5 44.5 7
    endloop
  endfacet
  facet normal -0 -1 0
    outer loop
      vertex 23 41.5 4.9
      vertex 24.5 41.5 4.9
      vertex 24.5 41.5 7
    endloop
  endfacet
  facet normal 0 -1 0
    outer loop
      vertex 23 41.5 7
      vertex 23 41.5 4.9
      vertex 24.5 41.5 7
    endloop
  endfacet
  facet normal -1 0 0
    outer loop
      vertex 23 24.5 7
      vertex 23 27.5 7
      vertex 23 24.5 1.1
    endloop
  endfacet
  facet normal -1 0 0
    outer loop
      vertex 23 24.5 1.1
      vertex 23 27.5 7
      vertex 23 27.5 4.9
    endloop
  endfacet
  facet normal -1 0 0
    outer loop
      vertex 23 24.5 1.1
      vertex 23 27.5 4.9
      vertex 23 41.5 4.9
    endloop
  endfacet
  facet normal -1 0 -0
    outer loop
      vertex 23 41.5 4.9
      vertex 23 41.5 7
      vertex 23 44.5 7
    endloop
  endfacet
  facet normal -1 -0 0
    outer loop
      vertex 23 41.5 4.9
      vertex 23 44.5 7
      vertex 23 44.5 1.1
    endloop
  endfacet
  facet normal -1 0 0
    outer loop
      vertex 23 41.5 4.9
      vertex 23 44.5 1.1
      vertex 23 24.5 1.1
    endloop
  endfacet
  facet normal -0 -1 0
    outer loop
      vertex 20 44.5 4.9
      vertex 23 44.5 1.1
      vertex 23 44.5 7
    endloop
  endfacet
  facet normal 0 -1 0
    outer loop
      vertex 20 44.5 4.9
      vertex 6 44.5 4.9
      vertex 3 44.5 1.1
    endloop
  endfacet
  facet normal -0 -1 0
    outer loop
      vertex 3 44.5 1.1
      vertex 23 44.5 1.1
      vertex 20 44.5 4.9
    endloop
  endfacet
  facet normal 0 -1 0
    outer loop
      vertex 6 44.5 7
      vertex 3 44.5 1.1
      vertex 6 44.5 4.9
    endloop
  endfacet
  facet normal 0 -1 0
    outer loop
      vertex 3 44.5 7
      vertex 3 44.5 1.1
      vertex 6 44.5 7
    endloop
  endfacet
  facet normal 0 -1 0
    outer loop
      vertex 20 44.5 7
      vertex 20 44.5 4.9
      vertex 23 44.5 7
    endloop
  endfacet
  facet normal -1 0 0
    outer loop
      vertex 20 44.5 7
      vertex 20 45.3 7
      vertex 20 44.5 4.9
    endloop
  endfacet
  facet normal -1 -0 0
    outer loop
      vertex 20 44.5 4.9
      vertex 20 45.3 7
      vertex 20 45.3 4.9
    endloop
  endfacet
  facet normal -0 -1 0
    outer loop
      vertex 6 45.3 4.9
      vertex 20 45.3 4.9
      vertex 20 45.3 7
    endloop
  endfacet
  facet normal 0 -1 0
    outer loop
      vertex 6 45.3 7
      vertex 6 45.3 4.9
      vertex 20 45.3 7
    endloop
  endfacet
  facet normal 1 0 0
    outer loop
      vertex 6 44.5 4.9
      vertex 6 45.3 4.9
      vertex 6 45.3 7
    endloop
  endfacet
  facet normal 1 0 -0
    outer loop
      vertex 6 44.5 7
      vertex 6 44.5 4.9
      vertex 6 45.3 7
    endloop
  endfacet
  facet normal 1 0 0
    outer loop
      vertex 3 41.5 4.9
      vertex 3 44.5 1.1
      vertex 3 44.5 7
    endloop
  endfacet
  facet normal 1 0 0
    outer loop
      vertex 3 41.5 4.9
      vertex 3 27.5 4.9
      vertex 3 24.5 1.1
    endloop
  endfacet
  facet normal 1 0 0
    outer loop
      vertex 3 24.5 1.1
      vertex 3 44.5 1.1
      vertex 3 41.5 4.9
    endloop
  endfacet
  facet normal 1 0 0
    outer loop
      vertex 3 27.5 7
      vertex 3 24.5 1.1
      vertex 3 27.5 4.9
    endloop
  endfacet
  facet normal 1 0 -0
    outer loop
      vertex 3 24.5 7
      vertex 3 24.5 1.1
      vertex 3 27.5 7
    endloop
  endfacet
  facet normal 1 0 -0
    outer loop
      vertex 3 41.5 7
      vertex 3 41.5 4.9
      vertex 3 44.5 7
    endloop
  endfacet
  facet normal -0 -1 0
    outer loop
      vertex 2.2 41.5 4.9
      vertex 3 41.5 4.9
      vertex 3 41.5 7
    endloop
  endfacet
  facet normal 0 -1 0
    outer loop
      vertex 2.2 41.5 7
      vertex 2.2 41.5 4.9
      vertex 3 41.5 7
    endloop
  endfacet
  facet normal 1 0 0
    outer loop
      vertex 2.2 27.5 4.9
      vertex 2.2 41.5 4.9
      vertex 2.2 41.5 7
    endloop
  endfacet
  facet normal 1 0 -0
    outer loop
      vertex 2.2 27.5 7
      vertex 2.2 27.5 4.9
      vertex 2.2 41.5 7
    endloop
  endfacet
  facet normal 0 1 -0
    outer loop
      vertex 2.2 27.5 7
      vertex 3 27.5 7
      vertex 2.2 27.5 4.9
    endloop
  endfacet
  facet normal 0 1 0
    outer loop
      vertex 2.2 27.5 4.9
      vertex 3 27.5 7
      vertex 3 27.5 4.9
    endloop
  endfacet
  facet normal 0 1 -0
    outer loop
      vertex 3 24.5 7
      vertex 6 24.5 7
      vertex 3 24.5 1.1
    endloop
  endfacet
  facet normal 0 1 0
    outer loop
      vertex 3 24.5 1.1
      vertex 6 24.5 7
      vertex 6 24.5 4.9
    endloop
  endfacet
  facet normal 0 1 0
    outer loop
      vertex 3 24.5 1.1
      vertex 6 24.5 4.9
      vertex 20 24.5 4.9
    endloop
  endfacet
  facet normal 0 1 0
    outer loop
      vertex 20 24.5 4.9
      vertex 20 24.5 7
      vertex 23 24.5 7
    endloop
  endfacet
  facet normal 0 1 0
    outer loop
      vertex 20 24.5 4.9
      vertex 23 24.5 7
      vertex 23 24.5 1.1
    endloop
  endfacet
  facet normal 0 1 -0
    outer loop
      vertex 20 24.5 4.9
      vertex 23 24.5 1.1
      vertex 3 24.5 1.1
    endloop
  endfacet
  facet normal 1 0 0
    outer loop
      vertex 6 23 4.9
      vertex 6 24.5 4.9
      vertex 6 24.5 7
    endloop
  endfacet
  facet normal 1 0 -0
    outer loop
      vertex 6 23 7
      vertex 6 23 4.9
      vertex 6 24.5 7
    endloop
  endfacet
  facet normal -0 -1 0
    outer loop
      vertex 20 23 4.9
      vertex 23 23 1.1
      vertex 23 23 7
    endloop
  endfacet
  facet normal 0 -1 0
    outer loop
      vertex 20 23 4.9
      vertex 6 23 4.9
      vertex 3 23 1.1
    endloop
  endfacet
  facet normal -0 -1 0
    outer loop
      vertex 3 23 1.1
      vertex 23 23 1.1
      vertex 20 23 4.9
    endloop
  endfacet
  facet normal 0 -1 0
    outer loop
      vertex 6 23 7
      vertex 3 23 1.1
      vertex 6 23 4.9
    endloop
  endfacet
  facet normal 0 -1 0
    outer loop
      vertex 3 23 7
      vertex 3 23 1.1
      vertex 6 23 7
    endloop
  endfacet
  facet normal 0 -1 0
    outer loop
      vertex 20 23 7
      vertex 20 23 4.9
      vertex 23 23 7
    endloop
  endfacet
  facet normal -0 -1 0
    outer loop
      vertex 2.2 20 4.9
      vertex 3 20 4.9
      vertex 3 20 7
    endloop
  endfacet
  facet normal 0 -1 0
    outer loop
      vertex 2.2 20 7
      vertex 2.2 20 4.9
      vertex 3 20 7
    endloop
  endfacet
  facet normal 1 0 0
    outer loop
      vertex 5 5 0
      vertex 5 21 0
      vertex 5 21 1.1
    endloop
  endfacet
  facet normal 1 0 -0
    outer loop
      vertex 5 5 1.1
      vertex 5 5 0
      vertex 5 21 1.1
    endloop
  endfacet
  facet normal 0 1 -0
    outer loop
      vertex 5 5 1.1
      vertex 21 5 1.1
      vertex 5 5 0
    endloop
  endfacet
  facet normal 0 1 0
    outer loop
      vertex 5 5 0
      vertex 21 5 1.1
      vertex 21 5 0
    endloop
  endfacet
  facet normal -0 -1 0
    outer loop
      vertex 5 21 0
      vertex 21 21 0
      vertex 21 21 1.1
    endloop
  endfacet
  facet normal 0 -1 0
    outer loop
      vertex 5 21 1.1
      vertex 5 21 0
      vertex 21 21 1.1
    endloop
  endfacet
  facet normal -1 0 0
    outer loop
      vertex 21 5 1.1
      vertex 21 21 1.1
      vertex 21 5 0
    endloop
  endfacet
  facet normal -1 -0 0
    outer loop
      vertex 21 5 0
      vertex 21 21 1.1
      vertex 21 21 0
    endloop
  endfacet
  facet normal 1 0 0
    outer loop
      vertex 5 26.5 0
      vertex 5 42.5 0
      vertex 5 42.5 1.1
    endloop
  endfacet
  facet normal 1 0 -0
    outer loop
      vertex 5 26.5 1.1
      vertex 5 26.5 0
      vertex 5 42.5 1.1
    endloop
  endfacet
  facet normal 0 1 -0
    outer loop
      vertex 5 26.5 1.1
      vertex 21 26.5 1.1
      vertex 5 26.5 0
    endloop
  endfacet
  facet normal 0 1 0
    outer loop
      vertex 5 26.5 0
      vertex 21 26.5 1.1
      vertex 21 26.5 0
    endloop
  endfacet
  facet normal -0 -1 0
    outer loop
      vertex 5 42.5 0
      vertex 21 42.5 0
      vertex 21 42.5 1.1
    endloop
  endfacet
  facet normal 0 -1 0
    outer loop
      vertex 5 42.5 1.1
      vertex 5 42.5 0
      vertex 21 42.5 1.1
    endloop
  endfacet
  facet normal -1 0 0
    outer loop
      vertex 21 26.5 1.1
      vertex 21 42.5 1.1
      vertex 21 26.5 0
    endloop
  endfacet
  facet normal -1 -0 0
    outer loop
      vertex 21 26.5 0
      vertex 21 42.5 1.1
      vertex 21 42.5 0
    endloop
  endfacet
  facet normal 1 0 0
    outer loop
      vertex 26.5 5 0
      vertex 26.5 21 0
      vertex 26.5 21 1.1
    endloop
  endfacet
  facet normal 1 0 -0
    outer loop
      vertex 26.5 5 1.1
      vertex 26.5 5 0
      vertex 26.5 21 1.1
    endloop
  endfacet
  facet normal 0 1 -0
    outer loop
      vertex 26.5 5 1.1
      vertex 42.5 5 1.1
      vertex 26.5 5 0
    endloop
  endfacet
  facet normal 0 1 0
    outer loop
      vertex 26.5 5 0
      vertex 42.5 5 1.1
      vertex 42.5 5 0
    endloop
  endfacet
  facet normal -0 -1 0
    outer loop
      vertex 26.5 21 0
      vertex 42.5 21 0
      vertex 42.5 21 1.1
    endloop
  endfacet
  facet normal 0 -1 0
    outer loop
      vertex 26.5 21 1.1
      vertex 26.5 21 0
      vertex 42.5 21 1.1
    endloop
  endfacet
  facet normal -1 0 0
    outer loop
      vertex 42.5 5 1.1
      vertex 42.5 21 1.1
      vertex 42.5 5 0
    endloop
  endfacet
  facet normal -1 -0 0
    outer loop
      vertex 42.5 5 0
      vertex 42.5 21 1.1
      vertex 42.5 21 0
    endloop
  endfacet
  facet normal 1 0 0
    outer loop
      vertex 26.5 26.5 0
      vertex 26.5 42.5 0
      vertex 26.5 42.5 1.1
    endloop
  endfacet
  facet normal 1 0 -0
    outer loop
      vertex 26.5 26.5 1.1
      vertex 26.5 26.5 0
      vertex 26.5 42.5 1.1
    endloop
  endfacet
  facet normal 0 1 -0
    outer loop
      vertex 26.5 26.5 1.1
      vertex 42.5 26.5 1.1
      vertex 26.5 26.5 0
    endloop
  endfacet
  facet normal 0 1 0
    outer loop
      vertex 26.5 26.5 0
      vertex 42.5 26.5 1.1
      vertex 42.5 26.5 0
    endloop
  endfacet
  facet normal -0 -1 0
    outer loop
      vertex 26.5 42.5 0
      vertex 42.5 42.5 0
      vertex 42.5 42.5 1.1
    endloop
  endfacet
  facet normal 0 -1 0
    outer loop
      vertex 26.5 42.5 1.1
      vertex 26.5 42.5 0
      vertex 42.5 42.5 1.1
    endloop
  endfacet
  facet normal -1 0 0
    outer loop
      vertex 42.5 26.5 1.1
      vertex 42.5 42.5 1.1
      vertex 42.5 26.5 0
    endloop
  endfacet
  facet normal -1 -0 0
    outer loop
      vertex 42.5 26.5 0
      vertex 42.5 42.5 1.1
      vertex 42.5 42.5 0
    endloop
  endfacet
  facet normal 1 0 0
    outer loop
      vertex 48 5 0
      vertex 48 21 0
      vertex 48 21 1.1
    endloop
  endfacet
  facet normal 1 0 -0
    outer loop
      vertex 48 5 1.1
      vertex 48 5 0
      vertex 48 21 1.1
    endloop
  endfacet
  facet normal 0 1 -0
    outer loop
      vertex 48 5 1.1
      vertex 64 5 1.1
      vertex 48 5 0
    endloop
  endfacet
  facet normal 0 1 0
    outer loop
      vertex 48 5 0
      vertex 64 5 1.1
      vertex 64 5 0
    endloop
  endfacet
  facet normal -0 -1 0
    outer loop
      vertex 48 21 0
      vertex 64 21 0
      vertex 64 21 1.1
    endloop
  endfacet
  facet normal 0 -1 0
    outer loop
      vertex 48 21 1.1
      vertex 48 21 0
      vertex 64 21 1.1
    endloop
  endfacet
  facet normal -1 0 0
    outer loop
      vertex 64 5 1.1
      vertex 64 21 1.1
      vertex 64 5 0
    endloop
  endfacet
  facet normal -1 -0 0
    outer loop
      vertex 64 5 0
      vertex 64 21 1.1
      vertex 64 21 0
    endloop
  endfacet
  facet normal 1 0 0
    outer loop
      vertex 48 26.5 0
      vertex 48 42.5 0
      vertex 48 42.5 1.1
    endloop
  endfacet
  facet normal 1 0 -0
    outer loop
      vertex 48 26.5 1.1
      vertex 48 26.5 0
      vertex 48 42.5 1.1
    endloop
  endfacet
  facet normal 0 1 -0
    outer loop
      vertex 48 26.5 1.1
      vertex 64 26.5 1.1
      vertex 48 26.5 0
    endloop
  endfacet
  facet normal 0 1 0
    outer loop
      vertex 48 26.5 0
      vertex 64 26.5 1.1
      vertex 64 26.5 0
    endloop
  endfacet
  facet normal -0 -1 0
    outer loop
      vertex 48 42.5 0
      vertex 64 42.5 0
      vertex 64 42.5 1.1
    endloop
  endfacet
  facet normal 0 -1 0
    outer loop
      vertex 48 42.5 1.1
      vertex 48 42.5 0
      vertex 64 42.5 1.1
    endloop
  endfacet
  facet normal -1 0 0
    outer loop
      vertex 64 26.5 1.1
      vertex 64 42.5 1.1
      vertex 64 26.5 0
    endloop
  endfacet
  facet normal -1 -0 0
    outer loop
      vertex 64 26.5 0
      vertex 64 42.5 1.1
      vertex 64 42.5 0
    endloop
  endfacet
  facet normal 0 0 1
    outer loop
      vertex 2.2 6 4.9
      vertex 3 6 4.9
      vertex 3 20 4.9
    endloop
  endfacet
  facet normal 0 -0 1
    outer loop
      vertex 2.2 20 4.9
      vertex 2.2 6 4.9
      vertex 3 20 4.9
    endloop
  endfacet
  facet normal 0 0 1
    outer loop
      vertex 21 21 1.1
      vertex 23 3 1.1
      vertex 23 23 1.1
    endloop
  endfacet
  facet normal 0 -0 1
    outer loop
      vertex 5 5 1.1
      vertex 3 3 1.1
      vertex 23 3 1.1
    endloop
  endfacet
  facet normal 0 -0 1
    outer loop
      vertex 21 5 1.1
      vertex 5 5 1.1
      vertex 23 3 1.1
    endloop
  endfacet
  facet normal 0 -0 1
    outer loop
      vertex 3 23 1.1
      vertex 3 3 1.1
      vertex 5 5 1.1
    endloop
  endfacet
  facet normal 0 0 1
    outer loop
      vertex 3 23 1.1
      vertex 5 21 1.1
      vertex 23 23 1.1
    endloop
  endfacet
  facet normal 0 0 1
    outer loop
      vertex 3 23 1.1
      vertex 5 5 1.1
      vertex 5 21 1.1
    endloop
  endfacet
  facet normal 0 0 1
    outer loop
      vertex 5 21 1.1
      vertex 21 21 1.1
      vertex 23 23 1.1
    endloop
  endfacet
  facet normal 0 -0 1
    outer loop
      vertex 21 21 1.1
      vertex 21 5 1.1
      vertex 23 3 1.1
    endloop
  endfacet
  facet normal 0 0 1
    outer loop
      vertex 6 2.2 4.9
      vertex 20 2.2 4.9
      vertex 20 3 4.9
    endloop
  endfacet
  facet normal 0 -0 1
    outer loop
      vertex 6 3 4.9
      vertex 6 2.2 4.9
      vertex 20 3 4.9
    endloop
  endfacet
  facet normal -0 0 1
    outer loop
      vertex 24.5 20 7
      vertex 23 23 7
      vertex 23 20 7
    endloop
  endfacet
  facet normal 0 0 1
    outer loop
      vertex 24.5 23 7
      vertex 23 23 7
      vertex 24.5 20 7
    endloop
  endfacet
  facet normal 0 0 1
    outer loop
      vertex 20 23 7
      vertex 23 23 7
      vertex 27.5 24.5 7
    endloop
  endfacet
  facet normal 0 0 1
    outer loop
      vertex 27.5 24.5 7
      vertex 23 23 7
      vertex 24.5 23 7
    endloop
  endfacet
  facet normal 0 0 1
    outer loop
      vertex 27.5 24.5 7
      vertex 24.5 23 7
      vertex 27.5 23 7
    endloop
  endfacet
  facet normal 0 -0 1
    outer loop
      vertex 24.5 24.5 7
      vertex 20 23 7
      vertex 27.5 24.5 7
    endloop
  endfacet
  facet normal 0 -0 1
    outer loop
      vertex 23 24.5 7
      vertex 20 23 7
      vertex 24.5 24.5 7
    endloop
  endfacet
  facet normal 0 0 1
    outer loop
      vertex 23 24.5 7
      vertex 20 24.5 7
      vertex 20 23 7
    endloop
  endfacet
  facet normal 0 0 1
    outer loop
      vertex 24.5 27.5 7
      vertex 23 24.5 7
      vertex 24.5 24.5 7
    endloop
  endfacet
  facet normal 0 -0 1
    outer loop
      vertex 23 27.5 7
      vertex 23 24.5 7
      vertex 24.5 27.5 7
    endloop
  endfacet
  facet normal -0 -1 0
    outer loop
      vertex 23 20 4.9
      vertex 24.5 20 4.9
      vertex 24.5 20 7
    endloop
  endfacet
  facet normal 0 -1 0
    outer loop
      vertex 23 20 7
      vertex 23 20 4.9
      vertex 24.5 20 7
    endloop
  endfacet
  facet normal 0 0 1
    outer loop
      vertex 23 6 4.9
      vertex 24.5 6 4.9
      vertex 24.5 20 4.9
    endloop
  endfacet
  facet normal 0 -0 1
    outer loop
      vertex 23 20 4.9
      vertex 23 6 4.9
      vertex 24.5 20 4.9
    endloop
  endfacet
  facet normal 0 0 1
    outer loop
      vertex 42.5 21 1.1
      vertex 44.5 3 1.1
      vertex 44.5 23 1.1
    endloop
  endfacet
  facet normal 0 -0 1
    outer loop
      vertex 26.5 5 1.1
      vertex 24.5 3 1.1
      vertex 44.5 3 1.1
    endloop
  endfacet
  facet normal 0 -0 1
    outer loop
      vertex 42.5 5 1.1
      vertex 26.5 5 1.1
      vertex 44.5 3 1.1
    endloop
  endfacet
  facet normal 0 -0 1
    outer loop
      vertex 24.5 23 1.1
      vertex 24.5 3 1.1
      vertex 26.5 5 1.1
    endloop
  endfacet
  facet normal 0 0 1
    outer loop
      vertex 24.5 23 1.1
      vertex 26.5 21 1.1
      vertex 44.5 23 1.1
    endloop
  endfacet
  facet normal 0 0 1
    outer loop
      vertex 24.5 23 1.1
      vertex 26.5 5 1.1
      vertex 26.5 21 1.1
    endloop
  endfacet
  facet normal 0 0 1
    outer loop
      vertex 26.5 21 1.1
      vertex 42.5 21 1.1
      vertex 44.5 23 1.1
    endloop
  endfacet
  facet normal 0 -0 1
    outer loop
      vertex 42.5 21 1.1
      vertex 42.5 5 1.1
      vertex 44.5 3 1.1
    endloop
  endfacet
  facet normal -0 -1 0
    outer loop
      vertex 41.5 23 4.9
      vertex 44.5 23 1.1
      vertex 44.5 23 7
    endloop
  endfacet
  facet normal 0 -1 0
    outer loop
      vertex 41.5 23 4.9
      vertex 27.5 23 4.9
      vertex 24.5 23 1.1
    endloop
  endfacet
  facet normal -0 -1 0
    outer loop
      vertex 24.5 23 1.1
      vertex 44.5 23 1.1
      vertex 41.5 23 4.9
    endloop
  endfacet
  facet normal 0 -1 0
    outer loop
      vertex 27.5 23 7
      vertex 24.5 23 1.1
      vertex 27.5 23 4.9
    endloop
  endfacet
  facet normal 0 -1 0
    outer loop
      vertex 24.5 23 7
      vertex 24.5 23 1.1
      vertex 27.5 23 7
    endloop
  endfacet
  facet normal 0 -1 0
    outer loop
      vertex 41.5 23 7
      vertex 41.5 23 4.9
      vertex 44.5 23 7
    endloop
  endfacet
  facet normal 0 0 1
    outer loop
      vertex 27.5 2.2 4.9
      vertex 41.5 2.2 4.9
      vertex 41.5 3 4.9
    endloop
  endfacet
  facet normal 0 -0 1
    outer loop
      vertex 27.5 3 4.9
      vertex 27.5 2.2 4.9
      vertex 41.5 3 4.9
    endloop
  endfacet
  facet normal -0 0 1
    outer loop
      vertex 46 20 7
      vertex 44.5 23 7
      vertex 44.5 20 7
    endloop
  endfacet
  facet normal 0 0 1
    outer loop
      vertex 46 23 7
      vertex 44.5 23 7
      vertex 46 20 7
    endloop
  endfacet
  facet normal 0 0 1
    outer loop
      vertex 41.5 23 7
      vertex 44.5 23 7
      vertex 49 24.5 7
    endloop
  endfacet
  facet normal 0 0 1
    outer loop
      vertex 49 24.5 7
      vertex 44.5 23 7
      vertex 46 23 7
    endloop
  endfacet
  facet normal 0 0 1
    outer loop
      vertex 49 24.5 7
      vertex 46 23 7
      vertex 49 23 7
    endloop
  endfacet
  facet normal 0 -0 1
    outer loop
      vertex 46 24.5 7
      vertex 41.5 23 7
      vertex 49 24.5 7
    endloop
  endfacet
  facet normal 0 -0 1
    outer loop
      vertex 44.5 24.5 7
      vertex 41.5 23 7
      vertex 46 24.5 7
    endloop
  endfacet
  facet normal 0 0 1
    outer loop
      vertex 44.5 24.5 7
      vertex 41.5 24.5 7
      vertex 41.5 23 7
    endloop
  endfacet
  facet normal 0 0 1
    outer loop
      vertex 46 27.5 7
      vertex 44.5 24.5 7
      vertex 46 24.5 7
    endloop
  endfacet
  facet normal 0 -0 1
    outer loop
      vertex 44.5 27.5 7
      vertex 44.5 24.5 7
      vertex 46 27.5 7
    endloop
  endfacet
  facet normal -0 -1 0
    outer loop
      vertex 44.5 20 4.9
      vertex 46 20 4.9
      vertex 46 20 7
    endloop
  endfacet
  facet normal 0 -1 0
    outer loop
      vertex 44.5 20 7
      vertex 44.5 20 4.9
      vertex 46 20 7
    endloop
  endfacet
  facet normal 0 0 1
    outer loop
      vertex 44.5 6 4.9
      vertex 46 6 4.9
      vertex 46 20 4.9
    endloop
  endfacet
  facet normal 0 -0 1
    outer loop
      vertex 44.5 20 4.9
      vertex 44.5 6 4.9
      vertex 46 20 4.9
    endloop
  endfacet
  facet normal 0 0 1
    outer loop
      vertex 64 21 1.1
      vertex 66 3 1.1
      vertex 66 23 1.1
    endloop
  endfacet
  facet normal 0 -0 1
    outer loop
      vertex 48 5 1.1
      vertex 46 3 1.1
      vertex 66 3 1.1
    endloop
  endfacet
  facet normal 0 -0 1
    outer loop
      vertex 64 5 1.1
      vertex 48 5 1.1
      vertex 66 3 1.1
    endloop
  endfacet
  facet normal 0 -0 1
    outer loop
      vertex 46 23 1.1
      vertex 46 3 1.1
      vertex 48 5 1.1
    endloop
  endfacet
  facet normal 0 0 1
    outer loop
      vertex 46 23 1.1
      vertex 48 21 1.1
      vertex 66 23 1.1
    endloop
  endfacet
  facet normal 0 0 1
    outer loop
      vertex 46 23 1.1
      vertex 48 5 1.1
      vertex 48 21 1.1
    endloop
  endfacet
  facet normal 0 0 1
    outer loop
      vertex 48 21 1.1
      vertex 64 21 1.1
      vertex 66 23 1.1
    endloop
  endfacet
  facet normal 0 -0 1
    outer loop
      vertex 64 21 1.1
      vertex 64 5 1.1
      vertex 66 3 1.1
    endloop
  endfacet
  facet normal 0 0 1
    outer loop
      vertex 49 2.2 4.9
      vertex 63 2.2 4.9
      vertex 63 3 4.9
    endloop
  endfacet
  facet normal 0 -0 1
    outer loop
      vertex 49 3 4.9
      vertex 49 2.2 4.9
      vertex 63 3 4.9
    endloop
  endfacet
  facet normal 0 0 1
    outer loop
      vertex 66 6 4.9
      vertex 66.8 6 4.9
      vertex 66.8 20 4.9
    endloop
  endfacet
  facet normal 0 -0 1
    outer loop
      vertex 66 20 4.9
      vertex 66 6 4.9
      vertex 66.8 20 4.9
    endloop
  endfacet
  facet normal 1 0 0
    outer loop
      vertex 49 23 4.9
      vertex 49 24.5 4.9
      vertex 49 24.5 7
    endloop
  endfacet
  facet normal 1 0 -0
    outer loop
      vertex 49 23 7
      vertex 49 23 4.9
      vertex 49 24.5 7
    endloop
  endfacet
  facet normal 0 0 1
    outer loop
      vertex 49 23 4.9
      vertex 63 23 4.9
      vertex 63 24.5 4.9
    endloop
  endfacet
  facet normal 0 -0 1
    outer loop
      vertex 49 24.5 4.9
      vertex 49 23 4.9
      vertex 63 24.5 4.9
    endloop
  endfacet
  facet normal 0 0 1
    outer loop
      vertex 64 42.5 1.1
      vertex 66 24.5 1.1
      vertex 66 44.5 1.1
    endloop
  endfacet
  facet normal 0 -0 1
    outer loop
      vertex 48 26.5 1.1
      vertex 46 24.5 1.1
      vertex 66 24.5 1.1
    endloop
  endfacet
  facet normal 0 -0 1
    outer loop
      vertex 64 26.5 1.1
      vertex 48 26.5 1.1
      vertex 66 24.5 1.1
    endloop
  endfacet
  facet normal 0 -0 1
    outer loop
      vertex 46 44.5 1.1
      vertex 46 24.5 1.1
      vertex 48 26.5 1.1
    endloop
  endfacet
  facet normal 0 0 1
    outer loop
      vertex 46 44.5 1.1
      vertex 48 42.5 1.1
      vertex 66 44.5 1.1
    endloop
  endfacet
  facet normal 0 0 1
    outer loop
      vertex 46 44.5 1.1
      vertex 48 26.5 1.1
      vertex 48 42.5 1.1
    endloop
  endfacet
  facet normal 0 0 1
    outer loop
      vertex 48 42.5 1.1
      vertex 64 42.5 1.1
      vertex 66 44.5 1.1
    endloop
  endfacet
  facet normal 0 -0 1
    outer loop
      vertex 64 42.5 1.1
      vertex 64 26.5 1.1
      vertex 66 24.5 1.1
    endloop
  endfacet
  facet normal 0 0 1
    outer loop
      vertex 66 27.5 4.9
      vertex 66.8 27.5 4.9
      vertex 66.8 41.5 4.9
    endloop
  endfacet
  facet normal 0 -0 1
    outer loop
      vertex 66 41.5 4.9
      vertex 66 27.5 4.9
      vertex 66.8 41.5 4.9
    endloop
  endfacet
  facet normal 0 0 1
    outer loop
      vertex 49 44.5 4.9
      vertex 63 44.5 4.9
      vertex 63 45.3 4.9
    endloop
  endfacet
  facet normal 0 -0 1
    outer loop
      vertex 49 45.3 4.9
      vertex 49 44.5 4.9
      vertex 63 45.3 4.9
    endloop
  endfacet
  facet normal 0 1 -0
    outer loop
      vertex 44.5 27.5 7
      vertex 46 27.5 7
      vertex 44.5 27.5 4.9
    endloop
  endfacet
  facet normal 0 1 0
    outer loop
      vertex 44.5 27.5 4.9
      vertex 46 27.5 7
      vertex 46 27.5 4.9
    endloop
  endfacet
  facet normal 0 0 1
    outer loop
      vertex 44.5 27.5 4.9
      vertex 46 27.5 4.9
      vertex 46 41.5 4.9
    endloop
  endfacet
  facet normal 0 -0 1
    outer loop
      vertex 44.5 41.5 4.9
      vertex 44.5 27.5 4.9
      vertex 46 41.5 4.9
    endloop
  endfacet
  facet normal 0 1 -0
    outer loop
      vertex 24.5 24.5 7
      vertex 27.5 24.5 7
      vertex 24.5 24.5 1.1
    endloop
  endfacet
  facet normal 0 1 0
    outer loop
      vertex 24.5 24.5 1.1
      vertex 27.5 24.5 7
      vertex 27.5 24.5 4.9
    endloop
  endfacet
  facet normal 0 1 0
    outer loop
      vertex 24.5 24.5 1.1
      vertex 27.5 24.5 4.9
      vertex 41.5 24.5 4.9
    endloop
  endfacet
  facet normal 0 1 0
    outer loop
      vertex 41.5 24.5 4.9
      vertex 41.5 24.5 7
      vertex 44.5 24.5 7
    endloop
  endfacet
  facet normal 0 1 0
    outer loop
      vertex 41.5 24.5 4.9
      vertex 44.5 24.5 7
      vertex 44.5 24.5 1.1
    endloop
  endfacet
  facet normal 0 1 -0
    outer loop
      vertex 41.5 24.5 4.9
      vertex 44.5 24.5 1.1
      vertex 24.5 24.5 1.1
    endloop
  endfacet
  facet normal 0 0 1
    outer loop
      vertex 42.5 42.5 1.1
      vertex 44.5 24.5 1.1
      vertex 44.5 44.5 1.1
    endloop
  endfacet
  facet normal 0 -0 1
    outer loop
      vertex 26.5 26.5 1.1
      vertex 24.5 24.5 1.1
      vertex 44.5 24.5 1.1
    endloop
  endfacet
  facet normal 0 -0 1
    outer loop
      vertex 42.5 26.5 1.1
      vertex 26.5 26.5 1.1
      vertex 44.5 24.5 1.1
    endloop
  endfacet
  facet normal 0 -0 1
    outer loop
      vertex 24.5 44.5 1.1
      vertex 24.5 24.5 1.1
      vertex 26.5 26.5 1.1
    endloop
  endfacet
  facet normal 0 0 1
    outer loop
      vertex 24.5 44.5 1.1
      vertex 26.5 42.5 1.1
      vertex 44.5 44.5 1.1
    endloop
  endfacet
  facet normal 0 0 1
    outer loop
      vertex 24.5 44.5 1.1
      vertex 26.5 26.5 1.1
      vertex 26.5 42.5 1.1
    endloop
  endfacet
  facet normal 0 0 1
    outer loop
      vertex 26.5 42.5 1.1
      vertex 42.5 42.5 1.1
      vertex 44.5 44.5 1.1
    endloop
  endfacet
  facet normal 0 -0 1
    outer loop
      vertex 42.5 42.5 1.1
      vertex 42.5 26.5 1.1
      vertex 44.5 24.5 1.1
    endloop
  endfacet
  facet normal 0 0 1
    outer loop
      vertex 27.5 44.5 4.9
      vertex 41.5 44.5 4.9
      vertex 41.5 45.3 4.9
    endloop
  endfacet
  facet normal 0 -0 1
    outer loop
      vertex 27.5 45.3 4.9
      vertex 27.5 44.5 4.9
      vertex 41.5 45.3 4.9
    endloop
  endfacet
  facet normal 0 1 -0
    outer loop
      vertex 23 27.5 7
      vertex 24.5 27.5 7
      vertex 23 27.5 4.9
    endloop
  endfacet
  facet normal 0 1 0
    outer loop
      vertex 23 27.5 4.9
      vertex 24.5 27.5 7
      vertex 24.5 27.5 4.9
    endloop
  endfacet
  facet normal 0 0 1
    outer loop
      vertex 23 27.5 4.9
      vertex 24.5 27.5 4.9
      vertex 24.5 41.5 4.9
    endloop
  endfacet
  facet normal 0 -0 1
    outer loop
      vertex 23 41.5 4.9
      vertex 23 27.5 4.9
      vertex 24.5 41.5 4.9
    endloop
  endfacet
  facet normal 0 0 1
    outer loop
      vertex 21 42.5 1.1
      vertex 23 24.5 1.1
      vertex 23 44.5 1.1
    endloop
  endfacet
  facet normal 0 -0 1
    outer loop
      vertex 5 26.5 1.1
      vertex 3 24.5 1.1
      vertex 23 24.5 1.1
    endloop
  endfacet
  facet normal 0 -0 1
    outer loop
      vertex 21 26.5 1.1
      vertex 5 26.5 1.1
      vertex 23 24.5 1.1
    endloop
  endfacet
  facet normal 0 -0 1
    outer loop
      vertex 3 44.5 1.1
      vertex 3 24.5 1.1
      vertex 5 26.5 1.1
    endloop
  endfacet
  facet normal 0 0 1
    outer loop
      vertex 3 44.5 1.1
      vertex 5 42.5 1.1
      vertex 23 44.5 1.1
    endloop
  endfacet
  facet normal 0 0 1
    outer loop
      vertex 3 44.5 1.1
      vertex 5 26.5 1.1
      vertex 5 42.5 1.1
    endloop
  endfacet
  facet normal 0 0 1
    outer loop
      vertex 5 42.5 1.1
      vertex 21 42.5 1.1
      vertex 23 44.5 1.1
    endloop
  endfacet
  facet normal 0 -0 1
    outer loop
      vertex 21 42.5 1.1
      vertex 21 26.5 1.1
      vertex 23 24.5 1.1
    endloop
  endfacet
  facet normal 0 0 1
    outer loop
      vertex 6 44.5 4.9
      vertex 20 44.5 4.9
      vertex 20 45.3 4.9
    endloop
  endfacet
  facet normal 0 -0 1
    outer loop
      vertex 6 45.3 4.9
      vertex 6 44.5 4.9
      vertex 20 45.3 4.9
    endloop
  endfacet
  facet normal 0 0 1
    outer loop
      vertex 2.2 27.5 4.9
      vertex 3 27.5 4.9
      vertex 3 41.5 4.9
    endloop
  endfacet
  facet normal 0 -0 1
    outer loop
      vertex 2.2 41.5 4.9
      vertex 2.2 27.5 4.9
      vertex 3 41.5 4.9
    endloop
  endfacet
  facet normal -1 0 0
    outer loop
      vertex 20 23 7
      vertex 20 24.5 7
      vertex 20 23 4.9
    endloop
  endfacet
  facet normal -1 -0 0
    outer loop
      vertex 20 23 4.9
      vertex 20 24.5 7
      vertex 20 24.5 4.9
    endloop
  endfacet
  facet normal 0 0 1
    outer loop
      vertex 6 23 4.9
      vertex 20 23 4.9
      vertex 20 24.5 4.9
    endloop
  endfacet
  facet normal 0 -0 1
    outer loop
      vertex 6 24.5 4.9
      vertex 6 23 4.9
      vertex 20 24.5 4.9
    endloop
  endfacet
  facet normal 1 0 0
    outer loop
      vertex 27.5 23 4.9
      vertex 27.5 24.5 4.9
      vertex 27.5 24.5 7
    endloop
  endfacet
  facet normal 1 0 -0
    outer loop
      vertex 27.5 23 7
      vertex 27.5 23 4.9
      vertex 27.5 24.5 7
    endloop
  endfacet
  facet normal 0 0 1
    outer loop
      vertex 27.5 23 4.9
      vertex 41.5 23 4.9
      vertex 41.5 24.5 4.9
    endloop
  endfacet
  facet normal 0 -0 1
    outer loop
      vertex 27.5 24.5 4.9
      vertex 27.5 23 4.9
      vertex 41.5 24.5 4.9
    endloop
  endfacet
  facet normal -1 0 0
    outer loop
      vertex 41.5 23 7
      vertex 41.5 24.5 7
      vertex 41.5 23 4.9
    endloop
  endfacet
  facet normal -1 -0 0
    outer loop
      vertex 41.5 23 4.9
      vertex 41.5 24.5 7
      vertex 41.5 24.5 4.9
    endloop
  endfacet
endsolid OpenSCAD_Model
