solid OpenSCAD_Model
  facet normal -1 -0 -0
    outer loop
      vertex 0 0 0
      vertex 0 0 1.2
      vertex 0 6 0
    endloop
  endfacet
  facet normal -1 0 0
    outer loop
      vertex 0 6 0
      vertex 0 0 1.2
      vertex 0 6 1.2
    endloop
  endfacet
  facet normal 0 -1 0
    outer loop
      vertex 0 0 1.2
      vertex 0 0 0
      vertex 29.4074 0 0
    endloop
  endfacet
  facet normal 0 -1 0
    outer loop
      vertex 23 0 1.2
      vertex 0 0 1.2
      vertex 29.4074 0 0
    endloop
  endfacet
  facet normal 0 -1 0
    outer loop
      vertex 27.366 0 7.5
      vertex 23 0 1.2
      vertex 29.4074 0 0
    endloop
  endfacet
  facet normal 0 -1 0
    outer loop
      vertex 25.634 0 7.5
      vertex 24.7679 0 9
      vertex 23 0 1.2
    endloop
  endfacet
  facet normal 0 -1 0
    outer loop
      vertex 25.634 0 10.5
      vertex 27.366 0 10.5
      vertex 29.4074 0 14
    endloop
  endfacet
  facet normal -0 -1 0
    outer loop
      vertex 27.366 0 10.5
      vertex 28.2321 0 9
      vertex 29.4074 0 14
    endloop
  endfacet
  facet normal 0 -1 0
    outer loop
      vertex 27.366 0 7.5
      vertex 25.634 0 7.5
      vertex 23 0 1.2
    endloop
  endfacet
  facet normal 0 -1 0
    outer loop
      vertex 29.4074 0 14
      vertex 28.2321 0 9
      vertex 29.4074 0 0
    endloop
  endfacet
  facet normal 0 -1 0
    outer loop
      vertex 28.2321 0 9
      vertex 27.366 0 7.5
      vertex 29.4074 0 0
    endloop
  endfacet
  facet normal 0 -1 0
    outer loop
      vertex 23 0 14
      vertex 25.634 0 10.5
      vertex 29.4074 0 14
    endloop
  endfacet
  facet normal 0 -1 0
    outer loop
      vertex 23 0 14
      vertex 24.7679 0 9
      vertex 25.634 0 10.5
    endloop
  endfacet
  facet normal 0 -1 0
    outer loop
      vertex 23 0 14
      vertex 23 0 1.2
      vertex 24.7679 0 9
    endloop
  endfacet
  facet normal -0 -0 -1
    outer loop
      vertex 0 0 0
      vertex 0 6 0
      vertex 29.4074 0 0
    endloop
  endfacet
  facet normal 0 0 -1
    outer loop
      vertex 29.4074 0 0
      vertex 0 6 0
      vertex 23 6 0
    endloop
  endfacet
  facet normal 0 0 -1
    outer loop
      vertex 29.4074 0 0
      vertex 23 6 0
      vertex 23 10 0
    endloop
  endfacet
  facet normal 0 -0 -1
    outer loop
      vertex 29.4074 0 0
      vertex 23 10 0
      vertex 29.9216 10 0
    endloop
  endfacet
  facet normal 0 0 -1
    outer loop
      vertex 29.4074 0 0
      vertex 29.9216 10 0
      vertex 30.2321 8.43928 0
    endloop
  endfacet
  facet normal 0 0 -1
    outer loop
      vertex 29.4074 0 0
      vertex 30.2321 8.43928 0
      vertex 31.1162 7.11616 0
    endloop
  endfacet
  facet normal 0 0 -1
    outer loop
      vertex 31.1162 7.11616 0
      vertex 32.4393 6.23208 0
      vertex 29.4074 0 0
    endloop
  endfacet
  facet normal 0 0 -1
    outer loop
      vertex 32.4393 6.23208 0
      vertex 34 5.92164 0
      vertex 29.4074 0 0
    endloop
  endfacet
  facet normal -0 0 -1
    outer loop
      vertex 34 5.92164 0
      vertex 35.5607 6.23208 0
      vertex 29.4074 0 0
    endloop
  endfacet
  facet normal -0 0 -1
    outer loop
      vertex 35.5607 6.23208 0
      vertex 36.8838 7.11616 0
      vertex 29.4074 0 0
    endloop
  endfacet
  facet normal -0 0 -1
    outer loop
      vertex 36.8838 7.11616 0
      vertex 45 10 0
      vertex 29.4074 0 0
    endloop
  endfacet
  facet normal -0 0 -1
    outer loop
      vertex 37.7679 8.43928 0
      vertex 45 10 0
      vertex 36.8838 7.11616 0
    endloop
  endfacet
  facet normal -0 0 -1
    outer loop
      vertex 38.0784 10 0
      vertex 45 10 0
      vertex 37.7679 8.43928 0
    endloop
  endfacet
  facet normal -0 0 -1
    outer loop
      vertex 38.5926 0 0
      vertex 45 10 0
      vertex 45 0 0
    endloop
  endfacet
  facet normal -0 0 -1
    outer loop
      vertex 29.4074 0 0
      vertex 45 10 0
      vertex 38.5926 0 0
    endloop
  endfacet
  facet normal 0 0 -1
    outer loop
      vertex 31.0244 -2.09551 0
      vertex 35.5643 -2.81456 0
      vertex 32.4357 -2.81456 0
    endloop
  endfacet
  facet normal 0 0 -1
    outer loop
      vertex 38.5926 0 0
      vertex 38.0955 -0.97556 0
      vertex 29.4074 0 0
    endloop
  endfacet
  facet normal 0 0 -1
    outer loop
      vertex 29.9045 -0.97556 0
      vertex 36.9756 -2.09551 0
      vertex 31.0244 -2.09551 0
    endloop
  endfacet
  facet normal 0 0 -1
    outer loop
      vertex 35.5643 -2.81456 0
      vertex 34 -3.06233 0
      vertex 32.4357 -2.81456 0
    endloop
  endfacet
  facet normal 0 0 -1
    outer loop
      vertex 36.9756 -2.09551 0
      vertex 35.5643 -2.81456 0
      vertex 31.0244 -2.09551 0
    endloop
  endfacet
  facet normal 0 0 -1
    outer loop
      vertex 38.0955 -0.97556 0
      vertex 36.9756 -2.09551 0
      vertex 29.9045 -0.97556 0
    endloop
  endfacet
  facet normal 0 0 -1
    outer loop
      vertex 29.4074 0 0
      vertex 38.0955 -0.97556 0
      vertex 29.9045 -0.97556 0
    endloop
  endfacet
  facet normal 0 1 0
    outer loop
      vertex 0 6 0
      vertex 0 6 1.2
      vertex 23 6 0
    endloop
  endfacet
  facet normal 0 1 0
    outer loop
      vertex 23 6 0
      vertex 0 6 1.2
      vertex 23 6 1.2
    endloop
  endfacet
  facet normal 0 -0 1
    outer loop
      vertex 0 6 1.2
      vertex 0 0 1.2
      vertex 23 0 1.2
    endloop
  endfacet
  facet normal 0 0 1
    outer loop
      vertex 23 6 1.2
      vertex 0 6 1.2
      vertex 23 0 1.2
    endloop
  endfacet
  facet normal -1 -0 -0
    outer loop
      vertex 23 0 1.2
      vertex 23 0 14
      vertex 23 6 1.2
    endloop
  endfacet
  facet normal -1 0 -0
    outer loop
      vertex 23 6 1.2
      vertex 23 0 14
      vertex 23 10 14
    endloop
  endfacet
  facet normal -1 -0 0
    outer loop
      vertex 23 6 1.2
      vertex 23 10 14
      vertex 23 10 0
    endloop
  endfacet
  facet normal -1 0 0
    outer loop
      vertex 23 6 1.2
      vertex 23 10 0
      vertex 23 6 0
    endloop
  endfacet
  facet normal 0 0 1
    outer loop
      vertex 29.9045 -0.97556 14
      vertex 31.0244 -2.09551 14
      vertex 29.4074 0 14
    endloop
  endfacet
  facet normal 0 -0 1
    outer loop
      vertex 23 10 14
      vertex 23 0 14
      vertex 29.4074 0 14
    endloop
  endfacet
  facet normal 0 0 1
    outer loop
      vertex 38.5926 0 14
      vertex 45 0 14
      vertex 23 10 14
    endloop
  endfacet
  facet normal 0 0 1
    outer loop
      vertex 31.0244 -2.09551 14
      vertex 23 10 14
      vertex 29.4074 0 14
    endloop
  endfacet
  facet normal 0 0 1
    outer loop
      vertex 31.0244 -2.09551 14
      vertex 32.4357 -2.81456 14
      vertex 23 10 14
    endloop
  endfacet
  facet normal 0 0 1
    outer loop
      vertex 32.4357 -2.81456 14
      vertex 34 -3.06233 14
      vertex 23 10 14
    endloop
  endfacet
  facet normal 0 0 1
    outer loop
      vertex 34 -3.06233 14
      vertex 35.5643 -2.81456 14
      vertex 23 10 14
    endloop
  endfacet
  facet normal 0 0 1
    outer loop
      vertex 35.5643 -2.81456 14
      vertex 36.9756 -2.09551 14
      vertex 23 10 14
    endloop
  endfacet
  facet normal 0 0 1
    outer loop
      vertex 36.9756 -2.09551 14
      vertex 38.0955 -0.97556 14
      vertex 23 10 14
    endloop
  endfacet
  facet normal 0 0 1
    outer loop
      vertex 38.0955 -0.97556 14
      vertex 38.5926 0 14
      vertex 23 10 14
    endloop
  endfacet
  facet normal 0 0 1
    outer loop
      vertex 45 0 14
      vertex 45 10 14
      vertex 38.0784 10 14
    endloop
  endfacet
  facet normal 0 0 1
    outer loop
      vertex 45 0 14
      vertex 38.0784 10 14
      vertex 37.7679 8.43928 14
    endloop
  endfacet
  facet normal 0 0 1
    outer loop
      vertex 45 0 14
      vertex 37.7679 8.43928 14
      vertex 36.8838 7.11616 14
    endloop
  endfacet
  facet normal 0 0 1
    outer loop
      vertex 45 0 14
      vertex 36.8838 7.11616 14
      vertex 35.5607 6.23208 14
    endloop
  endfacet
  facet normal 0 0 1
    outer loop
      vertex 31.1162 7.11616 14
      vertex 30.2321 8.43928 14
      vertex 23 10 14
    endloop
  endfacet
  facet normal 0 0 1
    outer loop
      vertex 45 0 14
      vertex 35.5607 6.23208 14
      vertex 34 5.92164 14
    endloop
  endfacet
  facet normal 0 0 1
    outer loop
      vertex 45 0 14
      vertex 32.4393 6.23208 14
      vertex 23 10 14
    endloop
  endfacet
  facet normal 0 0 1
    outer loop
      vertex 45 0 14
      vertex 34 5.92164 14
      vertex 32.4393 6.23208 14
    endloop
  endfacet
  facet normal 0 0 1
    outer loop
      vertex 32.4393 6.23208 14
      vertex 31.1162 7.11616 14
      vertex 23 10 14
    endloop
  endfacet
  facet normal 0 0 1
    outer loop
      vertex 30.2321 8.43928 14
      vertex 29.9216 10 14
      vertex 23 10 14
    endloop
  endfacet
  facet normal -0.891006 -0.453991 -0
    outer loop
      vertex 29.4074 0 0
      vertex 29.9045 -0.97556 0
      vertex 29.4074 0 14
    endloop
  endfacet
  facet normal -0.891006 -0.453991 0
    outer loop
      vertex 29.4074 0 14
      vertex 29.9045 -0.97556 0
      vertex 29.9045 -0.97556 14
    endloop
  endfacet
  facet normal 0.866025 1.8041e-16 -0.5
    outer loop
      vertex 24.7679 10 9
      vertex 25.634 10 10.5
      vertex 25.634 0 10.5
    endloop
  endfacet
  facet normal 0.866025 1.77636e-16 -0.5
    outer loop
      vertex 24.7679 0 9
      vertex 24.7679 10 9
      vertex 25.634 0 10.5
    endloop
  endfacet
  facet normal 0.866025 -1.33227e-16 0.5
    outer loop
      vertex 25.634 0 7.5
      vertex 25.634 10 7.5
      vertex 24.7679 10 9
    endloop
  endfacet
  facet normal 0.866025 -1.77636e-16 0.5
    outer loop
      vertex 24.7679 0 9
      vertex 25.634 0 7.5
      vertex 24.7679 10 9
    endloop
  endfacet
  facet normal 0 -1.77636e-16 1
    outer loop
      vertex 27.366 0 7.5
      vertex 27.366 10 7.5
      vertex 25.634 10 7.5
    endloop
  endfacet
  facet normal -5.1279e-16 -2.66454e-16 1
    outer loop
      vertex 25.634 0 7.5
      vertex 27.366 0 7.5
      vertex 25.634 10 7.5
    endloop
  endfacet
  facet normal -0.866025 -8.88179e-17 0.5
    outer loop
      vertex 28.2321 10 9
      vertex 27.366 10 7.5
      vertex 28.2321 0 9
    endloop
  endfacet
  facet normal -0.866025 -8.32679e-17 0.5
    outer loop
      vertex 28.2321 0 9
      vertex 27.366 10 7.5
      vertex 27.366 0 7.5
    endloop
  endfacet
  facet normal -0.866025 8.88179e-17 -0.5
    outer loop
      vertex 28.2321 10 9
      vertex 28.2321 0 9
      vertex 27.366 10 10.5
    endloop
  endfacet
  facet normal -0.866025 8.88179e-17 -0.5
    outer loop
      vertex 27.366 10 10.5
      vertex 28.2321 0 9
      vertex 27.366 0 10.5
    endloop
  endfacet
  facet normal 0 1.77636e-16 -1
    outer loop
      vertex 27.366 10 10.5
      vertex 27.366 0 10.5
      vertex 25.634 10 10.5
    endloop
  endfacet
  facet normal 1.02558e-15 3.55271e-16 -1
    outer loop
      vertex 25.634 10 10.5
      vertex 27.366 0 10.5
      vertex 25.634 0 10.5
    endloop
  endfacet
  facet normal -0.707107 -0.707107 -0
    outer loop
      vertex 29.9045 -0.97556 0
      vertex 31.0244 -2.09551 0
      vertex 29.9045 -0.97556 14
    endloop
  endfacet
  facet normal -0.707107 -0.707107 0
    outer loop
      vertex 29.9045 -0.97556 14
      vertex 31.0244 -2.09551 0
      vertex 31.0244 -2.09551 14
    endloop
  endfacet
  facet normal -0.453991 -0.891006 0
    outer loop
      vertex 31.0244 -2.09551 14
      vertex 31.0244 -2.09551 0
      vertex 32.4357 -2.81456 0
    endloop
  endfacet
  facet normal -0.453991 -0.891006 0
    outer loop
      vertex 32.4357 -2.81456 14
      vertex 31.0244 -2.09551 14
      vertex 32.4357 -2.81456 0
    endloop
  endfacet
  facet normal -0.156435 -0.987688 0
    outer loop
      vertex 32.4357 -2.81456 14
      vertex 32.4357 -2.81456 0
      vertex 34 -3.06233 0
    endloop
  endfacet
  facet normal -0.156435 -0.987688 0
    outer loop
      vertex 34 -3.06233 14
      vertex 32.4357 -2.81456 14
      vertex 34 -3.06233 0
    endloop
  endfacet
  facet normal 0.156435 -0.987688 0
    outer loop
      vertex 34 -3.06233 14
      vertex 34 -3.06233 0
      vertex 35.5643 -2.81456 0
    endloop
  endfacet
  facet normal 0.156435 -0.987688 0
    outer loop
      vertex 35.5643 -2.81456 14
      vertex 34 -3.06233 14
      vertex 35.5643 -2.81456 0
    endloop
  endfacet
  facet normal 0.453991 -0.891006 0
    outer loop
      vertex 35.5643 -2.81456 14
      vertex 35.5643 -2.81456 0
      vertex 36.9756 -2.09551 0
    endloop
  endfacet
  facet normal 0.453991 -0.891006 0
    outer loop
      vertex 36.9756 -2.09551 14
      vertex 35.5643 -2.81456 14
      vertex 36.9756 -2.09551 0
    endloop
  endfacet
  facet normal 0.707107 -0.707107 0
    outer loop
      vertex 36.9756 -2.09551 14
      vertex 36.9756 -2.09551 0
      vertex 38.0955 -0.97556 0
    endloop
  endfacet
  facet normal 0.707107 -0.707107 0
    outer loop
      vertex 38.0955 -0.97556 14
      vertex 36.9756 -2.09551 14
      vertex 38.0955 -0.97556 0
    endloop
  endfacet
  facet normal 0.891006 -0.453991 0
    outer loop
      vertex 38.0955 -0.97556 14
      vertex 38.0955 -0.97556 0
      vertex 38.5926 0 0
    endloop
  endfacet
  facet normal 0.891006 -0.453991 0
    outer loop
      vertex 38.5926 0 14
      vertex 38.0955 -0.97556 14
      vertex 38.5926 0 0
    endloop
  endfacet
  facet normal 0 -1 0
    outer loop
      vertex 40.634 0 7.5
      vertex 38.5926 0 0
      vertex 45 0 0
    endloop
  endfacet
  facet normal 0 -1 0
    outer loop
      vertex 43.2321 0 9
      vertex 42.366 0 7.5
      vertex 45 0 0
    endloop
  endfacet
  facet normal 0 -1 0
    outer loop
      vertex 38.5926 0 14
      vertex 38.5926 0 0
      vertex 39.7679 0 9
    endloop
  endfacet
  facet normal 0 -1 0
    outer loop
      vertex 45 0 14
      vertex 38.5926 0 14
      vertex 40.634 0 10.5
    endloop
  endfacet
  facet normal 0 -1 0
    outer loop
      vertex 45 0 14
      vertex 40.634 0 10.5
      vertex 42.366 0 10.5
    endloop
  endfacet
  facet normal 0 -1 0
    outer loop
      vertex 45 0 14
      vertex 43.2321 0 9
      vertex 45 0 0
    endloop
  endfacet
  facet normal 0 -1 0
    outer loop
      vertex 45 0 14
      vertex 42.366 0 10.5
      vertex 43.2321 0 9
    endloop
  endfacet
  facet normal 0 -1 0
    outer loop
      vertex 39.7679 0 9
      vertex 38.5926 0 0
      vertex 40.634 0 7.5
    endloop
  endfacet
  facet normal 0 -1 -0
    outer loop
      vertex 39.7679 0 9
      vertex 40.634 0 10.5
      vertex 38.5926 0 14
    endloop
  endfacet
  facet normal 0 -1 0
    outer loop
      vertex 42.366 0 7.5
      vertex 40.634 0 7.5
      vertex 45 0 0
    endloop
  endfacet
  facet normal 1 0 -0
    outer loop
      vertex 45 0 14
      vertex 45 0 0
      vertex 45 10 0
    endloop
  endfacet
  facet normal 1 0 0
    outer loop
      vertex 45 10 14
      vertex 45 0 14
      vertex 45 10 0
    endloop
  endfacet
  facet normal 0 1 -0
    outer loop
      vertex 42.366 10 7.5
      vertex 45 10 0
      vertex 40.634 10 7.5
    endloop
  endfacet
  facet normal 0 1 0
    outer loop
      vertex 40.634 10 10.5
      vertex 38.0784 10 14
      vertex 45 10 14
    endloop
  endfacet
  facet normal -0 1 0
    outer loop
      vertex 42.366 10 10.5
      vertex 40.634 10 10.5
      vertex 45 10 14
    endloop
  endfacet
  facet normal 0 1 0
    outer loop
      vertex 38.0784 10 0
      vertex 38.0784 10 14
      vertex 39.7679 10 9
    endloop
  endfacet
  facet normal 0 1 0
    outer loop
      vertex 38.0784 10 0
      vertex 39.7679 10 9
      vertex 40.634 10 7.5
    endloop
  endfacet
  facet normal 0 1 0
    outer loop
      vertex 38.0784 10 0
      vertex 40.634 10 7.5
      vertex 45 10 0
    endloop
  endfacet
  facet normal 0 1 0
    outer loop
      vertex 42.366 10 10.5
      vertex 45 10 14
      vertex 43.2321 10 9
    endloop
  endfacet
  facet normal 0 1 0
    outer loop
      vertex 45 10 0
      vertex 42.366 10 7.5
      vertex 43.2321 10 9
    endloop
  endfacet
  facet normal 0 1 0
    outer loop
      vertex 45 10 0
      vertex 43.2321 10 9
      vertex 45 10 14
    endloop
  endfacet
  facet normal 0 1 0
    outer loop
      vertex 39.7679 10 9
      vertex 38.0784 10 14
      vertex 40.634 10 10.5
    endloop
  endfacet
  facet normal -0.980785 0.19509 0
    outer loop
      vertex 38.0784 10 14
      vertex 38.0784 10 0
      vertex 37.7679 8.43928 14
    endloop
  endfacet
  facet normal -0.980785 0.19509 0
    outer loop
      vertex 37.7679 8.43928 14
      vertex 38.0784 10 0
      vertex 37.7679 8.43928 0
    endloop
  endfacet
  facet normal -0.831469 0.555571 0
    outer loop
      vertex 37.7679 8.43928 14
      vertex 37.7679 8.43928 0
      vertex 36.8838 7.11616 14
    endloop
  endfacet
  facet normal -0.831469 0.555571 0
    outer loop
      vertex 36.8838 7.11616 14
      vertex 37.7679 8.43928 0
      vertex 36.8838 7.11616 0
    endloop
  endfacet
  facet normal -0.555571 0.831469 0
    outer loop
      vertex 36.8838 7.11616 14
      vertex 36.8838 7.11616 0
      vertex 35.5607 6.23208 14
    endloop
  endfacet
  facet normal -0.555571 0.831469 0
    outer loop
      vertex 35.5607 6.23208 14
      vertex 36.8838 7.11616 0
      vertex 35.5607 6.23208 0
    endloop
  endfacet
  facet normal -0.19509 0.980785 0
    outer loop
      vertex 35.5607 6.23208 14
      vertex 35.5607 6.23208 0
      vertex 34 5.92164 14
    endloop
  endfacet
  facet normal -0.19509 0.980785 0
    outer loop
      vertex 34 5.92164 14
      vertex 35.5607 6.23208 0
      vertex 34 5.92164 0
    endloop
  endfacet
  facet normal 0.19509 0.980785 -0
    outer loop
      vertex 34 5.92164 14
      vertex 34 5.92164 0
      vertex 32.4393 6.23208 14
    endloop
  endfacet
  facet normal 0.19509 0.980785 -0
    outer loop
      vertex 32.4393 6.23208 14
      vertex 34 5.92164 0
      vertex 32.4393 6.23208 0
    endloop
  endfacet
  facet normal 0.555571 0.831469 -0
    outer loop
      vertex 32.4393 6.23208 14
      vertex 32.4393 6.23208 0
      vertex 31.1162 7.11616 14
    endloop
  endfacet
  facet normal 0.555571 0.831469 -0
    outer loop
      vertex 31.1162 7.11616 14
      vertex 32.4393 6.23208 0
      vertex 31.1162 7.11616 0
    endloop
  endfacet
  facet normal 0.831469 0.555571 0
    outer loop
      vertex 30.2321 8.43928 14
      vertex 31.1162 7.11616 14
      vertex 31.1162 7.11616 0
    endloop
  endfacet
  facet normal 0.831469 0.555571 0
    outer loop
      vertex 30.2321 8.43928 0
      vertex 30.2321 8.43928 14
      vertex 31.1162 7.11616 0
    endloop
  endfacet
  facet normal 0.980785 0.19509 0
    outer loop
      vertex 29.9216 10 14
      vertex 30.2321 8.43928 14
      vertex 30.2321 8.43928 0
    endloop
  endfacet
  facet normal 0.980785 0.19509 0
    outer loop
      vertex 29.9216 10 0
      vertex 29.9216 10 14
      vertex 30.2321 8.43928 0
    endloop
  endfacet
  facet normal 0 1 0
    outer loop
      vertex 25.634 10 10.5
      vertex 23 10 14
      vertex 29.9216 10 14
    endloop
  endfacet
  facet normal -0 1 0
    outer loop
      vertex 27.366 10 10.5
      vertex 25.634 10 10.5
      vertex 29.9216 10 14
    endloop
  endfacet
  facet normal 0 1 0
    outer loop
      vertex 23 10 0
      vertex 23 10 14
      vertex 24.7679 10 9
    endloop
  endfacet
  facet normal 0 1 0
    outer loop
      vertex 23 10 0
      vertex 24.7679 10 9
      vertex 29.9216 10 0
    endloop
  endfacet
  facet normal 0 1 -0
    outer loop
      vertex 27.366 10 7.5
      vertex 29.9216 10 0
      vertex 25.634 10 7.5
    endloop
  endfacet
  facet normal 0 1 0
    outer loop
      vertex 24.7679 10 9
      vertex 25.634 10 7.5
      vertex 29.9216 10 0
    endloop
  endfacet
  facet normal 0 1 0
    outer loop
      vertex 27.366 10 10.5
      vertex 29.9216 10 14
      vertex 28.2321 10 9
    endloop
  endfacet
  facet normal 0 1 0
    outer loop
      vertex 29.9216 10 0
      vertex 27.366 10 7.5
      vertex 28.2321 10 9
    endloop
  endfacet
  facet normal 0 1 0
    outer loop
      vertex 29.9216 10 0
      vertex 28.2321 10 9
      vertex 29.9216 10 14
    endloop
  endfacet
  facet normal 0 1 0
    outer loop
      vertex 24.7679 10 9
      vertex 23 10 14
      vertex 25.634 10 10.5
    endloop
  endfacet
  facet normal 0.866025 -1.33227e-16 0.5
    outer loop
      vertex 40.634 0 7.5
      vertex 40.634 10 7.5
      vertex 39.7679 10 9
    endloop
  endfacet
  facet normal 0.866025 -1.77636e-16 0.5
    outer loop
      vertex 39.7679 0 9
      vertex 40.634 0 7.5
      vertex 39.7679 10 9
    endloop
  endfacet
  facet normal 0.866025 1.8041e-16 -0.5
    outer loop
      vertex 39.7679 10 9
      vertex 40.634 10 10.5
      vertex 40.634 0 10.5
    endloop
  endfacet
  facet normal 0.866025 1.77636e-16 -0.5
    outer loop
      vertex 39.7679 0 9
      vertex 39.7679 10 9
      vertex 40.634 0 10.5
    endloop
  endfacet
  facet normal 0 -1.77636e-16 1
    outer loop
      vertex 42.366 0 7.5
      vertex 42.366 10 7.5
      vertex 40.634 10 7.5
    endloop
  endfacet
  facet normal -5.1279e-16 -2.66454e-16 1
    outer loop
      vertex 40.634 0 7.5
      vertex 42.366 0 7.5
      vertex 40.634 10 7.5
    endloop
  endfacet
  facet normal -0.866025 -8.88179e-17 0.5
    outer loop
      vertex 43.2321 10 9
      vertex 42.366 10 7.5
      vertex 43.2321 0 9
    endloop
  endfacet
  facet normal -0.866025 -8.32679e-17 0.5
    outer loop
      vertex 43.2321 0 9
      vertex 42.366 10 7.5
      vertex 42.366 0 7.5
    endloop
  endfacet
  facet normal -0.866025 8.88179e-17 -0.5
    outer loop
      vertex 43.2321 10 9
      vertex 43.2321 0 9
      vertex 42.366 10 10.5
    endloop
  endfacet
  facet normal -0.866025 8.88179e-17 -0.5
    outer loop
      vertex 42.366 10 10.5
      vertex 43.2321 0 9
      vertex 42.366 0 10.5
    endloop
  endfacet
  facet normal 0 1.77636e-16 -1
    outer loop
      vertex 42.366 10 10.5
      vertex 42.366 0 10.5
      vertex 40.634 10 10.5
    endloop
  endfacet
  facet normal 1.02558e-15 3.55271e-16 -1
    outer loop
      vertex 40.634 10 10.5
      vertex 42.366 0 10.5
      vertex 40.634 0 10.5
    endloop
  endfacet
endsolid OpenSCAD_Model
