solid OpenSCAD_Model
  facet normal -0.987689 -0.156433 -0
    outer loop
      vertex 0 1 0
      vertex 0.048943 0.690983 0
      vertex 0 1 10
    endloop
  endfacet
  facet normal -0.987689 -0.156433 0
    outer loop
      vertex 0 1 10
      vertex 0.048943 0.690983 0
      vertex 0.048943 0.690983 10
    endloop
  endfacet
  facet normal -0 -0 -1
    outer loop
      vertex 0 1 0
      vertex 0 26 0
      vertex 0.048943 0.690983 0
    endloop
  endfacet
  facet normal 0 0 -1
    outer loop
      vertex 0.048943 0.690983 0
      vertex 0 26 0
      vertex 0.048943 26.309 0
    endloop
  endfacet
  facet normal 0 -0 -1
    outer loop
      vertex 0.048943 0.690983 0
      vertex 0.048943 26.309 0
      vertex 0.190983 26.5878 0
    endloop
  endfacet
  facet normal 0 0 -1
    outer loop
      vertex 0.048943 0.690983 0
      vertex 0.190983 26.5878 0
      vertex 0.412215 26.809 0
    endloop
  endfacet
  facet normal 0 0 -1
    outer loop
      vertex 0.048943 0.690983 0
      vertex 0.412215 26.809 0
      vertex 0.690983 26.9511 0
    endloop
  endfacet
  facet normal 0 0 -1
    outer loop
      vertex 0.048943 0.690983 0
      vertex 0.690983 26.9511 0
      vertex 1 27 0
    endloop
  endfacet
  facet normal 0 0 -1
    outer loop
      vertex 0.048943 0.690983 0
      vertex 1 27 0
      vertex 18.5 27 0
    endloop
  endfacet
  facet normal 0 -0 -1
    outer loop
      vertex 23.5 44.1475 0
      vertex 18.5 46.9 0
      vertex 28.5 46.9 0
    endloop
  endfacet
  facet normal -0 0 -1
    outer loop
      vertex 25.1 30.5762 0
      vertex 28.5 46.9 0
      vertex 28.5 27 0
    endloop
  endfacet
  facet normal 0 0 -1
    outer loop
      vertex 18.5 27 0
      vertex 28.5 27 0
      vertex 0.048943 0.690983 0
    endloop
  endfacet
  facet normal 0 0 -1
    outer loop
      vertex 28.5 27 0
      vertex 46 27 0
      vertex 0.048943 0.690983 0
    endloop
  endfacet
  facet normal 0 0 -1
    outer loop
      vertex 0.048943 0.690983 0
      vertex 46 27 0
      vertex 46.309 26.9511 0
    endloop
  endfacet
  facet normal 0 0 -1
    outer loop
      vertex 0.048943 0.690983 0
      vertex 46.309 26.9511 0
      vertex 46.5878 26.809 0
    endloop
  endfacet
  facet normal 0 0 -1
    outer loop
      vertex 0.048943 0.690983 0
      vertex 46.5878 26.809 0
      vertex 46.809 26.5878 0
    endloop
  endfacet
  facet normal 0 0 -1
    outer loop
      vertex 0.048943 0.690983 0
      vertex 46.809 26.5878 0
      vertex 46.9511 26.309 0
    endloop
  endfacet
  facet normal 0 0 -1
    outer loop
      vertex 0.048943 0.690983 0
      vertex 46.9511 26.309 0
      vertex 47 26 0
    endloop
  endfacet
  facet normal 0 0 -1
    outer loop
      vertex 0.048943 0.690983 0
      vertex 47 26 0
      vertex 47 1 0
    endloop
  endfacet
  facet normal -0 0 -1
    outer loop
      vertex 0.048943 0.690983 0
      vertex 47 1 0
      vertex 46.9511 0.690983 0
    endloop
  endfacet
  facet normal 0 0 -1
    outer loop
      vertex 0.048943 0.690983 0
      vertex 46.9511 0.690983 0
      vertex 46.809 0.412215 0
    endloop
  endfacet
  facet normal 0 0 -1
    outer loop
      vertex 0.048943 0.690983 0
      vertex 46.809 0.412215 0
      vertex 46.5878 0.190983 0
    endloop
  endfacet
  facet normal 0 0 -1
    outer loop
      vertex 0.048943 0.690983 0
      vertex 46.5878 0.190983 0
      vertex 46.309 0.048943 0
    endloop
  endfacet
  facet normal 0 0 -1
    outer loop
      vertex 0.048943 0.690983 0
      vertex 46.309 0.048943 0
      vertex 46 0 0
    endloop
  endfacet
  facet normal 0 0 -1
    outer loop
      vertex 0.048943 0.690983 0
      vertex 46 0 0
      vertex 28.5 0 0
    endloop
  endfacet
  facet normal -0 0 -1
    outer loop
      vertex 25.1 -3.57624 0
      vertex 28.5 0 0
      vertex 28.5 -19.9 0
    endloop
  endfacet
  facet normal 0 0 -1
    outer loop
      vertex 23.5 -17.1475 0
      vertex 28.5 -19.9 0
      vertex 18.5 -19.9 0
    endloop
  endfacet
  facet normal 0 0 -1
    outer loop
      vertex 0.048943 0.690983 0
      vertex 28.5 0 0
      vertex 18.5 0 0
    endloop
  endfacet
  facet normal 0 0 -1
    outer loop
      vertex 0.048943 0.690983 0
      vertex 1 0 0
      vertex 0.690983 0.048943 0
    endloop
  endfacet
  facet normal 0 0 -1
    outer loop
      vertex 21.9 -16.2238 0
      vertex 18.5 0 0
      vertex 21.9 -5.42376 0
    endloop
  endfacet
  facet normal 0 0 -1
    outer loop
      vertex 0.048943 0.690983 0
      vertex 0.412215 0.190983 0
      vertex 0.190983 0.412215 0
    endloop
  endfacet
  facet normal 0 0 -1
    outer loop
      vertex 21.9 30.5762 0
      vertex 18.5 27 0
      vertex 21.9 41.3762 0
    endloop
  endfacet
  facet normal 0 0 -1
    outer loop
      vertex 18.5 0 0
      vertex 21.9 -3.57624 0
      vertex 21.9 -5.42376 0
    endloop
  endfacet
  facet normal 0 0 -1
    outer loop
      vertex 21.9 -16.2238 0
      vertex 23.5 -17.1475 0
      vertex 18.5 -19.9 0
    endloop
  endfacet
  facet normal -0 -0 -1
    outer loop
      vertex 0.412215 0.190983 0
      vertex 0.048943 0.690983 0
      vertex 0.690983 0.048943 0
    endloop
  endfacet
  facet normal -0 -0 -1
    outer loop
      vertex 25.1 -16.2238 0
      vertex 25.1 -14.3762 0
      vertex 28.5 -19.9 0
    endloop
  endfacet
  facet normal -0 0 -1
    outer loop
      vertex 23.5 44.1475 0
      vertex 28.5 46.9 0
      vertex 25.1 43.2238 0
    endloop
  endfacet
  facet normal -0 0 -1
    outer loop
      vertex 23.5 -2.65248 0
      vertex 28.5 0 0
      vertex 25.1 -3.57624 0
    endloop
  endfacet
  facet normal 0 0 -1
    outer loop
      vertex 18.5 0 0
      vertex 28.5 0 0
      vertex 23.5 -2.65248 0
    endloop
  endfacet
  facet normal 0 0 -1
    outer loop
      vertex 18.5 0 0
      vertex 23.5 -2.65248 0
      vertex 21.9 -3.57624 0
    endloop
  endfacet
  facet normal 0 -0 -1
    outer loop
      vertex 18.5 27 0
      vertex 18.5 46.9 0
      vertex 21.9 43.2238 0
    endloop
  endfacet
  facet normal 0 0 -1
    outer loop
      vertex 18.5 27 0
      vertex 21.9 43.2238 0
      vertex 21.9 41.3762 0
    endloop
  endfacet
  facet normal 0 0 -1
    outer loop
      vertex 25.1 30.5762 0
      vertex 28.5 27 0
      vertex 23.5 29.6525 0
    endloop
  endfacet
  facet normal 0 0 -1
    outer loop
      vertex 18.5 27 0
      vertex 21.9 30.5762 0
      vertex 23.5 29.6525 0
    endloop
  endfacet
  facet normal -0 0 -1
    outer loop
      vertex 18.5 27 0
      vertex 23.5 29.6525 0
      vertex 28.5 27 0
    endloop
  endfacet
  facet normal -0 0 -1
    outer loop
      vertex 25.1 32.4238 0
      vertex 28.5 46.9 0
      vertex 25.1 30.5762 0
    endloop
  endfacet
  facet normal -0 0 -1
    outer loop
      vertex 25.1 43.2238 0
      vertex 28.5 46.9 0
      vertex 25.1 32.4238 0
    endloop
  endfacet
  facet normal 0 -0 -1
    outer loop
      vertex 21.9 43.2238 0
      vertex 18.5 46.9 0
      vertex 23.5 44.1475 0
    endloop
  endfacet
  facet normal 0 0 -1
    outer loop
      vertex 25.1 -3.57624 0
      vertex 28.5 -19.9 0
      vertex 25.1 -14.3762 0
    endloop
  endfacet
  facet normal 0 0 -1
    outer loop
      vertex 25.1 -16.2238 0
      vertex 28.5 -19.9 0
      vertex 23.5 -17.1475 0
    endloop
  endfacet
  facet normal 0 0 -1
    outer loop
      vertex 18.5 0 0
      vertex 21.9 -16.2238 0
      vertex 18.5 -19.9 0
    endloop
  endfacet
  facet normal -0 -0 -1
    outer loop
      vertex 1 0 0
      vertex 0.048943 0.690983 0
      vertex 18.5 0 0
    endloop
  endfacet
  facet normal -1 -0 -0
    outer loop
      vertex 0 1 0
      vertex 0 1 10
      vertex 0 26 0
    endloop
  endfacet
  facet normal -1 0 0
    outer loop
      vertex 0 26 0
      vertex 0 1 10
      vertex 0 26 10
    endloop
  endfacet
  facet normal 0 -0 1
    outer loop
      vertex 0 26 10
      vertex 0 1 10
      vertex 0.048943 0.690983 10
    endloop
  endfacet
  facet normal 0 0 1
    outer loop
      vertex 0.412215 0.190983 10
      vertex 0 26 10
      vertex 0.190983 0.412215 10
    endloop
  endfacet
  facet normal 0 0 1
    outer loop
      vertex 0.190983 0.412215 10
      vertex 0 26 10
      vertex 0.048943 0.690983 10
    endloop
  endfacet
  facet normal 0 0 1
    outer loop
      vertex 0.690983 0.048943 10
      vertex 0 26 10
      vertex 0.412215 0.190983 10
    endloop
  endfacet
  facet normal 0 0 1
    outer loop
      vertex 1 0 10
      vertex 0 26 10
      vertex 0.690983 0.048943 10
    endloop
  endfacet
  facet normal -0 0 1
    outer loop
      vertex 3 3 10
      vertex 0 26 10
      vertex 1 0 10
    endloop
  endfacet
  facet normal 0 -0 1
    outer loop
      vertex 46.9511 26.309 10
      vertex 0 26 10
      vertex 47 26 10
    endloop
  endfacet
  facet normal 0 -0 1
    outer loop
      vertex 46.809 26.5878 10
      vertex 0 26 10
      vertex 46.9511 26.309 10
    endloop
  endfacet
  facet normal 0 -0 1
    outer loop
      vertex 46.5878 26.809 10
      vertex 0 26 10
      vertex 46.809 26.5878 10
    endloop
  endfacet
  facet normal 0 -0 1
    outer loop
      vertex 46.309 26.9511 10
      vertex 0 26 10
      vertex 46.5878 26.809 10
    endloop
  endfacet
  facet normal 0 -0 1
    outer loop
      vertex 46 27 10
      vertex 0 26 10
      vertex 46.309 26.9511 10
    endloop
  endfacet
  facet normal 0 -0 1
    outer loop
      vertex 1 27 10
      vertex 0 26 10
      vertex 46 27 10
    endloop
  endfacet
  facet normal 0 -0 1
    outer loop
      vertex 0.690983 26.9511 10
      vertex 0 26 10
      vertex 1 27 10
    endloop
  endfacet
  facet normal 0 -0 1
    outer loop
      vertex 0.412215 26.809 10
      vertex 0 26 10
      vertex 0.690983 26.9511 10
    endloop
  endfacet
  facet normal 0 -0 1
    outer loop
      vertex 0.190983 26.5878 10
      vertex 0 26 10
      vertex 0.412215 26.809 10
    endloop
  endfacet
  facet normal 0 -0 1
    outer loop
      vertex 0.048943 26.309 10
      vertex 0 26 10
      vertex 0.190983 26.5878 10
    endloop
  endfacet
  facet normal -0 0 1
    outer loop
      vertex 46 0 10
      vertex 3 3 10
      vertex 1 0 10
    endloop
  endfacet
  facet normal -0 0 1
    outer loop
      vertex 3 24 10
      vertex 0 26 10
      vertex 3 3 10
    endloop
  endfacet
  facet normal 0 0 1
    outer loop
      vertex 3 24 10
      vertex 44 24 10
      vertex 0 26 10
    endloop
  endfacet
  facet normal 0 0 1
    outer loop
      vertex 47 26 10
      vertex 44 24 10
      vertex 47 1 10
    endloop
  endfacet
  facet normal 0 0 1
    outer loop
      vertex 47 26 10
      vertex 0 26 10
      vertex 44 24 10
    endloop
  endfacet
  facet normal 0 -0 1
    outer loop
      vertex 44 24 10
      vertex 44 3 10
      vertex 47 1 10
    endloop
  endfacet
  facet normal 0 0 1
    outer loop
      vertex 44 3 10
      vertex 46.9511 0.690983 10
      vertex 47 1 10
    endloop
  endfacet
  facet normal 0 0 1
    outer loop
      vertex 44 3 10
      vertex 46.809 0.412215 10
      vertex 46.9511 0.690983 10
    endloop
  endfacet
  facet normal 0 0 1
    outer loop
      vertex 44 3 10
      vertex 46.5878 0.190983 10
      vertex 46.809 0.412215 10
    endloop
  endfacet
  facet normal 0 0 1
    outer loop
      vertex 44 3 10
      vertex 46.309 0.048943 10
      vertex 46.5878 0.190983 10
    endloop
  endfacet
  facet normal 0 0 1
    outer loop
      vertex 44 3 10
      vertex 46 0 10
      vertex 46.309 0.048943 10
    endloop
  endfacet
  facet normal 0 -0 1
    outer loop
      vertex 44 3 10
      vertex 3 3 10
      vertex 46 0 10
    endloop
  endfacet
  facet normal -0.891006 -0.453992 -0
    outer loop
      vertex 0.048943 0.690983 0
      vertex 0.190983 0.412215 0
      vertex 0.048943 0.690983 10
    endloop
  endfacet
  facet normal -0.891006 -0.453992 0
    outer loop
      vertex 0.048943 0.690983 10
      vertex 0.190983 0.412215 0
      vertex 0.190983 0.412215 10
    endloop
  endfacet
  facet normal -0.707107 -0.707107 0
    outer loop
      vertex 0.190983 0.412215 10
      vertex 0.190983 0.412215 0
      vertex 0.412215 0.190983 0
    endloop
  endfacet
  facet normal -0.707107 -0.707107 0
    outer loop
      vertex 0.412215 0.190983 10
      vertex 0.190983 0.412215 10
      vertex 0.412215 0.190983 0
    endloop
  endfacet
  facet normal -0.453992 -0.891006 0
    outer loop
      vertex 0.412215 0.190983 10
      vertex 0.412215 0.190983 0
      vertex 0.690983 0.048943 0
    endloop
  endfacet
  facet normal -0.453992 -0.891006 0
    outer loop
      vertex 0.690983 0.048943 10
      vertex 0.412215 0.190983 10
      vertex 0.690983 0.048943 0
    endloop
  endfacet
  facet normal -0.156433 -0.987689 0
    outer loop
      vertex 0.690983 0.048943 10
      vertex 0.690983 0.048943 0
      vertex 1 0 0
    endloop
  endfacet
  facet normal -0.156433 -0.987689 0
    outer loop
      vertex 1 0 10
      vertex 0.690983 0.048943 10
      vertex 1 0 0
    endloop
  endfacet
  facet normal 0 -1 0
    outer loop
      vertex 1 0 10
      vertex 1 0 0
      vertex 18.5 0 0
    endloop
  endfacet
  facet normal 0 -1 0
    outer loop
      vertex 28.5 0 4
      vertex 1 0 10
      vertex 18.5 0 4
    endloop
  endfacet
  facet normal 0 -1 0
    outer loop
      vertex 18.5 0 4
      vertex 1 0 10
      vertex 18.5 0 0
    endloop
  endfacet
  facet normal 0 -1 0
    outer loop
      vertex 46 0 10
      vertex 1 0 10
      vertex 28.5 0 4
    endloop
  endfacet
  facet normal 0 -1 0
    outer loop
      vertex 46 0 0
      vertex 28.5 0 4
      vertex 28.5 0 0
    endloop
  endfacet
  facet normal 0 -1 0
    outer loop
      vertex 46 0 10
      vertex 28.5 0 4
      vertex 46 0 0
    endloop
  endfacet
  facet normal -1 0 0
    outer loop
      vertex 18.5 0 0
      vertex 18.5 -19.9 0
      vertex 18.5 0 4
    endloop
  endfacet
  facet normal -1 0 0
    outer loop
      vertex 18.5 0 4
      vertex 18.5 -19.9 0
      vertex 18.5 -19.9 4
    endloop
  endfacet
  facet normal 3.55271e-16 -1 0
    outer loop
      vertex 18.5 -19.9 4
      vertex 18.5 -19.9 0
      vertex 28.5 -19.9 0
    endloop
  endfacet
  facet normal 3.55271e-16 -1 0
    outer loop
      vertex 28.5 -19.9 4
      vertex 18.5 -19.9 4
      vertex 28.5 -19.9 0
    endloop
  endfacet
  facet normal 1 0 0
    outer loop
      vertex 28.5 -19.9 0
      vertex 28.5 0 0
      vertex 28.5 0 4
    endloop
  endfacet
  facet normal 1 0 -0
    outer loop
      vertex 28.5 -19.9 4
      vertex 28.5 -19.9 0
      vertex 28.5 0 4
    endloop
  endfacet
  facet normal 0.156433 -0.987689 0
    outer loop
      vertex 46 0 10
      vertex 46 0 0
      vertex 46.309 0.048943 0
    endloop
  endfacet
  facet normal 0.156433 -0.987689 0
    outer loop
      vertex 46.309 0.048943 10
      vertex 46 0 10
      vertex 46.309 0.048943 0
    endloop
  endfacet
  facet normal 0.453992 -0.891006 0
    outer loop
      vertex 46.309 0.048943 10
      vertex 46.309 0.048943 0
      vertex 46.5878 0.190983 0
    endloop
  endfacet
  facet normal 0.453992 -0.891006 0
    outer loop
      vertex 46.5878 0.190983 10
      vertex 46.309 0.048943 10
      vertex 46.5878 0.190983 0
    endloop
  endfacet
  facet normal 0.707107 -0.707107 0
    outer loop
      vertex 46.5878 0.190983 10
      vertex 46.5878 0.190983 0
      vertex 46.809 0.412215 0
    endloop
  endfacet
  facet normal 0.707107 -0.707107 0
    outer loop
      vertex 46.809 0.412215 10
      vertex 46.5878 0.190983 10
      vertex 46.809 0.412215 0
    endloop
  endfacet
  facet normal 0.891006 -0.453992 0
    outer loop
      vertex 46.809 0.412215 10
      vertex 46.809 0.412215 0
      vertex 46.9511 0.690983 0
    endloop
  endfacet
  facet normal 0.891006 -0.453992 0
    outer loop
      vertex 46.9511 0.690983 10
      vertex 46.809 0.412215 10
      vertex 46.9511 0.690983 0
    endloop
  endfacet
  facet normal 0.987689 -0.156433 0
    outer loop
      vertex 46.9511 0.690983 10
      vertex 46.9511 0.690983 0
      vertex 47 1 0
    endloop
  endfacet
  facet normal 0.987689 -0.156433 0
    outer loop
      vertex 47 1 10
      vertex 46.9511 0.690983 10
      vertex 47 1 0
    endloop
  endfacet
  facet normal 1 0 -0
    outer loop
      vertex 47 1 10
      vertex 47 1 0
      vertex 47 26 0
    endloop
  endfacet
  facet normal 1 0 0
    outer loop
      vertex 47 26 10
      vertex 47 1 10
      vertex 47 26 0
    endloop
  endfacet
  facet normal 0.987689 0.156433 0
    outer loop
      vertex 47 26 0
      vertex 46.9511 26.309 0
      vertex 46.9511 26.309 10
    endloop
  endfacet
  facet normal 0.987689 0.156433 -0
    outer loop
      vertex 47 26 10
      vertex 47 26 0
      vertex 46.9511 26.309 10
    endloop
  endfacet
  facet normal 0.891006 0.453992 0
    outer loop
      vertex 46.9511 26.309 0
      vertex 46.809 26.5878 0
      vertex 46.809 26.5878 10
    endloop
  endfacet
  facet normal 0.891006 0.453992 -0
    outer loop
      vertex 46.9511 26.309 10
      vertex 46.9511 26.309 0
      vertex 46.809 26.5878 10
    endloop
  endfacet
  facet normal 0.707107 0.707107 0
    outer loop
      vertex 46.5878 26.809 0
      vertex 46.5878 26.809 10
      vertex 46.809 26.5878 0
    endloop
  endfacet
  facet normal 0.707107 0.707107 0
    outer loop
      vertex 46.809 26.5878 0
      vertex 46.5878 26.809 10
      vertex 46.809 26.5878 10
    endloop
  endfacet
  facet normal 0.453992 0.891006 0
    outer loop
      vertex 46.309 26.9511 0
      vertex 46.309 26.9511 10
      vertex 46.5878 26.809 0
    endloop
  endfacet
  facet normal 0.453992 0.891006 0
    outer loop
      vertex 46.5878 26.809 0
      vertex 46.309 26.9511 10
      vertex 46.5878 26.809 10
    endloop
  endfacet
  facet normal 0.156433 0.987689 0
    outer loop
      vertex 46 27 0
      vertex 46 27 10
      vertex 46.309 26.9511 0
    endloop
  endfacet
  facet normal 0.156433 0.987689 0
    outer loop
      vertex 46.309 26.9511 0
      vertex 46 27 10
      vertex 46.309 26.9511 10
    endloop
  endfacet
  facet normal 0 1 0
    outer loop
      vertex 1 27 0
      vertex 1 27 10
      vertex 18.5 27 0
    endloop
  endfacet
  facet normal 0 1 0
    outer loop
      vertex 28.5 27 4
      vertex 1 27 10
      vertex 46 27 10
    endloop
  endfacet
  facet normal 0 1 0
    outer loop
      vertex 28.5 27 0
      vertex 46 27 10
      vertex 46 27 0
    endloop
  endfacet
  facet normal 0 1 0
    outer loop
      vertex 18.5 27 4
      vertex 1 27 10
      vertex 28.5 27 4
    endloop
  endfacet
  facet normal 0 1 0
    outer loop
      vertex 18.5 27 0
      vertex 1 27 10
      vertex 18.5 27 4
    endloop
  endfacet
  facet normal 0 1 -0
    outer loop
      vertex 28.5 27 4
      vertex 46 27 10
      vertex 28.5 27 0
    endloop
  endfacet
  facet normal 1 0 0
    outer loop
      vertex 28.5 27 0
      vertex 28.5 46.9 0
      vertex 28.5 46.9 4
    endloop
  endfacet
  facet normal 1 0 -0
    outer loop
      vertex 28.5 27 4
      vertex 28.5 27 0
      vertex 28.5 46.9 4
    endloop
  endfacet
  facet normal 0 1 0
    outer loop
      vertex 18.5 46.9 0
      vertex 18.5 46.9 4
      vertex 28.5 46.9 0
    endloop
  endfacet
  facet normal 0 1 0
    outer loop
      vertex 28.5 46.9 0
      vertex 18.5 46.9 4
      vertex 28.5 46.9 4
    endloop
  endfacet
  facet normal -1 0 0
    outer loop
      vertex 18.5 46.9 0
      vertex 18.5 27 0
      vertex 18.5 46.9 4
    endloop
  endfacet
  facet normal -1 0 0
    outer loop
      vertex 18.5 46.9 4
      vertex 18.5 27 0
      vertex 18.5 27 4
    endloop
  endfacet
  facet normal -0.156433 0.987689 0
    outer loop
      vertex 0.690983 26.9511 0
      vertex 0.690983 26.9511 10
      vertex 1 27 0
    endloop
  endfacet
  facet normal -0.156433 0.987689 0
    outer loop
      vertex 1 27 0
      vertex 0.690983 26.9511 10
      vertex 1 27 10
    endloop
  endfacet
  facet normal -0.453992 0.891006 0
    outer loop
      vertex 0.412215 26.809 0
      vertex 0.412215 26.809 10
      vertex 0.690983 26.9511 0
    endloop
  endfacet
  facet normal -0.453992 0.891006 0
    outer loop
      vertex 0.690983 26.9511 0
      vertex 0.412215 26.809 10
      vertex 0.690983 26.9511 10
    endloop
  endfacet
  facet normal -0.707107 0.707107 0
    outer loop
      vertex 0.190983 26.5878 0
      vertex 0.190983 26.5878 10
      vertex 0.412215 26.809 0
    endloop
  endfacet
  facet normal -0.707107 0.707107 0
    outer loop
      vertex 0.412215 26.809 0
      vertex 0.190983 26.5878 10
      vertex 0.412215 26.809 10
    endloop
  endfacet
  facet normal -0.891006 0.453992 0
    outer loop
      vertex 0.048943 26.309 0
      vertex 0.048943 26.309 10
      vertex 0.190983 26.5878 0
    endloop
  endfacet
  facet normal -0.891006 0.453992 0
    outer loop
      vertex 0.190983 26.5878 0
      vertex 0.048943 26.309 10
      vertex 0.190983 26.5878 10
    endloop
  endfacet
  facet normal -0.987689 0.156433 0
    outer loop
      vertex 0 26 0
      vertex 0 26 10
      vertex 0.048943 26.309 0
    endloop
  endfacet
  facet normal -0.987689 0.156433 0
    outer loop
      vertex 0.048943 26.309 0
      vertex 0 26 10
      vertex 0.048943 26.309 10
    endloop
  endfacet
  facet normal 1 0 0
    outer loop
      vertex 21.9 -3.57624 4
      vertex 21.9 -5.42376 4
      vertex 21.9 -5.42376 0
    endloop
  endfacet
  facet normal 1 -0 0
    outer loop
      vertex 21.9 -3.57624 0
      vertex 21.9 -3.57624 4
      vertex 21.9 -5.42376 0
    endloop
  endfacet
  facet normal 0.5 -0.866025 0
    outer loop
      vertex 23.5 -2.65248 0
      vertex 23.5 -2.65248 4
      vertex 21.9 -3.57624 4
    endloop
  endfacet
  facet normal 0.5 -0.866025 0
    outer loop
      vertex 21.9 -3.57624 0
      vertex 23.5 -2.65248 0
      vertex 21.9 -3.57624 4
    endloop
  endfacet
  facet normal -0.5 -0.866025 -0
    outer loop
      vertex 25.1 -3.57624 0
      vertex 25.1 -3.57624 4
      vertex 23.5 -2.65248 4
    endloop
  endfacet
  facet normal -0.5 -0.866025 -0
    outer loop
      vertex 23.5 -2.65248 0
      vertex 25.1 -3.57624 0
      vertex 23.5 -2.65248 4
    endloop
  endfacet
  facet normal -1 -3.28955e-16 0
    outer loop
      vertex 25.1 -14.3762 4
      vertex 25.1 -3.57624 4
      vertex 25.1 -14.3762 0
    endloop
  endfacet
  facet normal -1 -3.28955e-16 0
    outer loop
      vertex 25.1 -14.3762 0
      vertex 25.1 -3.57624 4
      vertex 25.1 -3.57624 0
    endloop
  endfacet
  facet normal -1 0 0
    outer loop
      vertex 25.1 -16.2238 4
      vertex 25.1 -14.3762 4
      vertex 25.1 -16.2238 0
    endloop
  endfacet
  facet normal -1 -0 0
    outer loop
      vertex 25.1 -16.2238 0
      vertex 25.1 -14.3762 4
      vertex 25.1 -14.3762 0
    endloop
  endfacet
  facet normal -0.5 0.866025 0
    outer loop
      vertex 25.1 -16.2238 4
      vertex 25.1 -16.2238 0
      vertex 23.5 -17.1475 4
    endloop
  endfacet
  facet normal -0.5 0.866025 0
    outer loop
      vertex 23.5 -17.1475 4
      vertex 25.1 -16.2238 0
      vertex 23.5 -17.1475 0
    endloop
  endfacet
  facet normal 0.5 0.866025 -0
    outer loop
      vertex 23.5 -17.1475 4
      vertex 23.5 -17.1475 0
      vertex 21.9 -16.2238 4
    endloop
  endfacet
  facet normal 0.5 0.866025 -0
    outer loop
      vertex 21.9 -16.2238 4
      vertex 23.5 -17.1475 0
      vertex 21.9 -16.2238 0
    endloop
  endfacet
  facet normal 1 3.28955e-16 0
    outer loop
      vertex 21.9 -5.42376 4
      vertex 21.9 -16.2238 4
      vertex 21.9 -16.2238 0
    endloop
  endfacet
  facet normal 1 3.28955e-16 0
    outer loop
      vertex 21.9 -5.42376 0
      vertex 21.9 -5.42376 4
      vertex 21.9 -16.2238 0
    endloop
  endfacet
  facet normal 1 0 0
    outer loop
      vertex 21.9 43.2238 4
      vertex 21.9 41.3762 4
      vertex 21.9 41.3762 0
    endloop
  endfacet
  facet normal 1 -0 0
    outer loop
      vertex 21.9 43.2238 0
      vertex 21.9 43.2238 4
      vertex 21.9 41.3762 0
    endloop
  endfacet
  facet normal 0.5 -0.866025 0
    outer loop
      vertex 23.5 44.1475 0
      vertex 23.5 44.1475 4
      vertex 21.9 43.2238 4
    endloop
  endfacet
  facet normal 0.5 -0.866025 0
    outer loop
      vertex 21.9 43.2238 0
      vertex 23.5 44.1475 0
      vertex 21.9 43.2238 4
    endloop
  endfacet
  facet normal -0.5 -0.866025 -0
    outer loop
      vertex 25.1 43.2238 0
      vertex 25.1 43.2238 4
      vertex 23.5 44.1475 4
    endloop
  endfacet
  facet normal -0.5 -0.866025 -0
    outer loop
      vertex 23.5 44.1475 0
      vertex 25.1 43.2238 0
      vertex 23.5 44.1475 4
    endloop
  endfacet
  facet normal -1 -3.28955e-16 0
    outer loop
      vertex 25.1 32.4238 4
      vertex 25.1 43.2238 4
      vertex 25.1 32.4238 0
    endloop
  endfacet
  facet normal -1 -3.28955e-16 0
    outer loop
      vertex 25.1 32.4238 0
      vertex 25.1 43.2238 4
      vertex 25.1 43.2238 0
    endloop
  endfacet
  facet normal -1 0 0
    outer loop
      vertex 25.1 30.5762 4
      vertex 25.1 32.4238 4
      vertex 25.1 30.5762 0
    endloop
  endfacet
  facet normal -1 -0 0
    outer loop
      vertex 25.1 30.5762 0
      vertex 25.1 32.4238 4
      vertex 25.1 32.4238 0
    endloop
  endfacet
  facet normal -0.5 0.866025 0
    outer loop
      vertex 25.1 30.5762 4
      vertex 25.1 30.5762 0
      vertex 23.5 29.6525 4
    endloop
  endfacet
  facet normal -0.5 0.866025 0
    outer loop
      vertex 23.5 29.6525 4
      vertex 25.1 30.5762 0
      vertex 23.5 29.6525 0
    endloop
  endfacet
  facet normal 0.5 0.866025 -0
    outer loop
      vertex 23.5 29.6525 4
      vertex 23.5 29.6525 0
      vertex 21.9 30.5762 4
    endloop
  endfacet
  facet normal 0.5 0.866025 -0
    outer loop
      vertex 21.9 30.5762 4
      vertex 23.5 29.6525 0
      vertex 21.9 30.5762 0
    endloop
  endfacet
  facet normal 1 3.28955e-16 0
    outer loop
      vertex 21.9 41.3762 4
      vertex 21.9 30.5762 4
      vertex 21.9 30.5762 0
    endloop
  endfacet
  facet normal 1 3.28955e-16 0
    outer loop
      vertex 21.9 41.3762 0
      vertex 21.9 41.3762 4
      vertex 21.9 30.5762 0
    endloop
  endfacet
  facet normal 1 0 0
    outer loop
      vertex 3 24 6.1
      vertex 3 24 10
      vertex 3 3 10
    endloop
  endfacet
  facet normal 1 0 0
    outer loop
      vertex 3 3 6.1
      vertex 3 24 6.1
      vertex 3 3 10
    endloop
  endfacet
  facet normal 0 1 0
    outer loop
      vertex 44 3 10
      vertex 44 3 6.1
      vertex 3 3 10
    endloop
  endfacet
  facet normal 0 1 -0
    outer loop
      vertex 3 3 10
      vertex 44 3 6.1
      vertex 3 3 6.1
    endloop
  endfacet
  facet normal -1 0 0
    outer loop
      vertex 44 24 10
      vertex 44 24 6.1
      vertex 44 3 10
    endloop
  endfacet
  facet normal -1 0 0
    outer loop
      vertex 44 3 10
      vertex 44 24 6.1
      vertex 44 3 6.1
    endloop
  endfacet
  facet normal 0 -1 0
    outer loop
      vertex 44 24 6.1
      vertex 44 24 10
      vertex 3 24 10
    endloop
  endfacet
  facet normal -0 -1 -0
    outer loop
      vertex 3 24 6.1
      vertex 44 24 6.1
      vertex 3 24 10
    endloop
  endfacet
  facet normal -0 0 1
    outer loop
      vertex 21.9 -5.42376 4
      vertex 18.5 0 4
      vertex 18.5 -19.9 4
    endloop
  endfacet
  facet normal 0 0 1
    outer loop
      vertex 23.5 -2.65248 4
      vertex 25.1 -3.57624 4
      vertex 28.5 0 4
    endloop
  endfacet
  facet normal -0 0 1
    outer loop
      vertex 21.9 -3.57624 4
      vertex 18.5 0 4
      vertex 21.9 -5.42376 4
    endloop
  endfacet
  facet normal 0 0 1
    outer loop
      vertex 25.1 -3.57624 4
      vertex 25.1 -14.3762 4
      vertex 28.5 0 4
    endloop
  endfacet
  facet normal -0 0 1
    outer loop
      vertex 23.5 -2.65248 4
      vertex 18.5 0 4
      vertex 21.9 -3.57624 4
    endloop
  endfacet
  facet normal -0 0 1
    outer loop
      vertex 23.5 -17.1475 4
      vertex 21.9 -16.2238 4
      vertex 18.5 -19.9 4
    endloop
  endfacet
  facet normal 0 0 1
    outer loop
      vertex 28.5 0 4
      vertex 18.5 0 4
      vertex 23.5 -2.65248 4
    endloop
  endfacet
  facet normal 0 0 1
    outer loop
      vertex 28.5 -19.9 4
      vertex 28.5 0 4
      vertex 25.1 -14.3762 4
    endloop
  endfacet
  facet normal 0 0 1
    outer loop
      vertex 28.5 -19.9 4
      vertex 25.1 -14.3762 4
      vertex 25.1 -16.2238 4
    endloop
  endfacet
  facet normal -0 0 1
    outer loop
      vertex 28.5 -19.9 4
      vertex 23.5 -17.1475 4
      vertex 18.5 -19.9 4
    endloop
  endfacet
  facet normal 0 0 1
    outer loop
      vertex 28.5 -19.9 4
      vertex 25.1 -16.2238 4
      vertex 23.5 -17.1475 4
    endloop
  endfacet
  facet normal -0 0 1
    outer loop
      vertex 21.9 -16.2238 4
      vertex 21.9 -5.42376 4
      vertex 18.5 -19.9 4
    endloop
  endfacet
  facet normal -0 0 1
    outer loop
      vertex 21.9 41.3762 4
      vertex 18.5 46.9 4
      vertex 18.5 27 4
    endloop
  endfacet
  facet normal 0 0 1
    outer loop
      vertex 23.5 44.1475 4
      vertex 25.1 43.2238 4
      vertex 28.5 46.9 4
    endloop
  endfacet
  facet normal -0 0 1
    outer loop
      vertex 21.9 43.2238 4
      vertex 18.5 46.9 4
      vertex 21.9 41.3762 4
    endloop
  endfacet
  facet normal 0 0 1
    outer loop
      vertex 25.1 43.2238 4
      vertex 25.1 32.4238 4
      vertex 28.5 46.9 4
    endloop
  endfacet
  facet normal -0 0 1
    outer loop
      vertex 23.5 44.1475 4
      vertex 18.5 46.9 4
      vertex 21.9 43.2238 4
    endloop
  endfacet
  facet normal -0 0 1
    outer loop
      vertex 23.5 29.6525 4
      vertex 21.9 30.5762 4
      vertex 18.5 27 4
    endloop
  endfacet
  facet normal 0 0 1
    outer loop
      vertex 28.5 46.9 4
      vertex 18.5 46.9 4
      vertex 23.5 44.1475 4
    endloop
  endfacet
  facet normal 0 0 1
    outer loop
      vertex 28.5 27 4
      vertex 28.5 46.9 4
      vertex 25.1 32.4238 4
    endloop
  endfacet
  facet normal 0 0 1
    outer loop
      vertex 28.5 27 4
      vertex 25.1 32.4238 4
      vertex 25.1 30.5762 4
    endloop
  endfacet
  facet normal -0 0 1
    outer loop
      vertex 28.5 27 4
      vertex 23.5 29.6525 4
      vertex 18.5 27 4
    endloop
  endfacet
  facet normal 0 0 1
    outer loop
      vertex 28.5 27 4
      vertex 25.1 30.5762 4
      vertex 23.5 29.6525 4
    endloop
  endfacet
  facet normal -0 0 1
    outer loop
      vertex 21.9 30.5762 4
      vertex 21.9 41.3762 4
      vertex 18.5 27 4
    endloop
  endfacet
  facet normal 0 0 1
    outer loop
      vertex 44 3 6.1
      vertex 44 24 6.1
      vertex 3 24 6.1
    endloop
  endfacet
  facet normal 0 0 1
    outer loop
      vertex 3 3 6.1
      vertex 44 3 6.1
      vertex 3 24 6.1
    endloop
  endfacet
endsolid OpenSCAD_Model
