solid OpenSCAD_Model
  facet normal -1 -0 -0
    outer loop
      vertex 0 0 0
      vertex 0 0 1.2
      vertex 0 6 0
    endloop
  endfacet
  facet normal -1 0 0
    outer loop
      vertex 0 6 0
      vertex 0 0 1.2
      vertex 0 6 1.2
    endloop
  endfacet
  facet normal 0 -1 0
    outer loop
      vertex 0 0 1.2
      vertex 0 0 0
      vertex 47 0 0
    endloop
  endfacet
  facet normal 0 -1 0
    outer loop
      vertex 15 0 1.2
      vertex 0 0 1.2
      vertex 47 0 0
    endloop
  endfacet
  facet normal 0 -1 0
    outer loop
      vertex 40.7679 0 11
      vertex 21 0 2
      vertex 47 0 0
    endloop
  endfacet
  facet normal -0 -1 0
    outer loop
      vertex 26.366 0 12.5
      vertex 27.2321 0 11
      vertex 47 0 16
    endloop
  endfacet
  facet normal 0 -1 0
    outer loop
      vertex 21 0 2
      vertex 15 0 1.2
      vertex 47 0 0
    endloop
  endfacet
  facet normal -0 -1 0
    outer loop
      vertex 27.2321 0 11
      vertex 26.366 0 9.5
      vertex 47 0 16
    endloop
  endfacet
  facet normal 0 -1 0
    outer loop
      vertex 21 0 16
      vertex 24.634 0 12.5
      vertex 47 0 16
    endloop
  endfacet
  facet normal 0 -1 0
    outer loop
      vertex 21 0 16
      vertex 23.7679 0 11
      vertex 24.634 0 12.5
    endloop
  endfacet
  facet normal 0 -1 0
    outer loop
      vertex 24.634 0 12.5
      vertex 26.366 0 12.5
      vertex 47 0 16
    endloop
  endfacet
  facet normal 0 -1 0
    outer loop
      vertex 15 0 2
      vertex 15 0 1.2
      vertex 21 0 2
    endloop
  endfacet
  facet normal 0 -1 0
    outer loop
      vertex 41.634 0 12.5
      vertex 43.366 0 12.5
      vertex 47 0 16
    endloop
  endfacet
  facet normal 0 -1 0
    outer loop
      vertex 41.634 0 9.5
      vertex 40.7679 0 11
      vertex 47 0 0
    endloop
  endfacet
  facet normal 0 -1 0
    outer loop
      vertex 41.634 0 12.5
      vertex 21 0 2
      vertex 40.7679 0 11
    endloop
  endfacet
  facet normal 0 -1 0
    outer loop
      vertex 44.2321 0 11
      vertex 43.366 0 9.5
      vertex 47 0 0
    endloop
  endfacet
  facet normal 0 -1 0
    outer loop
      vertex 47 0 16
      vertex 21 0 2
      vertex 41.634 0 12.5
    endloop
  endfacet
  facet normal 0 -1 0
    outer loop
      vertex 47 0 16
      vertex 44.2321 0 11
      vertex 47 0 0
    endloop
  endfacet
  facet normal 0 -1 0
    outer loop
      vertex 47 0 16
      vertex 43.366 0 12.5
      vertex 44.2321 0 11
    endloop
  endfacet
  facet normal 0 -1 0
    outer loop
      vertex 43.366 0 9.5
      vertex 41.634 0 9.5
      vertex 47 0 0
    endloop
  endfacet
  facet normal -0 -1 0
    outer loop
      vertex 26.366 0 9.5
      vertex 21 0 2
      vertex 47 0 16
    endloop
  endfacet
  facet normal -0 -1 0
    outer loop
      vertex 24.634 0 9.5
      vertex 21 0 2
      vertex 26.366 0 9.5
    endloop
  endfacet
  facet normal 0 -1 0
    outer loop
      vertex 23.7679 0 11
      vertex 21 0 2
      vertex 24.634 0 9.5
    endloop
  endfacet
  facet normal 0 -1 0
    outer loop
      vertex 21 0 16
      vertex 21 0 2
      vertex 23.7679 0 11
    endloop
  endfacet
  facet normal -0 -0 -1
    outer loop
      vertex 0 0 0
      vertex 0 6 0
      vertex 47 0 0
    endloop
  endfacet
  facet normal 0 0 -1
    outer loop
      vertex 47 0 0
      vertex 0 6 0
      vertex 21 6 0
    endloop
  endfacet
  facet normal 0 0 -1
    outer loop
      vertex 47 0 0
      vertex 21 6 0
      vertex 21 10 0
    endloop
  endfacet
  facet normal 0 0 -1
    outer loop
      vertex 30.2321 8.93928 0
      vertex 21 10 0
      vertex 30.0211 10 0
    endloop
  endfacet
  facet normal 0 0 -1
    outer loop
      vertex 31.1162 7.61616 0
      vertex 21 10 0
      vertex 30.2321 8.93928 0
    endloop
  endfacet
  facet normal 0 0 -1
    outer loop
      vertex 32.4393 6.73208 0
      vertex 21 10 0
      vertex 31.1162 7.61616 0
    endloop
  endfacet
  facet normal 0 0 -1
    outer loop
      vertex 47 0 0
      vertex 21 10 0
      vertex 32.4393 6.73208 0
    endloop
  endfacet
  facet normal 0 0 -1
    outer loop
      vertex 35.5607 6.73208 0
      vertex 47 0 0
      vertex 34 6.42164 0
    endloop
  endfacet
  facet normal 0 0 -1
    outer loop
      vertex 36.8838 7.61616 0
      vertex 47 0 0
      vertex 35.5607 6.73208 0
    endloop
  endfacet
  facet normal 0 0 -1
    outer loop
      vertex 47 0 0
      vertex 36.8838 7.61616 0
      vertex 37.7679 8.93928 0
    endloop
  endfacet
  facet normal -0 0 -1
    outer loop
      vertex 37.7679 8.93928 0
      vertex 37.9789 10 0
      vertex 47 0 0
    endloop
  endfacet
  facet normal 0 0 -1
    outer loop
      vertex 47 0 0
      vertex 37.9789 10 0
      vertex 47 10 0
    endloop
  endfacet
  facet normal 0 0 -1
    outer loop
      vertex 34 6.42164 0
      vertex 47 0 0
      vertex 32.4393 6.73208 0
    endloop
  endfacet
  facet normal 0 1 0
    outer loop
      vertex 0 6 0
      vertex 0 6 1.2
      vertex 21 6 0
    endloop
  endfacet
  facet normal 0 1 0
    outer loop
      vertex 21 6 0
      vertex 0 6 1.2
      vertex 15 6 1.2
    endloop
  endfacet
  facet normal 0 1 0
    outer loop
      vertex 21 6 0
      vertex 15 6 1.2
      vertex 15 6 2
    endloop
  endfacet
  facet normal 0 1 0
    outer loop
      vertex 21 6 0
      vertex 15 6 2
      vertex 21 6 2
    endloop
  endfacet
  facet normal 0 -0 1
    outer loop
      vertex 0 6 1.2
      vertex 0 0 1.2
      vertex 15 0 1.2
    endloop
  endfacet
  facet normal 0 0 1
    outer loop
      vertex 15 6 1.2
      vertex 0 6 1.2
      vertex 15 0 1.2
    endloop
  endfacet
  facet normal -1 -0 -0
    outer loop
      vertex 15 0 1.2
      vertex 15 0 2
      vertex 15 6 1.2
    endloop
  endfacet
  facet normal -1 0 0
    outer loop
      vertex 15 6 1.2
      vertex 15 0 2
      vertex 15 6 2
    endloop
  endfacet
  facet normal 0 -0 1
    outer loop
      vertex 15 6 2
      vertex 15 0 2
      vertex 21 0 2
    endloop
  endfacet
  facet normal 0 0 1
    outer loop
      vertex 21 6 2
      vertex 15 6 2
      vertex 21 0 2
    endloop
  endfacet
  facet normal -1 0 0
    outer loop
      vertex 21 10 16
      vertex 21 10 0
      vertex 21 0 16
    endloop
  endfacet
  facet normal -1 0 0
    outer loop
      vertex 21 6 2
      vertex 21 10 0
      vertex 21 6 0
    endloop
  endfacet
  facet normal -1 0 0
    outer loop
      vertex 21 0 16
      vertex 21 10 0
      vertex 21 6 2
    endloop
  endfacet
  facet normal -1 -0 -0
    outer loop
      vertex 21 0 2
      vertex 21 0 16
      vertex 21 6 2
    endloop
  endfacet
  facet normal 0 -0 1
    outer loop
      vertex 21 10 16
      vertex 21 0 16
      vertex 47 0 16
    endloop
  endfacet
  facet normal -0 -0 1
    outer loop
      vertex 32.4393 6.73208 16
      vertex 21 10 16
      vertex 47 0 16
    endloop
  endfacet
  facet normal 0 0 1
    outer loop
      vertex 47 10 16
      vertex 37.9789 10 16
      vertex 47 0 16
    endloop
  endfacet
  facet normal 0 -0 1
    outer loop
      vertex 37.9789 10 16
      vertex 37.7679 8.93928 16
      vertex 47 0 16
    endloop
  endfacet
  facet normal 0 -0 1
    outer loop
      vertex 37.7679 8.93928 16
      vertex 36.8838 7.61616 16
      vertex 47 0 16
    endloop
  endfacet
  facet normal 0 -0 1
    outer loop
      vertex 36.8838 7.61616 16
      vertex 35.5607 6.73208 16
      vertex 47 0 16
    endloop
  endfacet
  facet normal 0 0 1
    outer loop
      vertex 30.2321 8.93928 16
      vertex 30.0211 10 16
      vertex 21 10 16
    endloop
  endfacet
  facet normal 0 -0 1
    outer loop
      vertex 35.5607 6.73208 16
      vertex 34 6.42164 16
      vertex 47 0 16
    endloop
  endfacet
  facet normal -0 -0 1
    outer loop
      vertex 34 6.42164 16
      vertex 32.4393 6.73208 16
      vertex 47 0 16
    endloop
  endfacet
  facet normal 0 0 1
    outer loop
      vertex 32.4393 6.73208 16
      vertex 31.1162 7.61616 16
      vertex 21 10 16
    endloop
  endfacet
  facet normal 0 0 1
    outer loop
      vertex 31.1162 7.61616 16
      vertex 30.2321 8.93928 16
      vertex 21 10 16
    endloop
  endfacet
  facet normal 1 0 -0
    outer loop
      vertex 47 0 16
      vertex 47 0 0
      vertex 47 10 0
    endloop
  endfacet
  facet normal 1 0 0
    outer loop
      vertex 47 10 16
      vertex 47 0 16
      vertex 47 10 0
    endloop
  endfacet
  facet normal 0.866025 -1.77636e-16 0.5
    outer loop
      vertex 24.634 0 9.5
      vertex 24.634 10 9.5
      vertex 23.7679 10 11
    endloop
  endfacet
  facet normal 0.866025 -1.77636e-16 0.5
    outer loop
      vertex 23.7679 0 11
      vertex 24.634 0 9.5
      vertex 23.7679 10 11
    endloop
  endfacet
  facet normal 0.866025 1.8041e-16 -0.5
    outer loop
      vertex 23.7679 10 11
      vertex 24.634 10 12.5
      vertex 24.634 0 12.5
    endloop
  endfacet
  facet normal 0.866025 1.77636e-16 -0.5
    outer loop
      vertex 23.7679 0 11
      vertex 23.7679 10 11
      vertex 24.634 0 12.5
    endloop
  endfacet
  facet normal 0 -1.77636e-16 1
    outer loop
      vertex 26.366 0 9.5
      vertex 26.366 10 9.5
      vertex 24.634 10 9.5
    endloop
  endfacet
  facet normal -1.02558e-15 -3.55271e-16 1
    outer loop
      vertex 24.634 0 9.5
      vertex 26.366 0 9.5
      vertex 24.634 10 9.5
    endloop
  endfacet
  facet normal -0.866025 -8.88179e-17 0.5
    outer loop
      vertex 27.2321 10 11
      vertex 26.366 10 9.5
      vertex 27.2321 0 11
    endloop
  endfacet
  facet normal -0.866025 -8.32679e-17 0.5
    outer loop
      vertex 27.2321 0 11
      vertex 26.366 10 9.5
      vertex 26.366 0 9.5
    endloop
  endfacet
  facet normal -0.866025 8.88179e-17 -0.5
    outer loop
      vertex 27.2321 10 11
      vertex 27.2321 0 11
      vertex 26.366 10 12.5
    endloop
  endfacet
  facet normal -0.866025 8.88179e-17 -0.5
    outer loop
      vertex 26.366 10 12.5
      vertex 27.2321 0 11
      vertex 26.366 0 12.5
    endloop
  endfacet
  facet normal 0 1.77636e-16 -1
    outer loop
      vertex 26.366 10 12.5
      vertex 26.366 0 12.5
      vertex 24.634 10 12.5
    endloop
  endfacet
  facet normal 1.02558e-15 3.55271e-16 -1
    outer loop
      vertex 24.634 10 12.5
      vertex 26.366 0 12.5
      vertex 24.634 0 12.5
    endloop
  endfacet
  facet normal 0.866025 1.8041e-16 -0.5
    outer loop
      vertex 40.7679 10 11
      vertex 41.634 10 12.5
      vertex 41.634 0 12.5
    endloop
  endfacet
  facet normal 0.866025 1.77636e-16 -0.5
    outer loop
      vertex 40.7679 0 11
      vertex 40.7679 10 11
      vertex 41.634 0 12.5
    endloop
  endfacet
  facet normal 0.866025 -1.77636e-16 0.5
    outer loop
      vertex 41.634 0 9.5
      vertex 41.634 10 9.5
      vertex 40.7679 10 11
    endloop
  endfacet
  facet normal 0.866025 -1.77636e-16 0.5
    outer loop
      vertex 40.7679 0 11
      vertex 41.634 0 9.5
      vertex 40.7679 10 11
    endloop
  endfacet
  facet normal 0 -1.77636e-16 1
    outer loop
      vertex 43.366 0 9.5
      vertex 43.366 10 9.5
      vertex 41.634 10 9.5
    endloop
  endfacet
  facet normal -1.02558e-15 -3.55271e-16 1
    outer loop
      vertex 41.634 0 9.5
      vertex 43.366 0 9.5
      vertex 41.634 10 9.5
    endloop
  endfacet
  facet normal -0.866025 -8.88179e-17 0.5
    outer loop
      vertex 44.2321 10 11
      vertex 43.366 10 9.5
      vertex 44.2321 0 11
    endloop
  endfacet
  facet normal -0.866025 -8.32679e-17 0.5
    outer loop
      vertex 44.2321 0 11
      vertex 43.366 10 9.5
      vertex 43.366 0 9.5
    endloop
  endfacet
  facet normal -0.866025 8.88179e-17 -0.5
    outer loop
      vertex 44.2321 10 11
      vertex 44.2321 0 11
      vertex 43.366 10 12.5
    endloop
  endfacet
  facet normal -0.866025 8.88179e-17 -0.5
    outer loop
      vertex 43.366 10 12.5
      vertex 44.2321 0 11
      vertex 43.366 0 12.5
    endloop
  endfacet
  facet normal 0 1.77636e-16 -1
    outer loop
      vertex 43.366 10 12.5
      vertex 43.366 0 12.5
      vertex 41.634 10 12.5
    endloop
  endfacet
  facet normal 1.02558e-15 3.55271e-16 -1
    outer loop
      vertex 41.634 10 12.5
      vertex 43.366 0 12.5
      vertex 41.634 0 12.5
    endloop
  endfacet
  facet normal 0 1 0
    outer loop
      vertex 41.634 10 12.5
      vertex 37.9789 10 16
      vertex 47 10 16
    endloop
  endfacet
  facet normal -0 1 0
    outer loop
      vertex 43.366 10 12.5
      vertex 41.634 10 12.5
      vertex 47 10 16
    endloop
  endfacet
  facet normal 0 1 0
    outer loop
      vertex 37.9789 10 0
      vertex 37.9789 10 16
      vertex 40.7679 10 11
    endloop
  endfacet
  facet normal 0 1 0
    outer loop
      vertex 37.9789 10 0
      vertex 40.7679 10 11
      vertex 47 10 0
    endloop
  endfacet
  facet normal 0 1 -0
    outer loop
      vertex 43.366 10 9.5
      vertex 47 10 0
      vertex 41.634 10 9.5
    endloop
  endfacet
  facet normal 0 1 0
    outer loop
      vertex 40.7679 10 11
      vertex 41.634 10 9.5
      vertex 47 10 0
    endloop
  endfacet
  facet normal 0 1 0
    outer loop
      vertex 43.366 10 12.5
      vertex 47 10 16
      vertex 44.2321 10 11
    endloop
  endfacet
  facet normal 0 1 0
    outer loop
      vertex 47 10 0
      vertex 43.366 10 9.5
      vertex 44.2321 10 11
    endloop
  endfacet
  facet normal 0 1 0
    outer loop
      vertex 47 10 0
      vertex 44.2321 10 11
      vertex 47 10 16
    endloop
  endfacet
  facet normal 0 1 0
    outer loop
      vertex 40.7679 10 11
      vertex 37.9789 10 16
      vertex 41.634 10 12.5
    endloop
  endfacet
  facet normal -0.980785 0.19509 0
    outer loop
      vertex 37.9789 10 16
      vertex 37.9789 10 0
      vertex 37.7679 8.93928 16
    endloop
  endfacet
  facet normal -0.980785 0.19509 0
    outer loop
      vertex 37.7679 8.93928 16
      vertex 37.9789 10 0
      vertex 37.7679 8.93928 0
    endloop
  endfacet
  facet normal -0.831469 0.555571 0
    outer loop
      vertex 37.7679 8.93928 16
      vertex 37.7679 8.93928 0
      vertex 36.8838 7.61616 16
    endloop
  endfacet
  facet normal -0.831469 0.555571 0
    outer loop
      vertex 36.8838 7.61616 16
      vertex 37.7679 8.93928 0
      vertex 36.8838 7.61616 0
    endloop
  endfacet
  facet normal -0.555571 0.831469 0
    outer loop
      vertex 36.8838 7.61616 16
      vertex 36.8838 7.61616 0
      vertex 35.5607 6.73208 16
    endloop
  endfacet
  facet normal -0.555571 0.831469 0
    outer loop
      vertex 35.5607 6.73208 16
      vertex 36.8838 7.61616 0
      vertex 35.5607 6.73208 0
    endloop
  endfacet
  facet normal -0.19509 0.980785 0
    outer loop
      vertex 35.5607 6.73208 16
      vertex 35.5607 6.73208 0
      vertex 34 6.42164 16
    endloop
  endfacet
  facet normal -0.19509 0.980785 0
    outer loop
      vertex 34 6.42164 16
      vertex 35.5607 6.73208 0
      vertex 34 6.42164 0
    endloop
  endfacet
  facet normal 0.19509 0.980785 -0
    outer loop
      vertex 34 6.42164 16
      vertex 34 6.42164 0
      vertex 32.4393 6.73208 16
    endloop
  endfacet
  facet normal 0.19509 0.980785 -0
    outer loop
      vertex 32.4393 6.73208 16
      vertex 34 6.42164 0
      vertex 32.4393 6.73208 0
    endloop
  endfacet
  facet normal 0.555571 0.831469 -0
    outer loop
      vertex 32.4393 6.73208 16
      vertex 32.4393 6.73208 0
      vertex 31.1162 7.61616 16
    endloop
  endfacet
  facet normal 0.555571 0.831469 -0
    outer loop
      vertex 31.1162 7.61616 16
      vertex 32.4393 6.73208 0
      vertex 31.1162 7.61616 0
    endloop
  endfacet
  facet normal 0.831469 0.555571 0
    outer loop
      vertex 30.2321 8.93928 16
      vertex 31.1162 7.61616 16
      vertex 31.1162 7.61616 0
    endloop
  endfacet
  facet normal 0.831469 0.555571 0
    outer loop
      vertex 30.2321 8.93928 0
      vertex 30.2321 8.93928 16
      vertex 31.1162 7.61616 0
    endloop
  endfacet
  facet normal 0.980785 0.19509 0
    outer loop
      vertex 30.0211 10 16
      vertex 30.2321 8.93928 16
      vertex 30.2321 8.93928 0
    endloop
  endfacet
  facet normal 0.980785 0.19509 0
    outer loop
      vertex 30.0211 10 0
      vertex 30.0211 10 16
      vertex 30.2321 8.93928 0
    endloop
  endfacet
  facet normal 0 1 0
    outer loop
      vertex 24.634 10 12.5
      vertex 21 10 16
      vertex 30.0211 10 16
    endloop
  endfacet
  facet normal -0 1 0
    outer loop
      vertex 26.366 10 12.5
      vertex 24.634 10 12.5
      vertex 30.0211 10 16
    endloop
  endfacet
  facet normal 0 1 0
    outer loop
      vertex 21 10 0
      vertex 21 10 16
      vertex 23.7679 10 11
    endloop
  endfacet
  facet normal 0 1 0
    outer loop
      vertex 21 10 0
      vertex 23.7679 10 11
      vertex 30.0211 10 0
    endloop
  endfacet
  facet normal 0 1 -0
    outer loop
      vertex 26.366 10 9.5
      vertex 30.0211 10 0
      vertex 24.634 10 9.5
    endloop
  endfacet
  facet normal 0 1 0
    outer loop
      vertex 23.7679 10 11
      vertex 24.634 10 9.5
      vertex 30.0211 10 0
    endloop
  endfacet
  facet normal 0 1 0
    outer loop
      vertex 26.366 10 12.5
      vertex 30.0211 10 16
      vertex 27.2321 10 11
    endloop
  endfacet
  facet normal 0 1 0
    outer loop
      vertex 30.0211 10 0
      vertex 26.366 10 9.5
      vertex 27.2321 10 11
    endloop
  endfacet
  facet normal 0 1 0
    outer loop
      vertex 30.0211 10 0
      vertex 27.2321 10 11
      vertex 30.0211 10 16
    endloop
  endfacet
  facet normal 0 1 0
    outer loop
      vertex 23.7679 10 11
      vertex 21 10 16
      vertex 24.634 10 12.5
    endloop
  endfacet
endsolid OpenSCAD_Model
