solid OpenSCAD_Model
  facet normal -1 -0 -0
    outer loop
      vertex 21 11 6
      vertex 21 11 16
      vertex 21 17 6
    endloop
  endfacet
  facet normal -1 0 0
    outer loop
      vertex 21 17 6
      vertex 21 11 16
      vertex 21 17 16
    endloop
  endfacet
  facet normal 0 -1 0
    outer loop
      vertex 24.634 11 9.5
      vertex 21 11 6
      vertex 30.0211 11 6
    endloop
  endfacet
  facet normal 0 -1 0
    outer loop
      vertex 21 11 16
      vertex 21 11 6
      vertex 23.7679 11 11
    endloop
  endfacet
  facet normal 0 -1 0
    outer loop
      vertex 26.366 11 9.5
      vertex 24.634 11 9.5
      vertex 30.0211 11 6
    endloop
  endfacet
  facet normal 0 -1 0
    outer loop
      vertex 30.0211 11 16
      vertex 21 11 16
      vertex 24.634 11 12.5
    endloop
  endfacet
  facet normal 0 -1 0
    outer loop
      vertex 30.0211 11 16
      vertex 24.634 11 12.5
      vertex 26.366 11 12.5
    endloop
  endfacet
  facet normal 0 -1 0
    outer loop
      vertex 30.0211 11 16
      vertex 27.2321 11 11
      vertex 30.0211 11 6
    endloop
  endfacet
  facet normal 0 -1 0
    outer loop
      vertex 30.0211 11 16
      vertex 26.366 11 12.5
      vertex 27.2321 11 11
    endloop
  endfacet
  facet normal 0 -1 0
    outer loop
      vertex 27.2321 11 11
      vertex 26.366 11 9.5
      vertex 30.0211 11 6
    endloop
  endfacet
  facet normal 0 -1 0
    outer loop
      vertex 23.7679 11 11
      vertex 21 11 6
      vertex 24.634 11 9.5
    endloop
  endfacet
  facet normal 0 -1 -0
    outer loop
      vertex 23.7679 11 11
      vertex 24.634 11 12.5
      vertex 21 11 16
    endloop
  endfacet
  facet normal -0 -0 -1
    outer loop
      vertex 21 11 6
      vertex 21 17 6
      vertex 30.0211 11 6
    endloop
  endfacet
  facet normal 0 -0 -1
    outer loop
      vertex 34 14.5784 6
      vertex 21 17 6
      vertex 47 17 6
    endloop
  endfacet
  facet normal -0 0 -1
    outer loop
      vertex 37.9789 11 6
      vertex 47 17 6
      vertex 47 11 6
    endloop
  endfacet
  facet normal -0 0 -1
    outer loop
      vertex 37.7679 12.0607 6
      vertex 47 17 6
      vertex 37.9789 11 6
    endloop
  endfacet
  facet normal -0 0 -1
    outer loop
      vertex 36.8838 13.3838 6
      vertex 47 17 6
      vertex 37.7679 12.0607 6
    endloop
  endfacet
  facet normal 0 -0 -1
    outer loop
      vertex 32.4393 14.2679 6
      vertex 21 17 6
      vertex 34 14.5784 6
    endloop
  endfacet
  facet normal 0 -0 -1
    outer loop
      vertex 35.5607 14.2679 6
      vertex 34 14.5784 6
      vertex 47 17 6
    endloop
  endfacet
  facet normal 0 -0 -1
    outer loop
      vertex 31.1162 13.3838 6
      vertex 21 17 6
      vertex 32.4393 14.2679 6
    endloop
  endfacet
  facet normal 0 -0 -1
    outer loop
      vertex 30.2321 12.0607 6
      vertex 21 17 6
      vertex 31.1162 13.3838 6
    endloop
  endfacet
  facet normal 0 -0 -1
    outer loop
      vertex 30.0211 11 6
      vertex 21 17 6
      vertex 30.2321 12.0607 6
    endloop
  endfacet
  facet normal -0 0 -1
    outer loop
      vertex 35.5607 14.2679 6
      vertex 47 17 6
      vertex 36.8838 13.3838 6
    endloop
  endfacet
  facet normal 0 1 0
    outer loop
      vertex 25.5 17 14.2254
      vertex 21 17 16
      vertex 47 17 6
    endloop
  endfacet
  facet normal 0 1 0
    outer loop
      vertex 42.5 17 14.2254
      vertex 21 17 16
      vertex 47 17 16
    endloop
  endfacet
  facet normal 0 1 0
    outer loop
      vertex 21 17 6
      vertex 21 17 16
      vertex 22.7067 17 12.6127
    endloop
  endfacet
  facet normal 0 1 0
    outer loop
      vertex 21 17 6
      vertex 22.7067 17 12.6127
      vertex 22.7067 17 9.38729
    endloop
  endfacet
  facet normal 0 1 0
    outer loop
      vertex 21 17 6
      vertex 22.7067 17 9.38729
      vertex 25.5 17 7.77457
    endloop
  endfacet
  facet normal 0 1 0
    outer loop
      vertex 21 17 6
      vertex 25.5 17 7.77457
      vertex 47 17 6
    endloop
  endfacet
  facet normal 0 1 -0
    outer loop
      vertex 28.2933 17 12.6127
      vertex 47 17 6
      vertex 28.2933 17 9.38729
    endloop
  endfacet
  facet normal 0 1 -0
    outer loop
      vertex 28.2933 17 9.38729
      vertex 47 17 6
      vertex 25.5 17 7.77457
    endloop
  endfacet
  facet normal 0 1 -0
    outer loop
      vertex 45.2933 17 9.38729
      vertex 47 17 6
      vertex 42.5 17 7.77457
    endloop
  endfacet
  facet normal 0 1 0
    outer loop
      vertex 28.2933 17 12.6127
      vertex 25.5 17 14.2254
      vertex 47 17 6
    endloop
  endfacet
  facet normal 0 1 0
    outer loop
      vertex 39.7067 17 9.38729
      vertex 21 17 16
      vertex 39.7067 17 12.6127
    endloop
  endfacet
  facet normal 0 1 0
    outer loop
      vertex 42.5 17 7.77457
      vertex 21 17 16
      vertex 39.7067 17 9.38729
    endloop
  endfacet
  facet normal 0 1 0
    outer loop
      vertex 47 17 6
      vertex 21 17 16
      vertex 42.5 17 7.77457
    endloop
  endfacet
  facet normal 0 1 0
    outer loop
      vertex 42.5 17 14.2254
      vertex 47 17 16
      vertex 45.2933 17 12.6127
    endloop
  endfacet
  facet normal 0 1 0
    outer loop
      vertex 47 17 6
      vertex 45.2933 17 9.38729
      vertex 47 17 16
    endloop
  endfacet
  facet normal 0 1 0
    outer loop
      vertex 45.2933 17 9.38729
      vertex 45.2933 17 12.6127
      vertex 47 17 16
    endloop
  endfacet
  facet normal 0 1 0
    outer loop
      vertex 39.7067 17 12.6127
      vertex 21 17 16
      vertex 42.5 17 14.2254
    endloop
  endfacet
  facet normal 0 1 0
    outer loop
      vertex 22.7067 17 12.6127
      vertex 21 17 16
      vertex 25.5 17 14.2254
    endloop
  endfacet
  facet normal 0 -0 1
    outer loop
      vertex 21 17 16
      vertex 21 11 16
      vertex 30.0211 11 16
    endloop
  endfacet
  facet normal -0 0 1
    outer loop
      vertex 31.1162 13.3838 16
      vertex 21 17 16
      vertex 30.2321 12.0607 16
    endloop
  endfacet
  facet normal -0 0 1
    outer loop
      vertex 30.2321 12.0607 16
      vertex 21 17 16
      vertex 30.0211 11 16
    endloop
  endfacet
  facet normal -0 0 1
    outer loop
      vertex 32.4393 14.2679 16
      vertex 21 17 16
      vertex 31.1162 13.3838 16
    endloop
  endfacet
  facet normal -0 0 1
    outer loop
      vertex 34 14.5784 16
      vertex 21 17 16
      vertex 32.4393 14.2679 16
    endloop
  endfacet
  facet normal 0 0 1
    outer loop
      vertex 47 17 16
      vertex 21 17 16
      vertex 34 14.5784 16
    endloop
  endfacet
  facet normal 0 0 1
    outer loop
      vertex 47 17 16
      vertex 34 14.5784 16
      vertex 35.5607 14.2679 16
    endloop
  endfacet
  facet normal 0 0 1
    outer loop
      vertex 47 11 16
      vertex 35.5607 14.2679 16
      vertex 36.8838 13.3838 16
    endloop
  endfacet
  facet normal 0 0 1
    outer loop
      vertex 47 11 16
      vertex 36.8838 13.3838 16
      vertex 37.7679 12.0607 16
    endloop
  endfacet
  facet normal -0 0 1
    outer loop
      vertex 47 11 16
      vertex 37.7679 12.0607 16
      vertex 37.9789 11 16
    endloop
  endfacet
  facet normal 0 0 1
    outer loop
      vertex 47 17 16
      vertex 35.5607 14.2679 16
      vertex 47 11 16
    endloop
  endfacet
  facet normal 0.980785 -0.19509 0
    outer loop
      vertex 30.2321 12.0607 6
      vertex 30.2321 12.0607 16
      vertex 30.0211 11 16
    endloop
  endfacet
  facet normal 0.980785 -0.19509 0
    outer loop
      vertex 30.0211 11 6
      vertex 30.2321 12.0607 6
      vertex 30.0211 11 16
    endloop
  endfacet
  facet normal 0.866025 0 0.5
    outer loop
      vertex 24.634 11 9.5
      vertex 24.634 13.6 9.5
      vertex 23.7679 13.6 11
    endloop
  endfacet
  facet normal 0.866025 0 0.5
    outer loop
      vertex 23.7679 11 11
      vertex 24.634 11 9.5
      vertex 23.7679 13.6 11
    endloop
  endfacet
  facet normal 0.866025 0 -0.5
    outer loop
      vertex 23.7679 13.6 11
      vertex 24.634 13.6 12.5
      vertex 24.634 11 12.5
    endloop
  endfacet
  facet normal 0.866025 0 -0.5
    outer loop
      vertex 23.7679 11 11
      vertex 23.7679 13.6 11
      vertex 24.634 11 12.5
    endloop
  endfacet
  facet normal 0 0 1
    outer loop
      vertex 26.366 11 9.5
      vertex 26.366 13.6 9.5
      vertex 24.634 13.6 9.5
    endloop
  endfacet
  facet normal 0 0 1
    outer loop
      vertex 24.634 11 9.5
      vertex 26.366 11 9.5
      vertex 24.634 13.6 9.5
    endloop
  endfacet
  facet normal -0.866025 0 0.5
    outer loop
      vertex 27.2321 13.6 11
      vertex 26.366 13.6 9.5
      vertex 27.2321 11 11
    endloop
  endfacet
  facet normal -0.866025 0 0.5
    outer loop
      vertex 27.2321 11 11
      vertex 26.366 13.6 9.5
      vertex 26.366 11 9.5
    endloop
  endfacet
  facet normal -0.866025 0 -0.5
    outer loop
      vertex 27.2321 13.6 11
      vertex 27.2321 11 11
      vertex 26.366 13.6 12.5
    endloop
  endfacet
  facet normal -0.866025 0 -0.5
    outer loop
      vertex 26.366 13.6 12.5
      vertex 27.2321 11 11
      vertex 26.366 11 12.5
    endloop
  endfacet
  facet normal 0 0 -1
    outer loop
      vertex 26.366 13.6 12.5
      vertex 26.366 11 12.5
      vertex 24.634 13.6 12.5
    endloop
  endfacet
  facet normal 0 0 -1
    outer loop
      vertex 24.634 13.6 12.5
      vertex 26.366 11 12.5
      vertex 24.634 11 12.5
    endloop
  endfacet
  facet normal 0.831469 -0.555571 0
    outer loop
      vertex 31.1162 13.3838 6
      vertex 31.1162 13.3838 16
      vertex 30.2321 12.0607 16
    endloop
  endfacet
  facet normal 0.831469 -0.555571 0
    outer loop
      vertex 30.2321 12.0607 6
      vertex 31.1162 13.3838 6
      vertex 30.2321 12.0607 16
    endloop
  endfacet
  facet normal 0.555571 -0.831469 0
    outer loop
      vertex 32.4393 14.2679 6
      vertex 32.4393 14.2679 16
      vertex 31.1162 13.3838 16
    endloop
  endfacet
  facet normal 0.555571 -0.831469 0
    outer loop
      vertex 31.1162 13.3838 6
      vertex 32.4393 14.2679 6
      vertex 31.1162 13.3838 16
    endloop
  endfacet
  facet normal 0.19509 -0.980785 0
    outer loop
      vertex 34 14.5784 6
      vertex 34 14.5784 16
      vertex 32.4393 14.2679 16
    endloop
  endfacet
  facet normal 0.19509 -0.980785 0
    outer loop
      vertex 32.4393 14.2679 6
      vertex 34 14.5784 6
      vertex 32.4393 14.2679 16
    endloop
  endfacet
  facet normal -0.19509 -0.980785 -0
    outer loop
      vertex 35.5607 14.2679 6
      vertex 35.5607 14.2679 16
      vertex 34 14.5784 16
    endloop
  endfacet
  facet normal -0.19509 -0.980785 -0
    outer loop
      vertex 34 14.5784 6
      vertex 35.5607 14.2679 6
      vertex 34 14.5784 16
    endloop
  endfacet
  facet normal -0.555571 -0.831469 -0
    outer loop
      vertex 36.8838 13.3838 6
      vertex 36.8838 13.3838 16
      vertex 35.5607 14.2679 16
    endloop
  endfacet
  facet normal -0.555571 -0.831469 -0
    outer loop
      vertex 35.5607 14.2679 6
      vertex 36.8838 13.3838 6
      vertex 35.5607 14.2679 16
    endloop
  endfacet
  facet normal -0.831469 -0.555571 0
    outer loop
      vertex 37.7679 12.0607 16
      vertex 36.8838 13.3838 16
      vertex 37.7679 12.0607 6
    endloop
  endfacet
  facet normal -0.831469 -0.555571 0
    outer loop
      vertex 37.7679 12.0607 6
      vertex 36.8838 13.3838 16
      vertex 36.8838 13.3838 6
    endloop
  endfacet
  facet normal -0.980785 -0.19509 0
    outer loop
      vertex 37.9789 11 16
      vertex 37.7679 12.0607 16
      vertex 37.9789 11 6
    endloop
  endfacet
  facet normal -0.980785 -0.19509 0
    outer loop
      vertex 37.9789 11 6
      vertex 37.7679 12.0607 16
      vertex 37.7679 12.0607 6
    endloop
  endfacet
  facet normal 0 -1 0
    outer loop
      vertex 41.634 11 9.5
      vertex 37.9789 11 6
      vertex 47 11 6
    endloop
  endfacet
  facet normal 0 -1 0
    outer loop
      vertex 37.9789 11 16
      vertex 37.9789 11 6
      vertex 40.7679 11 11
    endloop
  endfacet
  facet normal 0 -1 0
    outer loop
      vertex 43.366 11 9.5
      vertex 41.634 11 9.5
      vertex 47 11 6
    endloop
  endfacet
  facet normal 0 -1 0
    outer loop
      vertex 47 11 16
      vertex 37.9789 11 16
      vertex 41.634 11 12.5
    endloop
  endfacet
  facet normal 0 -1 0
    outer loop
      vertex 47 11 16
      vertex 41.634 11 12.5
      vertex 43.366 11 12.5
    endloop
  endfacet
  facet normal 0 -1 0
    outer loop
      vertex 47 11 16
      vertex 44.2321 11 11
      vertex 47 11 6
    endloop
  endfacet
  facet normal 0 -1 0
    outer loop
      vertex 47 11 16
      vertex 43.366 11 12.5
      vertex 44.2321 11 11
    endloop
  endfacet
  facet normal 0 -1 0
    outer loop
      vertex 44.2321 11 11
      vertex 43.366 11 9.5
      vertex 47 11 6
    endloop
  endfacet
  facet normal 0 -1 0
    outer loop
      vertex 40.7679 11 11
      vertex 37.9789 11 6
      vertex 41.634 11 9.5
    endloop
  endfacet
  facet normal 0 -1 -0
    outer loop
      vertex 40.7679 11 11
      vertex 41.634 11 12.5
      vertex 37.9789 11 16
    endloop
  endfacet
  facet normal 1 0 -0
    outer loop
      vertex 47 11 16
      vertex 47 11 6
      vertex 47 17 6
    endloop
  endfacet
  facet normal 1 0 0
    outer loop
      vertex 47 17 16
      vertex 47 11 16
      vertex 47 17 6
    endloop
  endfacet
  facet normal 1 -1.04492e-15 1.10147e-15
    outer loop
      vertex 22.7067 13.6 9.38729
      vertex 22.7067 17 9.38729
      vertex 22.7067 17 12.6127
    endloop
  endfacet
  facet normal 1 0 -0
    outer loop
      vertex 22.7067 13.6 12.6127
      vertex 22.7067 13.6 9.38729
      vertex 22.7067 17 12.6127
    endloop
  endfacet
  facet normal 0.5 -5.22458e-16 -0.866025
    outer loop
      vertex 25.5 17 14.2254
      vertex 25.5 13.6 14.2254
      vertex 22.7067 17 12.6127
    endloop
  endfacet
  facet normal 0.5 0 -0.866025
    outer loop
      vertex 22.7067 17 12.6127
      vertex 25.5 13.6 14.2254
      vertex 22.7067 13.6 12.6127
    endloop
  endfacet
  facet normal -0.5 0 -0.866025
    outer loop
      vertex 28.2933 17 12.6127
      vertex 28.2933 13.6 12.6127
      vertex 25.5 17 14.2254
    endloop
  endfacet
  facet normal -0.5 5.22458e-16 -0.866025
    outer loop
      vertex 25.5 17 14.2254
      vertex 28.2933 13.6 12.6127
      vertex 25.5 13.6 14.2254
    endloop
  endfacet
  facet normal -1 0 0
    outer loop
      vertex 28.2933 17 9.38729
      vertex 28.2933 13.6 9.38729
      vertex 28.2933 17 12.6127
    endloop
  endfacet
  facet normal -1 0 0
    outer loop
      vertex 28.2933 17 12.6127
      vertex 28.2933 13.6 9.38729
      vertex 28.2933 13.6 12.6127
    endloop
  endfacet
  facet normal -0.5 0 0.866025
    outer loop
      vertex 28.2933 13.6 9.38729
      vertex 28.2933 17 9.38729
      vertex 25.5 17 7.77457
    endloop
  endfacet
  facet normal -0.5 0 0.866025
    outer loop
      vertex 25.5 13.6 7.77457
      vertex 28.2933 13.6 9.38729
      vertex 25.5 17 7.77457
    endloop
  endfacet
  facet normal 0.5 0 0.866025
    outer loop
      vertex 25.5 13.6 7.77457
      vertex 25.5 17 7.77457
      vertex 22.7067 17 9.38729
    endloop
  endfacet
  facet normal 0.5 -5.22458e-16 0.866025
    outer loop
      vertex 22.7067 13.6 9.38729
      vertex 25.5 13.6 7.77457
      vertex 22.7067 17 9.38729
    endloop
  endfacet
  facet normal 1 -2.08983e-15 2.20294e-15
    outer loop
      vertex 39.7067 13.6 9.38729
      vertex 39.7067 17 9.38729
      vertex 39.7067 17 12.6127
    endloop
  endfacet
  facet normal 1 0 -0
    outer loop
      vertex 39.7067 13.6 12.6127
      vertex 39.7067 13.6 9.38729
      vertex 39.7067 17 12.6127
    endloop
  endfacet
  facet normal 0.5 -1.04492e-15 -0.866025
    outer loop
      vertex 42.5 17 14.2254
      vertex 42.5 13.6 14.2254
      vertex 39.7067 17 12.6127
    endloop
  endfacet
  facet normal 0.5 0 -0.866025
    outer loop
      vertex 39.7067 17 12.6127
      vertex 42.5 13.6 14.2254
      vertex 39.7067 13.6 12.6127
    endloop
  endfacet
  facet normal -0.5 0 -0.866025
    outer loop
      vertex 45.2933 17 12.6127
      vertex 45.2933 13.6 12.6127
      vertex 42.5 17 14.2254
    endloop
  endfacet
  facet normal -0.5 1.04492e-15 -0.866025
    outer loop
      vertex 42.5 17 14.2254
      vertex 45.2933 13.6 12.6127
      vertex 42.5 13.6 14.2254
    endloop
  endfacet
  facet normal -1 0 0
    outer loop
      vertex 45.2933 17 9.38729
      vertex 45.2933 13.6 9.38729
      vertex 45.2933 17 12.6127
    endloop
  endfacet
  facet normal -1 0 0
    outer loop
      vertex 45.2933 17 12.6127
      vertex 45.2933 13.6 9.38729
      vertex 45.2933 13.6 12.6127
    endloop
  endfacet
  facet normal -0.5 0 0.866025
    outer loop
      vertex 45.2933 13.6 9.38729
      vertex 45.2933 17 9.38729
      vertex 42.5 17 7.77457
    endloop
  endfacet
  facet normal -0.5 0 0.866025
    outer loop
      vertex 42.5 13.6 7.77457
      vertex 45.2933 13.6 9.38729
      vertex 42.5 17 7.77457
    endloop
  endfacet
  facet normal 0.5 0 0.866025
    outer loop
      vertex 42.5 13.6 7.77457
      vertex 42.5 17 7.77457
      vertex 39.7067 17 9.38729
    endloop
  endfacet
  facet normal 0.5 -1.04492e-15 0.866025
    outer loop
      vertex 39.7067 13.6 9.38729
      vertex 42.5 13.6 7.77457
      vertex 39.7067 17 9.38729
    endloop
  endfacet
  facet normal 6.35935e-16 1 -0
    outer loop
      vertex 28.2933 13.6 12.6127
      vertex 28.2933 13.6 9.38729
      vertex 25.5 13.6 14.2254
    endloop
  endfacet
  facet normal 5.84924e-17 1 1.00016e-15
    outer loop
      vertex 26.366 13.6 9.5
      vertex 28.2933 13.6 9.38729
      vertex 25.5 13.6 7.77457
    endloop
  endfacet
  facet normal 0 1 -0
    outer loop
      vertex 23.7679 13.6 11
      vertex 25.5 13.6 7.77457
      vertex 22.7067 13.6 9.38729
    endloop
  endfacet
  facet normal 0 1 0
    outer loop
      vertex 25.5 13.6 14.2254
      vertex 22.7067 13.6 9.38729
      vertex 22.7067 13.6 12.6127
    endloop
  endfacet
  facet normal -0 1 -0
    outer loop
      vertex 24.634 13.6 9.5
      vertex 25.5 13.6 7.77457
      vertex 23.7679 13.6 11
    endloop
  endfacet
  facet normal 0 1 0
    outer loop
      vertex 25.5 13.6 14.2254
      vertex 23.7679 13.6 11
      vertex 22.7067 13.6 9.38729
    endloop
  endfacet
  facet normal 0 1 -0
    outer loop
      vertex 27.2321 13.6 11
      vertex 28.2933 13.6 9.38729
      vertex 26.366 13.6 9.5
    endloop
  endfacet
  facet normal 1.02558e-15 1 -5.14759e-16
    outer loop
      vertex 24.634 13.6 12.5
      vertex 25.5 13.6 14.2254
      vertex 26.366 13.6 12.5
    endloop
  endfacet
  facet normal -4.54952e-15 1 -2.99383e-15
    outer loop
      vertex 25.5 13.6 14.2254
      vertex 28.2933 13.6 9.38729
      vertex 27.2321 13.6 11
    endloop
  endfacet
  facet normal -1.36484e-14 1 -7.87994e-15
    outer loop
      vertex 25.5 13.6 14.2254
      vertex 27.2321 13.6 11
      vertex 26.366 13.6 12.5
    endloop
  endfacet
  facet normal 0 1 0
    outer loop
      vertex 25.5 13.6 14.2254
      vertex 24.634 13.6 12.5
      vertex 23.7679 13.6 11
    endloop
  endfacet
  facet normal 1.02558e-15 1 5.14759e-16
    outer loop
      vertex 26.366 13.6 9.5
      vertex 25.5 13.6 7.77457
      vertex 24.634 13.6 9.5
    endloop
  endfacet
  facet normal 0.866025 0 -0.5
    outer loop
      vertex 40.7679 13.6 11
      vertex 41.634 13.6 12.5
      vertex 41.634 11 12.5
    endloop
  endfacet
  facet normal 0.866025 0 -0.5
    outer loop
      vertex 40.7679 11 11
      vertex 40.7679 13.6 11
      vertex 41.634 11 12.5
    endloop
  endfacet
  facet normal 0.866025 0 0.5
    outer loop
      vertex 41.634 11 9.5
      vertex 41.634 13.6 9.5
      vertex 40.7679 13.6 11
    endloop
  endfacet
  facet normal 0.866025 0 0.5
    outer loop
      vertex 40.7679 11 11
      vertex 41.634 11 9.5
      vertex 40.7679 13.6 11
    endloop
  endfacet
  facet normal 0 0 1
    outer loop
      vertex 43.366 11 9.5
      vertex 43.366 13.6 9.5
      vertex 41.634 13.6 9.5
    endloop
  endfacet
  facet normal 0 0 1
    outer loop
      vertex 41.634 11 9.5
      vertex 43.366 11 9.5
      vertex 41.634 13.6 9.5
    endloop
  endfacet
  facet normal -0.866025 0 0.5
    outer loop
      vertex 44.2321 13.6 11
      vertex 43.366 13.6 9.5
      vertex 44.2321 11 11
    endloop
  endfacet
  facet normal -0.866025 0 0.5
    outer loop
      vertex 44.2321 11 11
      vertex 43.366 13.6 9.5
      vertex 43.366 11 9.5
    endloop
  endfacet
  facet normal -0.866025 0 -0.5
    outer loop
      vertex 44.2321 13.6 11
      vertex 44.2321 11 11
      vertex 43.366 13.6 12.5
    endloop
  endfacet
  facet normal -0.866025 0 -0.5
    outer loop
      vertex 43.366 13.6 12.5
      vertex 44.2321 11 11
      vertex 43.366 11 12.5
    endloop
  endfacet
  facet normal 0 0 -1
    outer loop
      vertex 43.366 13.6 12.5
      vertex 43.366 11 12.5
      vertex 41.634 13.6 12.5
    endloop
  endfacet
  facet normal 0 0 -1
    outer loop
      vertex 41.634 13.6 12.5
      vertex 43.366 11 12.5
      vertex 41.634 11 12.5
    endloop
  endfacet
  facet normal 6.35935e-16 1 -0
    outer loop
      vertex 45.2933 13.6 12.6127
      vertex 45.2933 13.6 9.38729
      vertex 42.5 13.6 14.2254
    endloop
  endfacet
  facet normal 5.84924e-17 1 1.00016e-15
    outer loop
      vertex 43.366 13.6 9.5
      vertex 45.2933 13.6 9.38729
      vertex 42.5 13.6 7.77457
    endloop
  endfacet
  facet normal 0 1 -0
    outer loop
      vertex 40.7679 13.6 11
      vertex 42.5 13.6 7.77457
      vertex 39.7067 13.6 9.38729
    endloop
  endfacet
  facet normal 0 1 0
    outer loop
      vertex 42.5 13.6 14.2254
      vertex 39.7067 13.6 9.38729
      vertex 39.7067 13.6 12.6127
    endloop
  endfacet
  facet normal -0 1 -0
    outer loop
      vertex 41.634 13.6 9.5
      vertex 42.5 13.6 7.77457
      vertex 40.7679 13.6 11
    endloop
  endfacet
  facet normal 0 1 0
    outer loop
      vertex 42.5 13.6 14.2254
      vertex 40.7679 13.6 11
      vertex 39.7067 13.6 9.38729
    endloop
  endfacet
  facet normal 0 1 -0
    outer loop
      vertex 44.2321 13.6 11
      vertex 45.2933 13.6 9.38729
      vertex 43.366 13.6 9.5
    endloop
  endfacet
  facet normal 1.02558e-15 1 -5.14759e-16
    outer loop
      vertex 41.634 13.6 12.5
      vertex 42.5 13.6 14.2254
      vertex 43.366 13.6 12.5
    endloop
  endfacet
  facet normal -4.54952e-15 1 -2.99383e-15
    outer loop
      vertex 42.5 13.6 14.2254
      vertex 45.2933 13.6 9.38729
      vertex 44.2321 13.6 11
    endloop
  endfacet
  facet normal -1.36484e-14 1 -7.87994e-15
    outer loop
      vertex 42.5 13.6 14.2254
      vertex 44.2321 13.6 11
      vertex 43.366 13.6 12.5
    endloop
  endfacet
  facet normal 0 1 0
    outer loop
      vertex 42.5 13.6 14.2254
      vertex 41.634 13.6 12.5
      vertex 40.7679 13.6 11
    endloop
  endfacet
  facet normal 1.02558e-15 1 5.14759e-16
    outer loop
      vertex 43.366 13.6 9.5
      vertex 42.5 13.6 7.77457
      vertex 41.634 13.6 9.5
    endloop
  endfacet
endsolid OpenSCAD_Model
