solid OpenSCAD_Model
  facet normal 0 -1 0
    outer loop
      vertex -20 8.5 4
      vertex -20 8.5 0
      vertex 0 8.5 0
    endloop
  endfacet
  facet normal 0 -1 0
    outer loop
      vertex 0 8.5 4
      vertex -20 8.5 4
      vertex 0 8.5 0
    endloop
  endfacet
  facet normal 0 -0 -1
    outer loop
      vertex -3.67624 15.1 0
      vertex -20 18.5 0
      vertex 0 18.5 0
    endloop
  endfacet
  facet normal 0 -0 -1
    outer loop
      vertex 0 18.5 0
      vertex 0 26 0
      vertex 0.048943 26.309 0
    endloop
  endfacet
  facet normal -0 0 -1
    outer loop
      vertex 0 18.5 0
      vertex 0.048943 26.309 0
      vertex 0 8.5 0
    endloop
  endfacet
  facet normal 0 0 -1
    outer loop
      vertex 0 8.5 0
      vertex 0.048943 26.309 0
      vertex 0.190983 26.5878 0
    endloop
  endfacet
  facet normal 0 0 -1
    outer loop
      vertex 0 8.5 0
      vertex 0.190983 26.5878 0
      vertex 0.412215 26.809 0
    endloop
  endfacet
  facet normal 0 0 -1
    outer loop
      vertex 0 8.5 0
      vertex 0.412215 26.809 0
      vertex 0.690983 26.9511 0
    endloop
  endfacet
  facet normal 0 0 -1
    outer loop
      vertex 0 8.5 0
      vertex 0.690983 26.9511 0
      vertex 1 27 0
    endloop
  endfacet
  facet normal 0 0 -1
    outer loop
      vertex 0 8.5 0
      vertex 1 27 0
      vertex 46 27 0
    endloop
  endfacet
  facet normal 0 0 -1
    outer loop
      vertex 0 8.5 0
      vertex 46 27 0
      vertex 46.309 26.9511 0
    endloop
  endfacet
  facet normal 0 0 -1
    outer loop
      vertex 0 8.5 0
      vertex 46.309 26.9511 0
      vertex 46.5878 26.809 0
    endloop
  endfacet
  facet normal 0 0 -1
    outer loop
      vertex 0 8.5 0
      vertex 46.5878 26.809 0
      vertex 46.809 26.5878 0
    endloop
  endfacet
  facet normal 0 0 -1
    outer loop
      vertex 0 8.5 0
      vertex 46.809 26.5878 0
      vertex 46.9511 26.309 0
    endloop
  endfacet
  facet normal 0 0 -1
    outer loop
      vertex 0 8.5 0
      vertex 46.9511 26.309 0
      vertex 47 26 0
    endloop
  endfacet
  facet normal 0 0 -1
    outer loop
      vertex 0 8.5 0
      vertex 47 26 0
      vertex 47 18.5 0
    endloop
  endfacet
  facet normal 0 0 -1
    outer loop
      vertex 0 8.5 0
      vertex 47 18.5 0
      vertex 67 18.5 0
    endloop
  endfacet
  facet normal -0 0 -1
    outer loop
      vertex 64.2475 13.5 0
      vertex 67 18.5 0
      vertex 67 8.5 0
    endloop
  endfacet
  facet normal 0 0 -1
    outer loop
      vertex 0.190983 0.412215 0
      vertex 1 0 0
      vertex 0.412215 0.190983 0
    endloop
  endfacet
  facet normal 0 0 -1
    outer loop
      vertex 47 8.5 0
      vertex 47 1 0
      vertex 0 8.5 0
    endloop
  endfacet
  facet normal 0 0 -1
    outer loop
      vertex 63.3238 11.9 0
      vertex 47 8.5 0
      vertex 52.5238 11.9 0
    endloop
  endfacet
  facet normal 0 0 -1
    outer loop
      vertex -3.67624 11.9 0
      vertex 0 8.5 0
      vertex -14.4762 11.9 0
    endloop
  endfacet
  facet normal 0 0 -1
    outer loop
      vertex 1 0 0
      vertex 0.690983 0.048943 0
      vertex 0.412215 0.190983 0
    endloop
  endfacet
  facet normal 0 0 -1
    outer loop
      vertex 46 0 0
      vertex 1 0 0
      vertex 0.190983 0.412215 0
    endloop
  endfacet
  facet normal 0 0 -1
    outer loop
      vertex 46 0 0
      vertex 0.190983 0.412215 0
      vertex 0.048943 0.690983 0
    endloop
  endfacet
  facet normal 0 0 -1
    outer loop
      vertex 46 0 0
      vertex 0.048943 0.690983 0
      vertex 0 1 0
    endloop
  endfacet
  facet normal 0 -0 -1
    outer loop
      vertex -20 8.5 0
      vertex -20 18.5 0
      vertex -17.2475 13.5 0
    endloop
  endfacet
  facet normal 0 0 -1
    outer loop
      vertex -20 8.5 0
      vertex -17.2475 13.5 0
      vertex -16.3238 11.9 0
    endloop
  endfacet
  facet normal -0 0 -1
    outer loop
      vertex -20 8.5 0
      vertex -16.3238 11.9 0
      vertex 0 8.5 0
    endloop
  endfacet
  facet normal 0 0 -1
    outer loop
      vertex -16.3238 11.9 0
      vertex -14.4762 11.9 0
      vertex 0 8.5 0
    endloop
  endfacet
  facet normal -0 0 -1
    outer loop
      vertex -3.67624 15.1 0
      vertex 0 18.5 0
      vertex -2.75248 13.5 0
    endloop
  endfacet
  facet normal 0 0 -1
    outer loop
      vertex 0 8.5 0
      vertex -3.67624 11.9 0
      vertex -2.75248 13.5 0
    endloop
  endfacet
  facet normal 0 0 -1
    outer loop
      vertex 0 8.5 0
      vertex -2.75248 13.5 0
      vertex 0 18.5 0
    endloop
  endfacet
  facet normal -0 -0 -1
    outer loop
      vertex -5.52376 15.1 0
      vertex -20 18.5 0
      vertex -3.67624 15.1 0
    endloop
  endfacet
  facet normal -0 -0 -1
    outer loop
      vertex -16.3238 15.1 0
      vertex -20 18.5 0
      vertex -5.52376 15.1 0
    endloop
  endfacet
  facet normal 0 -0 -1
    outer loop
      vertex -17.2475 13.5 0
      vertex -20 18.5 0
      vertex -16.3238 15.1 0
    endloop
  endfacet
  facet normal -0 0 -1
    outer loop
      vertex 0 8.5 0
      vertex 49.7525 13.5 0
      vertex 47 8.5 0
    endloop
  endfacet
  facet normal 0 0 -1
    outer loop
      vertex 49.7525 13.5 0
      vertex 50.6762 11.9 0
      vertex 47 8.5 0
    endloop
  endfacet
  facet normal 0 0 -1
    outer loop
      vertex 50.6762 11.9 0
      vertex 52.5238 11.9 0
      vertex 47 8.5 0
    endloop
  endfacet
  facet normal -0 0 -1
    outer loop
      vertex 50.6762 15.1 0
      vertex 67 18.5 0
      vertex 61.4762 15.1 0
    endloop
  endfacet
  facet normal -0 0 -1
    outer loop
      vertex 47 8.5 0
      vertex 63.3238 11.9 0
      vertex 67 8.5 0
    endloop
  endfacet
  facet normal -0 0 -1
    outer loop
      vertex 63.3238 11.9 0
      vertex 64.2475 13.5 0
      vertex 67 8.5 0
    endloop
  endfacet
  facet normal -0 0 -1
    outer loop
      vertex 61.4762 15.1 0
      vertex 67 18.5 0
      vertex 63.3238 15.1 0
    endloop
  endfacet
  facet normal -0 0 -1
    outer loop
      vertex 63.3238 15.1 0
      vertex 67 18.5 0
      vertex 64.2475 13.5 0
    endloop
  endfacet
  facet normal 0 0 -1
    outer loop
      vertex 0 8.5 0
      vertex 67 18.5 0
      vertex 50.6762 15.1 0
    endloop
  endfacet
  facet normal 0 0 -1
    outer loop
      vertex 0 8.5 0
      vertex 50.6762 15.1 0
      vertex 49.7525 13.5 0
    endloop
  endfacet
  facet normal 0 0 -1
    outer loop
      vertex 0 8.5 0
      vertex 47 1 0
      vertex 46.9511 0.690983 0
    endloop
  endfacet
  facet normal 0 0 -1
    outer loop
      vertex 0 8.5 0
      vertex 46.9511 0.690983 0
      vertex 46.809 0.412215 0
    endloop
  endfacet
  facet normal 0 0 -1
    outer loop
      vertex 0 8.5 0
      vertex 46.809 0.412215 0
      vertex 46.5878 0.190983 0
    endloop
  endfacet
  facet normal 0 0 -1
    outer loop
      vertex 0 8.5 0
      vertex 46.5878 0.190983 0
      vertex 46.309 0.048943 0
    endloop
  endfacet
  facet normal 0 0 -1
    outer loop
      vertex 0 8.5 0
      vertex 46.309 0.048943 0
      vertex 46 0 0
    endloop
  endfacet
  facet normal 0 0 -1
    outer loop
      vertex 0 8.5 0
      vertex 46 0 0
      vertex 0 1 0
    endloop
  endfacet
  facet normal -1 -0 -0
    outer loop
      vertex -20 8.5 0
      vertex -20 8.5 4
      vertex -20 18.5 0
    endloop
  endfacet
  facet normal -1 0 0
    outer loop
      vertex -20 18.5 0
      vertex -20 8.5 4
      vertex -20 18.5 4
    endloop
  endfacet
  facet normal 0 -0 1
    outer loop
      vertex -16.3238 11.9 4
      vertex -20 8.5 4
      vertex 0 8.5 4
    endloop
  endfacet
  facet normal 0 -0 1
    outer loop
      vertex -14.4762 11.9 4
      vertex -16.3238 11.9 4
      vertex 0 8.5 4
    endloop
  endfacet
  facet normal 0 -0 1
    outer loop
      vertex -17.2475 13.5 4
      vertex -20 8.5 4
      vertex -16.3238 11.9 4
    endloop
  endfacet
  facet normal 0 -0 1
    outer loop
      vertex -20 18.5 4
      vertex -20 8.5 4
      vertex -17.2475 13.5 4
    endloop
  endfacet
  facet normal 0 -0 1
    outer loop
      vertex -2.75248 13.5 4
      vertex -3.67624 11.9 4
      vertex 0 8.5 4
    endloop
  endfacet
  facet normal 0 -0 1
    outer loop
      vertex -3.67624 11.9 4
      vertex -14.4762 11.9 4
      vertex 0 8.5 4
    endloop
  endfacet
  facet normal 0 0 1
    outer loop
      vertex 0 18.5 4
      vertex -20 18.5 4
      vertex -5.52376 15.1 4
    endloop
  endfacet
  facet normal 0 0 1
    outer loop
      vertex 0 18.5 4
      vertex -5.52376 15.1 4
      vertex -3.67624 15.1 4
    endloop
  endfacet
  facet normal 0 0 1
    outer loop
      vertex 0 18.5 4
      vertex -2.75248 13.5 4
      vertex 0 8.5 4
    endloop
  endfacet
  facet normal 0 0 1
    outer loop
      vertex 0 18.5 4
      vertex -3.67624 15.1 4
      vertex -2.75248 13.5 4
    endloop
  endfacet
  facet normal 0 0 1
    outer loop
      vertex -17.2475 13.5 4
      vertex -16.3238 15.1 4
      vertex -20 18.5 4
    endloop
  endfacet
  facet normal 0 0 1
    outer loop
      vertex -16.3238 15.1 4
      vertex -5.52376 15.1 4
      vertex -20 18.5 4
    endloop
  endfacet
  facet normal -1 -0 -0
    outer loop
      vertex 0 1 0
      vertex 0 1 10
      vertex 0 8.5 0
    endloop
  endfacet
  facet normal -1 0 -0
    outer loop
      vertex 0 8.5 4
      vertex 0 1 10
      vertex 0 26 10
    endloop
  endfacet
  facet normal -1 -0 0
    outer loop
      vertex 0 18.5 0
      vertex 0 26 10
      vertex 0 26 0
    endloop
  endfacet
  facet normal -1 -0 0
    outer loop
      vertex 0 18.5 4
      vertex 0 26 10
      vertex 0 18.5 0
    endloop
  endfacet
  facet normal -1 0 0
    outer loop
      vertex 0 8.5 0
      vertex 0 1 10
      vertex 0 8.5 4
    endloop
  endfacet
  facet normal -1 -0 0
    outer loop
      vertex 0 8.5 4
      vertex 0 26 10
      vertex 0 18.5 4
    endloop
  endfacet
  facet normal -0.987689 -0.156433 -0
    outer loop
      vertex 0 1 0
      vertex 0.048943 0.690983 0
      vertex 0 1 10
    endloop
  endfacet
  facet normal -0.987689 -0.156433 0
    outer loop
      vertex 0 1 10
      vertex 0.048943 0.690983 0
      vertex 0.048943 0.690983 10
    endloop
  endfacet
  facet normal -0.891006 -0.453992 -0
    outer loop
      vertex 0.048943 0.690983 0
      vertex 0.190983 0.412215 0
      vertex 0.048943 0.690983 10
    endloop
  endfacet
  facet normal -0.891006 -0.453992 0
    outer loop
      vertex 0.048943 0.690983 10
      vertex 0.190983 0.412215 0
      vertex 0.190983 0.412215 10
    endloop
  endfacet
  facet normal -0.707107 -0.707107 0
    outer loop
      vertex 0.190983 0.412215 10
      vertex 0.190983 0.412215 0
      vertex 0.412215 0.190983 0
    endloop
  endfacet
  facet normal -0.707107 -0.707107 0
    outer loop
      vertex 0.412215 0.190983 10
      vertex 0.190983 0.412215 10
      vertex 0.412215 0.190983 0
    endloop
  endfacet
  facet normal -0.453992 -0.891006 0
    outer loop
      vertex 0.412215 0.190983 10
      vertex 0.412215 0.190983 0
      vertex 0.690983 0.048943 0
    endloop
  endfacet
  facet normal -0.453992 -0.891006 0
    outer loop
      vertex 0.690983 0.048943 10
      vertex 0.412215 0.190983 10
      vertex 0.690983 0.048943 0
    endloop
  endfacet
  facet normal -0.156433 -0.987689 0
    outer loop
      vertex 0.690983 0.048943 10
      vertex 0.690983 0.048943 0
      vertex 1 0 0
    endloop
  endfacet
  facet normal -0.156433 -0.987689 0
    outer loop
      vertex 1 0 10
      vertex 0.690983 0.048943 10
      vertex 1 0 0
    endloop
  endfacet
  facet normal 0 -1 0
    outer loop
      vertex 1 0 10
      vertex 1 0 0
      vertex 46 0 0
    endloop
  endfacet
  facet normal 0 -1 0
    outer loop
      vertex 46 0 10
      vertex 1 0 10
      vertex 46 0 0
    endloop
  endfacet
  facet normal 0.156433 -0.987689 0
    outer loop
      vertex 46 0 10
      vertex 46 0 0
      vertex 46.309 0.048943 0
    endloop
  endfacet
  facet normal 0.156433 -0.987689 0
    outer loop
      vertex 46.309 0.048943 10
      vertex 46 0 10
      vertex 46.309 0.048943 0
    endloop
  endfacet
  facet normal 0.453992 -0.891006 0
    outer loop
      vertex 46.309 0.048943 10
      vertex 46.309 0.048943 0
      vertex 46.5878 0.190983 0
    endloop
  endfacet
  facet normal 0.453992 -0.891006 0
    outer loop
      vertex 46.5878 0.190983 10
      vertex 46.309 0.048943 10
      vertex 46.5878 0.190983 0
    endloop
  endfacet
  facet normal 0.707107 -0.707107 0
    outer loop
      vertex 46.5878 0.190983 10
      vertex 46.5878 0.190983 0
      vertex 46.809 0.412215 0
    endloop
  endfacet
  facet normal 0.707107 -0.707107 0
    outer loop
      vertex 46.809 0.412215 10
      vertex 46.5878 0.190983 10
      vertex 46.809 0.412215 0
    endloop
  endfacet
  facet normal 0.891006 -0.453992 0
    outer loop
      vertex 46.809 0.412215 10
      vertex 46.809 0.412215 0
      vertex 46.9511 0.690983 0
    endloop
  endfacet
  facet normal 0.891006 -0.453992 0
    outer loop
      vertex 46.9511 0.690983 10
      vertex 46.809 0.412215 10
      vertex 46.9511 0.690983 0
    endloop
  endfacet
  facet normal 0.987689 -0.156433 0
    outer loop
      vertex 46.9511 0.690983 10
      vertex 46.9511 0.690983 0
      vertex 47 1 0
    endloop
  endfacet
  facet normal 0.987689 -0.156433 0
    outer loop
      vertex 47 1 10
      vertex 46.9511 0.690983 10
      vertex 47 1 0
    endloop
  endfacet
  facet normal 1 0 -0
    outer loop
      vertex 47 1 10
      vertex 47 1 0
      vertex 47 8.5 0
    endloop
  endfacet
  facet normal 1 -0 0
    outer loop
      vertex 47 18.5 4
      vertex 47 1 10
      vertex 47 8.5 4
    endloop
  endfacet
  facet normal 1 -0 0
    outer loop
      vertex 47 8.5 4
      vertex 47 1 10
      vertex 47 8.5 0
    endloop
  endfacet
  facet normal 1 0 0
    outer loop
      vertex 47 26 10
      vertex 47 1 10
      vertex 47 18.5 4
    endloop
  endfacet
  facet normal 1 -0 0
    outer loop
      vertex 47 26 0
      vertex 47 18.5 4
      vertex 47 18.5 0
    endloop
  endfacet
  facet normal 1 0 0
    outer loop
      vertex 47 26 10
      vertex 47 18.5 4
      vertex 47 26 0
    endloop
  endfacet
  facet normal 0 -1 0
    outer loop
      vertex 47 8.5 4
      vertex 47 8.5 0
      vertex 67 8.5 0
    endloop
  endfacet
  facet normal 0 -1 0
    outer loop
      vertex 67 8.5 4
      vertex 47 8.5 4
      vertex 67 8.5 0
    endloop
  endfacet
  facet normal 1 0 -0
    outer loop
      vertex 67 8.5 4
      vertex 67 8.5 0
      vertex 67 18.5 0
    endloop
  endfacet
  facet normal 1 0 0
    outer loop
      vertex 67 18.5 4
      vertex 67 8.5 4
      vertex 67 18.5 0
    endloop
  endfacet
  facet normal 0 1 0
    outer loop
      vertex 47 18.5 0
      vertex 47 18.5 4
      vertex 67 18.5 0
    endloop
  endfacet
  facet normal 0 1 0
    outer loop
      vertex 67 18.5 0
      vertex 47 18.5 4
      vertex 67 18.5 4
    endloop
  endfacet
  facet normal 0.987689 0.156433 0
    outer loop
      vertex 47 26 0
      vertex 46.9511 26.309 0
      vertex 46.9511 26.309 10
    endloop
  endfacet
  facet normal 0.987689 0.156433 -0
    outer loop
      vertex 47 26 10
      vertex 47 26 0
      vertex 46.9511 26.309 10
    endloop
  endfacet
  facet normal 0.891006 0.453992 0
    outer loop
      vertex 46.9511 26.309 0
      vertex 46.809 26.5878 0
      vertex 46.809 26.5878 10
    endloop
  endfacet
  facet normal 0.891006 0.453992 -0
    outer loop
      vertex 46.9511 26.309 10
      vertex 46.9511 26.309 0
      vertex 46.809 26.5878 10
    endloop
  endfacet
  facet normal 0.707107 0.707107 0
    outer loop
      vertex 46.5878 26.809 0
      vertex 46.5878 26.809 10
      vertex 46.809 26.5878 0
    endloop
  endfacet
  facet normal 0.707107 0.707107 0
    outer loop
      vertex 46.809 26.5878 0
      vertex 46.5878 26.809 10
      vertex 46.809 26.5878 10
    endloop
  endfacet
  facet normal 0.453992 0.891006 0
    outer loop
      vertex 46.309 26.9511 0
      vertex 46.309 26.9511 10
      vertex 46.5878 26.809 0
    endloop
  endfacet
  facet normal 0.453992 0.891006 0
    outer loop
      vertex 46.5878 26.809 0
      vertex 46.309 26.9511 10
      vertex 46.5878 26.809 10
    endloop
  endfacet
  facet normal 0.156433 0.987689 0
    outer loop
      vertex 46 27 0
      vertex 46 27 10
      vertex 46.309 26.9511 0
    endloop
  endfacet
  facet normal 0.156433 0.987689 0
    outer loop
      vertex 46.309 26.9511 0
      vertex 46 27 10
      vertex 46.309 26.9511 10
    endloop
  endfacet
  facet normal 0 1 0
    outer loop
      vertex 1 27 0
      vertex 1 27 10
      vertex 46 27 0
    endloop
  endfacet
  facet normal 0 1 0
    outer loop
      vertex 46 27 0
      vertex 1 27 10
      vertex 46 27 10
    endloop
  endfacet
  facet normal -0.156433 0.987689 0
    outer loop
      vertex 0.690983 26.9511 0
      vertex 0.690983 26.9511 10
      vertex 1 27 0
    endloop
  endfacet
  facet normal -0.156433 0.987689 0
    outer loop
      vertex 1 27 0
      vertex 0.690983 26.9511 10
      vertex 1 27 10
    endloop
  endfacet
  facet normal -0.453992 0.891006 0
    outer loop
      vertex 0.412215 26.809 0
      vertex 0.412215 26.809 10
      vertex 0.690983 26.9511 0
    endloop
  endfacet
  facet normal -0.453992 0.891006 0
    outer loop
      vertex 0.690983 26.9511 0
      vertex 0.412215 26.809 10
      vertex 0.690983 26.9511 10
    endloop
  endfacet
  facet normal -0.707107 0.707107 0
    outer loop
      vertex 0.190983 26.5878 0
      vertex 0.190983 26.5878 10
      vertex 0.412215 26.809 0
    endloop
  endfacet
  facet normal -0.707107 0.707107 0
    outer loop
      vertex 0.412215 26.809 0
      vertex 0.190983 26.5878 10
      vertex 0.412215 26.809 10
    endloop
  endfacet
  facet normal -0.891006 0.453992 0
    outer loop
      vertex 0.048943 26.309 0
      vertex 0.048943 26.309 10
      vertex 0.190983 26.5878 0
    endloop
  endfacet
  facet normal -0.891006 0.453992 0
    outer loop
      vertex 0.190983 26.5878 0
      vertex 0.048943 26.309 10
      vertex 0.190983 26.5878 10
    endloop
  endfacet
  facet normal -0.987689 0.156433 0
    outer loop
      vertex 0 26 0
      vertex 0 26 10
      vertex 0.048943 26.309 0
    endloop
  endfacet
  facet normal -0.987689 0.156433 0
    outer loop
      vertex 0.048943 26.309 0
      vertex 0 26 10
      vertex 0.048943 26.309 10
    endloop
  endfacet
  facet normal 0 1 0
    outer loop
      vertex -20 18.5 0
      vertex -20 18.5 4
      vertex 0 18.5 0
    endloop
  endfacet
  facet normal 0 1 0
    outer loop
      vertex 0 18.5 0
      vertex -20 18.5 4
      vertex 0 18.5 4
    endloop
  endfacet
  facet normal 0.866025 -0.5 0
    outer loop
      vertex -16.3238 15.1 0
      vertex -16.3238 15.1 4
      vertex -17.2475 13.5 4
    endloop
  endfacet
  facet normal 0.866025 -0.5 0
    outer loop
      vertex -17.2475 13.5 0
      vertex -16.3238 15.1 0
      vertex -17.2475 13.5 4
    endloop
  endfacet
  facet normal 0.866025 0.5 0
    outer loop
      vertex -17.2475 13.5 4
      vertex -16.3238 11.9 4
      vertex -16.3238 11.9 0
    endloop
  endfacet
  facet normal 0.866025 0.5 0
    outer loop
      vertex -17.2475 13.5 0
      vertex -17.2475 13.5 4
      vertex -16.3238 11.9 0
    endloop
  endfacet
  facet normal 0 -1 0
    outer loop
      vertex -5.52376 15.1 0
      vertex -5.52376 15.1 4
      vertex -16.3238 15.1 4
    endloop
  endfacet
  facet normal -0 -1 -0
    outer loop
      vertex -16.3238 15.1 0
      vertex -5.52376 15.1 0
      vertex -16.3238 15.1 4
    endloop
  endfacet
  facet normal 0 -1 0
    outer loop
      vertex -3.67624 15.1 0
      vertex -3.67624 15.1 4
      vertex -5.52376 15.1 4
    endloop
  endfacet
  facet normal -0 -1 -0
    outer loop
      vertex -5.52376 15.1 0
      vertex -3.67624 15.1 0
      vertex -5.52376 15.1 4
    endloop
  endfacet
  facet normal -0.866025 -0.5 0
    outer loop
      vertex -2.75248 13.5 4
      vertex -3.67624 15.1 4
      vertex -2.75248 13.5 0
    endloop
  endfacet
  facet normal -0.866025 -0.5 0
    outer loop
      vertex -2.75248 13.5 0
      vertex -3.67624 15.1 4
      vertex -3.67624 15.1 0
    endloop
  endfacet
  facet normal -0.866025 0.5 0
    outer loop
      vertex -2.75248 13.5 4
      vertex -2.75248 13.5 0
      vertex -3.67624 11.9 4
    endloop
  endfacet
  facet normal -0.866025 0.5 0
    outer loop
      vertex -3.67624 11.9 4
      vertex -2.75248 13.5 0
      vertex -3.67624 11.9 0
    endloop
  endfacet
  facet normal 0 1 0
    outer loop
      vertex -3.67624 11.9 4
      vertex -3.67624 11.9 0
      vertex -14.4762 11.9 4
    endloop
  endfacet
  facet normal 0 1 -0
    outer loop
      vertex -14.4762 11.9 4
      vertex -3.67624 11.9 0
      vertex -14.4762 11.9 0
    endloop
  endfacet
  facet normal 0 1 0
    outer loop
      vertex -14.4762 11.9 4
      vertex -14.4762 11.9 0
      vertex -16.3238 11.9 4
    endloop
  endfacet
  facet normal 0 1 -0
    outer loop
      vertex -16.3238 11.9 4
      vertex -14.4762 11.9 0
      vertex -16.3238 11.9 0
    endloop
  endfacet
  facet normal 0.866025 -0.5 0
    outer loop
      vertex 50.6762 15.1 0
      vertex 50.6762 15.1 4
      vertex 49.7525 13.5 4
    endloop
  endfacet
  facet normal 0.866025 -0.5 0
    outer loop
      vertex 49.7525 13.5 0
      vertex 50.6762 15.1 0
      vertex 49.7525 13.5 4
    endloop
  endfacet
  facet normal 0.866025 0.5 0
    outer loop
      vertex 49.7525 13.5 4
      vertex 50.6762 11.9 4
      vertex 50.6762 11.9 0
    endloop
  endfacet
  facet normal 0.866025 0.5 0
    outer loop
      vertex 49.7525 13.5 0
      vertex 49.7525 13.5 4
      vertex 50.6762 11.9 0
    endloop
  endfacet
  facet normal 0 -1 0
    outer loop
      vertex 61.4762 15.1 0
      vertex 61.4762 15.1 4
      vertex 50.6762 15.1 4
    endloop
  endfacet
  facet normal -0 -1 -0
    outer loop
      vertex 50.6762 15.1 0
      vertex 61.4762 15.1 0
      vertex 50.6762 15.1 4
    endloop
  endfacet
  facet normal 0 -1 0
    outer loop
      vertex 63.3238 15.1 0
      vertex 63.3238 15.1 4
      vertex 61.4762 15.1 4
    endloop
  endfacet
  facet normal -0 -1 -0
    outer loop
      vertex 61.4762 15.1 0
      vertex 63.3238 15.1 0
      vertex 61.4762 15.1 4
    endloop
  endfacet
  facet normal -0.866025 -0.5 0
    outer loop
      vertex 64.2475 13.5 4
      vertex 63.3238 15.1 4
      vertex 64.2475 13.5 0
    endloop
  endfacet
  facet normal -0.866025 -0.5 0
    outer loop
      vertex 64.2475 13.5 0
      vertex 63.3238 15.1 4
      vertex 63.3238 15.1 0
    endloop
  endfacet
  facet normal -0.866025 0.5 0
    outer loop
      vertex 64.2475 13.5 4
      vertex 64.2475 13.5 0
      vertex 63.3238 11.9 4
    endloop
  endfacet
  facet normal -0.866025 0.5 0
    outer loop
      vertex 63.3238 11.9 4
      vertex 64.2475 13.5 0
      vertex 63.3238 11.9 0
    endloop
  endfacet
  facet normal 0 1 0
    outer loop
      vertex 63.3238 11.9 4
      vertex 63.3238 11.9 0
      vertex 52.5238 11.9 4
    endloop
  endfacet
  facet normal 0 1 -0
    outer loop
      vertex 52.5238 11.9 4
      vertex 63.3238 11.9 0
      vertex 52.5238 11.9 0
    endloop
  endfacet
  facet normal 0 1 0
    outer loop
      vertex 52.5238 11.9 4
      vertex 52.5238 11.9 0
      vertex 50.6762 11.9 4
    endloop
  endfacet
  facet normal 0 1 -0
    outer loop
      vertex 50.6762 11.9 4
      vertex 52.5238 11.9 0
      vertex 50.6762 11.9 0
    endloop
  endfacet
  facet normal 0 -0 1
    outer loop
      vertex 0 26 10
      vertex 0 1 10
      vertex 0.048943 0.690983 10
    endloop
  endfacet
  facet normal 0 0 1
    outer loop
      vertex 0.412215 0.190983 10
      vertex 0 26 10
      vertex 0.190983 0.412215 10
    endloop
  endfacet
  facet normal 0 0 1
    outer loop
      vertex 0.190983 0.412215 10
      vertex 0 26 10
      vertex 0.048943 0.690983 10
    endloop
  endfacet
  facet normal 0 0 1
    outer loop
      vertex 0.690983 0.048943 10
      vertex 0 26 10
      vertex 0.412215 0.190983 10
    endloop
  endfacet
  facet normal 0 0 1
    outer loop
      vertex 1 0 10
      vertex 0 26 10
      vertex 0.690983 0.048943 10
    endloop
  endfacet
  facet normal -0 0 1
    outer loop
      vertex 3 3 10
      vertex 0 26 10
      vertex 1 0 10
    endloop
  endfacet
  facet normal 0 -0 1
    outer loop
      vertex 46.9511 26.309 10
      vertex 0 26 10
      vertex 47 26 10
    endloop
  endfacet
  facet normal 0 -0 1
    outer loop
      vertex 46.809 26.5878 10
      vertex 0 26 10
      vertex 46.9511 26.309 10
    endloop
  endfacet
  facet normal 0 -0 1
    outer loop
      vertex 46.5878 26.809 10
      vertex 0 26 10
      vertex 46.809 26.5878 10
    endloop
  endfacet
  facet normal 0 -0 1
    outer loop
      vertex 46.309 26.9511 10
      vertex 0 26 10
      vertex 46.5878 26.809 10
    endloop
  endfacet
  facet normal 0 -0 1
    outer loop
      vertex 46 27 10
      vertex 0 26 10
      vertex 46.309 26.9511 10
    endloop
  endfacet
  facet normal 0 -0 1
    outer loop
      vertex 1 27 10
      vertex 0 26 10
      vertex 46 27 10
    endloop
  endfacet
  facet normal 0 -0 1
    outer loop
      vertex 0.690983 26.9511 10
      vertex 0 26 10
      vertex 1 27 10
    endloop
  endfacet
  facet normal 0 -0 1
    outer loop
      vertex 0.412215 26.809 10
      vertex 0 26 10
      vertex 0.690983 26.9511 10
    endloop
  endfacet
  facet normal 0 -0 1
    outer loop
      vertex 0.190983 26.5878 10
      vertex 0 26 10
      vertex 0.412215 26.809 10
    endloop
  endfacet
  facet normal 0 -0 1
    outer loop
      vertex 0.048943 26.309 10
      vertex 0 26 10
      vertex 0.190983 26.5878 10
    endloop
  endfacet
  facet normal -0 0 1
    outer loop
      vertex 46 0 10
      vertex 3 3 10
      vertex 1 0 10
    endloop
  endfacet
  facet normal -0 0 1
    outer loop
      vertex 3 24 10
      vertex 0 26 10
      vertex 3 3 10
    endloop
  endfacet
  facet normal 0 0 1
    outer loop
      vertex 3 24 10
      vertex 44 24 10
      vertex 0 26 10
    endloop
  endfacet
  facet normal 0 0 1
    outer loop
      vertex 47 26 10
      vertex 44 24 10
      vertex 47 1 10
    endloop
  endfacet
  facet normal 0 0 1
    outer loop
      vertex 47 26 10
      vertex 0 26 10
      vertex 44 24 10
    endloop
  endfacet
  facet normal 0 -0 1
    outer loop
      vertex 44 24 10
      vertex 44 3 10
      vertex 47 1 10
    endloop
  endfacet
  facet normal 0 0 1
    outer loop
      vertex 44 3 10
      vertex 46.9511 0.690983 10
      vertex 47 1 10
    endloop
  endfacet
  facet normal 0 0 1
    outer loop
      vertex 44 3 10
      vertex 46.809 0.412215 10
      vertex 46.9511 0.690983 10
    endloop
  endfacet
  facet normal 0 0 1
    outer loop
      vertex 44 3 10
      vertex 46.5878 0.190983 10
      vertex 46.809 0.412215 10
    endloop
  endfacet
  facet normal 0 0 1
    outer loop
      vertex 44 3 10
      vertex 46.309 0.048943 10
      vertex 46.5878 0.190983 10
    endloop
  endfacet
  facet normal 0 0 1
    outer loop
      vertex 44 3 10
      vertex 46 0 10
      vertex 46.309 0.048943 10
    endloop
  endfacet
  facet normal 0 -0 1
    outer loop
      vertex 44 3 10
      vertex 3 3 10
      vertex 46 0 10
    endloop
  endfacet
  facet normal 0 -0 1
    outer loop
      vertex 50.6762 11.9 4
      vertex 47 8.5 4
      vertex 67 8.5 4
    endloop
  endfacet
  facet normal 0 -0 1
    outer loop
      vertex 52.5238 11.9 4
      vertex 50.6762 11.9 4
      vertex 67 8.5 4
    endloop
  endfacet
  facet normal 0 -0 1
    outer loop
      vertex 49.7525 13.5 4
      vertex 47 8.5 4
      vertex 50.6762 11.9 4
    endloop
  endfacet
  facet normal 0 -0 1
    outer loop
      vertex 47 18.5 4
      vertex 47 8.5 4
      vertex 49.7525 13.5 4
    endloop
  endfacet
  facet normal 0 -0 1
    outer loop
      vertex 64.2475 13.5 4
      vertex 63.3238 11.9 4
      vertex 67 8.5 4
    endloop
  endfacet
  facet normal 0 -0 1
    outer loop
      vertex 63.3238 11.9 4
      vertex 52.5238 11.9 4
      vertex 67 8.5 4
    endloop
  endfacet
  facet normal 0 0 1
    outer loop
      vertex 67 18.5 4
      vertex 47 18.5 4
      vertex 61.4762 15.1 4
    endloop
  endfacet
  facet normal 0 0 1
    outer loop
      vertex 67 18.5 4
      vertex 61.4762 15.1 4
      vertex 63.3238 15.1 4
    endloop
  endfacet
  facet normal 0 0 1
    outer loop
      vertex 67 18.5 4
      vertex 64.2475 13.5 4
      vertex 67 8.5 4
    endloop
  endfacet
  facet normal 0 0 1
    outer loop
      vertex 67 18.5 4
      vertex 63.3238 15.1 4
      vertex 64.2475 13.5 4
    endloop
  endfacet
  facet normal 0 0 1
    outer loop
      vertex 49.7525 13.5 4
      vertex 50.6762 15.1 4
      vertex 47 18.5 4
    endloop
  endfacet
  facet normal 0 0 1
    outer loop
      vertex 50.6762 15.1 4
      vertex 61.4762 15.1 4
      vertex 47 18.5 4
    endloop
  endfacet
  facet normal 1 0 0
    outer loop
      vertex 3 24 6.1
      vertex 3 24 10
      vertex 3 3 10
    endloop
  endfacet
  facet normal 1 0 0
    outer loop
      vertex 3 3 6.1
      vertex 3 24 6.1
      vertex 3 3 10
    endloop
  endfacet
  facet normal 0 1 0
    outer loop
      vertex 44 3 10
      vertex 44 3 6.1
      vertex 3 3 10
    endloop
  endfacet
  facet normal 0 1 -0
    outer loop
      vertex 3 3 10
      vertex 44 3 6.1
      vertex 3 3 6.1
    endloop
  endfacet
  facet normal -1 0 0
    outer loop
      vertex 44 24 10
      vertex 44 24 6.1
      vertex 44 3 10
    endloop
  endfacet
  facet normal -1 0 0
    outer loop
      vertex 44 3 10
      vertex 44 24 6.1
      vertex 44 3 6.1
    endloop
  endfacet
  facet normal 0 -1 0
    outer loop
      vertex 44 24 6.1
      vertex 44 24 10
      vertex 3 24 10
    endloop
  endfacet
  facet normal -0 -1 -0
    outer loop
      vertex 3 24 6.1
      vertex 44 24 6.1
      vertex 3 24 10
    endloop
  endfacet
  facet normal 0 0 1
    outer loop
      vertex 44 3 6.1
      vertex 44 24 6.1
      vertex 3 24 6.1
    endloop
  endfacet
  facet normal 0 0 1
    outer loop
      vertex 3 3 6.1
      vertex 44 3 6.1
      vertex 3 24 6.1
    endloop
  endfacet
endsolid OpenSCAD_Model
