solid OpenSCAD_Model
  facet normal -0.987689 -0.156433 -0
    outer loop
      vertex 0 1 0
      vertex 0.048943 0.690983 0
      vertex 0 1 6
    endloop
  endfacet
  facet normal -0.987689 -0.156433 0
    outer loop
      vertex 0 1 6
      vertex 0.048943 0.690983 0
      vertex 0.048943 0.690983 6
    endloop
  endfacet
  facet normal -0 -0 -1
    outer loop
      vertex 0 1 0
      vertex 0 17 0
      vertex 0.048943 0.690983 0
    endloop
  endfacet
  facet normal 0 0 -1
    outer loop
      vertex 0.048943 0.690983 0
      vertex 0 17 0
      vertex 0.048943 17.309 0
    endloop
  endfacet
  facet normal 0 -0 -1
    outer loop
      vertex 0.048943 0.690983 0
      vertex 0.048943 17.309 0
      vertex 0.190983 17.5878 0
    endloop
  endfacet
  facet normal 0 0 -1
    outer loop
      vertex 0.048943 0.690983 0
      vertex 0.190983 17.5878 0
      vertex 0.412215 17.809 0
    endloop
  endfacet
  facet normal 0 0 -1
    outer loop
      vertex 0.048943 0.690983 0
      vertex 0.412215 17.809 0
      vertex 0.690983 17.9511 0
    endloop
  endfacet
  facet normal 0 0 -1
    outer loop
      vertex 0.048943 0.690983 0
      vertex 0.690983 17.9511 0
      vertex 1 18 0
    endloop
  endfacet
  facet normal 0 -0 -1
    outer loop
      vertex 6 12 0
      vertex 1 18 0
      vertex 11 18 0
    endloop
  endfacet
  facet normal -0 0 -1
    outer loop
      vertex 11 24.9 0
      vertex 11.0489 25.209 0
      vertex 11 18 0
    endloop
  endfacet
  facet normal 0 0 -1
    outer loop
      vertex 11 18 0
      vertex 11.0489 25.209 0
      vertex 11.191 25.4878 0
    endloop
  endfacet
  facet normal 0 0 -1
    outer loop
      vertex 11 18 0
      vertex 11.191 25.4878 0
      vertex 11.4122 25.709 0
    endloop
  endfacet
  facet normal 0 0 -1
    outer loop
      vertex 11 18 0
      vertex 11.4122 25.709 0
      vertex 11.691 25.8511 0
    endloop
  endfacet
  facet normal 0 0 -1
    outer loop
      vertex 11 18 0
      vertex 11.691 25.8511 0
      vertex 12 25.9 0
    endloop
  endfacet
  facet normal 0 -0 -1
    outer loop
      vertex 14.6762 23.5 0
      vertex 12 25.9 0
      vertex 30 25.9 0
    endloop
  endfacet
  facet normal 0 0 -1
    outer loop
      vertex 27.3238 23.5 0
      vertex 30 25.9 0
      vertex 30.309 25.8511 0
    endloop
  endfacet
  facet normal -0 0 -1
    outer loop
      vertex 27.3238 20.3 0
      vertex 31 24.9 0
      vertex 31 18 0
    endloop
  endfacet
  facet normal -0 0 -1
    outer loop
      vertex 36 6 0
      vertex 42 17 0
      vertex 42 1 0
    endloop
  endfacet
  facet normal -0 0 -1
    outer loop
      vertex 0.048943 0.690983 0
      vertex 42 1 0
      vertex 41.9511 0.690983 0
    endloop
  endfacet
  facet normal 0 0 -1
    outer loop
      vertex 0.048943 0.690983 0
      vertex 41.9511 0.690983 0
      vertex 41.809 0.412215 0
    endloop
  endfacet
  facet normal 0 0 -1
    outer loop
      vertex 0.048943 0.690983 0
      vertex 41.809 0.412215 0
      vertex 41.5878 0.190983 0
    endloop
  endfacet
  facet normal 0 0 -1
    outer loop
      vertex 0.048943 0.690983 0
      vertex 41.5878 0.190983 0
      vertex 41.309 0.048943 0
    endloop
  endfacet
  facet normal 0 0 -1
    outer loop
      vertex 0.048943 0.690983 0
      vertex 41.309 0.048943 0
      vertex 41 0 0
    endloop
  endfacet
  facet normal 0 0 -1
    outer loop
      vertex 0.048943 0.690983 0
      vertex 41 0 0
      vertex 31 0 0
    endloop
  endfacet
  facet normal -0 0 -1
    outer loop
      vertex 27.3238 -5.5 0
      vertex 31 0 0
      vertex 31 -6.9 0
    endloop
  endfacet
  facet normal 0 0 -1
    outer loop
      vertex 27.3238 23.5 0
      vertex 30.309 25.8511 0
      vertex 30.5878 25.709 0
    endloop
  endfacet
  facet normal 0 0 -1
    outer loop
      vertex 27.3238 23.5 0
      vertex 30.5878 25.709 0
      vertex 30.809 25.4878 0
    endloop
  endfacet
  facet normal 0 0 -1
    outer loop
      vertex 27.3238 23.5 0
      vertex 30.809 25.4878 0
      vertex 30.9511 25.209 0
    endloop
  endfacet
  facet normal 0 0 -1
    outer loop
      vertex 11.0489 -7.20902 0
      vertex 30 -7.9 0
      vertex 12 -7.9 0
    endloop
  endfacet
  facet normal 0 0 -1
    outer loop
      vertex 11.191 -7.48778 0
      vertex 11.691 -7.85106 0
      vertex 11.4122 -7.70902 0
    endloop
  endfacet
  facet normal 0 0 -1
    outer loop
      vertex 27.3238 -5.5 0
      vertex 30 -7.9 0
      vertex 16.5238 -5.5 0
    endloop
  endfacet
  facet normal 0 0 -1
    outer loop
      vertex 11 -6.9 0
      vertex 30 -7.9 0
      vertex 11.0489 -7.20902 0
    endloop
  endfacet
  facet normal 0 0 -1
    outer loop
      vertex 14.6762 -5.5 0
      vertex 30 -7.9 0
      vertex 11 -6.9 0
    endloop
  endfacet
  facet normal 0 0 -1
    outer loop
      vertex 0.048943 0.690983 0
      vertex 31 0 0
      vertex 11 0 0
    endloop
  endfacet
  facet normal 0 0 -1
    outer loop
      vertex 0.048943 0.690983 0
      vertex 0.690983 0.048943 0
      vertex 0.412215 0.190983 0
    endloop
  endfacet
  facet normal 0 0 -1
    outer loop
      vertex 0.048943 0.690983 0
      vertex 0.412215 0.190983 0
      vertex 0.190983 0.412215 0
    endloop
  endfacet
  facet normal 0 0 -1
    outer loop
      vertex 0.048943 0.690983 0
      vertex 1 18 0
      vertex 6 12 0
    endloop
  endfacet
  facet normal 0 0 -1
    outer loop
      vertex 36 6 0
      vertex 0.048943 0.690983 0
      vertex 6 6 0
    endloop
  endfacet
  facet normal -0 0 -1
    outer loop
      vertex 25.4762 23.5 0
      vertex 30 25.9 0
      vertex 27.3238 23.5 0
    endloop
  endfacet
  facet normal -0 0 -1
    outer loop
      vertex 36 12 0
      vertex 42 17 0
      vertex 36 6 0
    endloop
  endfacet
  facet normal 0 0 -1
    outer loop
      vertex 0.048943 0.690983 0
      vertex 36 6 0
      vertex 42 1 0
    endloop
  endfacet
  facet normal 0 0 -1
    outer loop
      vertex 27.3238 20.3 0
      vertex 6 12 0
      vertex 11 18 0
    endloop
  endfacet
  facet normal 0 0 -1
    outer loop
      vertex 11 18 0
      vertex 12 25.9 0
      vertex 13.7525 21.9 0
    endloop
  endfacet
  facet normal 0 0 -1
    outer loop
      vertex 27.3238 -5.5 0
      vertex 30.9511 -7.20902 0
      vertex 30.809 -7.48778 0
    endloop
  endfacet
  facet normal 0 0 -1
    outer loop
      vertex 11 18 0
      vertex 13.7525 21.9 0
      vertex 14.6762 20.3 0
    endloop
  endfacet
  facet normal 0 0 -1
    outer loop
      vertex 27.3238 -5.5 0
      vertex 30.809 -7.48778 0
      vertex 30.5878 -7.70902 0
    endloop
  endfacet
  facet normal 0 0 -1
    outer loop
      vertex 11 18 0
      vertex 14.6762 20.3 0
      vertex 16.5238 20.3 0
    endloop
  endfacet
  facet normal -0 0 -1
    outer loop
      vertex 28.2475 21.9 0
      vertex 31 24.9 0
      vertex 27.3238 20.3 0
    endloop
  endfacet
  facet normal 0 0 -1
    outer loop
      vertex 27.3238 23.5 0
      vertex 30.9511 25.209 0
      vertex 31 24.9 0
    endloop
  endfacet
  facet normal -0 0 -1
    outer loop
      vertex 27.3238 23.5 0
      vertex 31 24.9 0
      vertex 28.2475 21.9 0
    endloop
  endfacet
  facet normal 0 0 -1
    outer loop
      vertex 27.3238 -5.5 0
      vertex 30.5878 -7.70902 0
      vertex 30.309 -7.85106 0
    endloop
  endfacet
  facet normal 0 -0 -1
    outer loop
      vertex 13.7525 21.9 0
      vertex 12 25.9 0
      vertex 14.6762 23.5 0
    endloop
  endfacet
  facet normal 0 0 -1
    outer loop
      vertex 27.3238 -5.5 0
      vertex 31 -6.9 0
      vertex 30.9511 -7.20902 0
    endloop
  endfacet
  facet normal 0 0 -1
    outer loop
      vertex 16.5238 -5.5 0
      vertex 30 -7.9 0
      vertex 14.6762 -5.5 0
    endloop
  endfacet
  facet normal 0 0 -1
    outer loop
      vertex 13.7525 -3.9 0
      vertex 14.6762 -5.5 0
      vertex 11 -6.9 0
    endloop
  endfacet
  facet normal -0 0 -1
    outer loop
      vertex 28.2475 -3.9 0
      vertex 31 0 0
      vertex 27.3238 -5.5 0
    endloop
  endfacet
  facet normal -0 -0 -1
    outer loop
      vertex 14.6762 -2.3 0
      vertex 11 0 0
      vertex 25.4762 -2.3 0
    endloop
  endfacet
  facet normal -0 0 -1
    outer loop
      vertex 27.3238 -2.3 0
      vertex 31 0 0
      vertex 28.2475 -3.9 0
    endloop
  endfacet
  facet normal 0 0 -1
    outer loop
      vertex 11 0 0
      vertex 31 0 0
      vertex 27.3238 -2.3 0
    endloop
  endfacet
  facet normal 0 0 -1
    outer loop
      vertex 11 0 0
      vertex 27.3238 -2.3 0
      vertex 25.4762 -2.3 0
    endloop
  endfacet
  facet normal -0 -0 -1
    outer loop
      vertex 1 0 0
      vertex 0.048943 0.690983 0
      vertex 11 0 0
    endloop
  endfacet
  facet normal 0 0 -1
    outer loop
      vertex 11.0489 -7.20902 0
      vertex 12 -7.9 0
      vertex 11.691 -7.85106 0
    endloop
  endfacet
  facet normal 0 0 -1
    outer loop
      vertex 11.0489 -7.20902 0
      vertex 11.691 -7.85106 0
      vertex 11.191 -7.48778 0
    endloop
  endfacet
  facet normal 0 0 -1
    outer loop
      vertex 27.3238 -5.5 0
      vertex 30.309 -7.85106 0
      vertex 30 -7.9 0
    endloop
  endfacet
  facet normal -0 -0 -1
    outer loop
      vertex 0.690983 0.048943 0
      vertex 0.048943 0.690983 0
      vertex 1 0 0
    endloop
  endfacet
  facet normal 0 0 -1
    outer loop
      vertex 11 0 0
      vertex 14.6762 -2.3 0
      vertex 13.7525 -3.9 0
    endloop
  endfacet
  facet normal 0 0 -1
    outer loop
      vertex 11 0 0
      vertex 13.7525 -3.9 0
      vertex 11 -6.9 0
    endloop
  endfacet
  facet normal -0 0 -1
    outer loop
      vertex 14.6762 23.5 0
      vertex 30 25.9 0
      vertex 25.4762 23.5 0
    endloop
  endfacet
  facet normal 0 0 -1
    outer loop
      vertex 6 12 0
      vertex 27.3238 20.3 0
      vertex 31 18 0
    endloop
  endfacet
  facet normal 0 0 -1
    outer loop
      vertex 6 12 0
      vertex 31 18 0
      vertex 41 18 0
    endloop
  endfacet
  facet normal 0 0 -1
    outer loop
      vertex 6 12 0
      vertex 41 18 0
      vertex 41.309 17.9511 0
    endloop
  endfacet
  facet normal 0 0 -1
    outer loop
      vertex 6 12 0
      vertex 41.309 17.9511 0
      vertex 41.5878 17.809 0
    endloop
  endfacet
  facet normal 0 0 -1
    outer loop
      vertex 6 12 0
      vertex 41.5878 17.809 0
      vertex 41.809 17.5878 0
    endloop
  endfacet
  facet normal 0 0 -1
    outer loop
      vertex 6 12 0
      vertex 41.809 17.5878 0
      vertex 41.9511 17.309 0
    endloop
  endfacet
  facet normal 0 0 -1
    outer loop
      vertex 6 12 0
      vertex 41.9511 17.309 0
      vertex 42 17 0
    endloop
  endfacet
  facet normal -0 0 -1
    outer loop
      vertex 6 12 0
      vertex 42 17 0
      vertex 36 12 0
    endloop
  endfacet
  facet normal 0 0 -1
    outer loop
      vertex 27.3238 20.3 0
      vertex 11 18 0
      vertex 16.5238 20.3 0
    endloop
  endfacet
  facet normal 0 0 -1
    outer loop
      vertex 6 6 0
      vertex 0.048943 0.690983 0
      vertex 6 12 0
    endloop
  endfacet
  facet normal -1 -0 -0
    outer loop
      vertex 0 1 0
      vertex 0 1 6
      vertex 0 17 0
    endloop
  endfacet
  facet normal -1 0 0
    outer loop
      vertex 0 17 0
      vertex 0 1 6
      vertex 0 17 6
    endloop
  endfacet
  facet normal 0 -0 1
    outer loop
      vertex 0 17 6
      vertex 0 1 6
      vertex 0.048943 0.690983 6
    endloop
  endfacet
  facet normal 0 0 1
    outer loop
      vertex 0.412215 0.190983 6
      vertex 0 17 6
      vertex 0.190983 0.412215 6
    endloop
  endfacet
  facet normal 0 0 1
    outer loop
      vertex 0.190983 0.412215 6
      vertex 0 17 6
      vertex 0.048943 0.690983 6
    endloop
  endfacet
  facet normal 0 0 1
    outer loop
      vertex 0.690983 0.048943 6
      vertex 0 17 6
      vertex 0.412215 0.190983 6
    endloop
  endfacet
  facet normal 0 0 1
    outer loop
      vertex 1 0 6
      vertex 0 17 6
      vertex 0.690983 0.048943 6
    endloop
  endfacet
  facet normal -0 0 1
    outer loop
      vertex 3 3 6
      vertex 0 17 6
      vertex 1 0 6
    endloop
  endfacet
  facet normal 0 -0 1
    outer loop
      vertex 41.9511 17.309 6
      vertex 0 17 6
      vertex 42 17 6
    endloop
  endfacet
  facet normal 0 -0 1
    outer loop
      vertex 41.809 17.5878 6
      vertex 0 17 6
      vertex 41.9511 17.309 6
    endloop
  endfacet
  facet normal 0 -0 1
    outer loop
      vertex 41.5878 17.809 6
      vertex 0 17 6
      vertex 41.809 17.5878 6
    endloop
  endfacet
  facet normal 0 -0 1
    outer loop
      vertex 41.309 17.9511 6
      vertex 0 17 6
      vertex 41.5878 17.809 6
    endloop
  endfacet
  facet normal 0 -0 1
    outer loop
      vertex 41 18 6
      vertex 0 17 6
      vertex 41.309 17.9511 6
    endloop
  endfacet
  facet normal 0 -0 1
    outer loop
      vertex 1 18 6
      vertex 0 17 6
      vertex 41 18 6
    endloop
  endfacet
  facet normal 0 -0 1
    outer loop
      vertex 0.690983 17.9511 6
      vertex 0 17 6
      vertex 1 18 6
    endloop
  endfacet
  facet normal 0 -0 1
    outer loop
      vertex 0.412215 17.809 6
      vertex 0 17 6
      vertex 0.690983 17.9511 6
    endloop
  endfacet
  facet normal 0 -0 1
    outer loop
      vertex 0.190983 17.5878 6
      vertex 0 17 6
      vertex 0.412215 17.809 6
    endloop
  endfacet
  facet normal 0 -0 1
    outer loop
      vertex 0.048943 17.309 6
      vertex 0 17 6
      vertex 0.190983 17.5878 6
    endloop
  endfacet
  facet normal -0 0 1
    outer loop
      vertex 41 0 6
      vertex 3 3 6
      vertex 1 0 6
    endloop
  endfacet
  facet normal -0 0 1
    outer loop
      vertex 3 15 6
      vertex 0 17 6
      vertex 3 3 6
    endloop
  endfacet
  facet normal 0 0 1
    outer loop
      vertex 3 15 6
      vertex 39 15 6
      vertex 0 17 6
    endloop
  endfacet
  facet normal 0 0 1
    outer loop
      vertex 42 17 6
      vertex 39 15 6
      vertex 42 1 6
    endloop
  endfacet
  facet normal 0 0 1
    outer loop
      vertex 42 17 6
      vertex 0 17 6
      vertex 39 15 6
    endloop
  endfacet
  facet normal 0 -0 1
    outer loop
      vertex 39 15 6
      vertex 39 3 6
      vertex 42 1 6
    endloop
  endfacet
  facet normal 0 0 1
    outer loop
      vertex 39 3 6
      vertex 41.9511 0.690983 6
      vertex 42 1 6
    endloop
  endfacet
  facet normal 0 0 1
    outer loop
      vertex 39 3 6
      vertex 41.809 0.412215 6
      vertex 41.9511 0.690983 6
    endloop
  endfacet
  facet normal 0 0 1
    outer loop
      vertex 39 3 6
      vertex 41.5878 0.190983 6
      vertex 41.809 0.412215 6
    endloop
  endfacet
  facet normal 0 0 1
    outer loop
      vertex 39 3 6
      vertex 41.309 0.048943 6
      vertex 41.5878 0.190983 6
    endloop
  endfacet
  facet normal 0 0 1
    outer loop
      vertex 39 3 6
      vertex 41 0 6
      vertex 41.309 0.048943 6
    endloop
  endfacet
  facet normal 0 -0 1
    outer loop
      vertex 39 3 6
      vertex 3 3 6
      vertex 41 0 6
    endloop
  endfacet
  facet normal -0.891006 -0.453992 -0
    outer loop
      vertex 0.048943 0.690983 0
      vertex 0.190983 0.412215 0
      vertex 0.048943 0.690983 6
    endloop
  endfacet
  facet normal -0.891006 -0.453992 0
    outer loop
      vertex 0.048943 0.690983 6
      vertex 0.190983 0.412215 0
      vertex 0.190983 0.412215 6
    endloop
  endfacet
  facet normal -0.707107 -0.707107 0
    outer loop
      vertex 0.190983 0.412215 6
      vertex 0.190983 0.412215 0
      vertex 0.412215 0.190983 0
    endloop
  endfacet
  facet normal -0.707107 -0.707107 0
    outer loop
      vertex 0.412215 0.190983 6
      vertex 0.190983 0.412215 6
      vertex 0.412215 0.190983 0
    endloop
  endfacet
  facet normal -0.453992 -0.891006 0
    outer loop
      vertex 0.412215 0.190983 6
      vertex 0.412215 0.190983 0
      vertex 0.690983 0.048943 0
    endloop
  endfacet
  facet normal -0.453992 -0.891006 0
    outer loop
      vertex 0.690983 0.048943 6
      vertex 0.412215 0.190983 6
      vertex 0.690983 0.048943 0
    endloop
  endfacet
  facet normal -0.156433 -0.987689 0
    outer loop
      vertex 0.690983 0.048943 6
      vertex 0.690983 0.048943 0
      vertex 1 0 0
    endloop
  endfacet
  facet normal -0.156433 -0.987689 0
    outer loop
      vertex 1 0 6
      vertex 0.690983 0.048943 6
      vertex 1 0 0
    endloop
  endfacet
  facet normal 0 -1 0
    outer loop
      vertex 1 0 6
      vertex 1 0 0
      vertex 11 0 0
    endloop
  endfacet
  facet normal 0 -1 0
    outer loop
      vertex 31 0 4
      vertex 1 0 6
      vertex 11 0 4
    endloop
  endfacet
  facet normal 0 -1 0
    outer loop
      vertex 11 0 4
      vertex 1 0 6
      vertex 11 0 0
    endloop
  endfacet
  facet normal 0 -1 0
    outer loop
      vertex 41 0 6
      vertex 1 0 6
      vertex 31 0 4
    endloop
  endfacet
  facet normal 0 -1 0
    outer loop
      vertex 41 0 0
      vertex 31 0 4
      vertex 31 0 0
    endloop
  endfacet
  facet normal 0 -1 0
    outer loop
      vertex 41 0 6
      vertex 31 0 4
      vertex 41 0 0
    endloop
  endfacet
  facet normal -1 -0 -0
    outer loop
      vertex 11 -6.9 0
      vertex 11 -6.9 4
      vertex 11 0 0
    endloop
  endfacet
  facet normal -1 0 0
    outer loop
      vertex 11 0 0
      vertex 11 -6.9 4
      vertex 11 0 4
    endloop
  endfacet
  facet normal -0.987689 -0.156433 -0
    outer loop
      vertex 11 -6.9 0
      vertex 11.0489 -7.20902 0
      vertex 11 -6.9 4
    endloop
  endfacet
  facet normal -0.987689 -0.156433 0
    outer loop
      vertex 11 -6.9 4
      vertex 11.0489 -7.20902 0
      vertex 11.0489 -7.20902 4
    endloop
  endfacet
  facet normal -0.891006 -0.453992 -0
    outer loop
      vertex 11.0489 -7.20902 0
      vertex 11.191 -7.48778 0
      vertex 11.0489 -7.20902 4
    endloop
  endfacet
  facet normal -0.891006 -0.453992 0
    outer loop
      vertex 11.0489 -7.20902 4
      vertex 11.191 -7.48778 0
      vertex 11.191 -7.48778 4
    endloop
  endfacet
  facet normal -0.707107 -0.707107 0
    outer loop
      vertex 11.191 -7.48778 4
      vertex 11.191 -7.48778 0
      vertex 11.4122 -7.70902 0
    endloop
  endfacet
  facet normal -0.707107 -0.707107 0
    outer loop
      vertex 11.4122 -7.70902 4
      vertex 11.191 -7.48778 4
      vertex 11.4122 -7.70902 0
    endloop
  endfacet
  facet normal -0.453992 -0.891006 0
    outer loop
      vertex 11.4122 -7.70902 4
      vertex 11.4122 -7.70902 0
      vertex 11.691 -7.85106 0
    endloop
  endfacet
  facet normal -0.453992 -0.891006 0
    outer loop
      vertex 11.691 -7.85106 4
      vertex 11.4122 -7.70902 4
      vertex 11.691 -7.85106 0
    endloop
  endfacet
  facet normal -0.156433 -0.987689 0
    outer loop
      vertex 11.691 -7.85106 4
      vertex 11.691 -7.85106 0
      vertex 12 -7.9 0
    endloop
  endfacet
  facet normal -0.156433 -0.987689 0
    outer loop
      vertex 12 -7.9 4
      vertex 11.691 -7.85106 4
      vertex 12 -7.9 0
    endloop
  endfacet
  facet normal 0 -1 0
    outer loop
      vertex 12 -7.9 4
      vertex 12 -7.9 0
      vertex 30 -7.9 0
    endloop
  endfacet
  facet normal 0 -1 0
    outer loop
      vertex 30 -7.9 4
      vertex 12 -7.9 4
      vertex 30 -7.9 0
    endloop
  endfacet
  facet normal 0.156433 -0.987689 0
    outer loop
      vertex 30 -7.9 4
      vertex 30 -7.9 0
      vertex 30.309 -7.85106 0
    endloop
  endfacet
  facet normal 0.156433 -0.987689 0
    outer loop
      vertex 30.309 -7.85106 4
      vertex 30 -7.9 4
      vertex 30.309 -7.85106 0
    endloop
  endfacet
  facet normal 0.453992 -0.891006 0
    outer loop
      vertex 30.309 -7.85106 4
      vertex 30.309 -7.85106 0
      vertex 30.5878 -7.70902 0
    endloop
  endfacet
  facet normal 0.453992 -0.891006 0
    outer loop
      vertex 30.5878 -7.70902 4
      vertex 30.309 -7.85106 4
      vertex 30.5878 -7.70902 0
    endloop
  endfacet
  facet normal 0.707107 -0.707107 0
    outer loop
      vertex 30.5878 -7.70902 4
      vertex 30.5878 -7.70902 0
      vertex 30.809 -7.48778 0
    endloop
  endfacet
  facet normal 0.707107 -0.707107 0
    outer loop
      vertex 30.809 -7.48778 4
      vertex 30.5878 -7.70902 4
      vertex 30.809 -7.48778 0
    endloop
  endfacet
  facet normal 0.891006 -0.453992 0
    outer loop
      vertex 30.809 -7.48778 4
      vertex 30.809 -7.48778 0
      vertex 30.9511 -7.20902 0
    endloop
  endfacet
  facet normal 0.891006 -0.453992 0
    outer loop
      vertex 30.9511 -7.20902 4
      vertex 30.809 -7.48778 4
      vertex 30.9511 -7.20902 0
    endloop
  endfacet
  facet normal 0.987689 -0.156433 0
    outer loop
      vertex 30.9511 -7.20902 4
      vertex 30.9511 -7.20902 0
      vertex 31 -6.9 0
    endloop
  endfacet
  facet normal 0.987689 -0.156433 0
    outer loop
      vertex 31 -6.9 4
      vertex 30.9511 -7.20902 4
      vertex 31 -6.9 0
    endloop
  endfacet
  facet normal 1 0 -0
    outer loop
      vertex 31 -6.9 4
      vertex 31 -6.9 0
      vertex 31 0 0
    endloop
  endfacet
  facet normal 1 0 0
    outer loop
      vertex 31 0 4
      vertex 31 -6.9 4
      vertex 31 0 0
    endloop
  endfacet
  facet normal 0.156433 -0.987689 0
    outer loop
      vertex 41 0 6
      vertex 41 0 0
      vertex 41.309 0.048943 0
    endloop
  endfacet
  facet normal 0.156433 -0.987689 0
    outer loop
      vertex 41.309 0.048943 6
      vertex 41 0 6
      vertex 41.309 0.048943 0
    endloop
  endfacet
  facet normal 0.453992 -0.891006 0
    outer loop
      vertex 41.309 0.048943 6
      vertex 41.309 0.048943 0
      vertex 41.5878 0.190983 0
    endloop
  endfacet
  facet normal 0.453992 -0.891006 0
    outer loop
      vertex 41.5878 0.190983 6
      vertex 41.309 0.048943 6
      vertex 41.5878 0.190983 0
    endloop
  endfacet
  facet normal 0.707107 -0.707107 0
    outer loop
      vertex 41.5878 0.190983 6
      vertex 41.5878 0.190983 0
      vertex 41.809 0.412215 0
    endloop
  endfacet
  facet normal 0.707107 -0.707107 0
    outer loop
      vertex 41.809 0.412215 6
      vertex 41.5878 0.190983 6
      vertex 41.809 0.412215 0
    endloop
  endfacet
  facet normal 0.891006 -0.453992 0
    outer loop
      vertex 41.809 0.412215 6
      vertex 41.809 0.412215 0
      vertex 41.9511 0.690983 0
    endloop
  endfacet
  facet normal 0.891006 -0.453992 0
    outer loop
      vertex 41.9511 0.690983 6
      vertex 41.809 0.412215 6
      vertex 41.9511 0.690983 0
    endloop
  endfacet
  facet normal 0.987689 -0.156433 0
    outer loop
      vertex 41.9511 0.690983 6
      vertex 41.9511 0.690983 0
      vertex 42 1 0
    endloop
  endfacet
  facet normal 0.987689 -0.156433 0
    outer loop
      vertex 42 1 6
      vertex 41.9511 0.690983 6
      vertex 42 1 0
    endloop
  endfacet
  facet normal 1 0 -0
    outer loop
      vertex 42 1 6
      vertex 42 1 0
      vertex 42 17 0
    endloop
  endfacet
  facet normal 1 0 0
    outer loop
      vertex 42 17 6
      vertex 42 1 6
      vertex 42 17 0
    endloop
  endfacet
  facet normal 0.987689 0.156433 0
    outer loop
      vertex 42 17 0
      vertex 41.9511 17.309 0
      vertex 41.9511 17.309 6
    endloop
  endfacet
  facet normal 0.987689 0.156433 -0
    outer loop
      vertex 42 17 6
      vertex 42 17 0
      vertex 41.9511 17.309 6
    endloop
  endfacet
  facet normal 0.891006 0.453992 0
    outer loop
      vertex 41.9511 17.309 0
      vertex 41.809 17.5878 0
      vertex 41.809 17.5878 6
    endloop
  endfacet
  facet normal 0.891006 0.453992 -0
    outer loop
      vertex 41.9511 17.309 6
      vertex 41.9511 17.309 0
      vertex 41.809 17.5878 6
    endloop
  endfacet
  facet normal 0.707107 0.707107 0
    outer loop
      vertex 41.5878 17.809 0
      vertex 41.5878 17.809 6
      vertex 41.809 17.5878 0
    endloop
  endfacet
  facet normal 0.707107 0.707107 0
    outer loop
      vertex 41.809 17.5878 0
      vertex 41.5878 17.809 6
      vertex 41.809 17.5878 6
    endloop
  endfacet
  facet normal 0.453992 0.891006 0
    outer loop
      vertex 41.309 17.9511 0
      vertex 41.309 17.9511 6
      vertex 41.5878 17.809 0
    endloop
  endfacet
  facet normal 0.453992 0.891006 0
    outer loop
      vertex 41.5878 17.809 0
      vertex 41.309 17.9511 6
      vertex 41.5878 17.809 6
    endloop
  endfacet
  facet normal 0.156433 0.987689 0
    outer loop
      vertex 41 18 0
      vertex 41 18 6
      vertex 41.309 17.9511 0
    endloop
  endfacet
  facet normal 0.156433 0.987689 0
    outer loop
      vertex 41.309 17.9511 0
      vertex 41 18 6
      vertex 41.309 17.9511 6
    endloop
  endfacet
  facet normal 0 1 0
    outer loop
      vertex 1 18 0
      vertex 1 18 6
      vertex 11 18 0
    endloop
  endfacet
  facet normal 0 1 0
    outer loop
      vertex 31 18 4
      vertex 1 18 6
      vertex 41 18 6
    endloop
  endfacet
  facet normal 0 1 0
    outer loop
      vertex 31 18 0
      vertex 41 18 6
      vertex 41 18 0
    endloop
  endfacet
  facet normal 0 1 0
    outer loop
      vertex 11 18 4
      vertex 1 18 6
      vertex 31 18 4
    endloop
  endfacet
  facet normal 0 1 0
    outer loop
      vertex 11 18 0
      vertex 1 18 6
      vertex 11 18 4
    endloop
  endfacet
  facet normal 0 1 -0
    outer loop
      vertex 31 18 4
      vertex 41 18 6
      vertex 31 18 0
    endloop
  endfacet
  facet normal 1 0 -0
    outer loop
      vertex 31 18 4
      vertex 31 18 0
      vertex 31 24.9 0
    endloop
  endfacet
  facet normal 1 0 0
    outer loop
      vertex 31 24.9 4
      vertex 31 18 4
      vertex 31 24.9 0
    endloop
  endfacet
  facet normal 0.987689 0.156433 0
    outer loop
      vertex 31 24.9 0
      vertex 30.9511 25.209 0
      vertex 30.9511 25.209 4
    endloop
  endfacet
  facet normal 0.987689 0.156433 -0
    outer loop
      vertex 31 24.9 4
      vertex 31 24.9 0
      vertex 30.9511 25.209 4
    endloop
  endfacet
  facet normal 0.891006 0.453992 0
    outer loop
      vertex 30.9511 25.209 0
      vertex 30.809 25.4878 0
      vertex 30.809 25.4878 4
    endloop
  endfacet
  facet normal 0.891006 0.453992 -0
    outer loop
      vertex 30.9511 25.209 4
      vertex 30.9511 25.209 0
      vertex 30.809 25.4878 4
    endloop
  endfacet
  facet normal 0.707107 0.707107 0
    outer loop
      vertex 30.809 25.4878 0
      vertex 30.5878 25.709 0
      vertex 30.5878 25.709 4
    endloop
  endfacet
  facet normal 0.707107 0.707107 -0
    outer loop
      vertex 30.809 25.4878 4
      vertex 30.809 25.4878 0
      vertex 30.5878 25.709 4
    endloop
  endfacet
  facet normal 0.453992 0.891006 0
    outer loop
      vertex 30.309 25.8511 0
      vertex 30.309 25.8511 4
      vertex 30.5878 25.709 0
    endloop
  endfacet
  facet normal 0.453992 0.891006 0
    outer loop
      vertex 30.5878 25.709 0
      vertex 30.309 25.8511 4
      vertex 30.5878 25.709 4
    endloop
  endfacet
  facet normal 0.156433 0.987689 0
    outer loop
      vertex 30 25.9 0
      vertex 30 25.9 4
      vertex 30.309 25.8511 0
    endloop
  endfacet
  facet normal 0.156433 0.987689 0
    outer loop
      vertex 30.309 25.8511 0
      vertex 30 25.9 4
      vertex 30.309 25.8511 4
    endloop
  endfacet
  facet normal 0 1 0
    outer loop
      vertex 12 25.9 0
      vertex 12 25.9 4
      vertex 30 25.9 0
    endloop
  endfacet
  facet normal 0 1 0
    outer loop
      vertex 30 25.9 0
      vertex 12 25.9 4
      vertex 30 25.9 4
    endloop
  endfacet
  facet normal -0.156433 0.987689 0
    outer loop
      vertex 11.691 25.8511 0
      vertex 11.691 25.8511 4
      vertex 12 25.9 0
    endloop
  endfacet
  facet normal -0.156433 0.987689 0
    outer loop
      vertex 12 25.9 0
      vertex 11.691 25.8511 4
      vertex 12 25.9 4
    endloop
  endfacet
  facet normal -0.453992 0.891006 0
    outer loop
      vertex 11.4122 25.709 0
      vertex 11.4122 25.709 4
      vertex 11.691 25.8511 0
    endloop
  endfacet
  facet normal -0.453992 0.891006 0
    outer loop
      vertex 11.691 25.8511 0
      vertex 11.4122 25.709 4
      vertex 11.691 25.8511 4
    endloop
  endfacet
  facet normal -0.707107 0.707107 0
    outer loop
      vertex 11.191 25.4878 0
      vertex 11.191 25.4878 4
      vertex 11.4122 25.709 0
    endloop
  endfacet
  facet normal -0.707107 0.707107 0
    outer loop
      vertex 11.4122 25.709 0
      vertex 11.191 25.4878 4
      vertex 11.4122 25.709 4
    endloop
  endfacet
  facet normal -0.891006 0.453992 0
    outer loop
      vertex 11.0489 25.209 0
      vertex 11.0489 25.209 4
      vertex 11.191 25.4878 0
    endloop
  endfacet
  facet normal -0.891006 0.453992 0
    outer loop
      vertex 11.191 25.4878 0
      vertex 11.0489 25.209 4
      vertex 11.191 25.4878 4
    endloop
  endfacet
  facet normal -0.987689 0.156433 0
    outer loop
      vertex 11 24.9 0
      vertex 11 24.9 4
      vertex 11.0489 25.209 0
    endloop
  endfacet
  facet normal -0.987689 0.156433 0
    outer loop
      vertex 11.0489 25.209 0
      vertex 11 24.9 4
      vertex 11.0489 25.209 4
    endloop
  endfacet
  facet normal -1 -0 -0
    outer loop
      vertex 11 18 0
      vertex 11 18 4
      vertex 11 24.9 0
    endloop
  endfacet
  facet normal -1 0 0
    outer loop
      vertex 11 24.9 0
      vertex 11 18 4
      vertex 11 24.9 4
    endloop
  endfacet
  facet normal -0.156433 0.987689 0
    outer loop
      vertex 0.690983 17.9511 0
      vertex 0.690983 17.9511 6
      vertex 1 18 0
    endloop
  endfacet
  facet normal -0.156433 0.987689 0
    outer loop
      vertex 1 18 0
      vertex 0.690983 17.9511 6
      vertex 1 18 6
    endloop
  endfacet
  facet normal -0.453992 0.891006 0
    outer loop
      vertex 0.412215 17.809 0
      vertex 0.412215 17.809 6
      vertex 0.690983 17.9511 0
    endloop
  endfacet
  facet normal -0.453992 0.891006 0
    outer loop
      vertex 0.690983 17.9511 0
      vertex 0.412215 17.809 6
      vertex 0.690983 17.9511 6
    endloop
  endfacet
  facet normal -0.707107 0.707107 0
    outer loop
      vertex 0.190983 17.5878 0
      vertex 0.190983 17.5878 6
      vertex 0.412215 17.809 0
    endloop
  endfacet
  facet normal -0.707107 0.707107 0
    outer loop
      vertex 0.412215 17.809 0
      vertex 0.190983 17.5878 6
      vertex 0.412215 17.809 6
    endloop
  endfacet
  facet normal -0.891006 0.453992 0
    outer loop
      vertex 0.048943 17.309 0
      vertex 0.048943 17.309 6
      vertex 0.190983 17.5878 0
    endloop
  endfacet
  facet normal -0.891006 0.453992 0
    outer loop
      vertex 0.190983 17.5878 0
      vertex 0.048943 17.309 6
      vertex 0.190983 17.5878 6
    endloop
  endfacet
  facet normal -0.987689 0.156433 0
    outer loop
      vertex 0 17 0
      vertex 0 17 6
      vertex 0.048943 17.309 0
    endloop
  endfacet
  facet normal -0.987689 0.156433 0
    outer loop
      vertex 0.048943 17.309 0
      vertex 0 17 6
      vertex 0.048943 17.309 6
    endloop
  endfacet
  facet normal 1 0 0
    outer loop
      vertex 6 12 0
      vertex 6 12 1.9
      vertex 6 6 1.9
    endloop
  endfacet
  facet normal 1 0 0
    outer loop
      vertex 6 6 0
      vertex 6 12 0
      vertex 6 6 1.9
    endloop
  endfacet
  facet normal 0 -1 0
    outer loop
      vertex 36 12 0
      vertex 36 12 1.9
      vertex 6 12 1.9
    endloop
  endfacet
  facet normal -0 -1 -0
    outer loop
      vertex 6 12 0
      vertex 36 12 0
      vertex 6 12 1.9
    endloop
  endfacet
  facet normal -1 0 0
    outer loop
      vertex 36 12 1.9
      vertex 36 12 0
      vertex 36 6 1.9
    endloop
  endfacet
  facet normal -1 0 0
    outer loop
      vertex 36 6 1.9
      vertex 36 12 0
      vertex 36 6 0
    endloop
  endfacet
  facet normal 0 1 0
    outer loop
      vertex 36 6 1.9
      vertex 36 6 0
      vertex 6 6 1.9
    endloop
  endfacet
  facet normal 0 1 -0
    outer loop
      vertex 6 6 1.9
      vertex 36 6 0
      vertex 6 6 0
    endloop
  endfacet
  facet normal 0.866025 0.5 0
    outer loop
      vertex 13.7525 21.9 4
      vertex 14.6762 20.3 4
      vertex 14.6762 20.3 0
    endloop
  endfacet
  facet normal 0.866025 0.5 0
    outer loop
      vertex 13.7525 21.9 0
      vertex 13.7525 21.9 4
      vertex 14.6762 20.3 0
    endloop
  endfacet
  facet normal 0.866025 -0.5 0
    outer loop
      vertex 14.6762 23.5 0
      vertex 14.6762 23.5 4
      vertex 13.7525 21.9 4
    endloop
  endfacet
  facet normal 0.866025 -0.5 0
    outer loop
      vertex 13.7525 21.9 0
      vertex 14.6762 23.5 0
      vertex 13.7525 21.9 4
    endloop
  endfacet
  facet normal -3.28955e-16 -1 -0
    outer loop
      vertex 25.4762 23.5 0
      vertex 25.4762 23.5 4
      vertex 14.6762 23.5 4
    endloop
  endfacet
  facet normal -3.28955e-16 -1 -0
    outer loop
      vertex 14.6762 23.5 0
      vertex 25.4762 23.5 0
      vertex 14.6762 23.5 4
    endloop
  endfacet
  facet normal 0 -1 0
    outer loop
      vertex 27.3238 23.5 0
      vertex 27.3238 23.5 4
      vertex 25.4762 23.5 4
    endloop
  endfacet
  facet normal -0 -1 -0
    outer loop
      vertex 25.4762 23.5 0
      vertex 27.3238 23.5 0
      vertex 25.4762 23.5 4
    endloop
  endfacet
  facet normal -0.866025 -0.5 0
    outer loop
      vertex 28.2475 21.9 4
      vertex 27.3238 23.5 4
      vertex 28.2475 21.9 0
    endloop
  endfacet
  facet normal -0.866025 -0.5 0
    outer loop
      vertex 28.2475 21.9 0
      vertex 27.3238 23.5 4
      vertex 27.3238 23.5 0
    endloop
  endfacet
  facet normal -0.866025 0.5 0
    outer loop
      vertex 28.2475 21.9 4
      vertex 28.2475 21.9 0
      vertex 27.3238 20.3 4
    endloop
  endfacet
  facet normal -0.866025 0.5 0
    outer loop
      vertex 27.3238 20.3 4
      vertex 28.2475 21.9 0
      vertex 27.3238 20.3 0
    endloop
  endfacet
  facet normal 0 1 0
    outer loop
      vertex 27.3238 20.3 4
      vertex 27.3238 20.3 0
      vertex 16.5238 20.3 4
    endloop
  endfacet
  facet normal 0 1 -0
    outer loop
      vertex 16.5238 20.3 4
      vertex 27.3238 20.3 0
      vertex 16.5238 20.3 0
    endloop
  endfacet
  facet normal 1.92296e-15 1 -0
    outer loop
      vertex 16.5238 20.3 4
      vertex 16.5238 20.3 0
      vertex 14.6762 20.3 4
    endloop
  endfacet
  facet normal 1.92296e-15 1 -0
    outer loop
      vertex 14.6762 20.3 4
      vertex 16.5238 20.3 0
      vertex 14.6762 20.3 0
    endloop
  endfacet
  facet normal 0.866025 -0.5 0
    outer loop
      vertex 14.6762 -2.3 0
      vertex 14.6762 -2.3 4
      vertex 13.7525 -3.9 4
    endloop
  endfacet
  facet normal 0.866025 -0.5 0
    outer loop
      vertex 13.7525 -3.9 0
      vertex 14.6762 -2.3 0
      vertex 13.7525 -3.9 4
    endloop
  endfacet
  facet normal 0.866025 0.5 0
    outer loop
      vertex 13.7525 -3.9 4
      vertex 14.6762 -5.5 4
      vertex 14.6762 -5.5 0
    endloop
  endfacet
  facet normal 0.866025 0.5 0
    outer loop
      vertex 13.7525 -3.9 0
      vertex 13.7525 -3.9 4
      vertex 14.6762 -5.5 0
    endloop
  endfacet
  facet normal 0 -1 0
    outer loop
      vertex 25.4762 -2.3 0
      vertex 25.4762 -2.3 4
      vertex 14.6762 -2.3 4
    endloop
  endfacet
  facet normal -0 -1 -0
    outer loop
      vertex 14.6762 -2.3 0
      vertex 25.4762 -2.3 0
      vertex 14.6762 -2.3 4
    endloop
  endfacet
  facet normal 0 -1 0
    outer loop
      vertex 27.3238 -2.3 0
      vertex 27.3238 -2.3 4
      vertex 25.4762 -2.3 4
    endloop
  endfacet
  facet normal -0 -1 -0
    outer loop
      vertex 25.4762 -2.3 0
      vertex 27.3238 -2.3 0
      vertex 25.4762 -2.3 4
    endloop
  endfacet
  facet normal -0.866025 -0.5 0
    outer loop
      vertex 28.2475 -3.9 4
      vertex 27.3238 -2.3 4
      vertex 28.2475 -3.9 0
    endloop
  endfacet
  facet normal -0.866025 -0.5 0
    outer loop
      vertex 28.2475 -3.9 0
      vertex 27.3238 -2.3 4
      vertex 27.3238 -2.3 0
    endloop
  endfacet
  facet normal -0.866025 0.5 0
    outer loop
      vertex 28.2475 -3.9 4
      vertex 28.2475 -3.9 0
      vertex 27.3238 -5.5 4
    endloop
  endfacet
  facet normal -0.866025 0.5 0
    outer loop
      vertex 27.3238 -5.5 4
      vertex 28.2475 -3.9 0
      vertex 27.3238 -5.5 0
    endloop
  endfacet
  facet normal 0 1 0
    outer loop
      vertex 27.3238 -5.5 4
      vertex 27.3238 -5.5 0
      vertex 16.5238 -5.5 4
    endloop
  endfacet
  facet normal 0 1 -0
    outer loop
      vertex 16.5238 -5.5 4
      vertex 27.3238 -5.5 0
      vertex 16.5238 -5.5 0
    endloop
  endfacet
  facet normal 0 1 0
    outer loop
      vertex 16.5238 -5.5 4
      vertex 16.5238 -5.5 0
      vertex 14.6762 -5.5 4
    endloop
  endfacet
  facet normal 0 1 -0
    outer loop
      vertex 14.6762 -5.5 4
      vertex 16.5238 -5.5 0
      vertex 14.6762 -5.5 0
    endloop
  endfacet
  facet normal 1 0 0
    outer loop
      vertex 3 15 1.9
      vertex 3 15 6
      vertex 3 3 6
    endloop
  endfacet
  facet normal 1 0 0
    outer loop
      vertex 3 3 1.9
      vertex 3 15 1.9
      vertex 3 3 6
    endloop
  endfacet
  facet normal 0 1 0
    outer loop
      vertex 39 3 6
      vertex 39 3 1.9
      vertex 3 3 6
    endloop
  endfacet
  facet normal 0 1 -0
    outer loop
      vertex 3 3 6
      vertex 39 3 1.9
      vertex 3 3 1.9
    endloop
  endfacet
  facet normal -1 0 0
    outer loop
      vertex 39 15 6
      vertex 39 15 1.9
      vertex 39 3 6
    endloop
  endfacet
  facet normal -1 0 0
    outer loop
      vertex 39 3 6
      vertex 39 15 1.9
      vertex 39 3 1.9
    endloop
  endfacet
  facet normal 0 -1 0
    outer loop
      vertex 39 15 1.9
      vertex 39 15 6
      vertex 3 15 6
    endloop
  endfacet
  facet normal -0 -1 -0
    outer loop
      vertex 3 15 1.9
      vertex 39 15 1.9
      vertex 3 15 6
    endloop
  endfacet
  facet normal 0 -0 1
    outer loop
      vertex 11 0 4
      vertex 11 -6.9 4
      vertex 11.0489 -7.20902 4
    endloop
  endfacet
  facet normal 0 0 1
    outer loop
      vertex 11.4122 -7.70902 4
      vertex 11 0 4
      vertex 11.191 -7.48778 4
    endloop
  endfacet
  facet normal 0 0 1
    outer loop
      vertex 11.191 -7.48778 4
      vertex 11 0 4
      vertex 11.0489 -7.20902 4
    endloop
  endfacet
  facet normal 0 0 1
    outer loop
      vertex 11.691 -7.85106 4
      vertex 11 0 4
      vertex 11.4122 -7.70902 4
    endloop
  endfacet
  facet normal 0 0 1
    outer loop
      vertex 12 -7.9 4
      vertex 11 0 4
      vertex 11.691 -7.85106 4
    endloop
  endfacet
  facet normal -0 0 1
    outer loop
      vertex 14.6762 -5.5 4
      vertex 11 0 4
      vertex 12 -7.9 4
    endloop
  endfacet
  facet normal 0 -0 1
    outer loop
      vertex 27.3238 -5.5 4
      vertex 16.5238 -5.5 4
      vertex 30 -7.9 4
    endloop
  endfacet
  facet normal 0 -0 1
    outer loop
      vertex 28.2475 -3.9 4
      vertex 27.3238 -5.5 4
      vertex 31 -6.9 4
    endloop
  endfacet
  facet normal -0 0 1
    outer loop
      vertex 30 -7.9 4
      vertex 14.6762 -5.5 4
      vertex 12 -7.9 4
    endloop
  endfacet
  facet normal -0 -0 1
    outer loop
      vertex 13.7525 -3.9 4
      vertex 11 0 4
      vertex 14.6762 -5.5 4
    endloop
  endfacet
  facet normal -0 0 1
    outer loop
      vertex 14.6762 -2.3 4
      vertex 11 0 4
      vertex 13.7525 -3.9 4
    endloop
  endfacet
  facet normal 0 0 1
    outer loop
      vertex 31 0 4
      vertex 11 0 4
      vertex 25.4762 -2.3 4
    endloop
  endfacet
  facet normal 0 0 1
    outer loop
      vertex 31 0 4
      vertex 27.3238 -2.3 4
      vertex 31 -6.9 4
    endloop
  endfacet
  facet normal 0 0 1
    outer loop
      vertex 31 0 4
      vertex 25.4762 -2.3 4
      vertex 27.3238 -2.3 4
    endloop
  endfacet
  facet normal 0 0 1
    outer loop
      vertex 27.3238 -2.3 4
      vertex 28.2475 -3.9 4
      vertex 31 -6.9 4
    endloop
  endfacet
  facet normal 0 0 1
    outer loop
      vertex 30 -7.9 4
      vertex 16.5238 -5.5 4
      vertex 14.6762 -5.5 4
    endloop
  endfacet
  facet normal 0 0 1
    outer loop
      vertex 27.3238 -5.5 4
      vertex 30.9511 -7.20902 4
      vertex 31 -6.9 4
    endloop
  endfacet
  facet normal 0 0 1
    outer loop
      vertex 27.3238 -5.5 4
      vertex 30.809 -7.48778 4
      vertex 30.9511 -7.20902 4
    endloop
  endfacet
  facet normal 0 0 1
    outer loop
      vertex 27.3238 -5.5 4
      vertex 30.5878 -7.70902 4
      vertex 30.809 -7.48778 4
    endloop
  endfacet
  facet normal 0 0 1
    outer loop
      vertex 27.3238 -5.5 4
      vertex 30.309 -7.85106 4
      vertex 30.5878 -7.70902 4
    endloop
  endfacet
  facet normal 0 0 1
    outer loop
      vertex 27.3238 -5.5 4
      vertex 30 -7.9 4
      vertex 30.309 -7.85106 4
    endloop
  endfacet
  facet normal 0 0 1
    outer loop
      vertex 14.6762 -2.3 4
      vertex 25.4762 -2.3 4
      vertex 11 0 4
    endloop
  endfacet
  facet normal 0 -0 1
    outer loop
      vertex 14.6762 20.3 4
      vertex 11 18 4
      vertex 31 18 4
    endloop
  endfacet
  facet normal 0 -0 1
    outer loop
      vertex 30.9511 25.209 4
      vertex 11 24.9 4
      vertex 31 24.9 4
    endloop
  endfacet
  facet normal 0 -0 1
    outer loop
      vertex 28.2475 21.9 4
      vertex 27.3238 20.3 4
      vertex 31 18 4
    endloop
  endfacet
  facet normal 0 -0 1
    outer loop
      vertex 30.809 25.4878 4
      vertex 11 24.9 4
      vertex 30.9511 25.209 4
    endloop
  endfacet
  facet normal 0 -0 1
    outer loop
      vertex 30.5878 25.709 4
      vertex 11 24.9 4
      vertex 30.809 25.4878 4
    endloop
  endfacet
  facet normal 0 -0 1
    outer loop
      vertex 30.309 25.8511 4
      vertex 11 24.9 4
      vertex 30.5878 25.709 4
    endloop
  endfacet
  facet normal 0 -0 1
    outer loop
      vertex 30 25.9 4
      vertex 11 24.9 4
      vertex 30.309 25.8511 4
    endloop
  endfacet
  facet normal 0 -0 1
    outer loop
      vertex 12 25.9 4
      vertex 11 24.9 4
      vertex 30 25.9 4
    endloop
  endfacet
  facet normal 0 -0 1
    outer loop
      vertex 11.691 25.8511 4
      vertex 11 24.9 4
      vertex 12 25.9 4
    endloop
  endfacet
  facet normal 0 -0 1
    outer loop
      vertex 11.4122 25.709 4
      vertex 11 24.9 4
      vertex 11.691 25.8511 4
    endloop
  endfacet
  facet normal 0 -0 1
    outer loop
      vertex 11.191 25.4878 4
      vertex 11 24.9 4
      vertex 11.4122 25.709 4
    endloop
  endfacet
  facet normal 0 -0 1
    outer loop
      vertex 11.0489 25.209 4
      vertex 11 24.9 4
      vertex 11.191 25.4878 4
    endloop
  endfacet
  facet normal -0 -0 1
    outer loop
      vertex 16.5238 20.3 4
      vertex 14.6762 20.3 4
      vertex 31 18 4
    endloop
  endfacet
  facet normal 0 -0 1
    outer loop
      vertex 11 24.9 4
      vertex 11 18 4
      vertex 14.6762 20.3 4
    endloop
  endfacet
  facet normal 0 0 1
    outer loop
      vertex 11 24.9 4
      vertex 14.6762 20.3 4
      vertex 13.7525 21.9 4
    endloop
  endfacet
  facet normal 0 -0 1
    outer loop
      vertex 27.3238 20.3 4
      vertex 16.5238 20.3 4
      vertex 31 18 4
    endloop
  endfacet
  facet normal 0 0 1
    outer loop
      vertex 11 24.9 4
      vertex 13.7525 21.9 4
      vertex 14.6762 23.5 4
    endloop
  endfacet
  facet normal 0 0 1
    outer loop
      vertex 31 24.9 4
      vertex 11 24.9 4
      vertex 25.4762 23.5 4
    endloop
  endfacet
  facet normal 0 0 1
    outer loop
      vertex 31 24.9 4
      vertex 27.3238 23.5 4
      vertex 31 18 4
    endloop
  endfacet
  facet normal 0 0 1
    outer loop
      vertex 31 24.9 4
      vertex 25.4762 23.5 4
      vertex 27.3238 23.5 4
    endloop
  endfacet
  facet normal 0 0 1
    outer loop
      vertex 27.3238 23.5 4
      vertex 28.2475 21.9 4
      vertex 31 18 4
    endloop
  endfacet
  facet normal 0 0 1
    outer loop
      vertex 14.6762 23.5 4
      vertex 25.4762 23.5 4
      vertex 11 24.9 4
    endloop
  endfacet
  facet normal 0 0 1
    outer loop
      vertex 36 12 1.9
      vertex 39 15 1.9
      vertex 3 15 1.9
    endloop
  endfacet
  facet normal 0 0 1
    outer loop
      vertex 3 3 1.9
      vertex 6 12 1.9
      vertex 3 15 1.9
    endloop
  endfacet
  facet normal 0 0 1
    outer loop
      vertex 39 3 1.9
      vertex 39 15 1.9
      vertex 36 12 1.9
    endloop
  endfacet
  facet normal 0 -0 1
    outer loop
      vertex 36 6 1.9
      vertex 6 6 1.9
      vertex 39 3 1.9
    endloop
  endfacet
  facet normal 0 0 1
    outer loop
      vertex 39 3 1.9
      vertex 36 12 1.9
      vertex 36 6 1.9
    endloop
  endfacet
  facet normal 0 0 1
    outer loop
      vertex 3 3 1.9
      vertex 6 6 1.9
      vertex 6 12 1.9
    endloop
  endfacet
  facet normal 0 0 1
    outer loop
      vertex 3 3 1.9
      vertex 39 3 1.9
      vertex 6 6 1.9
    endloop
  endfacet
  facet normal 0 0 1
    outer loop
      vertex 6 12 1.9
      vertex 36 12 1.9
      vertex 3 15 1.9
    endloop
  endfacet
endsolid OpenSCAD_Model
