solid OpenSCAD_Model
  facet normal -1 0 0
    outer loop
      vertex -22 1 20
      vertex -22 4 0
      vertex -22 1 8.1
    endloop
  endfacet
  facet normal -1 0 -0
    outer loop
      vertex -22 -4 0
      vertex -22 -4 20
      vertex -22 -1 8.1
    endloop
  endfacet
  facet normal -1 -0 0
    outer loop
      vertex -22 -4 0
      vertex -22 -1 8.1
      vertex -22 4 0
    endloop
  endfacet
  facet normal -1 0 0
    outer loop
      vertex -22 4 0
      vertex -22 1 20
      vertex -22 4 20
    endloop
  endfacet
  facet normal -1 0 0
    outer loop
      vertex -22 -1 8.1
      vertex -22 -4 20
      vertex -22 -1 20
    endloop
  endfacet
  facet normal -1 0 0
    outer loop
      vertex -22 1 8.1
      vertex -22 4 0
      vertex -22 -1 8.1
    endloop
  endfacet
  facet normal 0 -1 0
    outer loop
      vertex -18.6 -4 13.0762
      vertex -22 -4 0
      vertex -11.3147 -4 0
    endloop
  endfacet
  facet normal 0 -1 0
    outer loop
      vertex -15.4 -4 13.0762
      vertex -17 -4 12.1525
      vertex -11.3147 -4 0
    endloop
  endfacet
  facet normal 0 -1 0
    outer loop
      vertex -22 -4 20
      vertex -22 -4 0
      vertex -18.6 -4 13.0762
    endloop
  endfacet
  facet normal 0 -1 0
    outer loop
      vertex -11.3147 -4 20
      vertex -22 -4 20
      vertex -18.6 -4 14.9238
    endloop
  endfacet
  facet normal 0 -1 0
    outer loop
      vertex -11.3147 -4 20
      vertex -18.6 -4 14.9238
      vertex -17 -4 15.8475
    endloop
  endfacet
  facet normal 0 -1 0
    outer loop
      vertex -11.3147 -4 20
      vertex -15.4 -4 14.9238
      vertex -11.3147 -4 0
    endloop
  endfacet
  facet normal 0 -1 0
    outer loop
      vertex -11.3147 -4 20
      vertex -17 -4 15.8475
      vertex -15.4 -4 14.9238
    endloop
  endfacet
  facet normal 0 -1 0
    outer loop
      vertex -15.4 -4 14.9238
      vertex -15.4 -4 13.0762
      vertex -11.3147 -4 0
    endloop
  endfacet
  facet normal 0 -1 0
    outer loop
      vertex -18.6 -4 13.0762
      vertex -18.6 -4 14.9238
      vertex -22 -4 20
    endloop
  endfacet
  facet normal 0 -1 0
    outer loop
      vertex -17 -4 12.1525
      vertex -18.6 -4 13.0762
      vertex -11.3147 -4 0
    endloop
  endfacet
  facet normal -0 -0 -1
    outer loop
      vertex -22 -4 0
      vertex -22 4 0
      vertex -11.3147 -4 0
    endloop
  endfacet
  facet normal 0 0 -1
    outer loop
      vertex -11.3147 -4 0
      vertex -22 4 0
      vertex -11.3147 4 0
    endloop
  endfacet
  facet normal 0 -0 -1
    outer loop
      vertex -11.3147 -4 0
      vertex -11.3147 4 0
      vertex -11.1103 4.60206 0
    endloop
  endfacet
  facet normal 0 0 -1
    outer loop
      vertex -11.3147 -4 0
      vertex -11.1103 4.60206 0
      vertex -10.4146 6.01287 0
    endloop
  endfacet
  facet normal 0 0 -1
    outer loop
      vertex -11.3147 -4 0
      vertex -10.4146 6.01287 0
      vertex -9.54067 7.32081 0
    endloop
  endfacet
  facet normal 0 0 -1
    outer loop
      vertex -11.3147 -4 0
      vertex -9.54067 7.32081 0
      vertex -8.50349 8.50349 0
    endloop
  endfacet
  facet normal 0 0 -1
    outer loop
      vertex -11.3147 -4 0
      vertex -8.50349 8.50349 0
      vertex -7.32081 9.54067 0
    endloop
  endfacet
  facet normal 0 0 -1
    outer loop
      vertex -11.3147 -4 0
      vertex -7.32081 9.54067 0
      vertex -6.01287 10.4146 0
    endloop
  endfacet
  facet normal 0 0 -1
    outer loop
      vertex -11.3147 -4 0
      vertex -6.01287 10.4146 0
      vertex -4.60205 11.1103 0
    endloop
  endfacet
  facet normal 0 0 -1
    outer loop
      vertex -11.3147 -4 0
      vertex -4.60205 11.1103 0
      vertex -3.11249 11.616 0
    endloop
  endfacet
  facet normal 0 0 -1
    outer loop
      vertex -11.3147 -4 0
      vertex -3.11249 11.616 0
      vertex -1.56967 11.9229 0
    endloop
  endfacet
  facet normal 0 0 -1
    outer loop
      vertex -11.3147 -4 0
      vertex -1.56967 11.9229 0
      vertex 1.47268e-15 12.0257 0
    endloop
  endfacet
  facet normal 0 0 -1
    outer loop
      vertex -11.3147 -4 0
      vertex 1.47268e-15 12.0257 0
      vertex 1.56968 11.9229 0
    endloop
  endfacet
  facet normal 0 0 -1
    outer loop
      vertex -11.3147 -4 0
      vertex 1.56968 11.9229 0
      vertex 3.11249 11.616 0
    endloop
  endfacet
  facet normal 0 0 -1
    outer loop
      vertex -11.3147 -4 0
      vertex 3.11249 11.616 0
      vertex 4.60206 11.1103 0
    endloop
  endfacet
  facet normal 0 0 -1
    outer loop
      vertex -11.3147 -4 0
      vertex 4.60206 11.1103 0
      vertex 6.01287 10.4146 0
    endloop
  endfacet
  facet normal 0 0 -1
    outer loop
      vertex -11.3147 -4 0
      vertex 6.01287 10.4146 0
      vertex 7.32081 9.54067 0
    endloop
  endfacet
  facet normal 0 0 -1
    outer loop
      vertex -11.3147 -4 0
      vertex 7.32081 9.54067 0
      vertex 8.50349 8.50349 0
    endloop
  endfacet
  facet normal 0 0 -1
    outer loop
      vertex -0.828545 2.55 0
      vertex 8.50349 8.50349 0
      vertex 9.54067 7.32081 0
    endloop
  endfacet
  facet normal 0 0 -1
    outer loop
      vertex 2.16916 1.57599 0
      vertex 10.4146 6.01287 0
      vertex 11.1103 4.60205 0
    endloop
  endfacet
  facet normal 0 0 -1
    outer loop
      vertex 2.68123 -3.28345e-16 0
      vertex 11.3147 4 0
      vertex 22 4 0
    endloop
  endfacet
  facet normal -0 0 -1
    outer loop
      vertex 11.3147 -4 0
      vertex 22 4 0
      vertex 22 -4 0
    endloop
  endfacet
  facet normal -0 0 -1
    outer loop
      vertex 0.828545 -2.55 0
      vertex 22 4 0
      vertex 11.3147 -4 0
    endloop
  endfacet
  facet normal 0 0 -1
    outer loop
      vertex -6.01287 -10.4146 0
      vertex -3.11249 -11.616 0
      vertex -4.60206 -11.1103 0
    endloop
  endfacet
  facet normal 0 0 -1
    outer loop
      vertex 11.3147 -4 0
      vertex 11.1103 -4.60206 0
      vertex -11.3147 -4 0
    endloop
  endfacet
  facet normal 0 -0 -1
    outer loop
      vertex -2.68123 3.28345e-16 0
      vertex -11.3147 -4 0
      vertex -2.16916 1.57599 0
    endloop
  endfacet
  facet normal 0 0 -1
    outer loop
      vertex -11.1103 -4.60205 0
      vertex 10.4146 -6.01287 0
      vertex 9.54067 -7.32081 0
    endloop
  endfacet
  facet normal 0 0 -1
    outer loop
      vertex -11.1103 -4.60205 0
      vertex 9.54067 -7.32081 0
      vertex 8.50349 -8.50349 0
    endloop
  endfacet
  facet normal 0 0 -1
    outer loop
      vertex -10.4146 -6.01287 0
      vertex 7.32081 -9.54067 0
      vertex 6.01287 -10.4146 0
    endloop
  endfacet
  facet normal 0 0 -1
    outer loop
      vertex -10.4146 -6.01287 0
      vertex 6.01287 -10.4146 0
      vertex -9.54067 -7.32081 0
    endloop
  endfacet
  facet normal 0 0 -1
    outer loop
      vertex -9.54067 -7.32081 0
      vertex 4.60205 -11.1103 0
      vertex 3.11249 -11.616 0
    endloop
  endfacet
  facet normal 0 0 -1
    outer loop
      vertex -9.54067 -7.32081 0
      vertex 3.11249 -11.616 0
      vertex -8.50349 -8.50349 0
    endloop
  endfacet
  facet normal 0 0 -1
    outer loop
      vertex -8.50349 -8.50349 0
      vertex 1.56967 -11.9229 0
      vertex -1.47268e-15 -12.0257 0
    endloop
  endfacet
  facet normal 0 0 -1
    outer loop
      vertex -7.32081 -9.54067 0
      vertex -1.56968 -11.9229 0
      vertex -6.01287 -10.4146 0
    endloop
  endfacet
  facet normal 0 0 -1
    outer loop
      vertex -1.56968 -11.9229 0
      vertex -3.11249 -11.616 0
      vertex -6.01287 -10.4146 0
    endloop
  endfacet
  facet normal 0 0 -1
    outer loop
      vertex -8.50349 -8.50349 0
      vertex -1.47268e-15 -12.0257 0
      vertex -7.32081 -9.54067 0
    endloop
  endfacet
  facet normal 0 0 -1
    outer loop
      vertex -1.47268e-15 -12.0257 0
      vertex -1.56968 -11.9229 0
      vertex -7.32081 -9.54067 0
    endloop
  endfacet
  facet normal 0 0 -1
    outer loop
      vertex 3.11249 -11.616 0
      vertex 1.56967 -11.9229 0
      vertex -8.50349 -8.50349 0
    endloop
  endfacet
  facet normal 0 0 -1
    outer loop
      vertex 6.01287 -10.4146 0
      vertex 4.60205 -11.1103 0
      vertex -9.54067 -7.32081 0
    endloop
  endfacet
  facet normal 0 0 -1
    outer loop
      vertex -11.1103 -4.60205 0
      vertex 8.50349 -8.50349 0
      vertex -10.4146 -6.01287 0
    endloop
  endfacet
  facet normal 0 0 -1
    outer loop
      vertex 8.50349 -8.50349 0
      vertex 7.32081 -9.54067 0
      vertex -10.4146 -6.01287 0
    endloop
  endfacet
  facet normal 0 0 -1
    outer loop
      vertex 0.828545 2.55 0
      vertex 9.54067 7.32081 0
      vertex 10.4146 6.01287 0
    endloop
  endfacet
  facet normal 0 0 -1
    outer loop
      vertex 11.1103 -4.60206 0
      vertex 10.4146 -6.01287 0
      vertex -11.1103 -4.60205 0
    endloop
  endfacet
  facet normal -0 0 -1
    outer loop
      vertex -0.828545 2.55 0
      vertex 9.54067 7.32081 0
      vertex 0.828545 2.55 0
    endloop
  endfacet
  facet normal 0 0 -1
    outer loop
      vertex -0.828545 -2.55 0
      vertex -11.3147 -4 0
      vertex -2.16916 -1.57599 0
    endloop
  endfacet
  facet normal -0 0 -1
    outer loop
      vertex 2.68123 -3.28345e-16 0
      vertex 22 4 0
      vertex 2.16916 -1.57599 0
    endloop
  endfacet
  facet normal -0 0 -1
    outer loop
      vertex -11.3147 -4 0
      vertex -0.828545 -2.55 0
      vertex 11.3147 -4 0
    endloop
  endfacet
  facet normal 0 0 -1
    outer loop
      vertex -0.828545 -2.55 0
      vertex 0.828545 -2.55 0
      vertex 11.3147 -4 0
    endloop
  endfacet
  facet normal -0 0 -1
    outer loop
      vertex 2.16916 -1.57599 0
      vertex 22 4 0
      vertex 0.828545 -2.55 0
    endloop
  endfacet
  facet normal -0 0 -1
    outer loop
      vertex 2.16916 1.57599 0
      vertex 11.3147 4 0
      vertex 2.68123 -3.28345e-16 0
    endloop
  endfacet
  facet normal 0 0 -1
    outer loop
      vertex -2.16916 -1.57599 0
      vertex -11.3147 -4 0
      vertex -2.68123 3.28345e-16 0
    endloop
  endfacet
  facet normal 0 0 -1
    outer loop
      vertex -11.3147 -4 0
      vertex 8.50349 8.50349 0
      vertex -0.828545 2.55 0
    endloop
  endfacet
  facet normal 0 0 -1
    outer loop
      vertex -11.3147 -4 0
      vertex -0.828545 2.55 0
      vertex -2.16916 1.57599 0
    endloop
  endfacet
  facet normal 0 0 -1
    outer loop
      vertex 2.16916 1.57599 0
      vertex 11.1103 4.60205 0
      vertex 11.3147 4 0
    endloop
  endfacet
  facet normal 0 0 -1
    outer loop
      vertex -11.3147 -4 0
      vertex 11.1103 -4.60206 0
      vertex -11.1103 -4.60205 0
    endloop
  endfacet
  facet normal -0 0 -1
    outer loop
      vertex 0.828545 2.55 0
      vertex 10.4146 6.01287 0
      vertex 2.16916 1.57599 0
    endloop
  endfacet
  facet normal -0 1 -0
    outer loop
      vertex -17 4 12.1525
      vertex -11.3147 4 0
      vertex -18.6 4 13.0762
    endloop
  endfacet
  facet normal 0 1 0
    outer loop
      vertex -18.6 4 14.9238
      vertex -22 4 20
      vertex -11.3147 4 20
    endloop
  endfacet
  facet normal -0 1 0
    outer loop
      vertex -17 4 15.8475
      vertex -18.6 4 14.9238
      vertex -11.3147 4 20
    endloop
  endfacet
  facet normal 0 1 0
    outer loop
      vertex -22 4 0
      vertex -22 4 20
      vertex -18.6 4 13.0762
    endloop
  endfacet
  facet normal 0 1 0
    outer loop
      vertex -22 4 0
      vertex -18.6 4 13.0762
      vertex -11.3147 4 0
    endloop
  endfacet
  facet normal 0 1 -0
    outer loop
      vertex -15.4 4 14.9238
      vertex -11.3147 4 20
      vertex -15.4 4 13.0762
    endloop
  endfacet
  facet normal 0 1 0
    outer loop
      vertex -11.3147 4 0
      vertex -17 4 12.1525
      vertex -15.4 4 13.0762
    endloop
  endfacet
  facet normal 0 1 0
    outer loop
      vertex -11.3147 4 0
      vertex -15.4 4 13.0762
      vertex -11.3147 4 20
    endloop
  endfacet
  facet normal 0 1 0
    outer loop
      vertex -15.4 4 14.9238
      vertex -17 4 15.8475
      vertex -11.3147 4 20
    endloop
  endfacet
  facet normal 0 1 0
    outer loop
      vertex -18.6 4 13.0762
      vertex -22 4 20
      vertex -18.6 4 14.9238
    endloop
  endfacet
  facet normal 0 -0 1
    outer loop
      vertex -22 4 20
      vertex -22 1 20
      vertex -7.63802 1 20
    endloop
  endfacet
  facet normal -0 0 1
    outer loop
      vertex -7.11247 3.0522 20
      vertex -22 4 20
      vertex -7.58128 1.55799 20
    endloop
  endfacet
  facet normal -0 0 1
    outer loop
      vertex -7.58128 1.55799 20
      vertex -22 4 20
      vertex -7.63802 1 20
    endloop
  endfacet
  facet normal 0 -0 1
    outer loop
      vertex -11.3147 4 20
      vertex -22 4 20
      vertex -7.11247 3.0522 20
    endloop
  endfacet
  facet normal 0 -0 1
    outer loop
      vertex -11.1103 4.60206 20
      vertex -11.3147 4 20
      vertex -6.35247 4.42145 20
    endloop
  endfacet
  facet normal 0 0 1
    outer loop
      vertex -10.4146 6.01287 20
      vertex -4.09403 6.56826 20
      vertex -2.68804 7.25793 20
    endloop
  endfacet
  facet normal 0 0 1
    outer loop
      vertex 8.50349 8.50349 20
      vertex -1.17201 7.65046 20
      vertex 0.39201 7.72978 20
    endloop
  endfacet
  facet normal 0 0 1
    outer loop
      vertex 9.54067 7.32081 20
      vertex 0.39201 7.72978 20
      vertex 1.93998 7.49264 20
    endloop
  endfacet
  facet normal 0 -0 1
    outer loop
      vertex -7.32081 9.54067 20
      vertex -8.50349 8.50349 20
      vertex 1.56968 11.9229 20
    endloop
  endfacet
  facet normal 0 0 1
    outer loop
      vertex 10.4146 6.01287 20
      vertex 9.54067 7.32081 20
      vertex 1.93998 7.49264 20
    endloop
  endfacet
  facet normal 0 0 1
    outer loop
      vertex 11.3147 4 20
      vertex 4.73752 6.12037 20
      vertex 5.87257 5.04143 20
    endloop
  endfacet
  facet normal 0 0 1
    outer loop
      vertex 22 1 20
      vertex 5.87257 5.04143 20
      vertex 6.76719 3.7561 20
    endloop
  endfacet
  facet normal 0 0 1
    outer loop
      vertex 22 1 20
      vertex 6.76719 3.7561 20
      vertex 7.38476 2.31698 20
    endloop
  endfacet
  facet normal -0 0 1
    outer loop
      vertex 22 1 20
      vertex 7.38476 2.31698 20
      vertex 7.65541 1 20
    endloop
  endfacet
  facet normal 0 -0 1
    outer loop
      vertex -9.54067 7.32081 20
      vertex -10.4146 6.01287 20
      vertex -1.17201 7.65046 20
    endloop
  endfacet
  facet normal 0 0 1
    outer loop
      vertex 22 1 20
      vertex 11.3147 4 20
      vertex 5.87257 5.04143 20
    endloop
  endfacet
  facet normal -0 -0 1
    outer loop
      vertex 10.4146 6.01287 20
      vertex 1.93998 7.49264 20
      vertex 11.1103 4.60205 20
    endloop
  endfacet
  facet normal 0 -0 1
    outer loop
      vertex -4.60205 11.1103 20
      vertex -6.01287 10.4146 20
      vertex -3.11249 11.616 20
    endloop
  endfacet
  facet normal 0 -0 1
    outer loop
      vertex 8.50349 8.50349 20
      vertex 0.39201 7.72978 20
      vertex 9.54067 7.32081 20
    endloop
  endfacet
  facet normal 0 -0 1
    outer loop
      vertex 7.32081 9.54067 20
      vertex -1.17201 7.65046 20
      vertex 8.50349 8.50349 20
    endloop
  endfacet
  facet normal 0 0 1
    outer loop
      vertex -10.4146 6.01287 20
      vertex -5.3324 5.60969 20
      vertex -4.09403 6.56826 20
    endloop
  endfacet
  facet normal 0 -0 1
    outer loop
      vertex -10.4146 6.01287 20
      vertex -11.1103 4.60206 20
      vertex -5.3324 5.60969 20
    endloop
  endfacet
  facet normal 0 0 1
    outer loop
      vertex -9.54067 7.32081 20
      vertex 7.32081 9.54067 20
      vertex 6.01287 10.4146 20
    endloop
  endfacet
  facet normal 0 0 1
    outer loop
      vertex -9.54067 7.32081 20
      vertex -1.17201 7.65046 20
      vertex 7.32081 9.54067 20
    endloop
  endfacet
  facet normal 0 0 1
    outer loop
      vertex -8.50349 8.50349 20
      vertex 4.60206 11.1103 20
      vertex 3.11249 11.616 20
    endloop
  endfacet
  facet normal 0 -0 1
    outer loop
      vertex -8.50349 8.50349 20
      vertex -9.54067 7.32081 20
      vertex 4.60206 11.1103 20
    endloop
  endfacet
  facet normal 0 0 1
    outer loop
      vertex -7.32081 9.54067 20
      vertex 1.56968 11.9229 20
      vertex 1.47268e-15 12.0257 20
    endloop
  endfacet
  facet normal 0 -0 1
    outer loop
      vertex -6.01287 10.4146 20
      vertex -7.32081 9.54067 20
      vertex -1.56967 11.9229 20
    endloop
  endfacet
  facet normal 0 -0 1
    outer loop
      vertex -3.11249 11.616 20
      vertex -6.01287 10.4146 20
      vertex -1.56967 11.9229 20
    endloop
  endfacet
  facet normal 0 -0 1
    outer loop
      vertex -1.56967 11.9229 20
      vertex -7.32081 9.54067 20
      vertex 1.47268e-15 12.0257 20
    endloop
  endfacet
  facet normal 0 -0 1
    outer loop
      vertex 1.56968 11.9229 20
      vertex -8.50349 8.50349 20
      vertex 3.11249 11.616 20
    endloop
  endfacet
  facet normal 0 -0 1
    outer loop
      vertex 4.60206 11.1103 20
      vertex -9.54067 7.32081 20
      vertex 6.01287 10.4146 20
    endloop
  endfacet
  facet normal 0 0 1
    outer loop
      vertex -1.17201 7.65046 20
      vertex -10.4146 6.01287 20
      vertex -2.68804 7.25793 20
    endloop
  endfacet
  facet normal 0 0 1
    outer loop
      vertex -5.3324 5.60969 20
      vertex -11.1103 4.60206 20
      vertex -6.35247 4.42145 20
    endloop
  endfacet
  facet normal 0 0 1
    outer loop
      vertex -6.35247 4.42145 20
      vertex -11.3147 4 20
      vertex -7.11247 3.0522 20
    endloop
  endfacet
  facet normal 0 0 1
    outer loop
      vertex 11.3147 4 20
      vertex 3.40852 6.94875 20
      vertex 4.73752 6.12037 20
    endloop
  endfacet
  facet normal 0 0 1
    outer loop
      vertex 3.40852 6.94875 20
      vertex 11.1103 4.60205 20
      vertex 1.93998 7.49264 20
    endloop
  endfacet
  facet normal 0 0 1
    outer loop
      vertex 11.3147 4 20
      vertex 11.1103 4.60205 20
      vertex 3.40852 6.94875 20
    endloop
  endfacet
  facet normal 0 0 1
    outer loop
      vertex 22 4 20
      vertex 11.3147 4 20
      vertex 22 1 20
    endloop
  endfacet
  facet normal 0 -1 -0
    outer loop
      vertex -15.4 1 14.9238
      vertex -7.63802 1 20
      vertex -22 1 20
    endloop
  endfacet
  facet normal 0 -1 0
    outer loop
      vertex -15.4 1 14.9238
      vertex -15.4 1 13.0762
      vertex -7.63802 1 8.1
    endloop
  endfacet
  facet normal 0 -1 -0
    outer loop
      vertex -22 1 8.1
      vertex -18.6 1 14.9238
      vertex -22 1 20
    endloop
  endfacet
  facet normal 0 -1 -0
    outer loop
      vertex -18.6 1 14.9238
      vertex -17 1 15.8475
      vertex -22 1 20
    endloop
  endfacet
  facet normal 0 -1 0
    outer loop
      vertex -7.63802 1 8.1
      vertex -7.63802 1 20
      vertex -15.4 1 14.9238
    endloop
  endfacet
  facet normal -0 -1 0
    outer loop
      vertex -22 1 8.1
      vertex -7.63802 1 8.1
      vertex -17 1 12.1525
    endloop
  endfacet
  facet normal 0 -1 0
    outer loop
      vertex -22 1 8.1
      vertex -18.6 1 13.0762
      vertex -18.6 1 14.9238
    endloop
  endfacet
  facet normal 0 -1 0
    outer loop
      vertex -22 1 8.1
      vertex -17 1 12.1525
      vertex -18.6 1 13.0762
    endloop
  endfacet
  facet normal 0 -1 0
    outer loop
      vertex -15.4 1 13.0762
      vertex -17 1 12.1525
      vertex -7.63802 1 8.1
    endloop
  endfacet
  facet normal -0 -1 -0
    outer loop
      vertex -17 1 15.8475
      vertex -15.4 1 14.9238
      vertex -22 1 20
    endloop
  endfacet
  facet normal 0 0 1
    outer loop
      vertex 4.6688 0 8.1
      vertex 7.38476 -2.31698 8.1
      vertex 7.65541 -1 8.1
    endloop
  endfacet
  facet normal 0 0 1
    outer loop
      vertex -7.63802 -1 8.1
      vertex -7.58128 -1.55799 8.1
      vertex -7.11247 -3.0522 8.1
    endloop
  endfacet
  facet normal 0 0 1
    outer loop
      vertex -5.3324 -5.60969 8.1
      vertex -7.63802 -1 8.1
      vertex -6.35247 -4.42145 8.1
    endloop
  endfacet
  facet normal 0 0 1
    outer loop
      vertex -6.35247 -4.42145 8.1
      vertex -7.63802 -1 8.1
      vertex -7.11247 -3.0522 8.1
    endloop
  endfacet
  facet normal 0 0 1
    outer loop
      vertex 4.6688 0 8.1
      vertex 6.76719 -3.7561 8.1
      vertex 7.38476 -2.31698 8.1
    endloop
  endfacet
  facet normal 0 0 1
    outer loop
      vertex 4.6688 0 8.1
      vertex 7.65541 -1 8.1
      vertex 22 1 8.1
    endloop
  endfacet
  facet normal 0 0 1
    outer loop
      vertex -4.09403 -6.56826 8.1
      vertex -7.63802 -1 8.1
      vertex -5.3324 -5.60969 8.1
    endloop
  endfacet
  facet normal 0 0 1
    outer loop
      vertex -2.68804 -7.25793 8.1
      vertex -7.63802 -1 8.1
      vertex -4.09403 -6.56826 8.1
    endloop
  endfacet
  facet normal 0 0 1
    outer loop
      vertex -1.17201 -7.65046 8.1
      vertex -7.63802 -1 8.1
      vertex -2.68804 -7.25793 8.1
    endloop
  endfacet
  facet normal 0 0 1
    outer loop
      vertex 0.39201 -7.72978 8.1
      vertex -7.63802 -1 8.1
      vertex -1.17201 -7.65046 8.1
    endloop
  endfacet
  facet normal -0 0 1
    outer loop
      vertex 1.93998 -7.49264 8.1
      vertex -7.63802 -1 8.1
      vertex 0.39201 -7.72978 8.1
    endloop
  endfacet
  facet normal -0 -0 1
    outer loop
      vertex -2.3344 -4.0433 8.1
      vertex -7.63802 -1 8.1
      vertex 1.93998 -7.49264 8.1
    endloop
  endfacet
  facet normal -0 0 1
    outer loop
      vertex -4.6688 0 8.1
      vertex -2.3344 4.0433 8.1
      vertex -7.63802 -1 8.1
    endloop
  endfacet
  facet normal 0 0 1
    outer loop
      vertex 22 1 8.1
      vertex 7.65541 -1 8.1
      vertex 22 -1 8.1
    endloop
  endfacet
  facet normal 0 0 1
    outer loop
      vertex -2.3344 4.0433 8.1
      vertex 2.3344 4.0433 8.1
      vertex 4.73752 6.12037 8.1
    endloop
  endfacet
  facet normal 0 0 1
    outer loop
      vertex -2.3344 4.0433 8.1
      vertex 4.73752 6.12037 8.1
      vertex 3.40852 6.94875 8.1
    endloop
  endfacet
  facet normal 0 0 1
    outer loop
      vertex -2.3344 4.0433 8.1
      vertex 3.40852 6.94875 8.1
      vertex 1.93998 7.49264 8.1
    endloop
  endfacet
  facet normal 0 0 1
    outer loop
      vertex 2.3344 4.0433 8.1
      vertex 4.6688 0 8.1
      vertex 7.65541 1 8.1
    endloop
  endfacet
  facet normal 0 0 1
    outer loop
      vertex 2.3344 4.0433 8.1
      vertex 7.38476 2.31698 8.1
      vertex 6.76719 3.7561 8.1
    endloop
  endfacet
  facet normal 0 0 1
    outer loop
      vertex 2.3344 4.0433 8.1
      vertex 6.76719 3.7561 8.1
      vertex 5.87257 5.04143 8.1
    endloop
  endfacet
  facet normal 0 -0 1
    outer loop
      vertex -1.17201 7.65046 8.1
      vertex -7.63802 -1 8.1
      vertex 0.39201 7.72978 8.1
    endloop
  endfacet
  facet normal 0 -0 1
    outer loop
      vertex -2.68804 7.25793 8.1
      vertex -7.63802 -1 8.1
      vertex -1.17201 7.65046 8.1
    endloop
  endfacet
  facet normal 0 -0 1
    outer loop
      vertex -4.09403 6.56826 8.1
      vertex -7.63802 -1 8.1
      vertex -2.68804 7.25793 8.1
    endloop
  endfacet
  facet normal 0 -0 1
    outer loop
      vertex -5.3324 5.60969 8.1
      vertex -7.63802 -1 8.1
      vertex -4.09403 6.56826 8.1
    endloop
  endfacet
  facet normal 0 -0 1
    outer loop
      vertex -6.35247 4.42145 8.1
      vertex -7.63802 -1 8.1
      vertex -5.3324 5.60969 8.1
    endloop
  endfacet
  facet normal 0 -0 1
    outer loop
      vertex -7.11247 3.0522 8.1
      vertex -7.63802 -1 8.1
      vertex -6.35247 4.42145 8.1
    endloop
  endfacet
  facet normal 0 -0 1
    outer loop
      vertex -7.58128 1.55799 8.1
      vertex -7.63802 -1 8.1
      vertex -7.11247 3.0522 8.1
    endloop
  endfacet
  facet normal 0 -0 1
    outer loop
      vertex -7.63802 1 8.1
      vertex -7.63802 -1 8.1
      vertex -7.58128 1.55799 8.1
    endloop
  endfacet
  facet normal 0 0 1
    outer loop
      vertex -22 1 8.1
      vertex -7.63802 -1 8.1
      vertex -7.63802 1 8.1
    endloop
  endfacet
  facet normal 0 -0 1
    outer loop
      vertex 2.3344 -4.0433 8.1
      vertex -2.3344 -4.0433 8.1
      vertex 3.40852 -6.94875 8.1
    endloop
  endfacet
  facet normal 0 0 1
    outer loop
      vertex 4.6688 0 8.1
      vertex 5.87257 -5.04143 8.1
      vertex 6.76719 -3.7561 8.1
    endloop
  endfacet
  facet normal 0 -0 1
    outer loop
      vertex 0.39201 7.72978 8.1
      vertex -2.3344 4.0433 8.1
      vertex 1.93998 7.49264 8.1
    endloop
  endfacet
  facet normal 0 0 1
    outer loop
      vertex 0.39201 7.72978 8.1
      vertex -7.63802 -1 8.1
      vertex -2.3344 4.0433 8.1
    endloop
  endfacet
  facet normal 0 -0 1
    outer loop
      vertex 4.73752 6.12037 8.1
      vertex 2.3344 4.0433 8.1
      vertex 5.87257 5.04143 8.1
    endloop
  endfacet
  facet normal 0 0 1
    outer loop
      vertex 2.3344 4.0433 8.1
      vertex 7.65541 1 8.1
      vertex 7.38476 2.31698 8.1
    endloop
  endfacet
  facet normal 0 -0 1
    outer loop
      vertex 7.65541 1 8.1
      vertex 4.6688 0 8.1
      vertex 22 1 8.1
    endloop
  endfacet
  facet normal 0 -0 1
    outer loop
      vertex 4.6688 0 8.1
      vertex 2.3344 -4.0433 8.1
      vertex 5.87257 -5.04143 8.1
    endloop
  endfacet
  facet normal -0 0 1
    outer loop
      vertex 5.87257 -5.04143 8.1
      vertex 2.3344 -4.0433 8.1
      vertex 4.73752 -6.12038 8.1
    endloop
  endfacet
  facet normal -0 0 1
    outer loop
      vertex 3.40852 -6.94875 8.1
      vertex -2.3344 -4.0433 8.1
      vertex 1.93998 -7.49264 8.1
    endloop
  endfacet
  facet normal 0 0 1
    outer loop
      vertex -22 -1 8.1
      vertex -7.63802 -1 8.1
      vertex -22 1 8.1
    endloop
  endfacet
  facet normal 0 0 1
    outer loop
      vertex 2.3344 -4.0433 8.1
      vertex 3.40852 -6.94875 8.1
      vertex 4.73752 -6.12038 8.1
    endloop
  endfacet
  facet normal 0 0 1
    outer loop
      vertex -2.3344 -4.0433 8.1
      vertex -4.6688 0 8.1
      vertex -7.63802 -1 8.1
    endloop
  endfacet
  facet normal 0 1 0
    outer loop
      vertex -18.6 -1 14.9238
      vertex -22 -1 20
      vertex -17 -1 15.8475
    endloop
  endfacet
  facet normal 0 1 -0
    outer loop
      vertex -17 -1 12.1525
      vertex -7.63802 -1 8.1
      vertex -22 -1 8.1
    endloop
  endfacet
  facet normal 0 1 -0
    outer loop
      vertex -15.4 -1 14.9238
      vertex -7.63802 -1 8.1
      vertex -15.4 -1 13.0762
    endloop
  endfacet
  facet normal 0 1 -0
    outer loop
      vertex -22 -1 20
      vertex -18.6 -1 13.0762
      vertex -22 -1 8.1
    endloop
  endfacet
  facet normal 0 1 0
    outer loop
      vertex -17 -1 15.8475
      vertex -22 -1 20
      vertex -15.4 -1 14.9238
    endloop
  endfacet
  facet normal 0 1 -0
    outer loop
      vertex -18.6 -1 13.0762
      vertex -17 -1 12.1525
      vertex -22 -1 8.1
    endloop
  endfacet
  facet normal 0 1 0
    outer loop
      vertex -7.63802 -1 20
      vertex -7.63802 -1 8.1
      vertex -15.4 -1 14.9238
    endloop
  endfacet
  facet normal 0 1 0
    outer loop
      vertex -7.63802 -1 20
      vertex -15.4 -1 14.9238
      vertex -22 -1 20
    endloop
  endfacet
  facet normal 0 1 0
    outer loop
      vertex -22 -1 20
      vertex -18.6 -1 14.9238
      vertex -18.6 -1 13.0762
    endloop
  endfacet
  facet normal 0 1 -0
    outer loop
      vertex -15.4 -1 13.0762
      vertex -7.63802 -1 8.1
      vertex -17 -1 12.1525
    endloop
  endfacet
  facet normal 0 0 1
    outer loop
      vertex -11.1103 -4.60205 20
      vertex -10.4146 -6.01287 20
      vertex -11.3147 -4 20
    endloop
  endfacet
  facet normal 0 -0 1
    outer loop
      vertex -22 -1 20
      vertex -22 -4 20
      vertex -11.3147 -4 20
    endloop
  endfacet
  facet normal 0 0 1
    outer loop
      vertex -10.4146 -6.01287 20
      vertex -9.54067 -7.32081 20
      vertex -11.3147 -4 20
    endloop
  endfacet
  facet normal 0 0 1
    outer loop
      vertex -9.54067 -7.32081 20
      vertex -8.50349 -8.50349 20
      vertex -11.3147 -4 20
    endloop
  endfacet
  facet normal 0 0 1
    outer loop
      vertex -8.50349 -8.50349 20
      vertex -7.32081 -9.54067 20
      vertex -11.3147 -4 20
    endloop
  endfacet
  facet normal 0 0 1
    outer loop
      vertex -7.32081 -9.54067 20
      vertex -6.01287 -10.4146 20
      vertex -11.3147 -4 20
    endloop
  endfacet
  facet normal 0 0 1
    outer loop
      vertex -6.01287 -10.4146 20
      vertex -4.60206 -11.1103 20
      vertex -11.3147 -4 20
    endloop
  endfacet
  facet normal 0 0 1
    outer loop
      vertex -4.60206 -11.1103 20
      vertex -3.11249 -11.616 20
      vertex -11.3147 -4 20
    endloop
  endfacet
  facet normal 0 0 1
    outer loop
      vertex -3.11249 -11.616 20
      vertex -1.56968 -11.9229 20
      vertex -11.3147 -4 20
    endloop
  endfacet
  facet normal 0 0 1
    outer loop
      vertex -1.56968 -11.9229 20
      vertex -1.47268e-15 -12.0257 20
      vertex -11.3147 -4 20
    endloop
  endfacet
  facet normal 0 0 1
    outer loop
      vertex -1.47268e-15 -12.0257 20
      vertex 1.56967 -11.9229 20
      vertex -11.3147 -4 20
    endloop
  endfacet
  facet normal 0 0 1
    outer loop
      vertex 1.56967 -11.9229 20
      vertex 3.11249 -11.616 20
      vertex -11.3147 -4 20
    endloop
  endfacet
  facet normal 0 0 1
    outer loop
      vertex 3.11249 -11.616 20
      vertex 4.60205 -11.1103 20
      vertex -11.3147 -4 20
    endloop
  endfacet
  facet normal 0 0 1
    outer loop
      vertex -4.09403 -6.56826 20
      vertex -5.3324 -5.60969 20
      vertex -11.3147 -4 20
    endloop
  endfacet
  facet normal 0 0 1
    outer loop
      vertex -7.11247 -3.0522 20
      vertex -7.58128 -1.55799 20
      vertex -22 -1 20
    endloop
  endfacet
  facet normal 0 -0 1
    outer loop
      vertex 5.87257 -5.04143 20
      vertex 4.73752 -6.12038 20
      vertex 10.4146 -6.01287 20
    endloop
  endfacet
  facet normal 0 0 1
    outer loop
      vertex 22 -4 20
      vertex 22 -1 20
      vertex 7.65541 -1 20
    endloop
  endfacet
  facet normal 0 -0 1
    outer loop
      vertex 6.76719 -3.7561 20
      vertex 5.87257 -5.04143 20
      vertex 11.1103 -4.60206 20
    endloop
  endfacet
  facet normal 0 0 1
    outer loop
      vertex 22 -4 20
      vertex 7.65541 -1 20
      vertex 7.38476 -2.31698 20
    endloop
  endfacet
  facet normal 0 -0 1
    outer loop
      vertex 4.73752 -6.12038 20
      vertex 3.40852 -6.94875 20
      vertex 9.54067 -7.32081 20
    endloop
  endfacet
  facet normal 0 0 1
    outer loop
      vertex 11.1103 -4.60206 20
      vertex 11.3147 -4 20
      vertex 6.76719 -3.7561 20
    endloop
  endfacet
  facet normal 0 0 1
    outer loop
      vertex 10.4146 -6.01287 20
      vertex 11.1103 -4.60206 20
      vertex 5.87257 -5.04143 20
    endloop
  endfacet
  facet normal 0 -0 1
    outer loop
      vertex 3.40852 -6.94875 20
      vertex 1.93998 -7.49264 20
      vertex 8.50349 -8.50349 20
    endloop
  endfacet
  facet normal 0 0 1
    outer loop
      vertex 9.54067 -7.32081 20
      vertex 10.4146 -6.01287 20
      vertex 4.73752 -6.12038 20
    endloop
  endfacet
  facet normal 0 -0 1
    outer loop
      vertex 1.93998 -7.49264 20
      vertex 0.39201 -7.72978 20
      vertex 7.32081 -9.54067 20
    endloop
  endfacet
  facet normal 0 0 1
    outer loop
      vertex 8.50349 -8.50349 20
      vertex 9.54067 -7.32081 20
      vertex 3.40852 -6.94875 20
    endloop
  endfacet
  facet normal 0 0 1
    outer loop
      vertex 7.32081 -9.54067 20
      vertex 8.50349 -8.50349 20
      vertex 1.93998 -7.49264 20
    endloop
  endfacet
  facet normal 0 0 1
    outer loop
      vertex 6.01287 -10.4146 20
      vertex 7.32081 -9.54067 20
      vertex 0.39201 -7.72978 20
    endloop
  endfacet
  facet normal 0 0 1
    outer loop
      vertex -2.68804 -7.25793 20
      vertex -4.09403 -6.56826 20
      vertex -11.3147 -4 20
    endloop
  endfacet
  facet normal 0 0 1
    outer loop
      vertex 6.01287 -10.4146 20
      vertex 0.39201 -7.72978 20
      vertex -1.17201 -7.65046 20
    endloop
  endfacet
  facet normal 0 0 1
    outer loop
      vertex 4.60205 -11.1103 20
      vertex -2.68804 -7.25793 20
      vertex -11.3147 -4 20
    endloop
  endfacet
  facet normal 0 0 1
    outer loop
      vertex 4.60205 -11.1103 20
      vertex 6.01287 -10.4146 20
      vertex -2.68804 -7.25793 20
    endloop
  endfacet
  facet normal -0 -0 1
    outer loop
      vertex -1.17201 -7.65046 20
      vertex -2.68804 -7.25793 20
      vertex 6.01287 -10.4146 20
    endloop
  endfacet
  facet normal 0 0 1
    outer loop
      vertex -5.3324 -5.60969 20
      vertex -22 -1 20
      vertex -11.3147 -4 20
    endloop
  endfacet
  facet normal 0 0 1
    outer loop
      vertex -6.35247 -4.42145 20
      vertex -7.11247 -3.0522 20
      vertex -22 -1 20
    endloop
  endfacet
  facet normal 0 0 1
    outer loop
      vertex -7.58128 -1.55799 20
      vertex -7.63802 -1 20
      vertex -22 -1 20
    endloop
  endfacet
  facet normal 0 0 1
    outer loop
      vertex 7.38476 -2.31698 20
      vertex 11.3147 -4 20
      vertex 22 -4 20
    endloop
  endfacet
  facet normal 0 -0 1
    outer loop
      vertex 7.38476 -2.31698 20
      vertex 6.76719 -3.7561 20
      vertex 11.3147 -4 20
    endloop
  endfacet
  facet normal 0 0 1
    outer loop
      vertex -5.3324 -5.60969 20
      vertex -6.35247 -4.42145 20
      vertex -22 -1 20
    endloop
  endfacet
  facet normal -0.94693 -0.32144 -0
    outer loop
      vertex -11.3147 -4 0
      vertex -11.1103 -4.60205 0
      vertex -11.3147 -4 20
    endloop
  endfacet
  facet normal -0.94693 -0.32144 0
    outer loop
      vertex -11.3147 -4 20
      vertex -11.1103 -4.60205 0
      vertex -11.1103 -4.60205 20
    endloop
  endfacet
  facet normal 1 0 -0
    outer loop
      vertex -18.6 -4 14.9238
      vertex -18.6 -4 13.0762
      vertex -18.6 -1 13.0762
    endloop
  endfacet
  facet normal 1 0 0
    outer loop
      vertex -18.6 -1 14.9238
      vertex -18.6 -4 14.9238
      vertex -18.6 -1 13.0762
    endloop
  endfacet
  facet normal 0.5 0 0.866025
    outer loop
      vertex -18.6 -4 13.0762
      vertex -17 -4 12.1525
      vertex -17 -1 12.1525
    endloop
  endfacet
  facet normal 0.5 -0 0.866025
    outer loop
      vertex -18.6 -1 13.0762
      vertex -18.6 -4 13.0762
      vertex -17 -1 12.1525
    endloop
  endfacet
  facet normal -0.5 -2.77547e-16 0.866025
    outer loop
      vertex -17 -4 12.1525
      vertex -15.4 -4 13.0762
      vertex -15.4 -1 13.0762
    endloop
  endfacet
  facet normal -0.5 0 0.866025
    outer loop
      vertex -17 -1 12.1525
      vertex -17 -4 12.1525
      vertex -15.4 -1 13.0762
    endloop
  endfacet
  facet normal -1 -5.92119e-16 -0
    outer loop
      vertex -15.4 -4 13.0762
      vertex -15.4 -4 14.9238
      vertex -15.4 -1 13.0762
    endloop
  endfacet
  facet normal -1 -5.92119e-16 -0
    outer loop
      vertex -15.4 -1 13.0762
      vertex -15.4 -4 14.9238
      vertex -15.4 -1 14.9238
    endloop
  endfacet
  facet normal -0.5 -2.9606e-16 -0.866025
    outer loop
      vertex -15.4 -4 14.9238
      vertex -17 -4 15.8475
      vertex -15.4 -1 14.9238
    endloop
  endfacet
  facet normal -0.5 0 -0.866025
    outer loop
      vertex -15.4 -1 14.9238
      vertex -17 -4 15.8475
      vertex -17 -1 15.8475
    endloop
  endfacet
  facet normal 0.5 0 -0.866025
    outer loop
      vertex -17 -4 15.8475
      vertex -18.6 -4 14.9238
      vertex -17 -1 15.8475
    endloop
  endfacet
  facet normal 0.5 0 -0.866025
    outer loop
      vertex -17 -1 15.8475
      vertex -18.6 -4 14.9238
      vertex -18.6 -1 14.9238
    endloop
  endfacet
  facet normal -0.896873 -0.442289 -0
    outer loop
      vertex -11.1103 -4.60205 0
      vertex -10.4146 -6.01287 0
      vertex -11.1103 -4.60205 20
    endloop
  endfacet
  facet normal -0.896873 -0.442289 0
    outer loop
      vertex -11.1103 -4.60205 20
      vertex -10.4146 -6.01287 0
      vertex -10.4146 -6.01287 20
    endloop
  endfacet
  facet normal -0.83147 -0.55557 -0
    outer loop
      vertex -10.4146 -6.01287 0
      vertex -9.54067 -7.32081 0
      vertex -10.4146 -6.01287 20
    endloop
  endfacet
  facet normal -0.83147 -0.55557 0
    outer loop
      vertex -10.4146 -6.01287 20
      vertex -9.54067 -7.32081 0
      vertex -9.54067 -7.32081 20
    endloop
  endfacet
  facet normal -0.75184 -0.659346 -0
    outer loop
      vertex -9.54067 -7.32081 0
      vertex -8.50349 -8.50349 0
      vertex -9.54067 -7.32081 20
    endloop
  endfacet
  facet normal -0.75184 -0.659346 0
    outer loop
      vertex -9.54067 -7.32081 20
      vertex -8.50349 -8.50349 0
      vertex -8.50349 -8.50349 20
    endloop
  endfacet
  facet normal -0.659346 -0.75184 0
    outer loop
      vertex -8.50349 -8.50349 20
      vertex -8.50349 -8.50349 0
      vertex -7.32081 -9.54067 0
    endloop
  endfacet
  facet normal -0.659346 -0.75184 0
    outer loop
      vertex -7.32081 -9.54067 20
      vertex -8.50349 -8.50349 20
      vertex -7.32081 -9.54067 0
    endloop
  endfacet
  facet normal -0.55557 -0.83147 0
    outer loop
      vertex -7.32081 -9.54067 20
      vertex -7.32081 -9.54067 0
      vertex -6.01287 -10.4146 0
    endloop
  endfacet
  facet normal -0.55557 -0.83147 0
    outer loop
      vertex -6.01287 -10.4146 20
      vertex -7.32081 -9.54067 20
      vertex -6.01287 -10.4146 0
    endloop
  endfacet
  facet normal -0.442289 -0.896873 0
    outer loop
      vertex -6.01287 -10.4146 20
      vertex -6.01287 -10.4146 0
      vertex -4.60206 -11.1103 0
    endloop
  endfacet
  facet normal -0.442289 -0.896873 0
    outer loop
      vertex -4.60206 -11.1103 20
      vertex -6.01287 -10.4146 20
      vertex -4.60206 -11.1103 0
    endloop
  endfacet
  facet normal -0.32144 -0.94693 0
    outer loop
      vertex -4.60206 -11.1103 20
      vertex -4.60206 -11.1103 0
      vertex -3.11249 -11.616 0
    endloop
  endfacet
  facet normal -0.32144 -0.94693 0
    outer loop
      vertex -3.11249 -11.616 20
      vertex -4.60206 -11.1103 20
      vertex -3.11249 -11.616 0
    endloop
  endfacet
  facet normal -0.19509 -0.980785 0
    outer loop
      vertex -3.11249 -11.616 20
      vertex -3.11249 -11.616 0
      vertex -1.56968 -11.9229 0
    endloop
  endfacet
  facet normal -0.19509 -0.980785 0
    outer loop
      vertex -1.56968 -11.9229 20
      vertex -3.11249 -11.616 20
      vertex -1.56968 -11.9229 0
    endloop
  endfacet
  facet normal -0.0654032 -0.997859 0
    outer loop
      vertex -1.56968 -11.9229 20
      vertex -1.56968 -11.9229 0
      vertex -1.47268e-15 -12.0257 0
    endloop
  endfacet
  facet normal -0.0654032 -0.997859 0
    outer loop
      vertex -1.47268e-15 -12.0257 20
      vertex -1.56968 -11.9229 20
      vertex -1.47268e-15 -12.0257 0
    endloop
  endfacet
  facet normal 0.0654032 -0.997859 0
    outer loop
      vertex -1.47268e-15 -12.0257 20
      vertex -1.47268e-15 -12.0257 0
      vertex 1.56967 -11.9229 0
    endloop
  endfacet
  facet normal 0.0654032 -0.997859 0
    outer loop
      vertex 1.56967 -11.9229 20
      vertex -1.47268e-15 -12.0257 20
      vertex 1.56967 -11.9229 0
    endloop
  endfacet
  facet normal 0.19509 -0.980785 0
    outer loop
      vertex 1.56967 -11.9229 20
      vertex 1.56967 -11.9229 0
      vertex 3.11249 -11.616 0
    endloop
  endfacet
  facet normal 0.19509 -0.980785 0
    outer loop
      vertex 3.11249 -11.616 20
      vertex 1.56967 -11.9229 20
      vertex 3.11249 -11.616 0
    endloop
  endfacet
  facet normal 0.32144 -0.94693 0
    outer loop
      vertex 3.11249 -11.616 20
      vertex 3.11249 -11.616 0
      vertex 4.60205 -11.1103 0
    endloop
  endfacet
  facet normal 0.32144 -0.94693 0
    outer loop
      vertex 4.60205 -11.1103 20
      vertex 3.11249 -11.616 20
      vertex 4.60205 -11.1103 0
    endloop
  endfacet
  facet normal 0.442289 -0.896873 0
    outer loop
      vertex 4.60205 -11.1103 20
      vertex 4.60205 -11.1103 0
      vertex 6.01287 -10.4146 0
    endloop
  endfacet
  facet normal 0.442289 -0.896873 0
    outer loop
      vertex 6.01287 -10.4146 20
      vertex 4.60205 -11.1103 20
      vertex 6.01287 -10.4146 0
    endloop
  endfacet
  facet normal 0.55557 -0.83147 0
    outer loop
      vertex 6.01287 -10.4146 20
      vertex 6.01287 -10.4146 0
      vertex 7.32081 -9.54067 0
    endloop
  endfacet
  facet normal 0.55557 -0.83147 0
    outer loop
      vertex 7.32081 -9.54067 20
      vertex 6.01287 -10.4146 20
      vertex 7.32081 -9.54067 0
    endloop
  endfacet
  facet normal 0.659346 -0.75184 0
    outer loop
      vertex 7.32081 -9.54067 20
      vertex 7.32081 -9.54067 0
      vertex 8.50349 -8.50349 0
    endloop
  endfacet
  facet normal 0.659346 -0.75184 0
    outer loop
      vertex 8.50349 -8.50349 20
      vertex 7.32081 -9.54067 20
      vertex 8.50349 -8.50349 0
    endloop
  endfacet
  facet normal 0.75184 -0.659346 0
    outer loop
      vertex 8.50349 -8.50349 20
      vertex 8.50349 -8.50349 0
      vertex 9.54067 -7.32081 0
    endloop
  endfacet
  facet normal 0.75184 -0.659346 0
    outer loop
      vertex 9.54067 -7.32081 20
      vertex 8.50349 -8.50349 20
      vertex 9.54067 -7.32081 0
    endloop
  endfacet
  facet normal 0.83147 -0.55557 0
    outer loop
      vertex 9.54067 -7.32081 20
      vertex 9.54067 -7.32081 0
      vertex 10.4146 -6.01287 0
    endloop
  endfacet
  facet normal 0.83147 -0.55557 0
    outer loop
      vertex 10.4146 -6.01287 20
      vertex 9.54067 -7.32081 20
      vertex 10.4146 -6.01287 0
    endloop
  endfacet
  facet normal 0.896873 -0.442289 0
    outer loop
      vertex 10.4146 -6.01287 20
      vertex 10.4146 -6.01287 0
      vertex 11.1103 -4.60206 0
    endloop
  endfacet
  facet normal 0.896873 -0.442289 0
    outer loop
      vertex 11.1103 -4.60206 20
      vertex 10.4146 -6.01287 20
      vertex 11.1103 -4.60206 0
    endloop
  endfacet
  facet normal 0.94693 -0.32144 0
    outer loop
      vertex 11.1103 -4.60206 20
      vertex 11.1103 -4.60206 0
      vertex 11.3147 -4 0
    endloop
  endfacet
  facet normal 0.94693 -0.32144 0
    outer loop
      vertex 11.3147 -4 20
      vertex 11.1103 -4.60206 20
      vertex 11.3147 -4 0
    endloop
  endfacet
  facet normal 0 -1 0
    outer loop
      vertex 11.3147 -4 20
      vertex 11.3147 -4 0
      vertex 22 -4 0
    endloop
  endfacet
  facet normal 0 -1 0
    outer loop
      vertex 15.4 -4 13.0762
      vertex 11.3147 -4 20
      vertex 22 -4 0
    endloop
  endfacet
  facet normal 0 -1 0
    outer loop
      vertex 17 -4 12.1525
      vertex 15.4 -4 13.0762
      vertex 22 -4 0
    endloop
  endfacet
  facet normal 0 -1 0
    outer loop
      vertex 15.4 -4 14.9238
      vertex 11.3147 -4 20
      vertex 15.4 -4 13.0762
    endloop
  endfacet
  facet normal 0 -1 0
    outer loop
      vertex 22 -4 20
      vertex 11.3147 -4 20
      vertex 15.4 -4 14.9238
    endloop
  endfacet
  facet normal 0 -1 0
    outer loop
      vertex 22 -4 20
      vertex 15.4 -4 14.9238
      vertex 17 -4 15.8475
    endloop
  endfacet
  facet normal 0 -1 0
    outer loop
      vertex 22 -4 20
      vertex 18.6 -4 14.9238
      vertex 22 -4 0
    endloop
  endfacet
  facet normal 0 -1 0
    outer loop
      vertex 18.6 -4 14.9238
      vertex 18.6 -4 13.0762
      vertex 22 -4 0
    endloop
  endfacet
  facet normal 0 -1 0
    outer loop
      vertex 18.6 -4 13.0762
      vertex 17 -4 12.1525
      vertex 22 -4 0
    endloop
  endfacet
  facet normal -0 -1 0
    outer loop
      vertex 17 -4 15.8475
      vertex 18.6 -4 14.9238
      vertex 22 -4 20
    endloop
  endfacet
  facet normal 1 0 -0
    outer loop
      vertex 22 -1 8.1
      vertex 22 -4 0
      vertex 22 4 0
    endloop
  endfacet
  facet normal 1 0 0
    outer loop
      vertex 22 -1 8.1
      vertex 22 -1 20
      vertex 22 -4 20
    endloop
  endfacet
  facet normal 1 0 0
    outer loop
      vertex 22 4 20
      vertex 22 1 20
      vertex 22 4 0
    endloop
  endfacet
  facet normal 1 0 -0
    outer loop
      vertex 22 1 20
      vertex 22 1 8.1
      vertex 22 4 0
    endloop
  endfacet
  facet normal 1 0 -0
    outer loop
      vertex 22 -4 20
      vertex 22 -4 0
      vertex 22 -1 8.1
    endloop
  endfacet
  facet normal 1 0 -0
    outer loop
      vertex 22 1 8.1
      vertex 22 -1 8.1
      vertex 22 4 0
    endloop
  endfacet
  facet normal 0 1 0
    outer loop
      vertex 11.3147 4 0
      vertex 11.3147 4 20
      vertex 22 4 0
    endloop
  endfacet
  facet normal 0 1 0
    outer loop
      vertex 15.4 4 14.9238
      vertex 11.3147 4 20
      vertex 22 4 20
    endloop
  endfacet
  facet normal 0 1 0
    outer loop
      vertex 15.4 4 13.0762
      vertex 11.3147 4 20
      vertex 15.4 4 14.9238
    endloop
  endfacet
  facet normal -0 1 0
    outer loop
      vertex 17 4 15.8475
      vertex 15.4 4 14.9238
      vertex 22 4 20
    endloop
  endfacet
  facet normal 0 1 0
    outer loop
      vertex 22 4 0
      vertex 11.3147 4 20
      vertex 15.4 4 13.0762
    endloop
  endfacet
  facet normal 0 1 -0
    outer loop
      vertex 18.6 4 14.9238
      vertex 22 4 20
      vertex 18.6 4 13.0762
    endloop
  endfacet
  facet normal 0 1 0
    outer loop
      vertex 22 4 0
      vertex 17 4 12.1525
      vertex 18.6 4 13.0762
    endloop
  endfacet
  facet normal 0 1 0
    outer loop
      vertex 22 4 0
      vertex 18.6 4 13.0762
      vertex 22 4 20
    endloop
  endfacet
  facet normal 0 1 0
    outer loop
      vertex 18.6 4 14.9238
      vertex 17 4 15.8475
      vertex 22 4 20
    endloop
  endfacet
  facet normal -0 1 -0
    outer loop
      vertex 17 4 12.1525
      vertex 22 4 0
      vertex 15.4 4 13.0762
    endloop
  endfacet
  facet normal 0.94693 0.32144 0
    outer loop
      vertex 11.3147 4 0
      vertex 11.1103 4.60205 0
      vertex 11.1103 4.60205 20
    endloop
  endfacet
  facet normal 0.94693 0.32144 -0
    outer loop
      vertex 11.3147 4 20
      vertex 11.3147 4 0
      vertex 11.1103 4.60205 20
    endloop
  endfacet
  facet normal 0.896873 0.442289 0
    outer loop
      vertex 11.1103 4.60205 0
      vertex 10.4146 6.01287 0
      vertex 10.4146 6.01287 20
    endloop
  endfacet
  facet normal 0.896873 0.442289 -0
    outer loop
      vertex 11.1103 4.60205 20
      vertex 11.1103 4.60205 0
      vertex 10.4146 6.01287 20
    endloop
  endfacet
  facet normal 0.83147 0.55557 0
    outer loop
      vertex 10.4146 6.01287 0
      vertex 9.54067 7.32081 0
      vertex 9.54067 7.32081 20
    endloop
  endfacet
  facet normal 0.83147 0.55557 -0
    outer loop
      vertex 10.4146 6.01287 20
      vertex 10.4146 6.01287 0
      vertex 9.54067 7.32081 20
    endloop
  endfacet
  facet normal 0.75184 0.659346 0
    outer loop
      vertex 9.54067 7.32081 0
      vertex 8.50349 8.50349 0
      vertex 8.50349 8.50349 20
    endloop
  endfacet
  facet normal 0.75184 0.659346 -0
    outer loop
      vertex 9.54067 7.32081 20
      vertex 9.54067 7.32081 0
      vertex 8.50349 8.50349 20
    endloop
  endfacet
  facet normal 0.659346 0.75184 0
    outer loop
      vertex 7.32081 9.54067 0
      vertex 7.32081 9.54067 20
      vertex 8.50349 8.50349 0
    endloop
  endfacet
  facet normal 0.659346 0.75184 0
    outer loop
      vertex 8.50349 8.50349 0
      vertex 7.32081 9.54067 20
      vertex 8.50349 8.50349 20
    endloop
  endfacet
  facet normal 0.55557 0.83147 0
    outer loop
      vertex 6.01287 10.4146 0
      vertex 6.01287 10.4146 20
      vertex 7.32081 9.54067 0
    endloop
  endfacet
  facet normal 0.55557 0.83147 0
    outer loop
      vertex 7.32081 9.54067 0
      vertex 6.01287 10.4146 20
      vertex 7.32081 9.54067 20
    endloop
  endfacet
  facet normal 0.442289 0.896873 0
    outer loop
      vertex 4.60206 11.1103 0
      vertex 4.60206 11.1103 20
      vertex 6.01287 10.4146 0
    endloop
  endfacet
  facet normal 0.442289 0.896873 0
    outer loop
      vertex 6.01287 10.4146 0
      vertex 4.60206 11.1103 20
      vertex 6.01287 10.4146 20
    endloop
  endfacet
  facet normal 0.32144 0.94693 0
    outer loop
      vertex 3.11249 11.616 0
      vertex 3.11249 11.616 20
      vertex 4.60206 11.1103 0
    endloop
  endfacet
  facet normal 0.32144 0.94693 0
    outer loop
      vertex 4.60206 11.1103 0
      vertex 3.11249 11.616 20
      vertex 4.60206 11.1103 20
    endloop
  endfacet
  facet normal 0.19509 0.980785 0
    outer loop
      vertex 1.56968 11.9229 0
      vertex 1.56968 11.9229 20
      vertex 3.11249 11.616 0
    endloop
  endfacet
  facet normal 0.19509 0.980785 0
    outer loop
      vertex 3.11249 11.616 0
      vertex 1.56968 11.9229 20
      vertex 3.11249 11.616 20
    endloop
  endfacet
  facet normal 0.0654032 0.997859 0
    outer loop
      vertex 1.47268e-15 12.0257 0
      vertex 1.47268e-15 12.0257 20
      vertex 1.56968 11.9229 0
    endloop
  endfacet
  facet normal 0.0654032 0.997859 0
    outer loop
      vertex 1.56968 11.9229 0
      vertex 1.47268e-15 12.0257 20
      vertex 1.56968 11.9229 20
    endloop
  endfacet
  facet normal -0.0654032 0.997859 0
    outer loop
      vertex -1.56967 11.9229 0
      vertex -1.56967 11.9229 20
      vertex 1.47268e-15 12.0257 0
    endloop
  endfacet
  facet normal -0.0654032 0.997859 0
    outer loop
      vertex 1.47268e-15 12.0257 0
      vertex -1.56967 11.9229 20
      vertex 1.47268e-15 12.0257 20
    endloop
  endfacet
  facet normal -0.19509 0.980785 0
    outer loop
      vertex -3.11249 11.616 0
      vertex -3.11249 11.616 20
      vertex -1.56967 11.9229 0
    endloop
  endfacet
  facet normal -0.19509 0.980785 0
    outer loop
      vertex -1.56967 11.9229 0
      vertex -3.11249 11.616 20
      vertex -1.56967 11.9229 20
    endloop
  endfacet
  facet normal -0.32144 0.94693 0
    outer loop
      vertex -4.60205 11.1103 0
      vertex -4.60205 11.1103 20
      vertex -3.11249 11.616 0
    endloop
  endfacet
  facet normal -0.32144 0.94693 0
    outer loop
      vertex -3.11249 11.616 0
      vertex -4.60205 11.1103 20
      vertex -3.11249 11.616 20
    endloop
  endfacet
  facet normal -0.442289 0.896873 0
    outer loop
      vertex -6.01287 10.4146 0
      vertex -6.01287 10.4146 20
      vertex -4.60205 11.1103 0
    endloop
  endfacet
  facet normal -0.442289 0.896873 0
    outer loop
      vertex -4.60205 11.1103 0
      vertex -6.01287 10.4146 20
      vertex -4.60205 11.1103 20
    endloop
  endfacet
  facet normal -0.55557 0.83147 0
    outer loop
      vertex -7.32081 9.54067 0
      vertex -7.32081 9.54067 20
      vertex -6.01287 10.4146 0
    endloop
  endfacet
  facet normal -0.55557 0.83147 0
    outer loop
      vertex -6.01287 10.4146 0
      vertex -7.32081 9.54067 20
      vertex -6.01287 10.4146 20
    endloop
  endfacet
  facet normal -0.659346 0.75184 0
    outer loop
      vertex -8.50349 8.50349 0
      vertex -8.50349 8.50349 20
      vertex -7.32081 9.54067 0
    endloop
  endfacet
  facet normal -0.659346 0.75184 0
    outer loop
      vertex -7.32081 9.54067 0
      vertex -8.50349 8.50349 20
      vertex -7.32081 9.54067 20
    endloop
  endfacet
  facet normal -0.75184 0.659346 0
    outer loop
      vertex -9.54067 7.32081 0
      vertex -9.54067 7.32081 20
      vertex -8.50349 8.50349 0
    endloop
  endfacet
  facet normal -0.75184 0.659346 0
    outer loop
      vertex -8.50349 8.50349 0
      vertex -9.54067 7.32081 20
      vertex -8.50349 8.50349 20
    endloop
  endfacet
  facet normal -0.83147 0.55557 0
    outer loop
      vertex -10.4146 6.01287 0
      vertex -10.4146 6.01287 20
      vertex -9.54067 7.32081 0
    endloop
  endfacet
  facet normal -0.83147 0.55557 0
    outer loop
      vertex -9.54067 7.32081 0
      vertex -10.4146 6.01287 20
      vertex -9.54067 7.32081 20
    endloop
  endfacet
  facet normal -0.896873 0.442289 0
    outer loop
      vertex -11.1103 4.60206 0
      vertex -11.1103 4.60206 20
      vertex -10.4146 6.01287 0
    endloop
  endfacet
  facet normal -0.896873 0.442289 0
    outer loop
      vertex -10.4146 6.01287 0
      vertex -11.1103 4.60206 20
      vertex -10.4146 6.01287 20
    endloop
  endfacet
  facet normal -0.94693 0.32144 0
    outer loop
      vertex -11.3147 4 0
      vertex -11.3147 4 20
      vertex -11.1103 4.60206 0
    endloop
  endfacet
  facet normal -0.94693 0.32144 0
    outer loop
      vertex -11.1103 4.60206 0
      vertex -11.3147 4 20
      vertex -11.1103 4.60206 20
    endloop
  endfacet
  facet normal 0.951057 -0.309017 0
    outer loop
      vertex -2.16916 1.57599 0
      vertex -2.16916 1.57599 4
      vertex -2.68123 3.28345e-16 4
    endloop
  endfacet
  facet normal 0.951057 -0.309017 0
    outer loop
      vertex -2.68123 3.28345e-16 0
      vertex -2.16916 1.57599 0
      vertex -2.68123 3.28345e-16 4
    endloop
  endfacet
  facet normal 0.951057 0.309017 0
    outer loop
      vertex -2.68123 3.28345e-16 4
      vertex -2.16916 -1.57599 4
      vertex -2.16916 -1.57599 0
    endloop
  endfacet
  facet normal 0.951057 0.309017 0
    outer loop
      vertex -2.68123 3.28345e-16 0
      vertex -2.68123 3.28345e-16 4
      vertex -2.16916 -1.57599 0
    endloop
  endfacet
  facet normal 0.587785 -0.809017 0
    outer loop
      vertex -0.828545 2.55 0
      vertex -0.828545 2.55 4
      vertex -2.16916 1.57599 4
    endloop
  endfacet
  facet normal 0.587785 -0.809017 0
    outer loop
      vertex -2.16916 1.57599 0
      vertex -0.828545 2.55 0
      vertex -2.16916 1.57599 4
    endloop
  endfacet
  facet normal -2.67993e-16 -1 -0
    outer loop
      vertex 0.828545 2.55 0
      vertex 0.828545 2.55 4
      vertex -0.828545 2.55 4
    endloop
  endfacet
  facet normal -2.67993e-16 -1 -0
    outer loop
      vertex -0.828545 2.55 0
      vertex 0.828545 2.55 0
      vertex -0.828545 2.55 4
    endloop
  endfacet
  facet normal -0.587785 -0.809017 -0
    outer loop
      vertex 2.16916 1.57599 0
      vertex 2.16916 1.57599 4
      vertex 0.828545 2.55 4
    endloop
  endfacet
  facet normal -0.587785 -0.809017 -0
    outer loop
      vertex 0.828545 2.55 0
      vertex 2.16916 1.57599 0
      vertex 0.828545 2.55 4
    endloop
  endfacet
  facet normal -0.951057 -0.309017 0
    outer loop
      vertex 2.68123 -3.28345e-16 4
      vertex 2.16916 1.57599 4
      vertex 2.68123 -3.28345e-16 0
    endloop
  endfacet
  facet normal -0.951057 -0.309017 0
    outer loop
      vertex 2.68123 -3.28345e-16 0
      vertex 2.16916 1.57599 4
      vertex 2.16916 1.57599 0
    endloop
  endfacet
  facet normal -0.951057 0.309017 0
    outer loop
      vertex 2.68123 -3.28345e-16 4
      vertex 2.68123 -3.28345e-16 0
      vertex 2.16916 -1.57599 4
    endloop
  endfacet
  facet normal -0.951057 0.309017 0
    outer loop
      vertex 2.16916 -1.57599 4
      vertex 2.68123 -3.28345e-16 0
      vertex 2.16916 -1.57599 0
    endloop
  endfacet
  facet normal -0.587785 0.809017 0
    outer loop
      vertex 2.16916 -1.57599 4
      vertex 2.16916 -1.57599 0
      vertex 0.828545 -2.55 4
    endloop
  endfacet
  facet normal -0.587785 0.809017 0
    outer loop
      vertex 0.828545 -2.55 4
      vertex 2.16916 -1.57599 0
      vertex 0.828545 -2.55 0
    endloop
  endfacet
  facet normal 2.67993e-16 1 -0
    outer loop
      vertex 0.828545 -2.55 4
      vertex 0.828545 -2.55 0
      vertex -0.828545 -2.55 4
    endloop
  endfacet
  facet normal 2.67993e-16 1 -0
    outer loop
      vertex -0.828545 -2.55 4
      vertex 0.828545 -2.55 0
      vertex -0.828545 -2.55 0
    endloop
  endfacet
  facet normal 0.587785 0.809017 -0
    outer loop
      vertex -0.828545 -2.55 4
      vertex -0.828545 -2.55 0
      vertex -2.16916 -1.57599 4
    endloop
  endfacet
  facet normal 0.587785 0.809017 -0
    outer loop
      vertex -2.16916 -1.57599 4
      vertex -0.828545 -2.55 0
      vertex -2.16916 -1.57599 0
    endloop
  endfacet
  facet normal 0.5 5.92119e-16 -0.866025
    outer loop
      vertex -17 1 15.8475
      vertex -18.6 1 14.9238
      vertex -17 4 15.8475
    endloop
  endfacet
  facet normal 0.5 0 -0.866025
    outer loop
      vertex -17 4 15.8475
      vertex -18.6 1 14.9238
      vertex -18.6 4 14.9238
    endloop
  endfacet
  facet normal 1 0 -0
    outer loop
      vertex -18.6 1 14.9238
      vertex -18.6 1 13.0762
      vertex -18.6 4 13.0762
    endloop
  endfacet
  facet normal 1 0 0
    outer loop
      vertex -18.6 4 14.9238
      vertex -18.6 1 14.9238
      vertex -18.6 4 13.0762
    endloop
  endfacet
  facet normal -0.5 -0 -0.866025
    outer loop
      vertex -15.4 1 14.9238
      vertex -17 1 15.8475
      vertex -15.4 4 14.9238
    endloop
  endfacet
  facet normal -0.5 -5.55115e-16 -0.866025
    outer loop
      vertex -15.4 4 14.9238
      vertex -17 1 15.8475
      vertex -17 4 15.8475
    endloop
  endfacet
  facet normal -1 -0 -0
    outer loop
      vertex -15.4 1 13.0762
      vertex -15.4 1 14.9238
      vertex -15.4 4 13.0762
    endloop
  endfacet
  facet normal -1 0 0
    outer loop
      vertex -15.4 4 13.0762
      vertex -15.4 1 14.9238
      vertex -15.4 4 14.9238
    endloop
  endfacet
  facet normal -0.5 0 0.866025
    outer loop
      vertex -17 1 12.1525
      vertex -15.4 1 13.0762
      vertex -15.4 4 13.0762
    endloop
  endfacet
  facet normal -0.5 0 0.866025
    outer loop
      vertex -17 4 12.1525
      vertex -17 1 12.1525
      vertex -15.4 4 13.0762
    endloop
  endfacet
  facet normal 0.5 0 0.866025
    outer loop
      vertex -18.6 1 13.0762
      vertex -17 1 12.1525
      vertex -17 4 12.1525
    endloop
  endfacet
  facet normal 0.5 -0 0.866025
    outer loop
      vertex -18.6 4 13.0762
      vertex -18.6 1 13.0762
      vertex -17 4 12.1525
    endloop
  endfacet
  facet normal 0 -1 -0
    outer loop
      vertex 15.4 1 14.9238
      vertex 22 1 20
      vertex 7.65541 1 20
    endloop
  endfacet
  facet normal 0 -1 0
    outer loop
      vertex 18.6 1 14.9238
      vertex 18.6 1 13.0762
      vertex 22 1 8.1
    endloop
  endfacet
  facet normal 0 -1 -0
    outer loop
      vertex 17 1 15.8475
      vertex 22 1 20
      vertex 15.4 1 14.9238
    endloop
  endfacet
  facet normal 0 -1 -0
    outer loop
      vertex 18.6 1 14.9238
      vertex 22 1 20
      vertex 17 1 15.8475
    endloop
  endfacet
  facet normal 0 -1 0
    outer loop
      vertex 18.6 1 13.0762
      vertex 17 1 12.1525
      vertex 22 1 8.1
    endloop
  endfacet
  facet normal 0 -1 0
    outer loop
      vertex 22 1 8.1
      vertex 22 1 20
      vertex 18.6 1 14.9238
    endloop
  endfacet
  facet normal -0 -1 0
    outer loop
      vertex 7.65541 1 8.1
      vertex 22 1 8.1
      vertex 17 1 12.1525
    endloop
  endfacet
  facet normal 0 -1 -0
    outer loop
      vertex 7.65541 1 8.1
      vertex 15.4 1 13.0762
      vertex 7.65541 1 20
    endloop
  endfacet
  facet normal 0 -1 0
    outer loop
      vertex 7.65541 1 8.1
      vertex 17 1 12.1525
      vertex 15.4 1 13.0762
    endloop
  endfacet
  facet normal 0 -1 0
    outer loop
      vertex 15.4 1 13.0762
      vertex 15.4 1 14.9238
      vertex 7.65541 1 20
    endloop
  endfacet
  facet normal -0.97953 -0.201298 0
    outer loop
      vertex 7.65541 1 20
      vertex 7.38476 2.31698 20
      vertex 7.65541 1 8.1
    endloop
  endfacet
  facet normal -0.97953 -0.201298 0
    outer loop
      vertex 7.65541 1 8.1
      vertex 7.38476 2.31698 20
      vertex 7.38476 2.31698 8.1
    endloop
  endfacet
  facet normal -0.918958 -0.394356 0
    outer loop
      vertex 7.38476 2.31698 20
      vertex 6.76719 3.7561 20
      vertex 7.38476 2.31698 8.1
    endloop
  endfacet
  facet normal -0.918958 -0.394356 0
    outer loop
      vertex 7.38476 2.31698 8.1
      vertex 6.76719 3.7561 20
      vertex 6.76719 3.7561 8.1
    endloop
  endfacet
  facet normal -0.820764 -0.571268 0
    outer loop
      vertex 6.76719 3.7561 20
      vertex 5.87257 5.04143 20
      vertex 6.76719 3.7561 8.1
    endloop
  endfacet
  facet normal -0.820764 -0.571268 0
    outer loop
      vertex 6.76719 3.7561 8.1
      vertex 5.87257 5.04143 20
      vertex 5.87257 5.04143 8.1
    endloop
  endfacet
  facet normal -0.688967 -0.724793 -0
    outer loop
      vertex 5.87257 5.04143 8.1
      vertex 5.87257 5.04143 20
      vertex 4.73752 6.12037 20
    endloop
  endfacet
  facet normal -0.688967 -0.724793 -0
    outer loop
      vertex 4.73752 6.12037 8.1
      vertex 5.87257 5.04143 8.1
      vertex 4.73752 6.12037 20
    endloop
  endfacet
  facet normal -0.528964 -0.848644 -0
    outer loop
      vertex 4.73752 6.12037 8.1
      vertex 4.73752 6.12037 20
      vertex 3.40852 6.94875 20
    endloop
  endfacet
  facet normal -0.528964 -0.848644 -0
    outer loop
      vertex 3.40852 6.94875 8.1
      vertex 4.73752 6.12037 8.1
      vertex 3.40852 6.94875 20
    endloop
  endfacet
  facet normal -0.347305 -0.937752 -0
    outer loop
      vertex 3.40852 6.94875 8.1
      vertex 3.40852 6.94875 20
      vertex 1.93998 7.49264 20
    endloop
  endfacet
  facet normal -0.347305 -0.937752 -0
    outer loop
      vertex 1.93998 7.49264 8.1
      vertex 3.40852 6.94875 8.1
      vertex 1.93998 7.49264 20
    endloop
  endfacet
  facet normal -0.151428 -0.988468 -0
    outer loop
      vertex 1.93998 7.49264 8.1
      vertex 1.93998 7.49264 20
      vertex 0.39201 7.72978 20
    endloop
  endfacet
  facet normal -0.151428 -0.988468 -0
    outer loop
      vertex 0.39201 7.72978 8.1
      vertex 1.93998 7.49264 8.1
      vertex 0.39201 7.72978 20
    endloop
  endfacet
  facet normal 0.0506492 -0.998717 0
    outer loop
      vertex 0.39201 7.72978 8.1
      vertex 0.39201 7.72978 20
      vertex -1.17201 7.65046 20
    endloop
  endfacet
  facet normal 0.0506492 -0.998717 0
    outer loop
      vertex -1.17201 7.65046 8.1
      vertex 0.39201 7.72978 8.1
      vertex -1.17201 7.65046 20
    endloop
  endfacet
  facet normal 0.250652 -0.968077 0
    outer loop
      vertex -1.17201 7.65046 8.1
      vertex -1.17201 7.65046 20
      vertex -2.68804 7.25793 20
    endloop
  endfacet
  facet normal 0.250652 -0.968077 0
    outer loop
      vertex -2.68804 7.25793 8.1
      vertex -1.17201 7.65046 8.1
      vertex -2.68804 7.25793 20
    endloop
  endfacet
  facet normal 0.440395 -0.897804 0
    outer loop
      vertex -2.68804 7.25793 8.1
      vertex -2.68804 7.25793 20
      vertex -4.09403 6.56826 20
    endloop
  endfacet
  facet normal 0.440395 -0.897804 0
    outer loop
      vertex -4.09403 6.56826 8.1
      vertex -2.68804 7.25793 8.1
      vertex -4.09403 6.56826 20
    endloop
  endfacet
  facet normal 0.612106 -0.790776 0
    outer loop
      vertex -4.09403 6.56826 8.1
      vertex -4.09403 6.56826 20
      vertex -5.3324 5.60969 20
    endloop
  endfacet
  facet normal 0.612106 -0.790776 0
    outer loop
      vertex -5.3324 5.60969 8.1
      vertex -4.09403 6.56826 8.1
      vertex -5.3324 5.60969 20
    endloop
  endfacet
  facet normal 0.758758 -0.651372 0
    outer loop
      vertex -5.3324 5.60969 8.1
      vertex -5.3324 5.60969 20
      vertex -6.35247 4.42145 20
    endloop
  endfacet
  facet normal 0.758758 -0.651372 0
    outer loop
      vertex -6.35247 4.42145 8.1
      vertex -5.3324 5.60969 8.1
      vertex -6.35247 4.42145 20
    endloop
  endfacet
  facet normal 0.874347 -0.485302 0
    outer loop
      vertex -6.35247 4.42145 8.1
      vertex -6.35247 4.42145 20
      vertex -7.11247 3.0522 20
    endloop
  endfacet
  facet normal 0.874347 -0.485302 0
    outer loop
      vertex -7.11247 3.0522 8.1
      vertex -6.35247 4.42145 8.1
      vertex -7.11247 3.0522 20
    endloop
  endfacet
  facet normal 0.954139 -0.299363 0
    outer loop
      vertex -7.11247 3.0522 8.1
      vertex -7.11247 3.0522 20
      vertex -7.58128 1.55799 20
    endloop
  endfacet
  facet normal 0.954139 -0.299363 0
    outer loop
      vertex -7.58128 1.55799 8.1
      vertex -7.11247 3.0522 8.1
      vertex -7.58128 1.55799 20
    endloop
  endfacet
  facet normal 0.994869 -0.101168 0
    outer loop
      vertex -7.58128 1.55799 8.1
      vertex -7.58128 1.55799 20
      vertex -7.63802 1 20
    endloop
  endfacet
  facet normal 0.994869 -0.101168 0
    outer loop
      vertex -7.63802 1 8.1
      vertex -7.58128 1.55799 8.1
      vertex -7.63802 1 20
    endloop
  endfacet
  facet normal 0.994869 0.101168 0
    outer loop
      vertex -7.63802 -1 20
      vertex -7.58128 -1.55799 20
      vertex -7.58128 -1.55799 8.1
    endloop
  endfacet
  facet normal 0.994869 0.101168 0
    outer loop
      vertex -7.63802 -1 8.1
      vertex -7.63802 -1 20
      vertex -7.58128 -1.55799 8.1
    endloop
  endfacet
  facet normal 0 1 -0
    outer loop
      vertex 15.4 -1 13.0762
      vertex 22 -1 8.1
      vertex 7.65541 -1 8.1
    endloop
  endfacet
  facet normal -0 1 -0
    outer loop
      vertex 17 -1 12.1525
      vertex 22 -1 8.1
      vertex 15.4 -1 13.0762
    endloop
  endfacet
  facet normal 0 1 -0
    outer loop
      vertex 7.65541 -1 20
      vertex 15.4 -1 13.0762
      vertex 7.65541 -1 8.1
    endloop
  endfacet
  facet normal 0 1 -0
    outer loop
      vertex 18.6 -1 13.0762
      vertex 22 -1 8.1
      vertex 17 -1 12.1525
    endloop
  endfacet
  facet normal 0 1 0
    outer loop
      vertex 22 -1 20
      vertex 22 -1 8.1
      vertex 18.6 -1 13.0762
    endloop
  endfacet
  facet normal 0 1 0
    outer loop
      vertex 22 -1 20
      vertex 18.6 -1 13.0762
      vertex 18.6 -1 14.9238
    endloop
  endfacet
  facet normal 0 1 0
    outer loop
      vertex 22 -1 20
      vertex 18.6 -1 14.9238
      vertex 17 -1 15.8475
    endloop
  endfacet
  facet normal 0 1 0
    outer loop
      vertex 22 -1 20
      vertex 17 -1 15.8475
      vertex 7.65541 -1 20
    endloop
  endfacet
  facet normal 0 1 0
    outer loop
      vertex 15.4 -1 14.9238
      vertex 7.65541 -1 20
      vertex 17 -1 15.8475
    endloop
  endfacet
  facet normal 0 1 0
    outer loop
      vertex 15.4 -1 13.0762
      vertex 7.65541 -1 20
      vertex 15.4 -1 14.9238
    endloop
  endfacet
  facet normal -0.97953 0.201298 0
    outer loop
      vertex 7.65541 -1 20
      vertex 7.65541 -1 8.1
      vertex 7.38476 -2.31698 20
    endloop
  endfacet
  facet normal -0.97953 0.201298 0
    outer loop
      vertex 7.38476 -2.31698 20
      vertex 7.65541 -1 8.1
      vertex 7.38476 -2.31698 8.1
    endloop
  endfacet
  facet normal -0.918958 0.394356 0
    outer loop
      vertex 7.38476 -2.31698 20
      vertex 7.38476 -2.31698 8.1
      vertex 6.76719 -3.7561 20
    endloop
  endfacet
  facet normal -0.918958 0.394356 0
    outer loop
      vertex 6.76719 -3.7561 20
      vertex 7.38476 -2.31698 8.1
      vertex 6.76719 -3.7561 8.1
    endloop
  endfacet
  facet normal -0.820764 0.571268 0
    outer loop
      vertex 6.76719 -3.7561 20
      vertex 6.76719 -3.7561 8.1
      vertex 5.87257 -5.04143 20
    endloop
  endfacet
  facet normal -0.820764 0.571268 0
    outer loop
      vertex 5.87257 -5.04143 20
      vertex 6.76719 -3.7561 8.1
      vertex 5.87257 -5.04143 8.1
    endloop
  endfacet
  facet normal -0.688967 0.724793 0
    outer loop
      vertex 5.87257 -5.04143 20
      vertex 5.87257 -5.04143 8.1
      vertex 4.73752 -6.12038 20
    endloop
  endfacet
  facet normal -0.688967 0.724793 0
    outer loop
      vertex 4.73752 -6.12038 20
      vertex 5.87257 -5.04143 8.1
      vertex 4.73752 -6.12038 8.1
    endloop
  endfacet
  facet normal -0.528964 0.848644 0
    outer loop
      vertex 4.73752 -6.12038 20
      vertex 4.73752 -6.12038 8.1
      vertex 3.40852 -6.94875 20
    endloop
  endfacet
  facet normal -0.528964 0.848644 0
    outer loop
      vertex 3.40852 -6.94875 20
      vertex 4.73752 -6.12038 8.1
      vertex 3.40852 -6.94875 8.1
    endloop
  endfacet
  facet normal -0.347305 0.937752 0
    outer loop
      vertex 3.40852 -6.94875 20
      vertex 3.40852 -6.94875 8.1
      vertex 1.93998 -7.49264 20
    endloop
  endfacet
  facet normal -0.347305 0.937752 0
    outer loop
      vertex 1.93998 -7.49264 20
      vertex 3.40852 -6.94875 8.1
      vertex 1.93998 -7.49264 8.1
    endloop
  endfacet
  facet normal -0.151428 0.988468 0
    outer loop
      vertex 1.93998 -7.49264 20
      vertex 1.93998 -7.49264 8.1
      vertex 0.39201 -7.72978 20
    endloop
  endfacet
  facet normal -0.151428 0.988468 0
    outer loop
      vertex 0.39201 -7.72978 20
      vertex 1.93998 -7.49264 8.1
      vertex 0.39201 -7.72978 8.1
    endloop
  endfacet
  facet normal 0.0506492 0.998717 -0
    outer loop
      vertex 0.39201 -7.72978 20
      vertex 0.39201 -7.72978 8.1
      vertex -1.17201 -7.65046 20
    endloop
  endfacet
  facet normal 0.0506492 0.998717 -0
    outer loop
      vertex -1.17201 -7.65046 20
      vertex 0.39201 -7.72978 8.1
      vertex -1.17201 -7.65046 8.1
    endloop
  endfacet
  facet normal 0.250652 0.968077 -0
    outer loop
      vertex -1.17201 -7.65046 20
      vertex -1.17201 -7.65046 8.1
      vertex -2.68804 -7.25793 20
    endloop
  endfacet
  facet normal 0.250652 0.968077 -0
    outer loop
      vertex -2.68804 -7.25793 20
      vertex -1.17201 -7.65046 8.1
      vertex -2.68804 -7.25793 8.1
    endloop
  endfacet
  facet normal 0.440395 0.897804 -0
    outer loop
      vertex -2.68804 -7.25793 20
      vertex -2.68804 -7.25793 8.1
      vertex -4.09403 -6.56826 20
    endloop
  endfacet
  facet normal 0.440395 0.897804 -0
    outer loop
      vertex -4.09403 -6.56826 20
      vertex -2.68804 -7.25793 8.1
      vertex -4.09403 -6.56826 8.1
    endloop
  endfacet
  facet normal 0.612106 0.790776 -0
    outer loop
      vertex -4.09403 -6.56826 20
      vertex -4.09403 -6.56826 8.1
      vertex -5.3324 -5.60969 20
    endloop
  endfacet
  facet normal 0.612106 0.790776 -0
    outer loop
      vertex -5.3324 -5.60969 20
      vertex -4.09403 -6.56826 8.1
      vertex -5.3324 -5.60969 8.1
    endloop
  endfacet
  facet normal 0.758758 0.651372 0
    outer loop
      vertex -6.35247 -4.42145 20
      vertex -5.3324 -5.60969 20
      vertex -5.3324 -5.60969 8.1
    endloop
  endfacet
  facet normal 0.758758 0.651372 0
    outer loop
      vertex -6.35247 -4.42145 8.1
      vertex -6.35247 -4.42145 20
      vertex -5.3324 -5.60969 8.1
    endloop
  endfacet
  facet normal 0.874347 0.485302 0
    outer loop
      vertex -7.11247 -3.0522 20
      vertex -6.35247 -4.42145 20
      vertex -6.35247 -4.42145 8.1
    endloop
  endfacet
  facet normal 0.874347 0.485302 0
    outer loop
      vertex -7.11247 -3.0522 8.1
      vertex -7.11247 -3.0522 20
      vertex -6.35247 -4.42145 8.1
    endloop
  endfacet
  facet normal 0.954139 0.299363 0
    outer loop
      vertex -7.58128 -1.55799 20
      vertex -7.11247 -3.0522 20
      vertex -7.11247 -3.0522 8.1
    endloop
  endfacet
  facet normal 0.954139 0.299363 0
    outer loop
      vertex -7.58128 -1.55799 8.1
      vertex -7.58128 -1.55799 20
      vertex -7.11247 -3.0522 8.1
    endloop
  endfacet
  facet normal 0.866025 -0.5 0
    outer loop
      vertex -2.3344 4.0433 4
      vertex -2.3344 4.0433 8.1
      vertex -4.6688 0 8.1
    endloop
  endfacet
  facet normal 0.866025 -0.5 0
    outer loop
      vertex -4.6688 0 4
      vertex -2.3344 4.0433 4
      vertex -4.6688 0 8.1
    endloop
  endfacet
  facet normal 0.866025 0.5 0
    outer loop
      vertex -4.6688 0 8.1
      vertex -2.3344 -4.0433 8.1
      vertex -2.3344 -4.0433 4
    endloop
  endfacet
  facet normal 0.866025 0.5 0
    outer loop
      vertex -4.6688 0 4
      vertex -4.6688 0 8.1
      vertex -2.3344 -4.0433 4
    endloop
  endfacet
  facet normal 0 1 0
    outer loop
      vertex 2.3344 -4.0433 8.1
      vertex 2.3344 -4.0433 4
      vertex -2.3344 -4.0433 8.1
    endloop
  endfacet
  facet normal 0 1 -0
    outer loop
      vertex -2.3344 -4.0433 8.1
      vertex 2.3344 -4.0433 4
      vertex -2.3344 -4.0433 4
    endloop
  endfacet
  facet normal -0.866025 0.5 0
    outer loop
      vertex 4.6688 0 8.1
      vertex 4.6688 0 4
      vertex 2.3344 -4.0433 8.1
    endloop
  endfacet
  facet normal -0.866025 0.5 0
    outer loop
      vertex 2.3344 -4.0433 8.1
      vertex 4.6688 0 4
      vertex 2.3344 -4.0433 4
    endloop
  endfacet
  facet normal -0.866025 -0.5 0
    outer loop
      vertex 4.6688 0 8.1
      vertex 2.3344 4.0433 8.1
      vertex 4.6688 0 4
    endloop
  endfacet
  facet normal -0.866025 -0.5 0
    outer loop
      vertex 4.6688 0 4
      vertex 2.3344 4.0433 8.1
      vertex 2.3344 4.0433 4
    endloop
  endfacet
  facet normal 0 -1 0
    outer loop
      vertex 2.3344 4.0433 4
      vertex 2.3344 4.0433 8.1
      vertex -2.3344 4.0433 8.1
    endloop
  endfacet
  facet normal -0 -1 -0
    outer loop
      vertex -2.3344 4.0433 4
      vertex 2.3344 4.0433 4
      vertex -2.3344 4.0433 8.1
    endloop
  endfacet
  facet normal 0.5 0 0.866025
    outer loop
      vertex 15.4 -4 13.0762
      vertex 17 -4 12.1525
      vertex 17 -1 12.1525
    endloop
  endfacet
  facet normal 0.5 -0 0.866025
    outer loop
      vertex 15.4 -1 13.0762
      vertex 15.4 -4 13.0762
      vertex 17 -1 12.1525
    endloop
  endfacet
  facet normal 1 0 -0
    outer loop
      vertex 15.4 -4 14.9238
      vertex 15.4 -4 13.0762
      vertex 15.4 -1 13.0762
    endloop
  endfacet
  facet normal 1 0 0
    outer loop
      vertex 15.4 -1 14.9238
      vertex 15.4 -4 14.9238
      vertex 15.4 -1 13.0762
    endloop
  endfacet
  facet normal -0.5 -5.55115e-16 0.866025
    outer loop
      vertex 17 -4 12.1525
      vertex 18.6 -4 13.0762
      vertex 18.6 -1 13.0762
    endloop
  endfacet
  facet normal -0.5 0 0.866025
    outer loop
      vertex 17 -1 12.1525
      vertex 17 -4 12.1525
      vertex 18.6 -1 13.0762
    endloop
  endfacet
  facet normal -1 -1.18424e-15 -0
    outer loop
      vertex 18.6 -4 13.0762
      vertex 18.6 -4 14.9238
      vertex 18.6 -1 13.0762
    endloop
  endfacet
  facet normal -1 -1.18424e-15 -0
    outer loop
      vertex 18.6 -1 13.0762
      vertex 18.6 -4 14.9238
      vertex 18.6 -1 14.9238
    endloop
  endfacet
  facet normal -0.5 -5.92119e-16 -0.866025
    outer loop
      vertex 18.6 -4 14.9238
      vertex 17 -4 15.8475
      vertex 18.6 -1 14.9238
    endloop
  endfacet
  facet normal -0.5 0 -0.866025
    outer loop
      vertex 18.6 -1 14.9238
      vertex 17 -4 15.8475
      vertex 17 -1 15.8475
    endloop
  endfacet
  facet normal 0.5 0 -0.866025
    outer loop
      vertex 17 -4 15.8475
      vertex 15.4 -4 14.9238
      vertex 17 -1 15.8475
    endloop
  endfacet
  facet normal 0.5 0 -0.866025
    outer loop
      vertex 17 -1 15.8475
      vertex 15.4 -4 14.9238
      vertex 15.4 -1 14.9238
    endloop
  endfacet
  facet normal 0.5 5.92119e-16 -0.866025
    outer loop
      vertex 17 1 15.8475
      vertex 15.4 1 14.9238
      vertex 17 4 15.8475
    endloop
  endfacet
  facet normal 0.5 3.33069e-16 -0.866025
    outer loop
      vertex 17 4 15.8475
      vertex 15.4 1 14.9238
      vertex 15.4 4 14.9238
    endloop
  endfacet
  facet normal 1 5.92119e-16 -0
    outer loop
      vertex 15.4 1 14.9238
      vertex 15.4 1 13.0762
      vertex 15.4 4 13.0762
    endloop
  endfacet
  facet normal 1 5.92119e-16 -0
    outer loop
      vertex 15.4 4 14.9238
      vertex 15.4 1 14.9238
      vertex 15.4 4 13.0762
    endloop
  endfacet
  facet normal -0.5 -0 -0.866025
    outer loop
      vertex 18.6 1 14.9238
      vertex 17 1 15.8475
      vertex 18.6 4 14.9238
    endloop
  endfacet
  facet normal -0.5 -5.55115e-16 -0.866025
    outer loop
      vertex 18.6 4 14.9238
      vertex 17 1 15.8475
      vertex 17 4 15.8475
    endloop
  endfacet
  facet normal -1 -0 -0
    outer loop
      vertex 18.6 1 13.0762
      vertex 18.6 1 14.9238
      vertex 18.6 4 13.0762
    endloop
  endfacet
  facet normal -1 0 0
    outer loop
      vertex 18.6 4 13.0762
      vertex 18.6 1 14.9238
      vertex 18.6 4 14.9238
    endloop
  endfacet
  facet normal -0.5 0 0.866025
    outer loop
      vertex 17 1 12.1525
      vertex 18.6 1 13.0762
      vertex 18.6 4 13.0762
    endloop
  endfacet
  facet normal -0.5 0 0.866025
    outer loop
      vertex 17 4 12.1525
      vertex 17 1 12.1525
      vertex 18.6 4 13.0762
    endloop
  endfacet
  facet normal 0.5 0 0.866025
    outer loop
      vertex 15.4 1 13.0762
      vertex 17 1 12.1525
      vertex 17 4 12.1525
    endloop
  endfacet
  facet normal 0.5 2.9606e-16 0.866025
    outer loop
      vertex 15.4 4 13.0762
      vertex 15.4 1 13.0762
      vertex 17 4 12.1525
    endloop
  endfacet
  facet normal 0 0 1
    outer loop
      vertex 2.16916 -1.57599 4
      vertex 2.3344 -4.0433 4
      vertex 4.6688 0 4
    endloop
  endfacet
  facet normal 0 -0 1
    outer loop
      vertex 2.68123 -3.28345e-16 4
      vertex 2.16916 -1.57599 4
      vertex 4.6688 0 4
    endloop
  endfacet
  facet normal 0 0 1
    outer loop
      vertex -4.6688 0 4
      vertex -2.68123 3.28345e-16 4
      vertex -2.3344 4.0433 4
    endloop
  endfacet
  facet normal 0 0 1
    outer loop
      vertex -4.6688 0 4
      vertex -2.3344 -4.0433 4
      vertex -2.68123 3.28345e-16 4
    endloop
  endfacet
  facet normal 0 0 1
    outer loop
      vertex 0.828545 2.55 4
      vertex 2.16916 1.57599 4
      vertex 2.3344 4.0433 4
    endloop
  endfacet
  facet normal 0 0 1
    outer loop
      vertex -0.828545 2.55 4
      vertex 0.828545 2.55 4
      vertex 2.3344 4.0433 4
    endloop
  endfacet
  facet normal 0 0 1
    outer loop
      vertex -2.3344 4.0433 4
      vertex -0.828545 2.55 4
      vertex 2.3344 4.0433 4
    endloop
  endfacet
  facet normal 0 0 1
    outer loop
      vertex -2.3344 4.0433 4
      vertex -2.16916 1.57599 4
      vertex -0.828545 2.55 4
    endloop
  endfacet
  facet normal 0 -0 1
    outer loop
      vertex 2.3344 4.0433 4
      vertex 2.16916 1.57599 4
      vertex 4.6688 0 4
    endloop
  endfacet
  facet normal 0 0 1
    outer loop
      vertex 2.16916 1.57599 4
      vertex 2.68123 -3.28345e-16 4
      vertex 4.6688 0 4
    endloop
  endfacet
  facet normal 0 0 1
    outer loop
      vertex 0.828545 -2.55 4
      vertex 2.3344 -4.0433 4
      vertex 2.16916 -1.57599 4
    endloop
  endfacet
  facet normal -0 0 1
    outer loop
      vertex -0.828545 -2.55 4
      vertex -2.16916 -1.57599 4
      vertex -2.3344 -4.0433 4
    endloop
  endfacet
  facet normal 0 0 1
    outer loop
      vertex -2.3344 -4.0433 4
      vertex 2.3344 -4.0433 4
      vertex 0.828545 -2.55 4
    endloop
  endfacet
  facet normal -0 0 1
    outer loop
      vertex 0.828545 -2.55 4
      vertex -0.828545 -2.55 4
      vertex -2.3344 -4.0433 4
    endloop
  endfacet
  facet normal 0 0 1
    outer loop
      vertex -2.68123 3.28345e-16 4
      vertex -2.16916 1.57599 4
      vertex -2.3344 4.0433 4
    endloop
  endfacet
  facet normal -0 0 1
    outer loop
      vertex -2.16916 -1.57599 4
      vertex -2.68123 3.28345e-16 4
      vertex -2.3344 -4.0433 4
    endloop
  endfacet
endsolid OpenSCAD_Model
