solid OpenSCAD_Model
  facet normal -1 0 0
    outer loop
      vertex -22 1 20
      vertex -22 4 0
      vertex -22 1 8.1
    endloop
  endfacet
  facet normal -1 0 -0
    outer loop
      vertex -22 -4 0
      vertex -22 -4 20
      vertex -22 -1 8.1
    endloop
  endfacet
  facet normal -1 -0 0
    outer loop
      vertex -22 -4 0
      vertex -22 -1 8.1
      vertex -22 4 0
    endloop
  endfacet
  facet normal -1 0 0
    outer loop
      vertex -22 4 0
      vertex -22 1 20
      vertex -22 4 20
    endloop
  endfacet
  facet normal -1 0 0
    outer loop
      vertex -22 -1 8.1
      vertex -22 -4 20
      vertex -22 -1 20
    endloop
  endfacet
  facet normal -1 0 0
    outer loop
      vertex -22 1 8.1
      vertex -22 4 0
      vertex -22 -1 8.1
    endloop
  endfacet
  facet normal 0 -1 0
    outer loop
      vertex -18.6 -4 13.0762
      vertex -22 -4 0
      vertex -11.3147 -4 0
    endloop
  endfacet
  facet normal 0 -1 0
    outer loop
      vertex -15.4 -4 13.0762
      vertex -17 -4 12.1525
      vertex -11.3147 -4 0
    endloop
  endfacet
  facet normal 0 -1 0
    outer loop
      vertex -22 -4 20
      vertex -22 -4 0
      vertex -18.6 -4 13.0762
    endloop
  endfacet
  facet normal 0 -1 0
    outer loop
      vertex -11.3147 -4 20
      vertex -22 -4 20
      vertex -18.6 -4 14.9238
    endloop
  endfacet
  facet normal 0 -1 0
    outer loop
      vertex -11.3147 -4 20
      vertex -18.6 -4 14.9238
      vertex -17 -4 15.8475
    endloop
  endfacet
  facet normal 0 -1 0
    outer loop
      vertex -11.3147 -4 20
      vertex -15.4 -4 14.9238
      vertex -11.3147 -4 0
    endloop
  endfacet
  facet normal 0 -1 0
    outer loop
      vertex -11.3147 -4 20
      vertex -17 -4 15.8475
      vertex -15.4 -4 14.9238
    endloop
  endfacet
  facet normal 0 -1 0
    outer loop
      vertex -15.4 -4 14.9238
      vertex -15.4 -4 13.0762
      vertex -11.3147 -4 0
    endloop
  endfacet
  facet normal 0 -1 0
    outer loop
      vertex -18.6 -4 13.0762
      vertex -18.6 -4 14.9238
      vertex -22 -4 20
    endloop
  endfacet
  facet normal 0 -1 0
    outer loop
      vertex -17 -4 12.1525
      vertex -18.6 -4 13.0762
      vertex -11.3147 -4 0
    endloop
  endfacet
  facet normal -0 -0 -1
    outer loop
      vertex -22 -4 0
      vertex -22 4 0
      vertex -11.3147 -4 0
    endloop
  endfacet
  facet normal 0 0 -1
    outer loop
      vertex -11.3147 -4 0
      vertex -22 4 0
      vertex -11.3147 4 0
    endloop
  endfacet
  facet normal 0 -0 -1
    outer loop
      vertex -11.3147 -4 0
      vertex -11.3147 4 0
      vertex -11.1103 4.60206 0
    endloop
  endfacet
  facet normal 0 0 -1
    outer loop
      vertex -11.3147 -4 0
      vertex -11.1103 4.60206 0
      vertex -10.4146 6.01287 0
    endloop
  endfacet
  facet normal 0 0 -1
    outer loop
      vertex -11.3147 -4 0
      vertex -10.4146 6.01287 0
      vertex -9.54067 7.32081 0
    endloop
  endfacet
  facet normal 0 0 -1
    outer loop
      vertex -11.3147 -4 0
      vertex -9.54067 7.32081 0
      vertex -8.50349 8.50349 0
    endloop
  endfacet
  facet normal 0 0 -1
    outer loop
      vertex -11.3147 -4 0
      vertex -8.50349 8.50349 0
      vertex -7.32081 9.54067 0
    endloop
  endfacet
  facet normal 0 0 -1
    outer loop
      vertex -11.3147 -4 0
      vertex -7.32081 9.54067 0
      vertex -6.01287 10.4146 0
    endloop
  endfacet
  facet normal 0 0 -1
    outer loop
      vertex -11.3147 -4 0
      vertex -6.01287 10.4146 0
      vertex -4.60205 11.1103 0
    endloop
  endfacet
  facet normal 0 0 -1
    outer loop
      vertex -11.3147 -4 0
      vertex -4.60205 11.1103 0
      vertex -3.11249 11.616 0
    endloop
  endfacet
  facet normal 0 0 -1
    outer loop
      vertex -11.3147 -4 0
      vertex -3.11249 11.616 0
      vertex -1.56967 11.9229 0
    endloop
  endfacet
  facet normal 0 0 -1
    outer loop
      vertex -11.3147 -4 0
      vertex -1.56967 11.9229 0
      vertex 1.47268e-15 12.0257 0
    endloop
  endfacet
  facet normal 0 0 -1
    outer loop
      vertex -11.3147 -4 0
      vertex 1.47268e-15 12.0257 0
      vertex 1.56968 11.9229 0
    endloop
  endfacet
  facet normal 0 0 -1
    outer loop
      vertex -11.3147 -4 0
      vertex 1.56968 11.9229 0
      vertex 3.11249 11.616 0
    endloop
  endfacet
  facet normal 0 0 -1
    outer loop
      vertex -11.3147 -4 0
      vertex 3.11249 11.616 0
      vertex 4.60206 11.1103 0
    endloop
  endfacet
  facet normal 0 0 -1
    outer loop
      vertex -11.3147 -4 0
      vertex 4.60206 11.1103 0
      vertex 6.01287 10.4146 0
    endloop
  endfacet
  facet normal 0 0 -1
    outer loop
      vertex -11.3147 -4 0
      vertex 6.01287 10.4146 0
      vertex 7.32081 9.54067 0
    endloop
  endfacet
  facet normal 0 0 -1
    outer loop
      vertex -11.3147 -4 0
      vertex 7.32081 9.54067 0
      vertex 8.50349 8.50349 0
    endloop
  endfacet
  facet normal 0 0 -1
    outer loop
      vertex -0.828545 2.55 0
      vertex 8.50349 8.50349 0
      vertex 9.54067 7.32081 0
    endloop
  endfacet
  facet normal 0 0 -1
    outer loop
      vertex 2.16916 1.57599 0
      vertex 10.4146 6.01287 0
      vertex 11.1103 4.60205 0
    endloop
  endfacet
  facet normal 0 0 -1
    outer loop
      vertex 2.68123 -3.28345e-16 0
      vertex 11.3147 4 0
      vertex 22 4 0
    endloop
  endfacet
  facet normal -0 0 -1
    outer loop
      vertex 11.3147 -4 0
      vertex 22 4 0
      vertex 22 -4 0
    endloop
  endfacet
  facet normal -0 0 -1
    outer loop
      vertex 0.828545 -2.55 0
      vertex 22 4 0
      vertex 11.3147 -4 0
    endloop
  endfacet
  facet normal 0 0 -1
    outer loop
      vertex -6.01287 -10.4146 0
      vertex -3.11249 -11.616 0
      vertex -4.60206 -11.1103 0
    endloop
  endfacet
  facet normal 0 0 -1
    outer loop
      vertex 11.3147 -4 0
      vertex 11.1103 -4.60206 0
      vertex -11.3147 -4 0
    endloop
  endfacet
  facet normal 0 -0 -1
    outer loop
      vertex -2.68123 3.28345e-16 0
      vertex -11.3147 -4 0
      vertex -2.16916 1.57599 0
    endloop
  endfacet
  facet normal 0 0 -1
    outer loop
      vertex -11.1103 -4.60205 0
      vertex 10.4146 -6.01287 0
      vertex 9.54067 -7.32081 0
    endloop
  endfacet
  facet normal 0 0 -1
    outer loop
      vertex -11.1103 -4.60205 0
      vertex 9.54067 -7.32081 0
      vertex 8.50349 -8.50349 0
    endloop
  endfacet
  facet normal 0 0 -1
    outer loop
      vertex -10.4146 -6.01287 0
      vertex 7.32081 -9.54067 0
      vertex 6.01287 -10.4146 0
    endloop
  endfacet
  facet normal 0 0 -1
    outer loop
      vertex -10.4146 -6.01287 0
      vertex 6.01287 -10.4146 0
      vertex -9.54067 -7.32081 0
    endloop
  endfacet
  facet normal 0 0 -1
    outer loop
      vertex -9.54067 -7.32081 0
      vertex 4.60205 -11.1103 0
      vertex 3.11249 -11.616 0
    endloop
  endfacet
  facet normal 0 0 -1
    outer loop
      vertex -9.54067 -7.32081 0
      vertex 3.11249 -11.616 0
      vertex -8.50349 -8.50349 0
    endloop
  endfacet
  facet normal 0 0 -1
    outer loop
      vertex -8.50349 -8.50349 0
      vertex 1.56967 -11.9229 0
      vertex -1.47268e-15 -12.0257 0
    endloop
  endfacet
  facet normal 0 0 -1
    outer loop
      vertex -7.32081 -9.54067 0
      vertex -1.56968 -11.9229 0
      vertex -6.01287 -10.4146 0
    endloop
  endfacet
  facet normal 0 0 -1
    outer loop
      vertex -1.56968 -11.9229 0
      vertex -3.11249 -11.616 0
      vertex -6.01287 -10.4146 0
    endloop
  endfacet
  facet normal 0 0 -1
    outer loop
      vertex -8.50349 -8.50349 0
      vertex -1.47268e-15 -12.0257 0
      vertex -7.32081 -9.54067 0
    endloop
  endfacet
  facet normal 0 0 -1
    outer loop
      vertex -1.47268e-15 -12.0257 0
      vertex -1.56968 -11.9229 0
      vertex -7.32081 -9.54067 0
    endloop
  endfacet
  facet normal 0 0 -1
    outer loop
      vertex 3.11249 -11.616 0
      vertex 1.56967 -11.9229 0
      vertex -8.50349 -8.50349 0
    endloop
  endfacet
  facet normal 0 0 -1
    outer loop
      vertex 6.01287 -10.4146 0
      vertex 4.60205 -11.1103 0
      vertex -9.54067 -7.32081 0
    endloop
  endfacet
  facet normal 0 0 -1
    outer loop
      vertex -11.1103 -4.60205 0
      vertex 8.50349 -8.50349 0
      vertex -10.4146 -6.01287 0
    endloop
  endfacet
  facet normal 0 0 -1
    outer loop
      vertex 8.50349 -8.50349 0
      vertex 7.32081 -9.54067 0
      vertex -10.4146 -6.01287 0
    endloop
  endfacet
  facet normal 0 0 -1
    outer loop
      vertex 0.828545 2.55 0
      vertex 9.54067 7.32081 0
      vertex 10.4146 6.01287 0
    endloop
  endfacet
  facet normal 0 0 -1
    outer loop
      vertex 11.1103 -4.60206 0
      vertex 10.4146 -6.01287 0
      vertex -11.1103 -4.60205 0
    endloop
  endfacet
  facet normal -0 0 -1
    outer loop
      vertex -0.828545 2.55 0
      vertex 9.54067 7.32081 0
      vertex 0.828545 2.55 0
    endloop
  endfacet
  facet normal 0 0 -1
    outer loop
      vertex -0.828545 -2.55 0
      vertex -11.3147 -4 0
      vertex -2.16916 -1.57599 0
    endloop
  endfacet
  facet normal -0 0 -1
    outer loop
      vertex 2.68123 -3.28345e-16 0
      vertex 22 4 0
      vertex 2.16916 -1.57599 0
    endloop
  endfacet
  facet normal -0 0 -1
    outer loop
      vertex -11.3147 -4 0
      vertex -0.828545 -2.55 0
      vertex 11.3147 -4 0
    endloop
  endfacet
  facet normal 0 0 -1
    outer loop
      vertex -0.828545 -2.55 0
      vertex 0.828545 -2.55 0
      vertex 11.3147 -4 0
    endloop
  endfacet
  facet normal -0 0 -1
    outer loop
      vertex 2.16916 -1.57599 0
      vertex 22 4 0
      vertex 0.828545 -2.55 0
    endloop
  endfacet
  facet normal -0 0 -1
    outer loop
      vertex 2.16916 1.57599 0
      vertex 11.3147 4 0
      vertex 2.68123 -3.28345e-16 0
    endloop
  endfacet
  facet normal 0 0 -1
    outer loop
      vertex -2.16916 -1.57599 0
      vertex -11.3147 -4 0
      vertex -2.68123 3.28345e-16 0
    endloop
  endfacet
  facet normal 0 0 -1
    outer loop
      vertex -11.3147 -4 0
      vertex 8.50349 8.50349 0
      vertex -0.828545 2.55 0
    endloop
  endfacet
  facet normal 0 0 -1
    outer loop
      vertex -11.3147 -4 0
      vertex -0.828545 2.55 0
      vertex -2.16916 1.57599 0
    endloop
  endfacet
  facet normal 0 0 -1
    outer loop
      vertex 2.16916 1.57599 0
      vertex 11.1103 4.60205 0
      vertex 11.3147 4 0
    endloop
  endfacet
  facet normal 0 0 -1
    outer loop
      vertex -11.3147 -4 0
      vertex 11.1103 -4.60206 0
      vertex -11.1103 -4.60205 0
    endloop
  endfacet
  facet normal -0 0 -1
    outer loop
      vertex 0.828545 2.55 0
      vertex 10.4146 6.01287 0
      vertex 2.16916 1.57599 0
    endloop
  endfacet
  facet normal -0 1 -0
    outer loop
      vertex -17 4 12.1525
      vertex -11.3147 4 0
      vertex -18.6 4 13.0762
    endloop
  endfacet
  facet normal 0 1 0
    outer loop
      vertex -18.6 4 14.9238
      vertex -22 4 20
      vertex -11.3147 4 20
    endloop
  endfacet
  facet normal -0 1 0
    outer loop
      vertex -17 4 15.8475
      vertex -18.6 4 14.9238
      vertex -11.3147 4 20
    endloop
  endfacet
  facet normal 0 1 0
    outer loop
      vertex -22 4 0
      vertex -22 4 20
      vertex -18.6 4 13.0762
    endloop
  endfacet
  facet normal 0 1 0
    outer loop
      vertex -22 4 0
      vertex -18.6 4 13.0762
      vertex -11.3147 4 0
    endloop
  endfacet
  facet normal 0 1 -0
    outer loop
      vertex -15.4 4 14.9238
      vertex -11.3147 4 20
      vertex -15.4 4 13.0762
    endloop
  endfacet
  facet normal 0 1 0
    outer loop
      vertex -11.3147 4 0
      vertex -17 4 12.1525
      vertex -15.4 4 13.0762
    endloop
  endfacet
  facet normal 0 1 0
    outer loop
      vertex -11.3147 4 0
      vertex -15.4 4 13.0762
      vertex -11.3147 4 20
    endloop
  endfacet
  facet normal 0 1 0
    outer loop
      vertex -15.4 4 14.9238
      vertex -17 4 15.8475
      vertex -11.3147 4 20
    endloop
  endfacet
  facet normal 0 1 0
    outer loop
      vertex -18.6 4 13.0762
      vertex -22 4 20
      vertex -18.6 4 14.9238
    endloop
  endfacet
  facet normal 0 -0 1
    outer loop
      vertex -22 4 20
      vertex -22 1 20
      vertex -7.53676 1 20
    endloop
  endfacet
  facet normal -0 0 1
    outer loop
      vertex -6.98119 3.10823 20
      vertex -22 4 20
      vertex -7.47487 1.58883 20
    endloop
  endfacet
  facet normal -0 0 1
    outer loop
      vertex -7.47487 1.58883 20
      vertex -22 4 20
      vertex -7.53676 1 20
    endloop
  endfacet
  facet normal 0 -0 1
    outer loop
      vertex -11.3147 4 20
      vertex -22 4 20
      vertex -6.98119 3.10823 20
    endloop
  endfacet
  facet normal 0 -0 1
    outer loop
      vertex -11.1103 4.60206 20
      vertex -11.3147 4 20
      vertex -6.1824 4.49177 20
    endloop
  endfacet
  facet normal 0 0 1
    outer loop
      vertex 8.50349 8.50349 20
      vertex -0.798792 7.6 20
      vertex 0.798792 7.6 20
    endloop
  endfacet
  facet normal 0 -0 1
    outer loop
      vertex -4.60205 11.1103 20
      vertex -6.01287 10.4146 20
      vertex -3.11249 11.616 20
    endloop
  endfacet
  facet normal 0 0 1
    outer loop
      vertex 2.36147 7.26784 20
      vertex 10.4146 6.01287 20
      vertex 0.798792 7.6 20
    endloop
  endfacet
  facet normal 0 0 1
    outer loop
      vertex 11.3147 4 20
      vertex 3.82093 6.61805 20
      vertex 5.1134 5.67901 20
    endloop
  endfacet
  facet normal 0 0 1
    outer loop
      vertex 22 1 20
      vertex 5.1134 5.67901 20
      vertex 6.1824 4.49177 20
    endloop
  endfacet
  facet normal 0 0 1
    outer loop
      vertex 22 1 20
      vertex 6.1824 4.49177 20
      vertex 6.98119 3.10823 20
    endloop
  endfacet
  facet normal 0 0 1
    outer loop
      vertex 22 1 20
      vertex 6.98119 3.10823 20
      vertex 7.47487 1.58883 20
    endloop
  endfacet
  facet normal -0 0 1
    outer loop
      vertex 22 1 20
      vertex 7.47487 1.58883 20
      vertex 7.53676 1 20
    endloop
  endfacet
  facet normal 0 0 1
    outer loop
      vertex 11.1103 4.60205 20
      vertex 10.4146 6.01287 20
      vertex 2.36147 7.26784 20
    endloop
  endfacet
  facet normal 0 0 1
    outer loop
      vertex 22 1 20
      vertex 11.3147 4 20
      vertex 5.1134 5.67901 20
    endloop
  endfacet
  facet normal 0 0 1
    outer loop
      vertex -10.4146 6.01287 20
      vertex -5.1134 5.67901 20
      vertex -3.82093 6.61805 20
    endloop
  endfacet
  facet normal 0 -0 1
    outer loop
      vertex -7.32081 9.54067 20
      vertex -8.50349 8.50349 20
      vertex 1.56968 11.9229 20
    endloop
  endfacet
  facet normal -0 -0 1
    outer loop
      vertex 9.54067 7.32081 20
      vertex 0.798792 7.6 20
      vertex 10.4146 6.01287 20
    endloop
  endfacet
  facet normal 0 -0 1
    outer loop
      vertex 8.50349 8.50349 20
      vertex 0.798792 7.6 20
      vertex 9.54067 7.32081 20
    endloop
  endfacet
  facet normal 0 -0 1
    outer loop
      vertex 7.32081 9.54067 20
      vertex -0.798792 7.6 20
      vertex 8.50349 8.50349 20
    endloop
  endfacet
  facet normal 0 0 1
    outer loop
      vertex -10.4146 6.01287 20
      vertex -2.36147 7.26784 20
      vertex -0.798792 7.6 20
    endloop
  endfacet
  facet normal 0 0 1
    outer loop
      vertex -10.4146 6.01287 20
      vertex -3.82093 6.61805 20
      vertex -2.36147 7.26784 20
    endloop
  endfacet
  facet normal 0 0 1
    outer loop
      vertex -9.54067 7.32081 20
      vertex 7.32081 9.54067 20
      vertex 6.01287 10.4146 20
    endloop
  endfacet
  facet normal 0 -0 1
    outer loop
      vertex -9.54067 7.32081 20
      vertex -10.4146 6.01287 20
      vertex 7.32081 9.54067 20
    endloop
  endfacet
  facet normal 0 0 1
    outer loop
      vertex -8.50349 8.50349 20
      vertex 4.60206 11.1103 20
      vertex 3.11249 11.616 20
    endloop
  endfacet
  facet normal 0 -0 1
    outer loop
      vertex -8.50349 8.50349 20
      vertex -9.54067 7.32081 20
      vertex 4.60206 11.1103 20
    endloop
  endfacet
  facet normal 0 0 1
    outer loop
      vertex -7.32081 9.54067 20
      vertex 1.56968 11.9229 20
      vertex 1.47268e-15 12.0257 20
    endloop
  endfacet
  facet normal 0 -0 1
    outer loop
      vertex -6.01287 10.4146 20
      vertex -7.32081 9.54067 20
      vertex -1.56967 11.9229 20
    endloop
  endfacet
  facet normal 0 -0 1
    outer loop
      vertex -3.11249 11.616 20
      vertex -6.01287 10.4146 20
      vertex -1.56967 11.9229 20
    endloop
  endfacet
  facet normal 0 -0 1
    outer loop
      vertex -1.56967 11.9229 20
      vertex -7.32081 9.54067 20
      vertex 1.47268e-15 12.0257 20
    endloop
  endfacet
  facet normal 0 -0 1
    outer loop
      vertex 1.56968 11.9229 20
      vertex -8.50349 8.50349 20
      vertex 3.11249 11.616 20
    endloop
  endfacet
  facet normal 0 -0 1
    outer loop
      vertex 4.60206 11.1103 20
      vertex -9.54067 7.32081 20
      vertex 6.01287 10.4146 20
    endloop
  endfacet
  facet normal 0 0 1
    outer loop
      vertex 7.32081 9.54067 20
      vertex -10.4146 6.01287 20
      vertex -0.798792 7.6 20
    endloop
  endfacet
  facet normal 0 0 1
    outer loop
      vertex -5.1134 5.67901 20
      vertex -11.1103 4.60206 20
      vertex -6.1824 4.49177 20
    endloop
  endfacet
  facet normal 0 0 1
    outer loop
      vertex -6.1824 4.49177 20
      vertex -11.3147 4 20
      vertex -6.98119 3.10823 20
    endloop
  endfacet
  facet normal 0 0 1
    outer loop
      vertex 11.3147 4 20
      vertex 2.36147 7.26784 20
      vertex 3.82093 6.61805 20
    endloop
  endfacet
  facet normal 0 0 1
    outer loop
      vertex 11.3147 4 20
      vertex 11.1103 4.60205 20
      vertex 2.36147 7.26784 20
    endloop
  endfacet
  facet normal 0 0 1
    outer loop
      vertex 22 4 20
      vertex 11.3147 4 20
      vertex 22 1 20
    endloop
  endfacet
  facet normal 0 -0 1
    outer loop
      vertex -10.4146 6.01287 20
      vertex -11.1103 4.60206 20
      vertex -5.1134 5.67901 20
    endloop
  endfacet
  facet normal 0 -1 -0
    outer loop
      vertex -15.4 1 14.9238
      vertex -7.53676 1 20
      vertex -22 1 20
    endloop
  endfacet
  facet normal 0 -1 0
    outer loop
      vertex -15.4 1 14.9238
      vertex -15.4 1 13.0762
      vertex -7.53676 1 8.1
    endloop
  endfacet
  facet normal 0 -1 -0
    outer loop
      vertex -22 1 8.1
      vertex -18.6 1 14.9238
      vertex -22 1 20
    endloop
  endfacet
  facet normal 0 -1 -0
    outer loop
      vertex -18.6 1 14.9238
      vertex -17 1 15.8475
      vertex -22 1 20
    endloop
  endfacet
  facet normal 0 -1 0
    outer loop
      vertex -7.53676 1 8.1
      vertex -7.53676 1 20
      vertex -15.4 1 14.9238
    endloop
  endfacet
  facet normal -0 -1 0
    outer loop
      vertex -22 1 8.1
      vertex -7.53676 1 8.1
      vertex -17 1 12.1525
    endloop
  endfacet
  facet normal 0 -1 0
    outer loop
      vertex -22 1 8.1
      vertex -18.6 1 13.0762
      vertex -18.6 1 14.9238
    endloop
  endfacet
  facet normal 0 -1 0
    outer loop
      vertex -22 1 8.1
      vertex -17 1 12.1525
      vertex -18.6 1 13.0762
    endloop
  endfacet
  facet normal 0 -1 0
    outer loop
      vertex -15.4 1 13.0762
      vertex -17 1 12.1525
      vertex -7.53676 1 8.1
    endloop
  endfacet
  facet normal -0 -1 -0
    outer loop
      vertex -17 1 15.8475
      vertex -15.4 1 14.9238
      vertex -22 1 20
    endloop
  endfacet
  facet normal 0 0 1
    outer loop
      vertex 4.6688 0 8.1
      vertex 7.47487 -1.58883 8.1
      vertex 7.53676 -1 8.1
    endloop
  endfacet
  facet normal 0 0 1
    outer loop
      vertex -7.53676 -1 8.1
      vertex -7.47487 -1.58883 8.1
      vertex -6.98119 -3.10823 8.1
    endloop
  endfacet
  facet normal 0 0 1
    outer loop
      vertex -5.1134 -5.67901 8.1
      vertex -7.53676 -1 8.1
      vertex -6.1824 -4.49177 8.1
    endloop
  endfacet
  facet normal 0 0 1
    outer loop
      vertex -6.1824 -4.49177 8.1
      vertex -7.53676 -1 8.1
      vertex -6.98119 -3.10823 8.1
    endloop
  endfacet
  facet normal 0 0 1
    outer loop
      vertex 4.6688 0 8.1
      vertex 6.98119 -3.10823 8.1
      vertex 7.47487 -1.58883 8.1
    endloop
  endfacet
  facet normal 0 0 1
    outer loop
      vertex 4.6688 0 8.1
      vertex 7.53676 -1 8.1
      vertex 22 1 8.1
    endloop
  endfacet
  facet normal 0 0 1
    outer loop
      vertex -3.82093 -6.61805 8.1
      vertex -7.53676 -1 8.1
      vertex -5.1134 -5.67901 8.1
    endloop
  endfacet
  facet normal 0 0 1
    outer loop
      vertex -2.36147 -7.26784 8.1
      vertex -7.53676 -1 8.1
      vertex -3.82093 -6.61805 8.1
    endloop
  endfacet
  facet normal 0 0 1
    outer loop
      vertex -0.798792 -7.6 8.1
      vertex -7.53676 -1 8.1
      vertex -2.36147 -7.26784 8.1
    endloop
  endfacet
  facet normal 0 0 1
    outer loop
      vertex 0.798792 -7.6 8.1
      vertex -7.53676 -1 8.1
      vertex -0.798792 -7.6 8.1
    endloop
  endfacet
  facet normal -0 0 1
    outer loop
      vertex 2.36147 -7.26784 8.1
      vertex -7.53676 -1 8.1
      vertex 0.798792 -7.6 8.1
    endloop
  endfacet
  facet normal -0 -0 1
    outer loop
      vertex -2.3344 -4.0433 8.1
      vertex -7.53676 -1 8.1
      vertex 2.36147 -7.26784 8.1
    endloop
  endfacet
  facet normal -0 0 1
    outer loop
      vertex -4.6688 0 8.1
      vertex -2.3344 4.0433 8.1
      vertex -7.53676 -1 8.1
    endloop
  endfacet
  facet normal 0 0 1
    outer loop
      vertex 22 1 8.1
      vertex 7.53676 -1 8.1
      vertex 22 -1 8.1
    endloop
  endfacet
  facet normal 0 0 1
    outer loop
      vertex -2.3344 4.0433 8.1
      vertex 2.3344 4.0433 8.1
      vertex 5.1134 5.67901 8.1
    endloop
  endfacet
  facet normal 0 0 1
    outer loop
      vertex -2.3344 4.0433 8.1
      vertex 5.1134 5.67901 8.1
      vertex 3.82093 6.61805 8.1
    endloop
  endfacet
  facet normal 0 0 1
    outer loop
      vertex -2.3344 4.0433 8.1
      vertex 3.82093 6.61805 8.1
      vertex 2.36147 7.26784 8.1
    endloop
  endfacet
  facet normal 0 0 1
    outer loop
      vertex 2.3344 4.0433 8.1
      vertex 4.6688 0 8.1
      vertex 7.53676 1 8.1
    endloop
  endfacet
  facet normal 0 0 1
    outer loop
      vertex 2.3344 4.0433 8.1
      vertex 7.47487 1.58883 8.1
      vertex 6.98119 3.10823 8.1
    endloop
  endfacet
  facet normal 0 0 1
    outer loop
      vertex 2.3344 4.0433 8.1
      vertex 6.98119 3.10823 8.1
      vertex 6.1824 4.49177 8.1
    endloop
  endfacet
  facet normal 0 -0 1
    outer loop
      vertex -0.798792 7.6 8.1
      vertex -7.53676 -1 8.1
      vertex 0.798792 7.6 8.1
    endloop
  endfacet
  facet normal 0 -0 1
    outer loop
      vertex -2.36147 7.26784 8.1
      vertex -7.53676 -1 8.1
      vertex -0.798792 7.6 8.1
    endloop
  endfacet
  facet normal 0 -0 1
    outer loop
      vertex -3.82093 6.61805 8.1
      vertex -7.53676 -1 8.1
      vertex -2.36147 7.26784 8.1
    endloop
  endfacet
  facet normal 0 -0 1
    outer loop
      vertex -5.1134 5.67901 8.1
      vertex -7.53676 -1 8.1
      vertex -3.82093 6.61805 8.1
    endloop
  endfacet
  facet normal 0 -0 1
    outer loop
      vertex -6.1824 4.49177 8.1
      vertex -7.53676 -1 8.1
      vertex -5.1134 5.67901 8.1
    endloop
  endfacet
  facet normal 0 -0 1
    outer loop
      vertex -6.98119 3.10823 8.1
      vertex -7.53676 -1 8.1
      vertex -6.1824 4.49177 8.1
    endloop
  endfacet
  facet normal 0 -0 1
    outer loop
      vertex -7.47487 1.58883 8.1
      vertex -7.53676 -1 8.1
      vertex -6.98119 3.10823 8.1
    endloop
  endfacet
  facet normal 0 -0 1
    outer loop
      vertex -7.53676 1 8.1
      vertex -7.53676 -1 8.1
      vertex -7.47487 1.58883 8.1
    endloop
  endfacet
  facet normal 0 0 1
    outer loop
      vertex -22 1 8.1
      vertex -7.53676 -1 8.1
      vertex -7.53676 1 8.1
    endloop
  endfacet
  facet normal 0 -0 1
    outer loop
      vertex 2.3344 -4.0433 8.1
      vertex -2.3344 -4.0433 8.1
      vertex 3.82093 -6.61805 8.1
    endloop
  endfacet
  facet normal 0 0 1
    outer loop
      vertex 4.6688 0 8.1
      vertex 6.1824 -4.49177 8.1
      vertex 6.98119 -3.10823 8.1
    endloop
  endfacet
  facet normal 0 -0 1
    outer loop
      vertex 0.798792 7.6 8.1
      vertex -2.3344 4.0433 8.1
      vertex 2.36147 7.26784 8.1
    endloop
  endfacet
  facet normal 0 0 1
    outer loop
      vertex 0.798792 7.6 8.1
      vertex -7.53676 -1 8.1
      vertex -2.3344 4.0433 8.1
    endloop
  endfacet
  facet normal 0 -0 1
    outer loop
      vertex 5.1134 5.67901 8.1
      vertex 2.3344 4.0433 8.1
      vertex 6.1824 4.49177 8.1
    endloop
  endfacet
  facet normal 0 0 1
    outer loop
      vertex 2.3344 4.0433 8.1
      vertex 7.53676 1 8.1
      vertex 7.47487 1.58883 8.1
    endloop
  endfacet
  facet normal 0 -0 1
    outer loop
      vertex 7.53676 1 8.1
      vertex 4.6688 0 8.1
      vertex 22 1 8.1
    endloop
  endfacet
  facet normal 0 -0 1
    outer loop
      vertex 4.6688 0 8.1
      vertex 2.3344 -4.0433 8.1
      vertex 6.1824 -4.49177 8.1
    endloop
  endfacet
  facet normal -0 0 1
    outer loop
      vertex 6.1824 -4.49177 8.1
      vertex 2.3344 -4.0433 8.1
      vertex 5.1134 -5.67901 8.1
    endloop
  endfacet
  facet normal -0 0 1
    outer loop
      vertex 3.82093 -6.61805 8.1
      vertex -2.3344 -4.0433 8.1
      vertex 2.36147 -7.26784 8.1
    endloop
  endfacet
  facet normal 0 0 1
    outer loop
      vertex -22 -1 8.1
      vertex -7.53676 -1 8.1
      vertex -22 1 8.1
    endloop
  endfacet
  facet normal 0 0 1
    outer loop
      vertex 2.3344 -4.0433 8.1
      vertex 3.82093 -6.61805 8.1
      vertex 5.1134 -5.67901 8.1
    endloop
  endfacet
  facet normal 0 0 1
    outer loop
      vertex -2.3344 -4.0433 8.1
      vertex -4.6688 0 8.1
      vertex -7.53676 -1 8.1
    endloop
  endfacet
  facet normal 0 1 0
    outer loop
      vertex -18.6 -1 14.9238
      vertex -22 -1 20
      vertex -17 -1 15.8475
    endloop
  endfacet
  facet normal 0 1 -0
    outer loop
      vertex -17 -1 12.1525
      vertex -7.53676 -1 8.1
      vertex -22 -1 8.1
    endloop
  endfacet
  facet normal 0 1 -0
    outer loop
      vertex -15.4 -1 14.9238
      vertex -7.53676 -1 8.1
      vertex -15.4 -1 13.0762
    endloop
  endfacet
  facet normal 0 1 -0
    outer loop
      vertex -22 -1 20
      vertex -18.6 -1 13.0762
      vertex -22 -1 8.1
    endloop
  endfacet
  facet normal 0 1 0
    outer loop
      vertex -17 -1 15.8475
      vertex -22 -1 20
      vertex -15.4 -1 14.9238
    endloop
  endfacet
  facet normal 0 1 -0
    outer loop
      vertex -18.6 -1 13.0762
      vertex -17 -1 12.1525
      vertex -22 -1 8.1
    endloop
  endfacet
  facet normal 0 1 0
    outer loop
      vertex -7.53676 -1 20
      vertex -7.53676 -1 8.1
      vertex -15.4 -1 14.9238
    endloop
  endfacet
  facet normal 0 1 0
    outer loop
      vertex -7.53676 -1 20
      vertex -15.4 -1 14.9238
      vertex -22 -1 20
    endloop
  endfacet
  facet normal 0 1 0
    outer loop
      vertex -22 -1 20
      vertex -18.6 -1 14.9238
      vertex -18.6 -1 13.0762
    endloop
  endfacet
  facet normal 0 1 -0
    outer loop
      vertex -15.4 -1 13.0762
      vertex -7.53676 -1 8.1
      vertex -17 -1 12.1525
    endloop
  endfacet
  facet normal 0 0 1
    outer loop
      vertex -11.1103 -4.60205 20
      vertex -10.4146 -6.01287 20
      vertex -11.3147 -4 20
    endloop
  endfacet
  facet normal 0 -0 1
    outer loop
      vertex -22 -1 20
      vertex -22 -4 20
      vertex -11.3147 -4 20
    endloop
  endfacet
  facet normal 0 0 1
    outer loop
      vertex -7.47487 -1.58883 20
      vertex -7.53676 -1 20
      vertex -22 -1 20
    endloop
  endfacet
  facet normal -0 -0 1
    outer loop
      vertex 0.798792 -7.6 20
      vertex -0.798792 -7.6 20
      vertex 7.32081 -9.54067 20
    endloop
  endfacet
  facet normal 0 0 1
    outer loop
      vertex -10.4146 -6.01287 20
      vertex -9.54067 -7.32081 20
      vertex -11.3147 -4 20
    endloop
  endfacet
  facet normal 0 0 1
    outer loop
      vertex -9.54067 -7.32081 20
      vertex -8.50349 -8.50349 20
      vertex -11.3147 -4 20
    endloop
  endfacet
  facet normal 0 0 1
    outer loop
      vertex -8.50349 -8.50349 20
      vertex -7.32081 -9.54067 20
      vertex -11.3147 -4 20
    endloop
  endfacet
  facet normal 0 0 1
    outer loop
      vertex -7.32081 -9.54067 20
      vertex -6.01287 -10.4146 20
      vertex -11.3147 -4 20
    endloop
  endfacet
  facet normal 0 0 1
    outer loop
      vertex -6.01287 -10.4146 20
      vertex -4.60206 -11.1103 20
      vertex -11.3147 -4 20
    endloop
  endfacet
  facet normal 0 0 1
    outer loop
      vertex -4.60206 -11.1103 20
      vertex -3.11249 -11.616 20
      vertex -11.3147 -4 20
    endloop
  endfacet
  facet normal 0 0 1
    outer loop
      vertex -3.11249 -11.616 20
      vertex -1.56968 -11.9229 20
      vertex -11.3147 -4 20
    endloop
  endfacet
  facet normal 0 0 1
    outer loop
      vertex -1.56968 -11.9229 20
      vertex -1.47268e-15 -12.0257 20
      vertex -11.3147 -4 20
    endloop
  endfacet
  facet normal 0 0 1
    outer loop
      vertex -1.47268e-15 -12.0257 20
      vertex 1.56967 -11.9229 20
      vertex -11.3147 -4 20
    endloop
  endfacet
  facet normal 0 0 1
    outer loop
      vertex 1.56967 -11.9229 20
      vertex 3.11249 -11.616 20
      vertex -11.3147 -4 20
    endloop
  endfacet
  facet normal 0 0 1
    outer loop
      vertex 3.11249 -11.616 20
      vertex 4.60205 -11.1103 20
      vertex -11.3147 -4 20
    endloop
  endfacet
  facet normal 0 0 1
    outer loop
      vertex 4.60205 -11.1103 20
      vertex 6.01287 -10.4146 20
      vertex -11.3147 -4 20
    endloop
  endfacet
  facet normal 0 0 1
    outer loop
      vertex -5.1134 -5.67901 20
      vertex -22 -1 20
      vertex -11.3147 -4 20
    endloop
  endfacet
  facet normal 0 0 1
    outer loop
      vertex 22 -4 20
      vertex 22 -1 20
      vertex 7.53676 -1 20
    endloop
  endfacet
  facet normal 0 0 1
    outer loop
      vertex 22 -4 20
      vertex 7.53676 -1 20
      vertex 7.47487 -1.58883 20
    endloop
  endfacet
  facet normal 0 -0 1
    outer loop
      vertex 6.1824 -4.49177 20
      vertex 5.1134 -5.67901 20
      vertex 10.4146 -6.01287 20
    endloop
  endfacet
  facet normal 0 0 1
    outer loop
      vertex 11.3147 -4 20
      vertex 22 -4 20
      vertex 6.98119 -3.10823 20
    endloop
  endfacet
  facet normal 0 0 1
    outer loop
      vertex 10.4146 -6.01287 20
      vertex 11.1103 -4.60206 20
      vertex 6.1824 -4.49177 20
    endloop
  endfacet
  facet normal 0 0 1
    outer loop
      vertex 9.54067 -7.32081 20
      vertex 10.4146 -6.01287 20
      vertex 5.1134 -5.67901 20
    endloop
  endfacet
  facet normal 0 0 1
    outer loop
      vertex -6.98119 -3.10823 20
      vertex -7.47487 -1.58883 20
      vertex -22 -1 20
    endloop
  endfacet
  facet normal 0 0 1
    outer loop
      vertex 8.50349 -8.50349 20
      vertex 9.54067 -7.32081 20
      vertex 3.82093 -6.61805 20
    endloop
  endfacet
  facet normal 0 0 1
    outer loop
      vertex -6.1824 -4.49177 20
      vertex -6.98119 -3.10823 20
      vertex -22 -1 20
    endloop
  endfacet
  facet normal 0 0 1
    outer loop
      vertex 7.32081 -9.54067 20
      vertex 8.50349 -8.50349 20
      vertex 2.36147 -7.26784 20
    endloop
  endfacet
  facet normal 0 0 1
    outer loop
      vertex 7.32081 -9.54067 20
      vertex 2.36147 -7.26784 20
      vertex 0.798792 -7.6 20
    endloop
  endfacet
  facet normal 0 0 1
    outer loop
      vertex -5.1134 -5.67901 20
      vertex -6.1824 -4.49177 20
      vertex -22 -1 20
    endloop
  endfacet
  facet normal 0 0 1
    outer loop
      vertex 6.01287 -10.4146 20
      vertex 7.32081 -9.54067 20
      vertex -0.798792 -7.6 20
    endloop
  endfacet
  facet normal 0 0 1
    outer loop
      vertex 6.01287 -10.4146 20
      vertex -2.36147 -7.26784 20
      vertex -11.3147 -4 20
    endloop
  endfacet
  facet normal 0 0 1
    outer loop
      vertex 6.01287 -10.4146 20
      vertex -0.798792 -7.6 20
      vertex -2.36147 -7.26784 20
    endloop
  endfacet
  facet normal 0 0 1
    outer loop
      vertex -2.36147 -7.26784 20
      vertex -3.82093 -6.61805 20
      vertex -11.3147 -4 20
    endloop
  endfacet
  facet normal 0 0 1
    outer loop
      vertex -3.82093 -6.61805 20
      vertex -5.1134 -5.67901 20
      vertex -11.3147 -4 20
    endloop
  endfacet
  facet normal 0 -0 1
    outer loop
      vertex 5.1134 -5.67901 20
      vertex 3.82093 -6.61805 20
      vertex 9.54067 -7.32081 20
    endloop
  endfacet
  facet normal 0 0 1
    outer loop
      vertex 6.98119 -3.10823 20
      vertex 11.1103 -4.60206 20
      vertex 11.3147 -4 20
    endloop
  endfacet
  facet normal 0 -0 1
    outer loop
      vertex 6.98119 -3.10823 20
      vertex 6.1824 -4.49177 20
      vertex 11.1103 -4.60206 20
    endloop
  endfacet
  facet normal 0 -0 1
    outer loop
      vertex 7.47487 -1.58883 20
      vertex 6.98119 -3.10823 20
      vertex 22 -4 20
    endloop
  endfacet
  facet normal 0 -0 1
    outer loop
      vertex 3.82093 -6.61805 20
      vertex 2.36147 -7.26784 20
      vertex 8.50349 -8.50349 20
    endloop
  endfacet
  facet normal -0.94693 -0.32144 -0
    outer loop
      vertex -11.3147 -4 0
      vertex -11.1103 -4.60205 0
      vertex -11.3147 -4 20
    endloop
  endfacet
  facet normal -0.94693 -0.32144 0
    outer loop
      vertex -11.3147 -4 20
      vertex -11.1103 -4.60205 0
      vertex -11.1103 -4.60205 20
    endloop
  endfacet
  facet normal 1 0 -0
    outer loop
      vertex -18.6 -4 14.9238
      vertex -18.6 -4 13.0762
      vertex -18.6 -1 13.0762
    endloop
  endfacet
  facet normal 1 0 0
    outer loop
      vertex -18.6 -1 14.9238
      vertex -18.6 -4 14.9238
      vertex -18.6 -1 13.0762
    endloop
  endfacet
  facet normal 0.5 0 0.866025
    outer loop
      vertex -18.6 -4 13.0762
      vertex -17 -4 12.1525
      vertex -17 -1 12.1525
    endloop
  endfacet
  facet normal 0.5 -0 0.866025
    outer loop
      vertex -18.6 -1 13.0762
      vertex -18.6 -4 13.0762
      vertex -17 -1 12.1525
    endloop
  endfacet
  facet normal -0.5 -2.77547e-16 0.866025
    outer loop
      vertex -17 -4 12.1525
      vertex -15.4 -4 13.0762
      vertex -15.4 -1 13.0762
    endloop
  endfacet
  facet normal -0.5 0 0.866025
    outer loop
      vertex -17 -1 12.1525
      vertex -17 -4 12.1525
      vertex -15.4 -1 13.0762
    endloop
  endfacet
  facet normal -1 -5.92119e-16 -0
    outer loop
      vertex -15.4 -4 13.0762
      vertex -15.4 -4 14.9238
      vertex -15.4 -1 13.0762
    endloop
  endfacet
  facet normal -1 -5.92119e-16 -0
    outer loop
      vertex -15.4 -1 13.0762
      vertex -15.4 -4 14.9238
      vertex -15.4 -1 14.9238
    endloop
  endfacet
  facet normal -0.5 -2.9606e-16 -0.866025
    outer loop
      vertex -15.4 -4 14.9238
      vertex -17 -4 15.8475
      vertex -15.4 -1 14.9238
    endloop
  endfacet
  facet normal -0.5 0 -0.866025
    outer loop
      vertex -15.4 -1 14.9238
      vertex -17 -4 15.8475
      vertex -17 -1 15.8475
    endloop
  endfacet
  facet normal 0.5 0 -0.866025
    outer loop
      vertex -17 -4 15.8475
      vertex -18.6 -4 14.9238
      vertex -17 -1 15.8475
    endloop
  endfacet
  facet normal 0.5 0 -0.866025
    outer loop
      vertex -17 -1 15.8475
      vertex -18.6 -4 14.9238
      vertex -18.6 -1 14.9238
    endloop
  endfacet
  facet normal -0.896873 -0.442289 -0
    outer loop
      vertex -11.1103 -4.60205 0
      vertex -10.4146 -6.01287 0
      vertex -11.1103 -4.60205 20
    endloop
  endfacet
  facet normal -0.896873 -0.442289 0
    outer loop
      vertex -11.1103 -4.60205 20
      vertex -10.4146 -6.01287 0
      vertex -10.4146 -6.01287 20
    endloop
  endfacet
  facet normal -0.83147 -0.55557 -0
    outer loop
      vertex -10.4146 -6.01287 0
      vertex -9.54067 -7.32081 0
      vertex -10.4146 -6.01287 20
    endloop
  endfacet
  facet normal -0.83147 -0.55557 0
    outer loop
      vertex -10.4146 -6.01287 20
      vertex -9.54067 -7.32081 0
      vertex -9.54067 -7.32081 20
    endloop
  endfacet
  facet normal -0.75184 -0.659346 -0
    outer loop
      vertex -9.54067 -7.32081 0
      vertex -8.50349 -8.50349 0
      vertex -9.54067 -7.32081 20
    endloop
  endfacet
  facet normal -0.75184 -0.659346 0
    outer loop
      vertex -9.54067 -7.32081 20
      vertex -8.50349 -8.50349 0
      vertex -8.50349 -8.50349 20
    endloop
  endfacet
  facet normal -0.659346 -0.75184 0
    outer loop
      vertex -8.50349 -8.50349 20
      vertex -8.50349 -8.50349 0
      vertex -7.32081 -9.54067 0
    endloop
  endfacet
  facet normal -0.659346 -0.75184 0
    outer loop
      vertex -7.32081 -9.54067 20
      vertex -8.50349 -8.50349 20
      vertex -7.32081 -9.54067 0
    endloop
  endfacet
  facet normal -0.55557 -0.83147 0
    outer loop
      vertex -7.32081 -9.54067 20
      vertex -7.32081 -9.54067 0
      vertex -6.01287 -10.4146 0
    endloop
  endfacet
  facet normal -0.55557 -0.83147 0
    outer loop
      vertex -6.01287 -10.4146 20
      vertex -7.32081 -9.54067 20
      vertex -6.01287 -10.4146 0
    endloop
  endfacet
  facet normal -0.442289 -0.896873 0
    outer loop
      vertex -6.01287 -10.4146 20
      vertex -6.01287 -10.4146 0
      vertex -4.60206 -11.1103 0
    endloop
  endfacet
  facet normal -0.442289 -0.896873 0
    outer loop
      vertex -4.60206 -11.1103 20
      vertex -6.01287 -10.4146 20
      vertex -4.60206 -11.1103 0
    endloop
  endfacet
  facet normal -0.32144 -0.94693 0
    outer loop
      vertex -4.60206 -11.1103 20
      vertex -4.60206 -11.1103 0
      vertex -3.11249 -11.616 0
    endloop
  endfacet
  facet normal -0.32144 -0.94693 0
    outer loop
      vertex -3.11249 -11.616 20
      vertex -4.60206 -11.1103 20
      vertex -3.11249 -11.616 0
    endloop
  endfacet
  facet normal -0.19509 -0.980785 0
    outer loop
      vertex -3.11249 -11.616 20
      vertex -3.11249 -11.616 0
      vertex -1.56968 -11.9229 0
    endloop
  endfacet
  facet normal -0.19509 -0.980785 0
    outer loop
      vertex -1.56968 -11.9229 20
      vertex -3.11249 -11.616 20
      vertex -1.56968 -11.9229 0
    endloop
  endfacet
  facet normal -0.0654032 -0.997859 0
    outer loop
      vertex -1.56968 -11.9229 20
      vertex -1.56968 -11.9229 0
      vertex -1.47268e-15 -12.0257 0
    endloop
  endfacet
  facet normal -0.0654032 -0.997859 0
    outer loop
      vertex -1.47268e-15 -12.0257 20
      vertex -1.56968 -11.9229 20
      vertex -1.47268e-15 -12.0257 0
    endloop
  endfacet
  facet normal 0.0654032 -0.997859 0
    outer loop
      vertex -1.47268e-15 -12.0257 20
      vertex -1.47268e-15 -12.0257 0
      vertex 1.56967 -11.9229 0
    endloop
  endfacet
  facet normal 0.0654032 -0.997859 0
    outer loop
      vertex 1.56967 -11.9229 20
      vertex -1.47268e-15 -12.0257 20
      vertex 1.56967 -11.9229 0
    endloop
  endfacet
  facet normal 0.19509 -0.980785 0
    outer loop
      vertex 1.56967 -11.9229 20
      vertex 1.56967 -11.9229 0
      vertex 3.11249 -11.616 0
    endloop
  endfacet
  facet normal 0.19509 -0.980785 0
    outer loop
      vertex 3.11249 -11.616 20
      vertex 1.56967 -11.9229 20
      vertex 3.11249 -11.616 0
    endloop
  endfacet
  facet normal 0.32144 -0.94693 0
    outer loop
      vertex 3.11249 -11.616 20
      vertex 3.11249 -11.616 0
      vertex 4.60205 -11.1103 0
    endloop
  endfacet
  facet normal 0.32144 -0.94693 0
    outer loop
      vertex 4.60205 -11.1103 20
      vertex 3.11249 -11.616 20
      vertex 4.60205 -11.1103 0
    endloop
  endfacet
  facet normal 0.442289 -0.896873 0
    outer loop
      vertex 4.60205 -11.1103 20
      vertex 4.60205 -11.1103 0
      vertex 6.01287 -10.4146 0
    endloop
  endfacet
  facet normal 0.442289 -0.896873 0
    outer loop
      vertex 6.01287 -10.4146 20
      vertex 4.60205 -11.1103 20
      vertex 6.01287 -10.4146 0
    endloop
  endfacet
  facet normal 0.55557 -0.83147 0
    outer loop
      vertex 6.01287 -10.4146 20
      vertex 6.01287 -10.4146 0
      vertex 7.32081 -9.54067 0
    endloop
  endfacet
  facet normal 0.55557 -0.83147 0
    outer loop
      vertex 7.32081 -9.54067 20
      vertex 6.01287 -10.4146 20
      vertex 7.32081 -9.54067 0
    endloop
  endfacet
  facet normal 0.659346 -0.75184 0
    outer loop
      vertex 7.32081 -9.54067 20
      vertex 7.32081 -9.54067 0
      vertex 8.50349 -8.50349 0
    endloop
  endfacet
  facet normal 0.659346 -0.75184 0
    outer loop
      vertex 8.50349 -8.50349 20
      vertex 7.32081 -9.54067 20
      vertex 8.50349 -8.50349 0
    endloop
  endfacet
  facet normal 0.75184 -0.659346 0
    outer loop
      vertex 8.50349 -8.50349 20
      vertex 8.50349 -8.50349 0
      vertex 9.54067 -7.32081 0
    endloop
  endfacet
  facet normal 0.75184 -0.659346 0
    outer loop
      vertex 9.54067 -7.32081 20
      vertex 8.50349 -8.50349 20
      vertex 9.54067 -7.32081 0
    endloop
  endfacet
  facet normal 0.83147 -0.55557 0
    outer loop
      vertex 9.54067 -7.32081 20
      vertex 9.54067 -7.32081 0
      vertex 10.4146 -6.01287 0
    endloop
  endfacet
  facet normal 0.83147 -0.55557 0
    outer loop
      vertex 10.4146 -6.01287 20
      vertex 9.54067 -7.32081 20
      vertex 10.4146 -6.01287 0
    endloop
  endfacet
  facet normal 0.896873 -0.442289 0
    outer loop
      vertex 10.4146 -6.01287 20
      vertex 10.4146 -6.01287 0
      vertex 11.1103 -4.60206 0
    endloop
  endfacet
  facet normal 0.896873 -0.442289 0
    outer loop
      vertex 11.1103 -4.60206 20
      vertex 10.4146 -6.01287 20
      vertex 11.1103 -4.60206 0
    endloop
  endfacet
  facet normal 0.94693 -0.32144 0
    outer loop
      vertex 11.1103 -4.60206 20
      vertex 11.1103 -4.60206 0
      vertex 11.3147 -4 0
    endloop
  endfacet
  facet normal 0.94693 -0.32144 0
    outer loop
      vertex 11.3147 -4 20
      vertex 11.1103 -4.60206 20
      vertex 11.3147 -4 0
    endloop
  endfacet
  facet normal 0 -1 0
    outer loop
      vertex 11.3147 -4 20
      vertex 11.3147 -4 0
      vertex 22 -4 0
    endloop
  endfacet
  facet normal 0 -1 0
    outer loop
      vertex 15.4 -4 13.0762
      vertex 11.3147 -4 20
      vertex 22 -4 0
    endloop
  endfacet
  facet normal 0 -1 0
    outer loop
      vertex 17 -4 12.1525
      vertex 15.4 -4 13.0762
      vertex 22 -4 0
    endloop
  endfacet
  facet normal 0 -1 0
    outer loop
      vertex 15.4 -4 14.9238
      vertex 11.3147 -4 20
      vertex 15.4 -4 13.0762
    endloop
  endfacet
  facet normal 0 -1 0
    outer loop
      vertex 22 -4 20
      vertex 11.3147 -4 20
      vertex 15.4 -4 14.9238
    endloop
  endfacet
  facet normal 0 -1 0
    outer loop
      vertex 22 -4 20
      vertex 15.4 -4 14.9238
      vertex 17 -4 15.8475
    endloop
  endfacet
  facet normal 0 -1 0
    outer loop
      vertex 22 -4 20
      vertex 18.6 -4 14.9238
      vertex 22 -4 0
    endloop
  endfacet
  facet normal 0 -1 0
    outer loop
      vertex 18.6 -4 14.9238
      vertex 18.6 -4 13.0762
      vertex 22 -4 0
    endloop
  endfacet
  facet normal 0 -1 0
    outer loop
      vertex 18.6 -4 13.0762
      vertex 17 -4 12.1525
      vertex 22 -4 0
    endloop
  endfacet
  facet normal -0 -1 0
    outer loop
      vertex 17 -4 15.8475
      vertex 18.6 -4 14.9238
      vertex 22 -4 20
    endloop
  endfacet
  facet normal 1 0 -0
    outer loop
      vertex 22 -1 8.1
      vertex 22 -4 0
      vertex 22 4 0
    endloop
  endfacet
  facet normal 1 0 0
    outer loop
      vertex 22 -1 8.1
      vertex 22 -1 20
      vertex 22 -4 20
    endloop
  endfacet
  facet normal 1 0 0
    outer loop
      vertex 22 4 20
      vertex 22 1 20
      vertex 22 4 0
    endloop
  endfacet
  facet normal 1 0 -0
    outer loop
      vertex 22 1 20
      vertex 22 1 8.1
      vertex 22 4 0
    endloop
  endfacet
  facet normal 1 0 -0
    outer loop
      vertex 22 -4 20
      vertex 22 -4 0
      vertex 22 -1 8.1
    endloop
  endfacet
  facet normal 1 0 -0
    outer loop
      vertex 22 1 8.1
      vertex 22 -1 8.1
      vertex 22 4 0
    endloop
  endfacet
  facet normal 0 1 0
    outer loop
      vertex 11.3147 4 0
      vertex 11.3147 4 20
      vertex 22 4 0
    endloop
  endfacet
  facet normal 0 1 0
    outer loop
      vertex 15.4 4 14.9238
      vertex 11.3147 4 20
      vertex 22 4 20
    endloop
  endfacet
  facet normal 0 1 0
    outer loop
      vertex 15.4 4 13.0762
      vertex 11.3147 4 20
      vertex 15.4 4 14.9238
    endloop
  endfacet
  facet normal -0 1 0
    outer loop
      vertex 17 4 15.8475
      vertex 15.4 4 14.9238
      vertex 22 4 20
    endloop
  endfacet
  facet normal 0 1 0
    outer loop
      vertex 22 4 0
      vertex 11.3147 4 20
      vertex 15.4 4 13.0762
    endloop
  endfacet
  facet normal 0 1 -0
    outer loop
      vertex 18.6 4 14.9238
      vertex 22 4 20
      vertex 18.6 4 13.0762
    endloop
  endfacet
  facet normal 0 1 0
    outer loop
      vertex 22 4 0
      vertex 17 4 12.1525
      vertex 18.6 4 13.0762
    endloop
  endfacet
  facet normal 0 1 0
    outer loop
      vertex 22 4 0
      vertex 18.6 4 13.0762
      vertex 22 4 20
    endloop
  endfacet
  facet normal 0 1 0
    outer loop
      vertex 18.6 4 14.9238
      vertex 17 4 15.8475
      vertex 22 4 20
    endloop
  endfacet
  facet normal -0 1 -0
    outer loop
      vertex 17 4 12.1525
      vertex 22 4 0
      vertex 15.4 4 13.0762
    endloop
  endfacet
  facet normal 0.94693 0.32144 0
    outer loop
      vertex 11.3147 4 0
      vertex 11.1103 4.60205 0
      vertex 11.1103 4.60205 20
    endloop
  endfacet
  facet normal 0.94693 0.32144 -0
    outer loop
      vertex 11.3147 4 20
      vertex 11.3147 4 0
      vertex 11.1103 4.60205 20
    endloop
  endfacet
  facet normal 0.896873 0.442289 0
    outer loop
      vertex 11.1103 4.60205 0
      vertex 10.4146 6.01287 0
      vertex 10.4146 6.01287 20
    endloop
  endfacet
  facet normal 0.896873 0.442289 -0
    outer loop
      vertex 11.1103 4.60205 20
      vertex 11.1103 4.60205 0
      vertex 10.4146 6.01287 20
    endloop
  endfacet
  facet normal 0.83147 0.55557 0
    outer loop
      vertex 10.4146 6.01287 0
      vertex 9.54067 7.32081 0
      vertex 9.54067 7.32081 20
    endloop
  endfacet
  facet normal 0.83147 0.55557 -0
    outer loop
      vertex 10.4146 6.01287 20
      vertex 10.4146 6.01287 0
      vertex 9.54067 7.32081 20
    endloop
  endfacet
  facet normal 0.75184 0.659346 0
    outer loop
      vertex 9.54067 7.32081 0
      vertex 8.50349 8.50349 0
      vertex 8.50349 8.50349 20
    endloop
  endfacet
  facet normal 0.75184 0.659346 -0
    outer loop
      vertex 9.54067 7.32081 20
      vertex 9.54067 7.32081 0
      vertex 8.50349 8.50349 20
    endloop
  endfacet
  facet normal 0.659346 0.75184 0
    outer loop
      vertex 7.32081 9.54067 0
      vertex 7.32081 9.54067 20
      vertex 8.50349 8.50349 0
    endloop
  endfacet
  facet normal 0.659346 0.75184 0
    outer loop
      vertex 8.50349 8.50349 0
      vertex 7.32081 9.54067 20
      vertex 8.50349 8.50349 20
    endloop
  endfacet
  facet normal 0.55557 0.83147 0
    outer loop
      vertex 6.01287 10.4146 0
      vertex 6.01287 10.4146 20
      vertex 7.32081 9.54067 0
    endloop
  endfacet
  facet normal 0.55557 0.83147 0
    outer loop
      vertex 7.32081 9.54067 0
      vertex 6.01287 10.4146 20
      vertex 7.32081 9.54067 20
    endloop
  endfacet
  facet normal 0.442289 0.896873 0
    outer loop
      vertex 4.60206 11.1103 0
      vertex 4.60206 11.1103 20
      vertex 6.01287 10.4146 0
    endloop
  endfacet
  facet normal 0.442289 0.896873 0
    outer loop
      vertex 6.01287 10.4146 0
      vertex 4.60206 11.1103 20
      vertex 6.01287 10.4146 20
    endloop
  endfacet
  facet normal 0.32144 0.94693 0
    outer loop
      vertex 3.11249 11.616 0
      vertex 3.11249 11.616 20
      vertex 4.60206 11.1103 0
    endloop
  endfacet
  facet normal 0.32144 0.94693 0
    outer loop
      vertex 4.60206 11.1103 0
      vertex 3.11249 11.616 20
      vertex 4.60206 11.1103 20
    endloop
  endfacet
  facet normal 0.19509 0.980785 0
    outer loop
      vertex 1.56968 11.9229 0
      vertex 1.56968 11.9229 20
      vertex 3.11249 11.616 0
    endloop
  endfacet
  facet normal 0.19509 0.980785 0
    outer loop
      vertex 3.11249 11.616 0
      vertex 1.56968 11.9229 20
      vertex 3.11249 11.616 20
    endloop
  endfacet
  facet normal 0.0654032 0.997859 0
    outer loop
      vertex 1.47268e-15 12.0257 0
      vertex 1.47268e-15 12.0257 20
      vertex 1.56968 11.9229 0
    endloop
  endfacet
  facet normal 0.0654032 0.997859 0
    outer loop
      vertex 1.56968 11.9229 0
      vertex 1.47268e-15 12.0257 20
      vertex 1.56968 11.9229 20
    endloop
  endfacet
  facet normal -0.0654032 0.997859 0
    outer loop
      vertex -1.56967 11.9229 0
      vertex -1.56967 11.9229 20
      vertex 1.47268e-15 12.0257 0
    endloop
  endfacet
  facet normal -0.0654032 0.997859 0
    outer loop
      vertex 1.47268e-15 12.0257 0
      vertex -1.56967 11.9229 20
      vertex 1.47268e-15 12.0257 20
    endloop
  endfacet
  facet normal -0.19509 0.980785 0
    outer loop
      vertex -3.11249 11.616 0
      vertex -3.11249 11.616 20
      vertex -1.56967 11.9229 0
    endloop
  endfacet
  facet normal -0.19509 0.980785 0
    outer loop
      vertex -1.56967 11.9229 0
      vertex -3.11249 11.616 20
      vertex -1.56967 11.9229 20
    endloop
  endfacet
  facet normal -0.32144 0.94693 0
    outer loop
      vertex -4.60205 11.1103 0
      vertex -4.60205 11.1103 20
      vertex -3.11249 11.616 0
    endloop
  endfacet
  facet normal -0.32144 0.94693 0
    outer loop
      vertex -3.11249 11.616 0
      vertex -4.60205 11.1103 20
      vertex -3.11249 11.616 20
    endloop
  endfacet
  facet normal -0.442289 0.896873 0
    outer loop
      vertex -6.01287 10.4146 0
      vertex -6.01287 10.4146 20
      vertex -4.60205 11.1103 0
    endloop
  endfacet
  facet normal -0.442289 0.896873 0
    outer loop
      vertex -4.60205 11.1103 0
      vertex -6.01287 10.4146 20
      vertex -4.60205 11.1103 20
    endloop
  endfacet
  facet normal -0.55557 0.83147 0
    outer loop
      vertex -7.32081 9.54067 0
      vertex -7.32081 9.54067 20
      vertex -6.01287 10.4146 0
    endloop
  endfacet
  facet normal -0.55557 0.83147 0
    outer loop
      vertex -6.01287 10.4146 0
      vertex -7.32081 9.54067 20
      vertex -6.01287 10.4146 20
    endloop
  endfacet
  facet normal -0.659346 0.75184 0
    outer loop
      vertex -8.50349 8.50349 0
      vertex -8.50349 8.50349 20
      vertex -7.32081 9.54067 0
    endloop
  endfacet
  facet normal -0.659346 0.75184 0
    outer loop
      vertex -7.32081 9.54067 0
      vertex -8.50349 8.50349 20
      vertex -7.32081 9.54067 20
    endloop
  endfacet
  facet normal -0.75184 0.659346 0
    outer loop
      vertex -9.54067 7.32081 0
      vertex -9.54067 7.32081 20
      vertex -8.50349 8.50349 0
    endloop
  endfacet
  facet normal -0.75184 0.659346 0
    outer loop
      vertex -8.50349 8.50349 0
      vertex -9.54067 7.32081 20
      vertex -8.50349 8.50349 20
    endloop
  endfacet
  facet normal -0.83147 0.55557 0
    outer loop
      vertex -10.4146 6.01287 0
      vertex -10.4146 6.01287 20
      vertex -9.54067 7.32081 0
    endloop
  endfacet
  facet normal -0.83147 0.55557 0
    outer loop
      vertex -9.54067 7.32081 0
      vertex -10.4146 6.01287 20
      vertex -9.54067 7.32081 20
    endloop
  endfacet
  facet normal -0.896873 0.442289 0
    outer loop
      vertex -11.1103 4.60206 0
      vertex -11.1103 4.60206 20
      vertex -10.4146 6.01287 0
    endloop
  endfacet
  facet normal -0.896873 0.442289 0
    outer loop
      vertex -10.4146 6.01287 0
      vertex -11.1103 4.60206 20
      vertex -10.4146 6.01287 20
    endloop
  endfacet
  facet normal -0.94693 0.32144 0
    outer loop
      vertex -11.3147 4 0
      vertex -11.3147 4 20
      vertex -11.1103 4.60206 0
    endloop
  endfacet
  facet normal -0.94693 0.32144 0
    outer loop
      vertex -11.1103 4.60206 0
      vertex -11.3147 4 20
      vertex -11.1103 4.60206 20
    endloop
  endfacet
  facet normal 0.951057 -0.309017 0
    outer loop
      vertex -2.16916 1.57599 0
      vertex -2.16916 1.57599 4
      vertex -2.68123 3.28345e-16 4
    endloop
  endfacet
  facet normal 0.951057 -0.309017 0
    outer loop
      vertex -2.68123 3.28345e-16 0
      vertex -2.16916 1.57599 0
      vertex -2.68123 3.28345e-16 4
    endloop
  endfacet
  facet normal 0.951057 0.309017 0
    outer loop
      vertex -2.68123 3.28345e-16 4
      vertex -2.16916 -1.57599 4
      vertex -2.16916 -1.57599 0
    endloop
  endfacet
  facet normal 0.951057 0.309017 0
    outer loop
      vertex -2.68123 3.28345e-16 0
      vertex -2.68123 3.28345e-16 4
      vertex -2.16916 -1.57599 0
    endloop
  endfacet
  facet normal 0.587785 -0.809017 0
    outer loop
      vertex -0.828545 2.55 0
      vertex -0.828545 2.55 4
      vertex -2.16916 1.57599 4
    endloop
  endfacet
  facet normal 0.587785 -0.809017 0
    outer loop
      vertex -2.16916 1.57599 0
      vertex -0.828545 2.55 0
      vertex -2.16916 1.57599 4
    endloop
  endfacet
  facet normal -2.67993e-16 -1 -0
    outer loop
      vertex 0.828545 2.55 0
      vertex 0.828545 2.55 4
      vertex -0.828545 2.55 4
    endloop
  endfacet
  facet normal -2.67993e-16 -1 -0
    outer loop
      vertex -0.828545 2.55 0
      vertex 0.828545 2.55 0
      vertex -0.828545 2.55 4
    endloop
  endfacet
  facet normal -0.587785 -0.809017 -0
    outer loop
      vertex 2.16916 1.57599 0
      vertex 2.16916 1.57599 4
      vertex 0.828545 2.55 4
    endloop
  endfacet
  facet normal -0.587785 -0.809017 -0
    outer loop
      vertex 0.828545 2.55 0
      vertex 2.16916 1.57599 0
      vertex 0.828545 2.55 4
    endloop
  endfacet
  facet normal -0.951057 -0.309017 0
    outer loop
      vertex 2.68123 -3.28345e-16 4
      vertex 2.16916 1.57599 4
      vertex 2.68123 -3.28345e-16 0
    endloop
  endfacet
  facet normal -0.951057 -0.309017 0
    outer loop
      vertex 2.68123 -3.28345e-16 0
      vertex 2.16916 1.57599 4
      vertex 2.16916 1.57599 0
    endloop
  endfacet
  facet normal -0.951057 0.309017 0
    outer loop
      vertex 2.68123 -3.28345e-16 4
      vertex 2.68123 -3.28345e-16 0
      vertex 2.16916 -1.57599 4
    endloop
  endfacet
  facet normal -0.951057 0.309017 0
    outer loop
      vertex 2.16916 -1.57599 4
      vertex 2.68123 -3.28345e-16 0
      vertex 2.16916 -1.57599 0
    endloop
  endfacet
  facet normal -0.587785 0.809017 0
    outer loop
      vertex 2.16916 -1.57599 4
      vertex 2.16916 -1.57599 0
      vertex 0.828545 -2.55 4
    endloop
  endfacet
  facet normal -0.587785 0.809017 0
    outer loop
      vertex 0.828545 -2.55 4
      vertex 2.16916 -1.57599 0
      vertex 0.828545 -2.55 0
    endloop
  endfacet
  facet normal 2.67993e-16 1 -0
    outer loop
      vertex 0.828545 -2.55 4
      vertex 0.828545 -2.55 0
      vertex -0.828545 -2.55 4
    endloop
  endfacet
  facet normal 2.67993e-16 1 -0
    outer loop
      vertex -0.828545 -2.55 4
      vertex 0.828545 -2.55 0
      vertex -0.828545 -2.55 0
    endloop
  endfacet
  facet normal 0.587785 0.809017 -0
    outer loop
      vertex -0.828545 -2.55 4
      vertex -0.828545 -2.55 0
      vertex -2.16916 -1.57599 4
    endloop
  endfacet
  facet normal 0.587785 0.809017 -0
    outer loop
      vertex -2.16916 -1.57599 4
      vertex -0.828545 -2.55 0
      vertex -2.16916 -1.57599 0
    endloop
  endfacet
  facet normal 1 0 -0
    outer loop
      vertex -18.6 1 14.9238
      vertex -18.6 1 13.0762
      vertex -18.6 4 13.0762
    endloop
  endfacet
  facet normal 1 0 0
    outer loop
      vertex -18.6 4 14.9238
      vertex -18.6 1 14.9238
      vertex -18.6 4 13.0762
    endloop
  endfacet
  facet normal 0.5 5.92119e-16 -0.866025
    outer loop
      vertex -17 1 15.8475
      vertex -18.6 1 14.9238
      vertex -17 4 15.8475
    endloop
  endfacet
  facet normal 0.5 0 -0.866025
    outer loop
      vertex -17 4 15.8475
      vertex -18.6 1 14.9238
      vertex -18.6 4 14.9238
    endloop
  endfacet
  facet normal -0.5 -0 -0.866025
    outer loop
      vertex -15.4 1 14.9238
      vertex -17 1 15.8475
      vertex -15.4 4 14.9238
    endloop
  endfacet
  facet normal -0.5 -5.55115e-16 -0.866025
    outer loop
      vertex -15.4 4 14.9238
      vertex -17 1 15.8475
      vertex -17 4 15.8475
    endloop
  endfacet
  facet normal -1 -0 -0
    outer loop
      vertex -15.4 1 13.0762
      vertex -15.4 1 14.9238
      vertex -15.4 4 13.0762
    endloop
  endfacet
  facet normal -1 0 0
    outer loop
      vertex -15.4 4 13.0762
      vertex -15.4 1 14.9238
      vertex -15.4 4 14.9238
    endloop
  endfacet
  facet normal -0.5 0 0.866025
    outer loop
      vertex -17 1 12.1525
      vertex -15.4 1 13.0762
      vertex -15.4 4 13.0762
    endloop
  endfacet
  facet normal -0.5 0 0.866025
    outer loop
      vertex -17 4 12.1525
      vertex -17 1 12.1525
      vertex -15.4 4 13.0762
    endloop
  endfacet
  facet normal 0.5 0 0.866025
    outer loop
      vertex -18.6 1 13.0762
      vertex -17 1 12.1525
      vertex -17 4 12.1525
    endloop
  endfacet
  facet normal 0.5 -0 0.866025
    outer loop
      vertex -18.6 4 13.0762
      vertex -18.6 1 13.0762
      vertex -17 4 12.1525
    endloop
  endfacet
  facet normal 0 -1 -0
    outer loop
      vertex 15.4 1 14.9238
      vertex 22 1 20
      vertex 7.53676 1 20
    endloop
  endfacet
  facet normal 0 -1 0
    outer loop
      vertex 18.6 1 14.9238
      vertex 18.6 1 13.0762
      vertex 22 1 8.1
    endloop
  endfacet
  facet normal 0 -1 -0
    outer loop
      vertex 17 1 15.8475
      vertex 22 1 20
      vertex 15.4 1 14.9238
    endloop
  endfacet
  facet normal 0 -1 -0
    outer loop
      vertex 18.6 1 14.9238
      vertex 22 1 20
      vertex 17 1 15.8475
    endloop
  endfacet
  facet normal 0 -1 0
    outer loop
      vertex 18.6 1 13.0762
      vertex 17 1 12.1525
      vertex 22 1 8.1
    endloop
  endfacet
  facet normal 0 -1 0
    outer loop
      vertex 22 1 8.1
      vertex 22 1 20
      vertex 18.6 1 14.9238
    endloop
  endfacet
  facet normal -0 -1 0
    outer loop
      vertex 7.53676 1 8.1
      vertex 22 1 8.1
      vertex 17 1 12.1525
    endloop
  endfacet
  facet normal 0 -1 -0
    outer loop
      vertex 7.53676 1 8.1
      vertex 15.4 1 13.0762
      vertex 7.53676 1 20
    endloop
  endfacet
  facet normal 0 -1 0
    outer loop
      vertex 7.53676 1 8.1
      vertex 17 1 12.1525
      vertex 15.4 1 13.0762
    endloop
  endfacet
  facet normal 0 -1 0
    outer loop
      vertex 15.4 1 13.0762
      vertex 15.4 1 14.9238
      vertex 7.53676 1 20
    endloop
  endfacet
  facet normal -0.994522 -0.104528 0
    outer loop
      vertex 7.53676 1 20
      vertex 7.47487 1.58883 20
      vertex 7.53676 1 8.1
    endloop
  endfacet
  facet normal -0.994522 -0.104528 0
    outer loop
      vertex 7.53676 1 8.1
      vertex 7.47487 1.58883 20
      vertex 7.47487 1.58883 8.1
    endloop
  endfacet
  facet normal -0.951056 -0.309017 0
    outer loop
      vertex 7.47487 1.58883 20
      vertex 6.98119 3.10823 20
      vertex 7.47487 1.58883 8.1
    endloop
  endfacet
  facet normal -0.951056 -0.309017 0
    outer loop
      vertex 7.47487 1.58883 8.1
      vertex 6.98119 3.10823 20
      vertex 6.98119 3.10823 8.1
    endloop
  endfacet
  facet normal -0.866025 -0.5 0
    outer loop
      vertex 6.98119 3.10823 20
      vertex 6.1824 4.49177 20
      vertex 6.98119 3.10823 8.1
    endloop
  endfacet
  facet normal -0.866025 -0.5 0
    outer loop
      vertex 6.98119 3.10823 8.1
      vertex 6.1824 4.49177 20
      vertex 6.1824 4.49177 8.1
    endloop
  endfacet
  facet normal -0.743145 -0.669131 0
    outer loop
      vertex 6.1824 4.49177 20
      vertex 5.1134 5.67901 20
      vertex 6.1824 4.49177 8.1
    endloop
  endfacet
  facet normal -0.743145 -0.669131 0
    outer loop
      vertex 6.1824 4.49177 8.1
      vertex 5.1134 5.67901 20
      vertex 5.1134 5.67901 8.1
    endloop
  endfacet
  facet normal -0.587785 -0.809017 -0
    outer loop
      vertex 5.1134 5.67901 8.1
      vertex 5.1134 5.67901 20
      vertex 3.82093 6.61805 20
    endloop
  endfacet
  facet normal -0.587785 -0.809017 -0
    outer loop
      vertex 3.82093 6.61805 8.1
      vertex 5.1134 5.67901 8.1
      vertex 3.82093 6.61805 20
    endloop
  endfacet
  facet normal -0.406737 -0.913545 -0
    outer loop
      vertex 3.82093 6.61805 8.1
      vertex 3.82093 6.61805 20
      vertex 2.36147 7.26784 20
    endloop
  endfacet
  facet normal -0.406737 -0.913545 -0
    outer loop
      vertex 2.36147 7.26784 8.1
      vertex 3.82093 6.61805 8.1
      vertex 2.36147 7.26784 20
    endloop
  endfacet
  facet normal -0.207911 -0.978148 -0
    outer loop
      vertex 2.36147 7.26784 8.1
      vertex 2.36147 7.26784 20
      vertex 0.798792 7.6 20
    endloop
  endfacet
  facet normal -0.207911 -0.978148 -0
    outer loop
      vertex 0.798792 7.6 8.1
      vertex 2.36147 7.26784 8.1
      vertex 0.798792 7.6 20
    endloop
  endfacet
  facet normal -5.55951e-16 -1 -0
    outer loop
      vertex 0.798792 7.6 8.1
      vertex 0.798792 7.6 20
      vertex -0.798792 7.6 20
    endloop
  endfacet
  facet normal -5.55951e-16 -1 -0
    outer loop
      vertex -0.798792 7.6 8.1
      vertex 0.798792 7.6 8.1
      vertex -0.798792 7.6 20
    endloop
  endfacet
  facet normal 0.207911 -0.978148 0
    outer loop
      vertex -0.798792 7.6 8.1
      vertex -0.798792 7.6 20
      vertex -2.36147 7.26784 20
    endloop
  endfacet
  facet normal 0.207911 -0.978148 0
    outer loop
      vertex -2.36147 7.26784 8.1
      vertex -0.798792 7.6 8.1
      vertex -2.36147 7.26784 20
    endloop
  endfacet
  facet normal 0.406737 -0.913545 0
    outer loop
      vertex -2.36147 7.26784 8.1
      vertex -2.36147 7.26784 20
      vertex -3.82093 6.61805 20
    endloop
  endfacet
  facet normal 0.406737 -0.913545 0
    outer loop
      vertex -3.82093 6.61805 8.1
      vertex -2.36147 7.26784 8.1
      vertex -3.82093 6.61805 20
    endloop
  endfacet
  facet normal 0.587785 -0.809017 0
    outer loop
      vertex -3.82093 6.61805 8.1
      vertex -3.82093 6.61805 20
      vertex -5.1134 5.67901 20
    endloop
  endfacet
  facet normal 0.587785 -0.809017 0
    outer loop
      vertex -5.1134 5.67901 8.1
      vertex -3.82093 6.61805 8.1
      vertex -5.1134 5.67901 20
    endloop
  endfacet
  facet normal 0.743145 -0.669131 0
    outer loop
      vertex -5.1134 5.67901 8.1
      vertex -5.1134 5.67901 20
      vertex -6.1824 4.49177 20
    endloop
  endfacet
  facet normal 0.743145 -0.669131 0
    outer loop
      vertex -6.1824 4.49177 8.1
      vertex -5.1134 5.67901 8.1
      vertex -6.1824 4.49177 20
    endloop
  endfacet
  facet normal 0.866025 -0.5 0
    outer loop
      vertex -6.1824 4.49177 8.1
      vertex -6.1824 4.49177 20
      vertex -6.98119 3.10823 20
    endloop
  endfacet
  facet normal 0.866025 -0.5 0
    outer loop
      vertex -6.98119 3.10823 8.1
      vertex -6.1824 4.49177 8.1
      vertex -6.98119 3.10823 20
    endloop
  endfacet
  facet normal 0.951056 -0.309017 0
    outer loop
      vertex -6.98119 3.10823 8.1
      vertex -6.98119 3.10823 20
      vertex -7.47487 1.58883 20
    endloop
  endfacet
  facet normal 0.951056 -0.309017 0
    outer loop
      vertex -7.47487 1.58883 8.1
      vertex -6.98119 3.10823 8.1
      vertex -7.47487 1.58883 20
    endloop
  endfacet
  facet normal 0.994522 -0.104528 0
    outer loop
      vertex -7.47487 1.58883 8.1
      vertex -7.47487 1.58883 20
      vertex -7.53676 1 20
    endloop
  endfacet
  facet normal 0.994522 -0.104528 0
    outer loop
      vertex -7.53676 1 8.1
      vertex -7.47487 1.58883 8.1
      vertex -7.53676 1 20
    endloop
  endfacet
  facet normal 0.994522 0.104528 0
    outer loop
      vertex -7.53676 -1 20
      vertex -7.47487 -1.58883 20
      vertex -7.47487 -1.58883 8.1
    endloop
  endfacet
  facet normal 0.994522 0.104528 0
    outer loop
      vertex -7.53676 -1 8.1
      vertex -7.53676 -1 20
      vertex -7.47487 -1.58883 8.1
    endloop
  endfacet
  facet normal 0 1 -0
    outer loop
      vertex 15.4 -1 13.0762
      vertex 22 -1 8.1
      vertex 7.53676 -1 8.1
    endloop
  endfacet
  facet normal -0 1 -0
    outer loop
      vertex 17 -1 12.1525
      vertex 22 -1 8.1
      vertex 15.4 -1 13.0762
    endloop
  endfacet
  facet normal 0 1 -0
    outer loop
      vertex 7.53676 -1 20
      vertex 15.4 -1 13.0762
      vertex 7.53676 -1 8.1
    endloop
  endfacet
  facet normal 0 1 -0
    outer loop
      vertex 18.6 -1 13.0762
      vertex 22 -1 8.1
      vertex 17 -1 12.1525
    endloop
  endfacet
  facet normal 0 1 0
    outer loop
      vertex 22 -1 20
      vertex 22 -1 8.1
      vertex 18.6 -1 13.0762
    endloop
  endfacet
  facet normal 0 1 0
    outer loop
      vertex 22 -1 20
      vertex 18.6 -1 13.0762
      vertex 18.6 -1 14.9238
    endloop
  endfacet
  facet normal 0 1 0
    outer loop
      vertex 22 -1 20
      vertex 18.6 -1 14.9238
      vertex 17 -1 15.8475
    endloop
  endfacet
  facet normal 0 1 0
    outer loop
      vertex 22 -1 20
      vertex 17 -1 15.8475
      vertex 7.53676 -1 20
    endloop
  endfacet
  facet normal 0 1 0
    outer loop
      vertex 15.4 -1 14.9238
      vertex 7.53676 -1 20
      vertex 17 -1 15.8475
    endloop
  endfacet
  facet normal 0 1 0
    outer loop
      vertex 15.4 -1 13.0762
      vertex 7.53676 -1 20
      vertex 15.4 -1 14.9238
    endloop
  endfacet
  facet normal -0.994522 0.104528 0
    outer loop
      vertex 7.53676 -1 20
      vertex 7.53676 -1 8.1
      vertex 7.47487 -1.58883 20
    endloop
  endfacet
  facet normal -0.994522 0.104528 0
    outer loop
      vertex 7.47487 -1.58883 20
      vertex 7.53676 -1 8.1
      vertex 7.47487 -1.58883 8.1
    endloop
  endfacet
  facet normal -0.951056 0.309017 0
    outer loop
      vertex 7.47487 -1.58883 20
      vertex 7.47487 -1.58883 8.1
      vertex 6.98119 -3.10823 20
    endloop
  endfacet
  facet normal -0.951056 0.309017 0
    outer loop
      vertex 6.98119 -3.10823 20
      vertex 7.47487 -1.58883 8.1
      vertex 6.98119 -3.10823 8.1
    endloop
  endfacet
  facet normal -0.866025 0.5 0
    outer loop
      vertex 6.98119 -3.10823 20
      vertex 6.98119 -3.10823 8.1
      vertex 6.1824 -4.49177 20
    endloop
  endfacet
  facet normal -0.866025 0.5 0
    outer loop
      vertex 6.1824 -4.49177 20
      vertex 6.98119 -3.10823 8.1
      vertex 6.1824 -4.49177 8.1
    endloop
  endfacet
  facet normal -0.743145 0.669131 0
    outer loop
      vertex 6.1824 -4.49177 20
      vertex 6.1824 -4.49177 8.1
      vertex 5.1134 -5.67901 20
    endloop
  endfacet
  facet normal -0.743145 0.669131 0
    outer loop
      vertex 5.1134 -5.67901 20
      vertex 6.1824 -4.49177 8.1
      vertex 5.1134 -5.67901 8.1
    endloop
  endfacet
  facet normal -0.587785 0.809017 0
    outer loop
      vertex 5.1134 -5.67901 20
      vertex 5.1134 -5.67901 8.1
      vertex 3.82093 -6.61805 20
    endloop
  endfacet
  facet normal -0.587785 0.809017 0
    outer loop
      vertex 3.82093 -6.61805 20
      vertex 5.1134 -5.67901 8.1
      vertex 3.82093 -6.61805 8.1
    endloop
  endfacet
  facet normal -0.406737 0.913545 0
    outer loop
      vertex 3.82093 -6.61805 20
      vertex 3.82093 -6.61805 8.1
      vertex 2.36147 -7.26784 20
    endloop
  endfacet
  facet normal -0.406737 0.913545 0
    outer loop
      vertex 2.36147 -7.26784 20
      vertex 3.82093 -6.61805 8.1
      vertex 2.36147 -7.26784 8.1
    endloop
  endfacet
  facet normal -0.207911 0.978148 0
    outer loop
      vertex 2.36147 -7.26784 20
      vertex 2.36147 -7.26784 8.1
      vertex 0.798792 -7.6 20
    endloop
  endfacet
  facet normal -0.207911 0.978148 0
    outer loop
      vertex 0.798792 -7.6 20
      vertex 2.36147 -7.26784 8.1
      vertex 0.798792 -7.6 8.1
    endloop
  endfacet
  facet normal 5.55951e-16 1 -0
    outer loop
      vertex 0.798792 -7.6 20
      vertex 0.798792 -7.6 8.1
      vertex -0.798792 -7.6 20
    endloop
  endfacet
  facet normal 5.55951e-16 1 -0
    outer loop
      vertex -0.798792 -7.6 20
      vertex 0.798792 -7.6 8.1
      vertex -0.798792 -7.6 8.1
    endloop
  endfacet
  facet normal 0.207911 0.978148 -0
    outer loop
      vertex -0.798792 -7.6 20
      vertex -0.798792 -7.6 8.1
      vertex -2.36147 -7.26784 20
    endloop
  endfacet
  facet normal 0.207911 0.978148 -0
    outer loop
      vertex -2.36147 -7.26784 20
      vertex -0.798792 -7.6 8.1
      vertex -2.36147 -7.26784 8.1
    endloop
  endfacet
  facet normal 0.406737 0.913545 -0
    outer loop
      vertex -2.36147 -7.26784 20
      vertex -2.36147 -7.26784 8.1
      vertex -3.82093 -6.61805 20
    endloop
  endfacet
  facet normal 0.406737 0.913545 -0
    outer loop
      vertex -3.82093 -6.61805 20
      vertex -2.36147 -7.26784 8.1
      vertex -3.82093 -6.61805 8.1
    endloop
  endfacet
  facet normal 0.587785 0.809017 -0
    outer loop
      vertex -3.82093 -6.61805 20
      vertex -3.82093 -6.61805 8.1
      vertex -5.1134 -5.67901 20
    endloop
  endfacet
  facet normal 0.587785 0.809017 -0
    outer loop
      vertex -5.1134 -5.67901 20
      vertex -3.82093 -6.61805 8.1
      vertex -5.1134 -5.67901 8.1
    endloop
  endfacet
  facet normal 0.743145 0.669131 0
    outer loop
      vertex -6.1824 -4.49177 20
      vertex -5.1134 -5.67901 20
      vertex -5.1134 -5.67901 8.1
    endloop
  endfacet
  facet normal 0.743145 0.669131 0
    outer loop
      vertex -6.1824 -4.49177 8.1
      vertex -6.1824 -4.49177 20
      vertex -5.1134 -5.67901 8.1
    endloop
  endfacet
  facet normal 0.866025 0.5 0
    outer loop
      vertex -6.98119 -3.10823 20
      vertex -6.1824 -4.49177 20
      vertex -6.1824 -4.49177 8.1
    endloop
  endfacet
  facet normal 0.866025 0.5 0
    outer loop
      vertex -6.98119 -3.10823 8.1
      vertex -6.98119 -3.10823 20
      vertex -6.1824 -4.49177 8.1
    endloop
  endfacet
  facet normal 0.951056 0.309017 0
    outer loop
      vertex -7.47487 -1.58883 20
      vertex -6.98119 -3.10823 20
      vertex -6.98119 -3.10823 8.1
    endloop
  endfacet
  facet normal 0.951056 0.309017 0
    outer loop
      vertex -7.47487 -1.58883 8.1
      vertex -7.47487 -1.58883 20
      vertex -6.98119 -3.10823 8.1
    endloop
  endfacet
  facet normal 0.866025 -0.5 0
    outer loop
      vertex -2.3344 4.0433 4
      vertex -2.3344 4.0433 8.1
      vertex -4.6688 0 8.1
    endloop
  endfacet
  facet normal 0.866025 -0.5 0
    outer loop
      vertex -4.6688 0 4
      vertex -2.3344 4.0433 4
      vertex -4.6688 0 8.1
    endloop
  endfacet
  facet normal 0.866025 0.5 0
    outer loop
      vertex -4.6688 0 8.1
      vertex -2.3344 -4.0433 8.1
      vertex -2.3344 -4.0433 4
    endloop
  endfacet
  facet normal 0.866025 0.5 0
    outer loop
      vertex -4.6688 0 4
      vertex -4.6688 0 8.1
      vertex -2.3344 -4.0433 4
    endloop
  endfacet
  facet normal 0 1 0
    outer loop
      vertex 2.3344 -4.0433 8.1
      vertex 2.3344 -4.0433 4
      vertex -2.3344 -4.0433 8.1
    endloop
  endfacet
  facet normal 0 1 -0
    outer loop
      vertex -2.3344 -4.0433 8.1
      vertex 2.3344 -4.0433 4
      vertex -2.3344 -4.0433 4
    endloop
  endfacet
  facet normal -0.866025 0.5 0
    outer loop
      vertex 4.6688 0 8.1
      vertex 4.6688 0 4
      vertex 2.3344 -4.0433 8.1
    endloop
  endfacet
  facet normal -0.866025 0.5 0
    outer loop
      vertex 2.3344 -4.0433 8.1
      vertex 4.6688 0 4
      vertex 2.3344 -4.0433 4
    endloop
  endfacet
  facet normal -0.866025 -0.5 0
    outer loop
      vertex 4.6688 0 8.1
      vertex 2.3344 4.0433 8.1
      vertex 4.6688 0 4
    endloop
  endfacet
  facet normal -0.866025 -0.5 0
    outer loop
      vertex 4.6688 0 4
      vertex 2.3344 4.0433 8.1
      vertex 2.3344 4.0433 4
    endloop
  endfacet
  facet normal 0 -1 0
    outer loop
      vertex 2.3344 4.0433 4
      vertex 2.3344 4.0433 8.1
      vertex -2.3344 4.0433 8.1
    endloop
  endfacet
  facet normal -0 -1 -0
    outer loop
      vertex -2.3344 4.0433 4
      vertex 2.3344 4.0433 4
      vertex -2.3344 4.0433 8.1
    endloop
  endfacet
  facet normal 1 0 -0
    outer loop
      vertex 15.4 -4 14.9238
      vertex 15.4 -4 13.0762
      vertex 15.4 -1 13.0762
    endloop
  endfacet
  facet normal 1 0 0
    outer loop
      vertex 15.4 -1 14.9238
      vertex 15.4 -4 14.9238
      vertex 15.4 -1 13.0762
    endloop
  endfacet
  facet normal 0.5 0 0.866025
    outer loop
      vertex 15.4 -4 13.0762
      vertex 17 -4 12.1525
      vertex 17 -1 12.1525
    endloop
  endfacet
  facet normal 0.5 -0 0.866025
    outer loop
      vertex 15.4 -1 13.0762
      vertex 15.4 -4 13.0762
      vertex 17 -1 12.1525
    endloop
  endfacet
  facet normal -0.5 -5.55115e-16 0.866025
    outer loop
      vertex 17 -4 12.1525
      vertex 18.6 -4 13.0762
      vertex 18.6 -1 13.0762
    endloop
  endfacet
  facet normal -0.5 0 0.866025
    outer loop
      vertex 17 -1 12.1525
      vertex 17 -4 12.1525
      vertex 18.6 -1 13.0762
    endloop
  endfacet
  facet normal -1 -1.18424e-15 -0
    outer loop
      vertex 18.6 -4 13.0762
      vertex 18.6 -4 14.9238
      vertex 18.6 -1 13.0762
    endloop
  endfacet
  facet normal -1 -1.18424e-15 -0
    outer loop
      vertex 18.6 -1 13.0762
      vertex 18.6 -4 14.9238
      vertex 18.6 -1 14.9238
    endloop
  endfacet
  facet normal -0.5 -5.92119e-16 -0.866025
    outer loop
      vertex 18.6 -4 14.9238
      vertex 17 -4 15.8475
      vertex 18.6 -1 14.9238
    endloop
  endfacet
  facet normal -0.5 0 -0.866025
    outer loop
      vertex 18.6 -1 14.9238
      vertex 17 -4 15.8475
      vertex 17 -1 15.8475
    endloop
  endfacet
  facet normal 0.5 0 -0.866025
    outer loop
      vertex 17 -4 15.8475
      vertex 15.4 -4 14.9238
      vertex 17 -1 15.8475
    endloop
  endfacet
  facet normal 0.5 0 -0.866025
    outer loop
      vertex 17 -1 15.8475
      vertex 15.4 -4 14.9238
      vertex 15.4 -1 14.9238
    endloop
  endfacet
  facet normal 1 5.92119e-16 -0
    outer loop
      vertex 15.4 1 14.9238
      vertex 15.4 1 13.0762
      vertex 15.4 4 13.0762
    endloop
  endfacet
  facet normal 1 5.92119e-16 -0
    outer loop
      vertex 15.4 4 14.9238
      vertex 15.4 1 14.9238
      vertex 15.4 4 13.0762
    endloop
  endfacet
  facet normal 0.5 5.92119e-16 -0.866025
    outer loop
      vertex 17 1 15.8475
      vertex 15.4 1 14.9238
      vertex 17 4 15.8475
    endloop
  endfacet
  facet normal 0.5 3.33069e-16 -0.866025
    outer loop
      vertex 17 4 15.8475
      vertex 15.4 1 14.9238
      vertex 15.4 4 14.9238
    endloop
  endfacet
  facet normal -0.5 -0 -0.866025
    outer loop
      vertex 18.6 1 14.9238
      vertex 17 1 15.8475
      vertex 18.6 4 14.9238
    endloop
  endfacet
  facet normal -0.5 -5.55115e-16 -0.866025
    outer loop
      vertex 18.6 4 14.9238
      vertex 17 1 15.8475
      vertex 17 4 15.8475
    endloop
  endfacet
  facet normal -1 -0 -0
    outer loop
      vertex 18.6 1 13.0762
      vertex 18.6 1 14.9238
      vertex 18.6 4 13.0762
    endloop
  endfacet
  facet normal -1 0 0
    outer loop
      vertex 18.6 4 13.0762
      vertex 18.6 1 14.9238
      vertex 18.6 4 14.9238
    endloop
  endfacet
  facet normal -0.5 0 0.866025
    outer loop
      vertex 17 1 12.1525
      vertex 18.6 1 13.0762
      vertex 18.6 4 13.0762
    endloop
  endfacet
  facet normal -0.5 0 0.866025
    outer loop
      vertex 17 4 12.1525
      vertex 17 1 12.1525
      vertex 18.6 4 13.0762
    endloop
  endfacet
  facet normal 0.5 0 0.866025
    outer loop
      vertex 15.4 1 13.0762
      vertex 17 1 12.1525
      vertex 17 4 12.1525
    endloop
  endfacet
  facet normal 0.5 2.9606e-16 0.866025
    outer loop
      vertex 15.4 4 13.0762
      vertex 15.4 1 13.0762
      vertex 17 4 12.1525
    endloop
  endfacet
  facet normal 0 0 1
    outer loop
      vertex 2.16916 -1.57599 4
      vertex 2.3344 -4.0433 4
      vertex 4.6688 0 4
    endloop
  endfacet
  facet normal 0 -0 1
    outer loop
      vertex 2.68123 -3.28345e-16 4
      vertex 2.16916 -1.57599 4
      vertex 4.6688 0 4
    endloop
  endfacet
  facet normal 0 0 1
    outer loop
      vertex -4.6688 0 4
      vertex -2.68123 3.28345e-16 4
      vertex -2.3344 4.0433 4
    endloop
  endfacet
  facet normal 0 0 1
    outer loop
      vertex -4.6688 0 4
      vertex -2.3344 -4.0433 4
      vertex -2.68123 3.28345e-16 4
    endloop
  endfacet
  facet normal 0 0 1
    outer loop
      vertex 0.828545 2.55 4
      vertex 2.16916 1.57599 4
      vertex 2.3344 4.0433 4
    endloop
  endfacet
  facet normal 0 0 1
    outer loop
      vertex -0.828545 2.55 4
      vertex 0.828545 2.55 4
      vertex 2.3344 4.0433 4
    endloop
  endfacet
  facet normal 0 0 1
    outer loop
      vertex -2.3344 4.0433 4
      vertex -0.828545 2.55 4
      vertex 2.3344 4.0433 4
    endloop
  endfacet
  facet normal 0 0 1
    outer loop
      vertex -2.3344 4.0433 4
      vertex -2.16916 1.57599 4
      vertex -0.828545 2.55 4
    endloop
  endfacet
  facet normal 0 -0 1
    outer loop
      vertex 2.3344 4.0433 4
      vertex 2.16916 1.57599 4
      vertex 4.6688 0 4
    endloop
  endfacet
  facet normal 0 0 1
    outer loop
      vertex 2.16916 1.57599 4
      vertex 2.68123 -3.28345e-16 4
      vertex 4.6688 0 4
    endloop
  endfacet
  facet normal 0 0 1
    outer loop
      vertex 0.828545 -2.55 4
      vertex 2.3344 -4.0433 4
      vertex 2.16916 -1.57599 4
    endloop
  endfacet
  facet normal -0 0 1
    outer loop
      vertex -0.828545 -2.55 4
      vertex -2.16916 -1.57599 4
      vertex -2.3344 -4.0433 4
    endloop
  endfacet
  facet normal 0 0 1
    outer loop
      vertex -2.3344 -4.0433 4
      vertex 2.3344 -4.0433 4
      vertex 0.828545 -2.55 4
    endloop
  endfacet
  facet normal -0 0 1
    outer loop
      vertex 0.828545 -2.55 4
      vertex -0.828545 -2.55 4
      vertex -2.3344 -4.0433 4
    endloop
  endfacet
  facet normal 0 0 1
    outer loop
      vertex -2.68123 3.28345e-16 4
      vertex -2.16916 1.57599 4
      vertex -2.3344 4.0433 4
    endloop
  endfacet
  facet normal -0 0 1
    outer loop
      vertex -2.16916 -1.57599 4
      vertex -2.68123 3.28345e-16 4
      vertex -2.3344 -4.0433 4
    endloop
  endfacet
endsolid OpenSCAD_Model
