  0
SECTION
  2
BLOCKS
  0
ENDSEC
  0
SECTION
  2
ENTITIES
  0
LINE
  8
0
 10
-17.5
 11
-17.5
 20
-20
 21
-16
  0
LINE
  8
0
 10
-17.5
 11
-15.6
 20
-16
 21
-16
  0
LINE
  8
0
 10
-15.6
 11
-15.6
 20
-16
 21
-20
  0
LINE
  8
0
 10
-15.6
 11
-17.5
 20
-20
 21
-20
  0
LINE
  8
0
 10
-12.5
 11
-12.5
 20
-12
 21
-4
  0
LINE
  8
0
 10
-12.5
 11
-8
 20
-4
 21
-4
  0
LINE
  8
0
 10
-8
 11
-8
 20
-4
 21
-3.9
  0
LINE
  8
0
 10
-8
 11
-1
 20
-3.9
 21
0
  0
LINE
  8
0
 10
-1
 11
-0.25
 20
0
 21
0
  0
LINE
  8
0
 10
-0.25
 11
-0.25
 20
0
 21
-1.25
  0
LINE
  8
0
 10
-0.25
 11
-2.483
 20
-1.25
 21
-2.592
  0
LINE
  8
0
 10
-2.483
 11
-2.5
 20
-2.592
 21
-2.592
  0
LINE
  8
0
 10
-2.5
 11
-2.5
 20
-2.592
 21
-20
  0
LINE
  8
0
 10
-2.5
 11
-12.4
 20
-20
 21
-20
  0
LINE
  8
0
 10
-12.4
 11
-12.4
 20
-20
 21
-16
  0
LINE
  8
0
 10
-12.4
 11
-4.5
 20
-16
 21
-16
  0
LINE
  8
0
 10
-4.5
 11
-4.5
 20
-16
 21
-12
  0
LINE
  8
0
 10
-4.5
 11
-12.5
 20
-12
 21
-12
  0
LINE
  8
0
 10
-11.5
 11
-11.452
 20
-8.5
 21
-8.012
  0
LINE
  8
0
 10
-11.452
 11
-11.31
 20
-8.012
 21
-7.543
  0
LINE
  8
0
 10
-11.31
 11
-11.079
 20
-7.543
 21
-7.111
  0
LINE
  8
0
 10
-11.079
 11
-10.768
 20
-7.111
 21
-6.732
  0
LINE
  8
0
 10
-10.768
 11
-10.389
 20
-6.732
 21
-6.421
  0
LINE
  8
0
 10
-10.389
 11
-9.957
 20
-6.421
 21
-6.19
  0
LINE
  8
0
 10
-9.957
 11
-9.488
 20
-6.19
 21
-6.048
  0
LINE
  8
0
 10
-9.488
 11
-9
 20
-6.048
 21
-6
  0
LINE
  8
0
 10
-9
 11
-8.512
 20
-6
 21
-6.048
  0
LINE
  8
0
 10
-8.512
 11
-8.043
 20
-6.048
 21
-6.19
  0
LINE
  8
0
 10
-8.043
 11
-7.611
 20
-6.19
 21
-6.421
  0
LINE
  8
0
 10
-7.611
 11
-7.232
 20
-6.421
 21
-6.732
  0
LINE
  8
0
 10
-7.232
 11
-6.921
 20
-6.732
 21
-7.111
  0
LINE
  8
0
 10
-6.921
 11
-6.69
 20
-7.111
 21
-7.543
  0
LINE
  8
0
 10
-6.69
 11
-6.548
 20
-7.543
 21
-8.012
  0
LINE
  8
0
 10
-6.548
 11
-6.5
 20
-8.012
 21
-8.5
  0
LINE
  8
0
 10
-6.5
 11
-6.548
 20
-8.5
 21
-8.988
  0
LINE
  8
0
 10
-6.548
 11
-6.69
 20
-8.988
 21
-9.457
  0
LINE
  8
0
 10
-6.69
 11
-6.921
 20
-9.457
 21
-9.889
  0
LINE
  8
0
 10
-6.921
 11
-7.232
 20
-9.889
 21
-10.268
  0
LINE
  8
0
 10
-7.232
 11
-7.611
 20
-10.268
 21
-10.579
  0
LINE
  8
0
 10
-7.611
 11
-8.043
 20
-10.579
 21
-10.81
  0
LINE
  8
0
 10
-8.043
 11
-8.512
 20
-10.81
 21
-10.952
  0
LINE
  8
0
 10
-8.512
 11
-9
 20
-10.952
 21
-11
  0
LINE
  8
0
 10
-9
 11
-9.488
 20
-11
 21
-10.952
  0
LINE
  8
0
 10
-9.488
 11
-9.957
 20
-10.952
 21
-10.81
  0
LINE
  8
0
 10
-9.957
 11
-10.389
 20
-10.81
 21
-10.579
  0
LINE
  8
0
 10
-10.389
 11
-10.768
 20
-10.579
 21
-10.268
  0
LINE
  8
0
 10
-10.768
 11
-11.079
 20
-10.268
 21
-9.889
  0
LINE
  8
0
 10
-11.079
 11
-11.31
 20
-9.889
 21
-9.457
  0
LINE
  8
0
 10
-11.31
 11
-11.452
 20
-9.457
 21
-8.988
  0
LINE
  8
0
 10
-11.452
 11
-11.5
 20
-8.988
 21
-8.5
  0
LINE
  8
0
 10
0.25
 11
0.25
 20
-1.25
 21
0
  0
LINE
  8
0
 10
0.25
 11
1
 20
0
 21
0
  0
LINE
  8
0
 10
1
 11
8
 20
0
 21
-3.9
  0
LINE
  8
0
 10
8
 11
8
 20
-3.9
 21
-4
  0
LINE
  8
0
 10
8
 11
12.5
 20
-4
 21
-4
  0
LINE
  8
0
 10
12.5
 11
12.5
 20
-4
 21
-12
  0
LINE
  8
0
 10
12.5
 11
4.5
 20
-12
 21
-12
  0
LINE
  8
0
 10
4.5
 11
4.5
 20
-12
 21
-16
  0
LINE
  8
0
 10
4.5
 11
12.4
 20
-16
 21
-16
  0
LINE
  8
0
 10
12.4
 11
12.4
 20
-16
 21
-20
  0
LINE
  8
0
 10
12.4
 11
2.5
 20
-20
 21
-20
  0
LINE
  8
0
 10
2.5
 11
2.5
 20
-20
 21
-2.592
  0
LINE
  8
0
 10
2.5
 11
2.483
 20
-2.592
 21
-2.592
  0
LINE
  8
0
 10
2.483
 11
0.25
 20
-2.592
 21
-1.25
  0
LINE
  8
0
 10
4.1
 11
4.117
 20
-6
 21
-5.824
  0
LINE
  8
0
 10
4.117
 11
4.169
 20
-5.824
 21
-5.656
  0
LINE
  8
0
 10
4.169
 11
4.252
 20
-5.656
 21
-5.5
  0
LINE
  8
0
 10
4.252
 11
4.364
 20
-5.5
 21
-5.364
  0
LINE
  8
0
 10
4.364
 11
4.5
 20
-5.364
 21
-5.252
  0
LINE
  8
0
 10
4.5
 11
4.656
 20
-5.252
 21
-5.169
  0
LINE
  8
0
 10
4.656
 11
4.824
 20
-5.169
 21
-5.117
  0
LINE
  8
0
 10
4.824
 11
5
 20
-5.117
 21
-5.1
  0
LINE
  8
0
 10
5
 11
5.176
 20
-5.1
 21
-5.117
  0
LINE
  8
0
 10
5.176
 11
5.344
 20
-5.117
 21
-5.169
  0
LINE
  8
0
 10
5.344
 11
5.5
 20
-5.169
 21
-5.252
  0
LINE
  8
0
 10
5.5
 11
5.636
 20
-5.252
 21
-5.364
  0
LINE
  8
0
 10
5.636
 11
5.748
 20
-5.364
 21
-5.5
  0
LINE
  8
0
 10
5.748
 11
5.831
 20
-5.5
 21
-5.656
  0
LINE
  8
0
 10
5.831
 11
5.883
 20
-5.656
 21
-5.824
  0
LINE
  8
0
 10
5.883
 11
5.9
 20
-5.824
 21
-6
  0
LINE
  8
0
 10
5.9
 11
5.883
 20
-6
 21
-6.176
  0
LINE
  8
0
 10
5.883
 11
5.831
 20
-6.176
 21
-6.344
  0
LINE
  8
0
 10
5.831
 11
5.748
 20
-6.344
 21
-6.5
  0
LINE
  8
0
 10
5.748
 11
5.636
 20
-6.5
 21
-6.636
  0
LINE
  8
0
 10
5.636
 11
5.5
 20
-6.636
 21
-6.748
  0
LINE
  8
0
 10
5.5
 11
5.344
 20
-6.748
 21
-6.831
  0
LINE
  8
0
 10
5.344
 11
5.176
 20
-6.831
 21
-6.883
  0
LINE
  8
0
 10
5.176
 11
5
 20
-6.883
 21
-6.9
  0
LINE
  8
0
 10
5
 11
4.824
 20
-6.9
 21
-6.883
  0
LINE
  8
0
 10
4.824
 11
4.656
 20
-6.883
 21
-6.831
  0
LINE
  8
0
 10
4.656
 11
4.5
 20
-6.831
 21
-6.748
  0
LINE
  8
0
 10
4.5
 11
4.364
 20
-6.748
 21
-6.636
  0
LINE
  8
0
 10
4.364
 11
4.252
 20
-6.636
 21
-6.5
  0
LINE
  8
0
 10
4.252
 11
4.169
 20
-6.5
 21
-6.344
  0
LINE
  8
0
 10
4.169
 11
4.117
 20
-6.344
 21
-6.176
  0
LINE
  8
0
 10
4.117
 11
4.1
 20
-6.176
 21
-6
  0
LINE
  8
0
 10
6.5
 11
6.548
 20
-8.5
 21
-8.012
  0
LINE
  8
0
 10
6.548
 11
6.69
 20
-8.012
 21
-7.543
  0
LINE
  8
0
 10
6.69
 11
6.921
 20
-7.543
 21
-7.111
  0
LINE
  8
0
 10
6.921
 11
7.232
 20
-7.111
 21
-6.732
  0
LINE
  8
0
 10
7.232
 11
7.611
 20
-6.732
 21
-6.421
  0
LINE
  8
0
 10
7.611
 11
8.043
 20
-6.421
 21
-6.19
  0
LINE
  8
0
 10
8.043
 11
8.512
 20
-6.19
 21
-6.048
  0
LINE
  8
0
 10
8.512
 11
9
 20
-6.048
 21
-6
  0
LINE
  8
0
 10
9
 11
9.488
 20
-6
 21
-6.048
  0
LINE
  8
0
 10
9.488
 11
9.957
 20
-6.048
 21
-6.19
  0
LINE
  8
0
 10
9.957
 11
10.389
 20
-6.19
 21
-6.421
  0
LINE
  8
0
 10
10.389
 11
10.768
 20
-6.421
 21
-6.732
  0
LINE
  8
0
 10
10.768
 11
11.079
 20
-6.732
 21
-7.111
  0
LINE
  8
0
 10
11.079
 11
11.31
 20
-7.111
 21
-7.543
  0
LINE
  8
0
 10
11.31
 11
11.452
 20
-7.543
 21
-8.012
  0
LINE
  8
0
 10
11.452
 11
11.5
 20
-8.012
 21
-8.5
  0
LINE
  8
0
 10
11.5
 11
11.452
 20
-8.5
 21
-8.988
  0
LINE
  8
0
 10
11.452
 11
11.31
 20
-8.988
 21
-9.457
  0
LINE
  8
0
 10
11.31
 11
11.079
 20
-9.457
 21
-9.889
  0
LINE
  8
0
 10
11.079
 11
10.768
 20
-9.889
 21
-10.268
  0
LINE
  8
0
 10
10.768
 11
10.389
 20
-10.268
 21
-10.579
  0
LINE
  8
0
 10
10.389
 11
9.957
 20
-10.579
 21
-10.81
  0
LINE
  8
0
 10
9.957
 11
9.488
 20
-10.81
 21
-10.952
  0
LINE
  8
0
 10
9.488
 11
9
 20
-10.952
 21
-11
  0
LINE
  8
0
 10
9
 11
8.512
 20
-11
 21
-10.952
  0
LINE
  8
0
 10
8.512
 11
8.043
 20
-10.952
 21
-10.81
  0
LINE
  8
0
 10
8.043
 11
7.611
 20
-10.81
 21
-10.579
  0
LINE
  8
0
 10
7.611
 11
7.232
 20
-10.579
 21
-10.268
  0
LINE
  8
0
 10
7.232
 11
6.921
 20
-10.268
 21
-9.889
  0
LINE
  8
0
 10
6.921
 11
6.69
 20
-9.889
 21
-9.457
  0
LINE
  8
0
 10
6.69
 11
6.548
 20
-9.457
 21
-8.988
  0
LINE
  8
0
 10
6.548
 11
6.5
 20
-8.988
 21
-8.5
  0
LINE
  8
0
 10
15.6
 11
15.6
 20
-20
 21
-16
  0
LINE
  8
0
 10
15.6
 11
17.5
 20
-16
 21
-16
  0
LINE
  8
0
 10
17.5
 11
17.5
 20
-16
 21
-20
  0
LINE
  8
0
 10
17.5
 11
15.6
 20
-20
 21
-20
  0
ENDSEC
  0
SECTION
  2
OBJECTS
  0
DICTIONARY
  0
ENDSEC
  0
EOF
