  0
SECTION
  2
BLOCKS
  0
ENDSEC
  0
SECTION
  2
ENTITIES
  0
LINE
  8
0
 10
-27
 11
-26.962
 20
0
 21
0.39
  0
LINE
  8
0
 10
-26.962
 11
-26.848
 20
0.39
 21
0.765
  0
LINE
  8
0
 10
-26.848
 11
-26.663
 20
0.765
 21
1.111
  0
LINE
  8
0
 10
-26.663
 11
-26.414
 20
1.111
 21
1.414
  0
LINE
  8
0
 10
-26.414
 11
-26.111
 20
1.414
 21
1.663
  0
LINE
  8
0
 10
-26.111
 11
-25.765
 20
1.663
 21
1.848
  0
LINE
  8
0
 10
-25.765
 11
-25.39
 20
1.848
 21
1.962
  0
LINE
  8
0
 10
-25.39
 11
-25
 20
1.962
 21
2
  0
LINE
  8
0
 10
-25
 11
-24.61
 20
2
 21
1.962
  0
LINE
  8
0
 10
-24.61
 11
-24.235
 20
1.962
 21
1.848
  0
LINE
  8
0
 10
-24.235
 11
-23.889
 20
1.848
 21
1.663
  0
LINE
  8
0
 10
-23.889
 11
-23.586
 20
1.663
 21
1.414
  0
LINE
  8
0
 10
-23.586
 11
-23.337
 20
1.414
 21
1.111
  0
LINE
  8
0
 10
-23.337
 11
-23.152
 20
1.111
 21
0.765
  0
LINE
  8
0
 10
-23.152
 11
-23.038
 20
0.765
 21
0.39
  0
LINE
  8
0
 10
-23.038
 11
-23
 20
0.39
 21
0
  0
LINE
  8
0
 10
-23
 11
-23.038
 20
0
 21
-0.39
  0
LINE
  8
0
 10
-23.038
 11
-23.152
 20
-0.39
 21
-0.765
  0
LINE
  8
0
 10
-23.152
 11
-23.337
 20
-0.765
 21
-1.111
  0
LINE
  8
0
 10
-23.337
 11
-23.586
 20
-1.111
 21
-1.414
  0
LINE
  8
0
 10
-23.586
 11
-23.889
 20
-1.414
 21
-1.663
  0
LINE
  8
0
 10
-23.889
 11
-24.235
 20
-1.663
 21
-1.848
  0
LINE
  8
0
 10
-24.235
 11
-24.61
 20
-1.848
 21
-1.962
  0
LINE
  8
0
 10
-24.61
 11
-25
 20
-1.962
 21
-2
  0
LINE
  8
0
 10
-25
 11
-25.39
 20
-2
 21
-1.962
  0
LINE
  8
0
 10
-25.39
 11
-25.765
 20
-1.962
 21
-1.848
  0
LINE
  8
0
 10
-25.765
 11
-26.111
 20
-1.848
 21
-1.663
  0
LINE
  8
0
 10
-26.111
 11
-26.414
 20
-1.663
 21
-1.414
  0
LINE
  8
0
 10
-26.414
 11
-26.663
 20
-1.414
 21
-1.111
  0
LINE
  8
0
 10
-26.663
 11
-26.848
 20
-1.111
 21
-0.765
  0
LINE
  8
0
 10
-26.848
 11
-26.962
 20
-0.765
 21
-0.39
  0
LINE
  8
0
 10
-26.962
 11
-27
 20
-0.39
 21
0
  0
LINE
  8
0
 10
-16
 11
-15.962
 20
0
 21
0.39
  0
LINE
  8
0
 10
-15.962
 11
-15.848
 20
0.39
 21
0.765
  0
LINE
  8
0
 10
-15.848
 11
-15.663
 20
0.765
 21
1.111
  0
LINE
  8
0
 10
-15.663
 11
-15.414
 20
1.111
 21
1.414
  0
LINE
  8
0
 10
-15.414
 11
-15.111
 20
1.414
 21
1.663
  0
LINE
  8
0
 10
-15.111
 11
-14.765
 20
1.663
 21
1.848
  0
LINE
  8
0
 10
-14.765
 11
-14.39
 20
1.848
 21
1.962
  0
LINE
  8
0
 10
-14.39
 11
-14
 20
1.962
 21
2
  0
LINE
  8
0
 10
-14
 11
-13.61
 20
2
 21
1.962
  0
LINE
  8
0
 10
-13.61
 11
-13.235
 20
1.962
 21
1.848
  0
LINE
  8
0
 10
-13.235
 11
-12.889
 20
1.848
 21
1.663
  0
LINE
  8
0
 10
-12.889
 11
-12.586
 20
1.663
 21
1.414
  0
LINE
  8
0
 10
-12.586
 11
-12.337
 20
1.414
 21
1.111
  0
LINE
  8
0
 10
-12.337
 11
-12.152
 20
1.111
 21
0.765
  0
LINE
  8
0
 10
-12.152
 11
-12.038
 20
0.765
 21
0.39
  0
LINE
  8
0
 10
-12.038
 11
-12
 20
0.39
 21
0
  0
LINE
  8
0
 10
-12
 11
-12.038
 20
0
 21
-0.39
  0
LINE
  8
0
 10
-12.038
 11
-12.152
 20
-0.39
 21
-0.765
  0
LINE
  8
0
 10
-12.152
 11
-12.337
 20
-0.765
 21
-1.111
  0
LINE
  8
0
 10
-12.337
 11
-12.586
 20
-1.111
 21
-1.414
  0
LINE
  8
0
 10
-12.586
 11
-12.889
 20
-1.414
 21
-1.663
  0
LINE
  8
0
 10
-12.889
 11
-13.235
 20
-1.663
 21
-1.848
  0
LINE
  8
0
 10
-13.235
 11
-13.61
 20
-1.848
 21
-1.962
  0
LINE
  8
0
 10
-13.61
 11
-14
 20
-1.962
 21
-2
  0
LINE
  8
0
 10
-14
 11
-14.39
 20
-2
 21
-1.962
  0
LINE
  8
0
 10
-14.39
 11
-14.765
 20
-1.962
 21
-1.848
  0
LINE
  8
0
 10
-14.765
 11
-15.111
 20
-1.848
 21
-1.663
  0
LINE
  8
0
 10
-15.111
 11
-15.414
 20
-1.663
 21
-1.414
  0
LINE
  8
0
 10
-15.414
 11
-15.663
 20
-1.414
 21
-1.111
  0
LINE
  8
0
 10
-15.663
 11
-15.848
 20
-1.111
 21
-0.765
  0
LINE
  8
0
 10
-15.848
 11
-15.962
 20
-0.765
 21
-0.39
  0
LINE
  8
0
 10
-15.962
 11
-16
 20
-0.39
 21
0
  0
LINE
  8
0
 10
-8.5
 11
-8.5
 20
-8.5
 21
8.5
  0
LINE
  8
0
 10
-8.5
 11
8.5
 20
8.5
 21
8.5
  0
LINE
  8
0
 10
8.5
 11
8.5
 20
8.5
 21
-8.5
  0
LINE
  8
0
 10
8.5
 11
-8.5
 20
-8.5
 21
-8.5
  0
LINE
  8
0
 10
-35
 11
-35
 20
-15
 21
15
  0
LINE
  8
0
 10
-35
 11
35
 20
15
 21
15
  0
LINE
  8
0
 10
35
 11
35
 20
15
 21
-15
  0
LINE
  8
0
 10
35
 11
-35
 20
-15
 21
-15
  0
LINE
  8
0
 10
12
 11
12.038
 20
0
 21
0.39
  0
LINE
  8
0
 10
12.038
 11
12.152
 20
0.39
 21
0.765
  0
LINE
  8
0
 10
12.152
 11
12.337
 20
0.765
 21
1.111
  0
LINE
  8
0
 10
12.337
 11
12.586
 20
1.111
 21
1.414
  0
LINE
  8
0
 10
12.586
 11
12.889
 20
1.414
 21
1.663
  0
LINE
  8
0
 10
12.889
 11
13.235
 20
1.663
 21
1.848
  0
LINE
  8
0
 10
13.235
 11
13.61
 20
1.848
 21
1.962
  0
LINE
  8
0
 10
13.61
 11
14
 20
1.962
 21
2
  0
LINE
  8
0
 10
14
 11
14.39
 20
2
 21
1.962
  0
LINE
  8
0
 10
14.39
 11
14.765
 20
1.962
 21
1.848
  0
LINE
  8
0
 10
14.765
 11
15.111
 20
1.848
 21
1.663
  0
LINE
  8
0
 10
15.111
 11
15.414
 20
1.663
 21
1.414
  0
LINE
  8
0
 10
15.414
 11
15.663
 20
1.414
 21
1.111
  0
LINE
  8
0
 10
15.663
 11
15.848
 20
1.111
 21
0.765
  0
LINE
  8
0
 10
15.848
 11
15.962
 20
0.765
 21
0.39
  0
LINE
  8
0
 10
15.962
 11
16
 20
0.39
 21
0
  0
LINE
  8
0
 10
16
 11
15.962
 20
0
 21
-0.39
  0
LINE
  8
0
 10
15.962
 11
15.848
 20
-0.39
 21
-0.765
  0
LINE
  8
0
 10
15.848
 11
15.663
 20
-0.765
 21
-1.111
  0
LINE
  8
0
 10
15.663
 11
15.414
 20
-1.111
 21
-1.414
  0
LINE
  8
0
 10
15.414
 11
15.111
 20
-1.414
 21
-1.663
  0
LINE
  8
0
 10
15.111
 11
14.765
 20
-1.663
 21
-1.848
  0
LINE
  8
0
 10
14.765
 11
14.39
 20
-1.848
 21
-1.962
  0
LINE
  8
0
 10
14.39
 11
14
 20
-1.962
 21
-2
  0
LINE
  8
0
 10
14
 11
13.61
 20
-2
 21
-1.962
  0
LINE
  8
0
 10
13.61
 11
13.235
 20
-1.962
 21
-1.848
  0
LINE
  8
0
 10
13.235
 11
12.889
 20
-1.848
 21
-1.663
  0
LINE
  8
0
 10
12.889
 11
12.586
 20
-1.663
 21
-1.414
  0
LINE
  8
0
 10
12.586
 11
12.337
 20
-1.414
 21
-1.111
  0
LINE
  8
0
 10
12.337
 11
12.152
 20
-1.111
 21
-0.765
  0
LINE
  8
0
 10
12.152
 11
12.038
 20
-0.765
 21
-0.39
  0
LINE
  8
0
 10
12.038
 11
12
 20
-0.39
 21
0
  0
LINE
  8
0
 10
23
 11
23.038
 20
0
 21
0.39
  0
LINE
  8
0
 10
23.038
 11
23.152
 20
0.39
 21
0.765
  0
LINE
  8
0
 10
23.152
 11
23.337
 20
0.765
 21
1.111
  0
LINE
  8
0
 10
23.337
 11
23.586
 20
1.111
 21
1.414
  0
LINE
  8
0
 10
23.586
 11
23.889
 20
1.414
 21
1.663
  0
LINE
  8
0
 10
23.889
 11
24.235
 20
1.663
 21
1.848
  0
LINE
  8
0
 10
24.235
 11
24.61
 20
1.848
 21
1.962
  0
LINE
  8
0
 10
24.61
 11
25
 20
1.962
 21
2
  0
LINE
  8
0
 10
25
 11
25.39
 20
2
 21
1.962
  0
LINE
  8
0
 10
25.39
 11
25.765
 20
1.962
 21
1.848
  0
LINE
  8
0
 10
25.765
 11
26.111
 20
1.848
 21
1.663
  0
LINE
  8
0
 10
26.111
 11
26.414
 20
1.663
 21
1.414
  0
LINE
  8
0
 10
26.414
 11
26.663
 20
1.414
 21
1.111
  0
LINE
  8
0
 10
26.663
 11
26.848
 20
1.111
 21
0.765
  0
LINE
  8
0
 10
26.848
 11
26.962
 20
0.765
 21
0.39
  0
LINE
  8
0
 10
26.962
 11
27
 20
0.39
 21
0
  0
LINE
  8
0
 10
27
 11
26.962
 20
0
 21
-0.39
  0
LINE
  8
0
 10
26.962
 11
26.848
 20
-0.39
 21
-0.765
  0
LINE
  8
0
 10
26.848
 11
26.663
 20
-0.765
 21
-1.111
  0
LINE
  8
0
 10
26.663
 11
26.414
 20
-1.111
 21
-1.414
  0
LINE
  8
0
 10
26.414
 11
26.111
 20
-1.414
 21
-1.663
  0
LINE
  8
0
 10
26.111
 11
25.765
 20
-1.663
 21
-1.848
  0
LINE
  8
0
 10
25.765
 11
25.39
 20
-1.848
 21
-1.962
  0
LINE
  8
0
 10
25.39
 11
25
 20
-1.962
 21
-2
  0
LINE
  8
0
 10
25
 11
24.61
 20
-2
 21
-1.962
  0
LINE
  8
0
 10
24.61
 11
24.235
 20
-1.962
 21
-1.848
  0
LINE
  8
0
 10
24.235
 11
23.889
 20
-1.848
 21
-1.663
  0
LINE
  8
0
 10
23.889
 11
23.586
 20
-1.663
 21
-1.414
  0
LINE
  8
0
 10
23.586
 11
23.337
 20
-1.414
 21
-1.111
  0
LINE
  8
0
 10
23.337
 11
23.152
 20
-1.111
 21
-0.765
  0
LINE
  8
0
 10
23.152
 11
23.038
 20
-0.765
 21
-0.39
  0
LINE
  8
0
 10
23.038
 11
23
 20
-0.39
 21
0
  0
ENDSEC
  0
SECTION
  2
OBJECTS
  0
DICTIONARY
  0
ENDSEC
  0
EOF
