999
dxflib 2.2.0.0
  0
SECTION
  2
HEADER
  9
$ACADVER
  1
AC1015
  9
$HANDSEED
  5
FFFF
  9
$SPLINESEGS
 70
8
  9
$DIMEXE
 40
1.25
  9
$DIMLUNIT
 70
2
  9
$GRIDMODE
 70
0
  9
$INSUNITS
 70
4
  9
$DIMADEC
 70
1
  9
$DIMASZ
 40
2.5
  9
$DIMGAP
 40
0.625
  9
$DIMTXT
 40
2.5
  9
$GRIDUNIT
 10
0.0
 20
0.0
  9
$DIMEXO
 40
0.625
  9
$LUPREC
 70
2
  9
$DIMAUNIT
 70
0
  9
$AUPREC
 70
1
  9
$PLIMMIN
 10
0.0
 20
0.0
  9
$LUNITS
 70
2
  9
$PLIMMAX
 10
210.0
 20
297.0
  9
$AUNITS
 70
0
  0
ENDSEC
  0
SECTION
  2
TABLES
  0
TABLE
  2
VPORT
  5
8
100
AcDbSymbolTable
 70
1
  0
VPORT
  5
30
100
AcDbSymbolTableRecord
100
AcDbViewportTableRecord
  2
*Active
 70
0
 10
0.0
 20
0.0
 11
1.0
 21
1.0
 12
286.3055555555554861
 22
148.5
 13
0.0
 23
0.0
 14
10.0
 24
10.0
 15
10.0
 25
10.0
 16
0.0
 26
0.0
 36
1.0
 17
0.0
 27
0.0
 37
0.0
 40
297.0
 41
1.92798353909465
 42
50.0
 43
0.0
 44
0.0
 50
0.0
 51
0.0
 71
0
 72
100
 73
1
 74
3
 75
1
 76
1
 77
0
 78
0
281
0
 65
1
110
0.0
120
0.0
130
0.0
111
1.0
121
0.0
131
0.0
112
0.0
122
1.0
132
0.0
 79
0
146
0.0
  0
ENDTAB
  0
TABLE
  2
LTYPE
  5
5
100
AcDbSymbolTable
 70
21
  0
LTYPE
  5
14
100
AcDbSymbolTableRecord
100
AcDbLinetypeTableRecord
  2
ByBlock
 70
0
  3

 72
65
 73
0
 40
0.0
  0
LTYPE
  5
15
100
AcDbSymbolTableRecord
100
AcDbLinetypeTableRecord
  2
ByLayer
 70
0
  3

 72
65
 73
0
 40
0.0
  0
LTYPE
  5
16
100
AcDbSymbolTableRecord
100
AcDbLinetypeTableRecord
  2
CONTINUOUS
 70
0
  3
Solid line
 72
65
 73
0
 40
0.0
  0
LTYPE
  5
31
100
AcDbSymbolTableRecord
100
AcDbLinetypeTableRecord
  2
DOT
 70
0
  3
Dot . . . . . . . . . . . . . . . . . . . . . .
 72
65
 73
2
 40
6.3499999999999996
 49
0.0
 74
0
 49
-6.3499999999999996
 74
0
  0
LTYPE
  5
32
100
AcDbSymbolTableRecord
100
AcDbLinetypeTableRecord
  2
DOT2
 70
0
  3
Dot (.5x) .....................................
 72
65
 73
2
 40
3.1749999999999998
 49
0.0
 74
0
 49
-3.1749999999999998
 74
0
  0
LTYPE
  5
33
100
AcDbSymbolTableRecord
100
AcDbLinetypeTableRecord
  2
DOTX2
 70
0
  3
Dot (2x) .  .  .  .  .  .  .  .  .  .  .  .  .
 72
65
 73
2
 40
12.6999999999999993
 49
0.0
 74
0
 49
-12.6999999999999993
 74
0
  0
LTYPE
  5
34
100
AcDbSymbolTableRecord
100
AcDbLinetypeTableRecord
  2
DASHED
 70
0
  3
Dashed __ __ __ __ __ __ __ __ __ __ __ __ __ _
 72
65
 73
2
 40
19.0500000000000007
 49
12.6999999999999993
 74
0
 49
-6.3499999999999996
 74
0
  0
LTYPE
  5
35
100
AcDbSymbolTableRecord
100
AcDbLinetypeTableRecord
  2
DASHED2
 70
0
  3
Dashed (.5x) _ _ _ _ _ _ _ _ _ _ _ _ _ _ _ _ _
 72
65
 73
2
 40
9.5250000000000004
 49
6.3499999999999996
 74
0
 49
-3.1749999999999998
 74
0
  0
LTYPE
  5
36
100
AcDbSymbolTableRecord
100
AcDbLinetypeTableRecord
  2
DASHEDX2
 70
0
  3
Dashed (2x) ____  ____  ____  ____  ____  ___
 72
65
 73
2
 40
38.1000000000000014
 49
25.3999999999999986
 74
0
 49
-12.6999999999999993
 74
0
  0
LTYPE
  5
37
100
AcDbSymbolTableRecord
100
AcDbLinetypeTableRecord
  2
DASHDOT
 70
0
  3
Dash dot __ . __ . __ . __ . __ . __ . __ . __
 72
65
 73
4
 40
25.3999999999999986
 49
12.6999999999999993
 74
0
 49
-6.3499999999999996
 74
0
 49
0.0
 74
0
 49
-6.3499999999999996
 74
0
  0
LTYPE
  5
38
100
AcDbSymbolTableRecord
100
AcDbLinetypeTableRecord
  2
DASHDOT2
 70
0
  3
Dash dot (.5x) _._._._._._._._._._._._._._._.
 72
65
 73
4
 40
12.6999999999999993
 49
6.3499999999999996
 74
0
 49
-3.1749999999999998
 74
0
 49
0.0
 74
0
 49
-3.1749999999999998
 74
0
  0
LTYPE
  5
39
100
AcDbSymbolTableRecord
100
AcDbLinetypeTableRecord
  2
DASHDOTX2
 70
0
  3
Dash dot (2x) ____  .  ____  .  ____  .  ___
 72
65
 73
4
 40
50.7999999999999972
 49
25.3999999999999986
 74
0
 49
-12.6999999999999993
 74
0
 49
0.0
 74
0
 49
-12.6999999999999993
 74
0
  0
LTYPE
  5
3A
100
AcDbSymbolTableRecord
100
AcDbLinetypeTableRecord
  2
DIVIDE
 70
0
  3
Divide ____ . . ____ . . ____ . . ____ . . ____
 72
65
 73
6
 40
31.75
 49
12.6999999999999993
 74
0
 49
-6.3499999999999996
 74
0
 49
0.0
 74
0
 49
-6.3499999999999996
 74
0
 49
0.0
 74
0
 49
-6.3499999999999996
 74
0
  0
LTYPE
  5
3B
100
AcDbSymbolTableRecord
100
AcDbLinetypeTableRecord
  2
DIVIDE2
 70
0
  3
Divide (.5x) __..__..__..__..__..__..__..__.._
 72
65
 73
6
 40
15.875
 49
6.3499999999999996
 74
0
 49
-3.1749999999999998
 74
0
 49
0.0
 74
0
 49
-3.1749999999999998
 74
0
 49
0.0
 74
0
 49
-3.1749999999999998
 74
0
  0
LTYPE
  5
3C
100
AcDbSymbolTableRecord
100
AcDbLinetypeTableRecord
  2
DIVIDEX2
 70
0
  3
Divide (2x) ________  .  .  ________  .  .  _
 72
65
 73
6
 40
63.5
 49
25.3999999999999986
 74
0
 49
-12.6999999999999993
 74
0
 49
0.0
 74
0
 49
-12.6999999999999993
 74
0
 49
0.0
 74
0
 49
-12.6999999999999993
 74
0
  0
LTYPE
  5
3D
100
AcDbSymbolTableRecord
100
AcDbLinetypeTableRecord
  2
CENTER
 70
0
  3
Center ____ _ ____ _ ____ _ ____ _ ____ _ ____
 72
65
 73
4
 40
50.7999999999999972
 49
31.75
 74
0
 49
-6.3499999999999996
 74
0
 49
6.3499999999999996
 74
0
 49
-6.3499999999999996
 74
0
  0
LTYPE
  5
3E
100
AcDbSymbolTableRecord
100
AcDbLinetypeTableRecord
  2
CENTER2
 70
0
  3
Center (.5x) ___ _ ___ _ ___ _ ___ _ ___ _ ___
 72
65
 73
4
 40
28.5749999999999993
 49
19.0500000000000007
 74
0
 49
-3.1749999999999998
 74
0
 49
3.1749999999999998
 74
0
 49
-3.1749999999999998
 74
0
  0
LTYPE
  5
3F
100
AcDbSymbolTableRecord
100
AcDbLinetypeTableRecord
  2
CENTERX2
 70
0
  3
Center (2x) ________  __  ________  __  _____
 72
65
 73
4
 40
101.5999999999999943
 49
63.5
 74
0
 49
-12.6999999999999993
 74
0
 49
12.6999999999999993
 74
0
 49
-12.6999999999999993
 74
0
  0
LTYPE
  5
40
100
AcDbSymbolTableRecord
100
AcDbLinetypeTableRecord
  2
BORDER
 70
0
  3
Border __ __ . __ __ . __ __ . __ __ . __ __ .
 72
65
 73
6
 40
44.4500000000000028
 49
12.6999999999999993
 74
0
 49
-6.3499999999999996
 74
0
 49
12.6999999999999993
 74
0
 49
-6.3499999999999996
 74
0
 49
0.0
 74
0
 49
-6.3499999999999996
 74
0
  0
LTYPE
  5
41
100
AcDbSymbolTableRecord
100
AcDbLinetypeTableRecord
  2
BORDER2
 70
0
  3
Border (.5x) __.__.__.__.__.__.__.__.__.__.__.
 72
65
 73
6
 40
22.2250000000000014
 49
6.3499999999999996
 74
0
 49
-3.1749999999999998
 74
0
 49
6.3499999999999996
 74
0
 49
-3.1749999999999998
 74
0
 49
0.0
 74
0
 49
-3.1749999999999998
 74
0
  0
LTYPE
  5
42
100
AcDbSymbolTableRecord
100
AcDbLinetypeTableRecord
  2
BORDERX2
 70
0
  3
Border (2x) ____  ____  .  ____  ____  .  ___
 72
65
 73
6
 40
88.9000000000000057
 49
25.3999999999999986
 74
0
 49
-12.6999999999999993
 74
0
 49
25.3999999999999986
 74
0
 49
-12.6999999999999993
 74
0
 49
0.0
 74
0
 49
-12.6999999999999993
 74
0
  0
ENDTAB
  0
TABLE
  2
LAYER
  5
2
100
AcDbSymbolTable
 70
9
  0
LAYER
  5
10
100
AcDbSymbolTableRecord
100
AcDbLayerTableRecord
  2
0
 70
0
 62
7
  6
CONTINUOUS
290
1
370
0
390
F
  0
LAYER
  5
43
100
AcDbSymbolTableRecord
100
AcDbLayerTableRecord
  2
H
 70
1
 62
1
  6
CONTINUOUS
290
1
370
0
390
F
  0
LAYER
  5
44
100
AcDbSymbolTableRecord
100
AcDbLayerTableRecord
  2
M
 70
1
 62
1
  6
DASHDOT
290
1
370
0
390
F
  0
LAYER
  5
45
100
AcDbSymbolTableRecord
100
AcDbLayerTableRecord
  2
Bohrungen
 70
0
 62
7
  6
CONTINUOUS
290
1
370
25
390
F
  0
LAYER
  5
46
100
AcDbSymbolTableRecord
100
AcDbLayerTableRecord
  2
HeaterBlock
 70
0
 62
7
  6
CONTINUOUS
290
1
370
25
390
F
  0
LAYER
  5
47
100
AcDbSymbolTableRecord
100
AcDbLayerTableRecord
  2
H Bohrungen
 70
1
 62
6
  6
CONTINUOUS
290
1
370
0
390
F
  0
LAYER
  5
48
100
AcDbSymbolTableRecord
100
AcDbLayerTableRecord
  2
Bohrungen verdeckt
 70
0
 62
7
  6
DASHED2
290
1
370
18
390
F
  0
LAYER
  5
49
100
AcDbSymbolTableRecord
100
AcDbLayerTableRecord
  2
 H Nozzle
 70
1
 62
3
  6
CONTINUOUS
290
1
370
0
390
F
  0
LAYER
  5
4A
100
AcDbSymbolTableRecord
100
AcDbLayerTableRecord
  2
Masze
 70
0
 62
3
  6
CONTINUOUS
290
1
370
18
390
F
  0
ENDTAB
  0
TABLE
  2
STYLE
  5
3
100
AcDbSymbolTable
 70
1
  0
STYLE
  5
11
100
AcDbSymbolTableRecord
100
AcDbTextStyleTableRecord
  2
Standard
 70
0
 40
0.0
 41
0.75
 50
0.0
 71
0
 42
2.5
  3
txt
  4

  0
ENDTAB
  0
TABLE
  2
VIEW
  5
6
100
AcDbSymbolTable
 70
0
  0
ENDTAB
  0
TABLE
  2
UCS
  5
7
100
AcDbSymbolTable
 70
0
  0
ENDTAB
  0
TABLE
  2
APPID
  5
9
100
AcDbSymbolTable
 70
1
  0
APPID
  5
12
100
AcDbSymbolTableRecord
100
AcDbRegAppTableRecord
  2
ACAD
 70
0
  0
ENDTAB
  0
TABLE
  2
DIMSTYLE
  5
A
100
AcDbSymbolTable
 70
1
100
AcDbDimStyleTable
 71
0
  0
DIMSTYLE
105
27
100
AcDbSymbolTableRecord
100
AcDbDimStyleTableRecord
  2
Standard
 41
2.5
 42
0.625
 43
3.75
 44
1.25
 70
0
 73
0
 74
0
 77
1
 78
8
140
2.5
141
2.5
143
0.03937007874016
147
0.625
171
3
172
1
271
2
272
2
274
3
278
44
283
0
284
8
340
11
  0
ENDTAB
  0
TABLE
  2
BLOCK_RECORD
  5
1
100
AcDbSymbolTable
 70
1
  0
BLOCK_RECORD
  5
1F
100
AcDbSymbolTableRecord
100
AcDbBlockTableRecord
  2
*Model_Space
340
22
  0
BLOCK_RECORD
  5
1B
100
AcDbSymbolTableRecord
100
AcDbBlockTableRecord
  2
*Paper_Space
340
1E
  0
BLOCK_RECORD
  5
23
100
AcDbSymbolTableRecord
100
AcDbBlockTableRecord
  2
*Paper_Space0
340
26
  0
ENDTAB
  0
ENDSEC
  0
SECTION
  2
BLOCKS
  0
BLOCK
  5
20
100
AcDbEntity
  8
0
100
AcDbBlockBegin
  2
*Model_Space
 70
0
 10
0.0
 20
0.0
 30
0.0
  3
*Model_Space
  1

  0
ENDBLK
  5
21
100
AcDbEntity
  8
0
100
AcDbBlockEnd
  0
BLOCK
  5
1C
100
AcDbEntity
 67
1
  8
0
100
AcDbBlockBegin
  2
*Paper_Space
 70
0
 10
0.0
 20
0.0
 30
0.0
  3
*Paper_Space
  1

  0
ENDBLK
  5
1D
100
AcDbEntity
 67
1
  8
0
100
AcDbBlockEnd
  0
BLOCK
  5
24
100
AcDbEntity
  8
0
100
AcDbBlockBegin
  2
*Paper_Space0
 70
0
 10
0.0
 20
0.0
 30
0.0
  3
*Paper_Space0
  1

  0
ENDBLK
  5
25
100
AcDbEntity
  8
0
100
AcDbBlockEnd
  0
ENDSEC
  0
SECTION
  2
ENTITIES
  0
LINE
  5
4B
100
AcDbEntity
100
AcDbLine
  8
H
 62
256
370
-1
  6
ByLayer
 10
-17.5
 20
0.0
 30
0.0
 11
17.5
 21
0.0
 31
0.0
  0
LINE
  5
4C
100
AcDbEntity
100
AcDbLine
  8
H
 62
256
370
-1
  6
ByLayer
 10
-17.5000000000000036
 20
-12.0
 30
0.0
 11
17.4999999999999964
 21
-12.0
 31
0.0
  0
LINE
  5
4D
100
AcDbEntity
100
AcDbLine
  8
H
 62
256
370
-1
  6
ByLayer
 10
-17.5000000000000107
 20
-42.0
 30
0.0
 11
17.4999999999999893
 21
-42.0
 31
0.0
  0
LINE
  5
4E
100
AcDbEntity
100
AcDbLine
  8
H
 62
256
370
-1
  6
ByLayer
 10
-17.5000000000000142
 20
-62.0
 30
0.0
 11
17.4999999999999858
 21
-62.0
 31
0.0
  0
LINE
  5
4F
100
AcDbEntity
100
AcDbLine
  8
H
 62
256
370
-1
  6
ByLayer
 10
-17.5
 20
0.0
 30
0.0
 11
-17.5000000000000142
 21
-62.0
 31
0.0
  0
LINE
  5
50
100
AcDbEntity
100
AcDbLine
  8
H
 62
256
370
-1
  6
ByLayer
 10
17.5
 20
0.0
 30
0.0
 11
17.4999999999999858
 21
-62.0
 31
0.0
  0
LINE
  5
51
100
AcDbEntity
100
AcDbLine
  8
M
 62
256
370
-1
  6
ByLayer
 10
-17.5
 20
-6.0
 30
0.0
 11
17.5
 21
-6.0
 31
0.0
  0
LINE
  5
52
100
AcDbEntity
100
AcDbLine
  8
H
 62
256
370
-1
  6
ByLayer
 10
6.5
 20
-0.0000000000000059
 30
0.0
 11
6.4999999999999858
 21
-62.0000000000000071
 31
0.0
  0
CIRCLE
  5
53
100
AcDbEntity
100
AcDbCircle
  8
Bohrungen
 62
256
370
-1
  6
ByLayer
 10
-2.5000000000000013
 20
-6.0
 30
0.0
 40
2.5
  0
LINE
  5
54
100
AcDbEntity
100
AcDbLine
  8
HeaterBlock
 62
256
370
-1
  6
ByLayer
 10
-17.5
 20
0.0
 30
0.0
 11
17.5
 21
0.0
 31
0.0
  0
LINE
  5
55
100
AcDbEntity
100
AcDbLine
  8
HeaterBlock
 62
256
370
-1
  6
ByLayer
 10
17.5
 20
0.0
 30
0.0
 11
17.4999999999999964
 21
-12.0
 31
0.0
  0
LINE
  5
56
100
AcDbEntity
100
AcDbLine
  8
HeaterBlock
 62
256
370
-1
  6
ByLayer
 10
17.4999999999999964
 20
-12.0
 30
0.0
 11
-17.5000000000000036
 21
-12.0
 31
0.0
  0
LINE
  5
57
100
AcDbEntity
100
AcDbLine
  8
HeaterBlock
 62
256
370
-1
  6
ByLayer
 10
-17.5000000000000036
 20
-12.0
 30
0.0
 11
-17.5
 21
0.0
 31
0.0
  0
LINE
  5
58
100
AcDbEntity
100
AcDbLine
  8
H
 62
256
370
-1
  6
ByLayer
 10
-9.5
 20
-0.000000000000002
 30
0.0
 11
-9.5000000000000142
 21
-62.0
 31
0.0
  0
LINE
  5
59
100
AcDbEntity
100
AcDbLine
  8
H Bohrungen
 62
256
370
-1
  6
ByLayer
 10
-10.5
 20
-0.0000000000000016
 30
0.0
 11
-10.5000000000000142
 21
-62.0
 31
0.0
  0
LINE
  5
5A
100
AcDbEntity
100
AcDbLine
  8
H Bohrungen
 62
256
370
-1
  6
ByLayer
 10
-8.5
 20
-0.0000000000000022
 30
0.0
 11
-8.5000000000000142
 21
-62.0
 31
0.0
  0
LINE
  5
5B
100
AcDbEntity
100
AcDbLine
  8
H Bohrungen
 62
256
370
-1
  6
ByLayer
 10
4.0
 20
-0.000000000000005
 30
0.0
 11
3.9999999999999858
 21
-62.0000000000000071
 31
0.0
  0
LINE
  5
5C
100
AcDbEntity
100
AcDbLine
  8
H Bohrungen
 62
256
370
-1
  6
ByLayer
 10
9.0
 20
-0.0000000000000065
 30
0.0
 11
8.9999999999999858
 21
-62.0000000000000071
 31
0.0
  0
LINE
  5
5D
100
AcDbEntity
100
AcDbLine
  8
Bohrungen verdeckt
 62
256
370
-1
  6
ByLayer
 10
-10.5
 20
0.0
 30
0.0
 11
-10.5000000000000036
 21
-12.0
 31
0.0
  0
LINE
  5
5E
100
AcDbEntity
100
AcDbLine
  8
Bohrungen verdeckt
 62
256
370
-1
  6
ByLayer
 10
-8.5
 20
0.0
 30
0.0
 11
-8.5000000000000036
 21
-12.0
 31
0.0
  0
LINE
  5
5F
100
AcDbEntity
100
AcDbLine
  8
Bohrungen verdeckt
 62
256
370
-1
  6
ByLayer
 10
3.9999999999999991
 20
0.0
 30
0.0
 11
3.9999999999999973
 21
-12.0
 31
0.0
  0
LINE
  5
60
100
AcDbEntity
100
AcDbLine
  8
Bohrungen verdeckt
 62
256
370
-1
  6
ByLayer
 10
9.0
 20
0.0
 30
0.0
 11
8.9999999999999964
 21
-12.0
 31
0.0
  0
LINE
  5
61
100
AcDbEntity
100
AcDbLine
  8
H
 62
256
370
-1
  6
ByLayer
 10
-17.5000000000000142
 20
-52.0
 30
0.0
 11
17.4999999999999858
 21
-52.0
 31
0.0
  0
LINE
  5
62
100
AcDbEntity
100
AcDbLine
  8
H
 62
256
370
-1
  6
ByLayer
 10
-17.5000000000000107
 20
-47.0
 30
0.0
 11
17.4999999999999893
 21
-47.0
 31
0.0
  0
CIRCLE
  5
63
100
AcDbEntity
100
AcDbCircle
  8
Bohrungen
 62
256
370
-1
  6
ByLayer
 10
6.4999999999999885
 20
-47.0
 30
0.0
 40
2.5
  0
CIRCLE
  5
64
100
AcDbEntity
100
AcDbCircle
  8
Bohrungen
 62
256
370
-1
  6
ByLayer
 10
-9.5000000000000107
 20
-47.0
 30
0.0
 40
1.0
  0
LINE
  5
65
100
AcDbEntity
100
AcDbLine
  8
H Bohrungen
 62
256
370
-1
  6
ByLayer
 10
-5.0
 20
-0.0000000000000028
 30
0.0
 11
-5.0000000000000142
 21
-62.0000000000000071
 31
0.0
  0
LINE
  5
66
100
AcDbEntity
100
AcDbLine
  8
H Bohrungen
 62
256
370
-1
  6
ByLayer
 10
0.0
 20
-0.0000000000000043
 30
0.0
 11
-0.0000000000000142
 21
-62.0000000000000071
 31
0.0
  0
LINE
  5
67
100
AcDbEntity
100
AcDbLine
  8
HeaterBlock
 62
256
370
-1
  6
ByLayer
 10
-17.5000000000000107
 20
-42.0
 30
0.0
 11
17.4999999999999893
 21
-42.0
 31
0.0
  0
LINE
  5
68
100
AcDbEntity
100
AcDbLine
  8
HeaterBlock
 62
256
370
-1
  6
ByLayer
 10
17.4999999999999893
 20
-42.0
 30
0.0
 11
17.4999999999999893
 21
-52.0
 31
0.0
  0
LINE
  5
69
100
AcDbEntity
100
AcDbLine
  8
HeaterBlock
 62
256
370
-1
  6
ByLayer
 10
-17.5000000000000107
 20
-42.0
 30
0.0
 11
-17.5000000000000107
 21
-52.0
 31
0.0
  0
LINE
  5
6A
100
AcDbEntity
100
AcDbLine
  8
H
 62
256
370
-1
  6
ByLayer
 10
-17.5000000000000142
 20
-58.0
 30
0.0
 11
17.4999999999999858
 21
-58.0
 31
0.0
  0
LINE
  5
6B
100
AcDbEntity
100
AcDbLine
  8
H
 62
256
370
-1
  6
ByLayer
 10
-2.5
 20
-0.0000000000000037
 30
0.0
 11
-2.500000000000012
 21
-52.0
 31
0.0
  0
LINE
  5
6C
100
AcDbEntity
100
AcDbLine
  8
H
 62
256
370
-1
  6
ByLayer
 10
-2.500000000000012
 20
-52.0
 30
0.0
 11
-2.5000000000000142
 21
-62.0000000000000071
 31
0.0
  0
LINE
  5
6D
100
AcDbEntity
100
AcDbLine
  8
 H Nozzle
 62
256
370
-1
  6
ByLayer
 10
-8.5000000000000124
 20
-52.0
 30
0.0
 11
-8.5000000000000142
 21
-62.0000000000000071
 31
0.0
  0
LINE
  5
6E
100
AcDbEntity
100
AcDbLine
  8
 H Nozzle
 62
256
370
-1
  6
ByLayer
 10
3.499999999999988
 20
-52.0
 30
0.0
 11
3.4999999999999858
 21
-62.0000000000000071
 31
0.0
  0
LINE
  5
6F
100
AcDbEntity
100
AcDbLine
  8
 H Nozzle
 62
256
370
-1
  6
ByLayer
 10
-17.5000000000000142
 20
-58.0
 30
0.0
 11
17.4999999999999858
 21
-58.0
 31
0.0
  0
LINE
  5
70
100
AcDbEntity
100
AcDbLine
  8
HeaterBlock
 62
256
370
-1
  6
ByLayer
 10
-17.5000000000000107
 20
-52.0
 30
0.0
 11
-8.5000000000000124
 21
-52.0
 31
0.0
  0
LINE
  5
71
100
AcDbEntity
100
AcDbLine
  8
HeaterBlock
 62
256
370
-1
  6
ByLayer
 10
-8.5000000000000124
 20
-52.0
 30
0.0
 11
-8.5000000000000124
 21
-58.0
 31
0.0
  0
LINE
  5
72
100
AcDbEntity
100
AcDbLine
  8
HeaterBlock
 62
256
370
-1
  6
ByLayer
 10
17.4999999999999893
 20
-52.0
 30
0.0
 11
3.499999999999988
 21
-52.0
 31
0.0
  0
LINE
  5
73
100
AcDbEntity
100
AcDbLine
  8
HeaterBlock
 62
256
370
-1
  6
ByLayer
 10
3.499999999999988
 20
-52.0
 30
0.0
 11
3.4999999999999867
 21
-58.0
 31
0.0
  0
LINE
  5
74
100
AcDbEntity
100
AcDbLine
  8
HeaterBlock
 62
256
370
-1
  6
ByLayer
 10
-8.5000000000000142
 20
-58.0
 30
0.0
 11
3.4999999999999867
 21
-58.0
 31
0.0
  0
LINE
  5
75
100
AcDbEntity
100
AcDbLine
  8
 H Nozzle
 62
256
370
-1
  6
ByLayer
 10
-3.500000000000012
 20
-52.0
 30
0.0
 11
-3.5000000000000142
 21
-62.0000000000000071
 31
0.0
  0
LINE
  5
76
100
AcDbEntity
100
AcDbLine
  8
 H Nozzle
 62
256
370
-1
  6
ByLayer
 10
-1.500000000000012
 20
-52.0
 30
0.0
 11
-1.5000000000000142
 21
-62.0000000000000071
 31
0.0
  0
LINE
  5
77
100
AcDbEntity
100
AcDbLine
  8
HeaterBlock
 62
256
370
-1
  6
ByLayer
 10
-8.5000000000000124
 20
-58.0
 30
0.0
 11
-3.5000000000000142
 21
-62.0
 31
0.0
  0
LINE
  5
78
100
AcDbEntity
100
AcDbLine
  8
HeaterBlock
 62
256
370
-1
  6
ByLayer
 10
-3.5000000000000142
 20
-62.0
 30
0.0
 11
-1.5000000000000142
 21
-62.0
 31
0.0
  0
LINE
  5
79
100
AcDbEntity
100
AcDbLine
  8
HeaterBlock
 62
256
370
-1
  6
ByLayer
 10
-1.5000000000000142
 20
-62.0
 30
0.0
 11
3.4999999999999867
 21
-58.0
 31
0.0
  0
LINE
  5
7A
100
AcDbEntity
100
AcDbLine
  8
 H Nozzle
 62
256
370
-1
  6
ByLayer
 10
-17.5000000000000142
 20
-59.0
 30
0.0
 11
17.4999999999999858
 21
-59.0
 31
0.0
  0
LINE
  5
7B
100
AcDbEntity
100
AcDbLine
  8
Bohrungen verdeckt
 62
256
370
-1
  6
ByLayer
 10
-5.0000000000000098
 20
-42.0
 30
0.0
 11
-5.0000000000000124
 21
-59.0
 31
0.0
  0
LINE
  5
7C
100
AcDbEntity
100
AcDbLine
  8
Bohrungen verdeckt
 62
256
370
-1
  6
ByLayer
 10
-0.0000000000000096
 20
-42.0
 30
0.0
 11
-0.0000000000000135
 21
-59.0
 31
0.0
  0
LINE
  5
7D
100
AcDbEntity
100
AcDbLine
  8
 H Nozzle
 62
256
370
-1
  6
ByLayer
 10
12.8575095105316706
 20
-51.2744288763491909
 30
0.0
 11
-2.5000000000000142
 21
-60.5021515475689
 31
0.0
  0
LINE
  5
7E
100
AcDbEntity
100
AcDbLine
  8
 H Nozzle
 62
256
370
-1
  6
ByLayer
 10
-17.857509510531699
 20
-51.2744288763491909
 30
0.0
 11
-2.5000000000000151
 21
-60.5021515475689
 31
0.0
  0
LINE
  5
7F
100
AcDbEntity
100
AcDbLine
  8
H Bohrungen
 62
256
370
-1
  6
ByLayer
 10
-2.750000000000012
 20
-52.0
 30
0.0
 11
-2.7500000000000142
 21
-62.0000000000000071
 31
0.0
  0
LINE
  5
80
100
AcDbEntity
100
AcDbLine
  8
H Bohrungen
 62
256
370
-1
  6
ByLayer
 10
-2.250000000000012
 20
-52.0
 30
0.0
 11
-2.2500000000000142
 21
-62.0000000000000071
 31
0.0
  0
LINE
  5
81
100
AcDbEntity
100
AcDbLine
  8
Bohrungen verdeckt
 62
256
370
-1
  6
ByLayer
 10
-5.0000000000000133
 20
-59.0
 30
0.0
 11
-2.7500000000000129
 21
-60.3519363928120143
 31
0.0
  0
LINE
  5
82
100
AcDbEntity
100
AcDbLine
  8
Bohrungen verdeckt
 62
256
370
-1
  6
ByLayer
 10
-2.2500000000000138
 20
-60.3519363928120072
 30
0.0
 11
-0.0000000000000145
 21
-59.0
 31
0.0
  0
LINE
  5
83
100
AcDbEntity
100
AcDbLine
  8
Bohrungen verdeckt
 62
256
370
-1
  6
ByLayer
 10
-2.7500000000000138
 20
-60.3519363928120143
 30
0.0
 11
-2.7500000000000142
 21
-62.0
 31
0.0
  0
LINE
  5
84
100
AcDbEntity
100
AcDbLine
  8
Bohrungen verdeckt
 62
256
370
-1
  6
ByLayer
 10
-2.2500000000000138
 20
-60.3519363928120072
 30
0.0
 11
-2.2500000000000142
 21
-62.0
 31
0.0
  0
LINE
  5
85
100
AcDbEntity
100
AcDbLine
  8
Bohrungen
 62
256
370
-1
  6
ByLayer
 10
-2.5000000000000009
 20
-3.5
 30
0.0
 11
-2.5000000000000018
 21
-8.5000000000000018
 31
0.0
  0
LINE
  5
86
100
AcDbEntity
100
AcDbLine
  8
Bohrungen
 62
256
370
-1
  6
ByLayer
 10
-5.0000000000000018
 20
-5.9999999999999991
 30
0.0
 11
-0.0000000000000036
 21
-6.0
 31
0.0
  0
LINE
  5
87
100
AcDbEntity
100
AcDbLine
  8
Bohrungen verdeckt
 62
256
370
-1
  6
ByLayer
 10
-9.5
 20
0.0
 30
0.0
 11
-9.5000000000000036
 21
-12.0
 31
0.0
  0
LINE
  5
88
100
AcDbEntity
100
AcDbLine
  8
Bohrungen verdeckt
 62
256
370
-1
  6
ByLayer
 10
6.4999999999999991
 20
0.0
 30
0.0
 11
6.4999999999999973
 21
-12.0
 31
0.0
  0
LINE
  5
89
100
AcDbEntity
100
AcDbLine
  8
Bohrungen verdeckt
 62
256
370
-1
  6
ByLayer
 10
-2.5000000000000098
 20
-42.0
 30
0.0
 11
-2.5000000000000142
 21
-62.0
 31
0.0
  0
LINE
  5
8A
100
AcDbEntity
100
AcDbLine
  8
Bohrungen verdeckt
 62
256
370
-1
  6
ByLayer
 10
6.4999999999999902
 20
-44.4999999999999645
 30
0.0
 11
6.4999999999999885
 21
-49.5000000000000355
 31
0.0
  0
LINE
  5
8B
100
AcDbEntity
100
AcDbLine
  8
Bohrungen verdeckt
 62
256
370
-1
  6
ByLayer
 10
3.9999999999999885
 20
-47.0
 30
0.0
 11
8.9999999999999893
 21
-47.0
 31
0.0
  0
LINE
  5
8C
100
AcDbEntity
100
AcDbLine
  8
Bohrungen verdeckt
 62
256
370
-1
  6
ByLayer
 10
-10.5000000000000107
 20
-47.0
 30
0.0
 11
-8.5000000000000107
 21
-47.0
 31
0.0
  0
LINE
  5
8D
100
AcDbEntity
100
AcDbLine
  8
Bohrungen verdeckt
 62
256
370
-1
  6
ByLayer
 10
-9.5000000000000107
 20
-46.0
 30
0.0
 11
-9.5000000000000107
 21
-48.0
 31
0.0
  0
DIMENSION
  5
8E
100
AcDbEntity
  8
Masze
 62
256
370
-1
  6
ByLayer
100
AcDbDimension
 10
-2.5000000000000004
 20
6.9717573221757325
 30
0.0
 11
-10.0
 21
8.8467573221757334
 31
0.0
 70
0
 71
5
 72
1
 41
1.0
 42
0.0
  1

  3
Standard
100
AcDbAlignedDimension
 13
-17.5
 23
0.0
 33
0.0
 14
-2.5000000000000009
 24
0.0
 34
0.0
 50
0.0
100
AcDbRotatedDimension
  0
DIMENSION
  5
8F
100
AcDbEntity
  8
Masze
 62
256
370
-1
  6
ByLayer
100
AcDbDimension
 10
17.5
 20
6.9717573221757307
 30
0.0
 11
7.5
 21
8.8467573221757299
 31
0.0
 70
0
 71
5
 72
1
 41
1.0
 42
0.0
  1

  3
Standard
100
AcDbAlignedDimension
 13
-2.5000000000000009
 23
0.0
 33
0.0
 14
17.5
 24
0.0
 34
0.0
 50
0.0
100
AcDbRotatedDimension
  0
DIMENSION
  5
90
100
AcDbEntity
  8
Masze
 62
256
370
-1
  6
ByLayer
100
AcDbDimension
 10
-9.5000000000000036
 20
-18.8075313807531401
 30
0.0
 11
-13.5000000000000036
 21
-16.9325313807531401
 31
0.0
 70
0
 71
5
 72
1
 41
1.0
 42
0.0
  1

  3
Standard
100
AcDbAlignedDimension
 13
-17.5000000000000036
 23
-12.0
 33
0.0
 14
-9.5000000000000036
 24
-12.0
 34
0.0
 50
0.0
100
AcDbRotatedDimension
  0
DIMENSION
  5
91
100
AcDbEntity
  8
Masze
 62
256
370
-1
  6
ByLayer
100
AcDbDimension
 10
-2.5000000000000022
 20
-18.8075313807531401
 30
0.0
 11
-6.0000000000000018
 21
-16.9325313807531401
 31
0.0
 70
0
 71
5
 72
1
 41
1.0
 42
0.0
  1

  3
Standard
100
AcDbAlignedDimension
 13
-9.5000000000000018
 23
-6.0
 33
0.0
 14
-2.5000000000000013
 24
-6.0
 34
0.0
 50
0.0
100
AcDbRotatedDimension
  0
DIMENSION
  5
92
100
AcDbEntity
  8
Masze
 62
256
370
-1
  6
ByLayer
100
AcDbDimension
 10
6.4999999999999973
 20
-18.8075313807531401
 30
0.0
 11
1.999999999999998
 21
-16.9325313807531401
 31
0.0
 70
0
 71
5
 72
1
 41
1.0
 42
0.0
  1

  3
Standard
100
AcDbAlignedDimension
 13
-2.5000000000000022
 23
-6.0
 33
0.0
 14
6.4999999999999982
 24
-6.0
 34
0.0
 50
0.0
100
AcDbRotatedDimension
  0
DIMENSION
  5
93
100
AcDbEntity
  8
Masze
 62
256
370
-1
  6
ByLayer
100
AcDbDimension
 10
17.5
 20
-18.8075313807531401
 30
0.0
 11
11.9999999999999982
 21
-16.9325313807531401
 31
0.0
 70
0
 71
5
 72
1
 41
1.0
 42
0.0
  1

  3
Standard
100
AcDbAlignedDimension
 13
6.4999999999999982
 23
-6.0
 33
0.0
 14
17.5
 24
-6.0
 34
0.0
 50
0.0
100
AcDbRotatedDimension
  0
DIMENSION
  5
94
100
AcDbEntity
  8
Masze
 62
256
370
-1
  6
ByLayer
100
AcDbDimension
 10
26.9142259414225968
 20
-6.0000000000000009
 30
0.0
 11
25.0392259414225968
 21
-3.0
 31
0.0
 70
0
 71
5
 72
1
 41
1.0
 42
0.0
  1

  3
Standard
100
AcDbAlignedDimension
 13
17.5
 23
0.0
 33
0.0
 14
17.5
 24
-6.0
 34
0.0
 50
90.0
100
AcDbRotatedDimension
  0
DIMENSION
  5
95
100
AcDbEntity
  8
Masze
 62
256
370
-1
  6
ByLayer
100
AcDbDimension
 10
26.9142259414225933
 20
-12.0000000000000018
 30
0.0
 11
25.0392259414225933
 21
-9.0
 31
0.0
 70
0
 71
5
 72
1
 41
1.0
 42
0.0
  1

  3
Standard
100
AcDbAlignedDimension
 13
17.5
 23
-6.0
 33
0.0
 14
17.4999999999999964
 24
-12.0
 34
0.0
 50
90.0
100
AcDbRotatedDimension
  0
DIMENSION
  5
96
100
AcDbEntity
  8
Masze
 62
256
370
-1
  6
ByLayer
100
AcDbDimension
 10
-0.7513486422717253
 20
-7.7866780429375231
 30
0.0
 11
-1.1599914677968584
 21
-4.6885114817037934
 31
0.0
 70
3
 71
5
 72
1
 41
1.0
 42
0.0
  1

  3
Standard
100
AcDbDiametricDimension
 15
-4.248651357728277
 25
-4.213321957062476
 35
0.0
 40
0.0
  0
DIMENSION
  5
97
100
AcDbEntity
  8
Masze
 62
256
370
-1
  6
ByLayer
100
AcDbDimension
 10
8.7200899634295475
 20
-48.1494348847496028
 30
0.0
 11
7.3620761635621905
 21
-45.3349325274278314
 31
0.0
 70
3
 71
5
 72
1
 41
1.0
 42
0.0
  1

  3
Standard
100
AcDbDiametricDimension
 15
4.2799100365704295
 25
-45.8505651152503972
 35
0.0
 40
0.0
  0
DIMENSION
  5
98
100
AcDbEntity
  8
Masze
 62
256
370
-1
  6
ByLayer
100
AcDbDimension
 10
-8.6227658510526819
 20
-47.4800627541485127
 30
0.0
 11
-8.5998823359715502
 21
-45.3551859707237597
 31
0.0
 70
3
 71
5
 72
1
 41
1.0
 42
0.0
  1

  3
Standard
100
AcDbDiametricDimension
 15
-10.3772341489473394
 25
-46.5199372458514873
 35
0.0
 40
0.0
  0
DIMENSION
  5
99
100
AcDbEntity
  8
Masze
 62
256
370
-1
  6
ByLayer
100
AcDbDimension
 10
26.9142259414225862
 20
-47.0
 30
0.0
 11
25.0392259414225862
 21
-44.5
 31
0.0
 70
0
 71
5
 72
1
 41
1.0
 42
0.0
  1

  3
Standard
100
AcDbAlignedDimension
 13
17.4999999999999893
 23
-42.0
 33
0.0
 14
17.4999999999999893
 24
-47.0
 34
0.0
 50
90.0
100
AcDbRotatedDimension
  0
DIMENSION
  5
9A
100
AcDbEntity
  8
Masze
 62
256
370
-1
  6
ByLayer
100
AcDbDimension
 10
26.9142259414225862
 20
-52.0
 30
0.0
 11
25.0392259414225862
 21
-49.5
 31
0.0
 70
0
 71
5
 72
1
 41
1.0
 42
0.0
  1

  3
Standard
100
AcDbAlignedDimension
 13
17.4999999999999893
 23
-47.0
 33
0.0
 14
17.4999999999999893
 24
-52.0
 34
0.0
 50
90.0
100
AcDbRotatedDimension
  0
DIMENSION
  5
9B
100
AcDbEntity
  8
Masze
 62
256
370
-1
  6
ByLayer
100
AcDbDimension
 10
34.3723849372385004
 20
-52.0
 30
0.0
 11
32.4973849372385004
 21
-47.0
 31
0.0
 70
0
 71
5
 72
1
 41
1.0
 42
0.0
  1

  3
Standard
100
AcDbAlignedDimension
 13
17.4999999999999893
 23
-42.0
 33
0.0
 14
17.4999999999999893
 24
-52.0
 34
0.0
 50
90.0
100
AcDbRotatedDimension
  0
DIMENSION
  5
9C
100
AcDbEntity
  8
Masze
 62
256
370
-1
  6
ByLayer
100
AcDbDimension
 10
34.3723849372385004
 20
-58.0000000000000071
 30
0.0
 11
32.4973849372385004
 21
-55.0
 31
0.0
 70
0
 71
5
 72
1
 41
1.0
 42
0.0
  1

  3
Standard
100
AcDbAlignedDimension
 13
17.4999999999999893
 23
-52.0
 33
0.0
 14
3.4999999999999867
 24
-58.0
 34
0.0
 50
90.0
100
AcDbRotatedDimension
  0
DIMENSION
  5
9D
100
AcDbEntity
  8
Masze
 62
256
370
-1
  6
ByLayer
100
AcDbDimension
 10
34.3723849372385004
 20
-62.0000000000000071
 30
0.0
 11
32.4973849372385004
 21
-60.0
 31
0.0
 70
0
 71
5
 72
1
 41
1.0
 42
0.0
  1

  3
Standard
100
AcDbAlignedDimension
 13
-2.5000000000000133
 23
-58.0
 33
0.0
 14
-2.5000000000000142
 24
-62.0
 34
0.0
 50
90.0
100
AcDbRotatedDimension
  0
DIMENSION
  5
9E
100
AcDbEntity
  8
Masze
 62
256
370
-1
  6
ByLayer
100
AcDbDimension
 10
-8.5000000000000142
 20
-70.882300120986045
 30
0.0
 11
-13.0000000000000107
 21
-69.007300120986045
 31
0.0
 70
0
 71
5
 72
1
 41
1.0
 42
0.0
  1

  3
Standard
100
AcDbAlignedDimension
 13
-17.5000000000000107
 23
-52.0
 33
0.0
 14
-8.5000000000000124
 24
-52.0
 34
0.0
 50
0.0
100
AcDbRotatedDimension
  0
DIMENSION
  5
9F
100
AcDbEntity
  8
Masze
 62
256
370
-1
  6
ByLayer
100
AcDbDimension
 10
3.4999999999999858
 20
-70.882300120986045
 30
0.0
 11
-2.500000000000012
 21
-69.007300120986045
 31
0.0
 70
0
 71
5
 72
1
 41
1.0
 42
0.0
  1

  3
Standard
100
AcDbAlignedDimension
 13
-8.5000000000000124
 23
-58.0
 33
0.0
 14
3.4999999999999867
 24
-58.0
 34
0.0
 50
0.0
100
AcDbRotatedDimension
  0
DIMENSION
  5
A0
100
AcDbEntity
  8
Masze
 62
256
370
-1
  6
ByLayer
100
AcDbDimension
 10
17.4999999999999893
 20
-70.882300120986045
 30
0.0
 11
10.4999999999999876
 21
-69.007300120986045
 31
0.0
 70
0
 71
5
 72
1
 41
1.0
 42
0.0
  1

  3
Standard
100
AcDbAlignedDimension
 13
3.499999999999988
 23
-52.0
 33
0.0
 14
17.4999999999999893
 24
-52.0
 34
0.0
 50
0.0
100
AcDbRotatedDimension
  0
MTEXT
  5
A1
100
AcDbEntity
100
AcDbMText
  8
Masze
 62
256
370
-1
  6
ByLayer
 10
53.1214854896207527
 20
3.2816361692429807
 30
0.0
 40
3.0
 41
100.0
 71
1
 72
0
  1
Material: Duraluminium (kein Alfer!)\PHalbzeug 35x20\Pzuerst 5mm Hotend bohren\Pdann erst abtrennen\Pfeilen, Heiz- und Messbohrung anrei\U+00dfen\Pbohren\P0.5mm Bohrung auf nozzle Seite \U+00fcbertragen\Pund von Hand bohren (hand chuck)
  7
standard
 50
0.0
 73
1
 44
1.0
  0
MTEXT
  5
A2
100
AcDbEntity
100
AcDbMText
  8
Masze
 62
256
370
-1
  6
ByLayer
 10
-3.1727820014367141
 20
-80.1421231474014348
 30
0.0
 40
3.0
 41
100.0
 71
1
 72
0
  1
Bohrung 5mm bis auf 1,5mm nozzle end\PDann von au\U+00dfen von Hand 0.5mm D\U+00fcse bohren
  7
standard
 50
0.0
 73
1
 44
1.0
  0
ENDSEC
  0
SECTION
  2
OBJECTS
  0
DICTIONARY
  5
C
100
AcDbDictionary
280
0
281
1
  3
ACAD_GROUP
350
D
  3
ACAD_LAYOUT
350
1A
  3
ACAD_MLINESTYLE
350
17
  3
ACAD_PLOTSETTINGS
350
19
  3
ACAD_PLOTSTYLENAME
350
E
  3
AcDbVariableDictionary
350
A3
  0
DICTIONARY
  5
D
100
AcDbDictionary
280
0
281
1
  0
ACDBDICTIONARYWDFLT
  5
E
100
AcDbDictionary
281
1
  3
Normal
350
F
100
AcDbDictionaryWithDefault
340
F
  0
ACDBPLACEHOLDER
  5
F
  0
DICTIONARY
  5
17
100
AcDbDictionary
280
0
281
1
  3
Standard
350
18
  0
MLINESTYLE
  5
18
100
AcDbMlineStyle
  2
STANDARD
 70
0
  3

 62
256
 51
90.0
 52
90.0
 71
2
 49
0.5
 62
256
  6
BYLAYER
 49
-0.5
 62
256
  6
BYLAYER
  0
DICTIONARY
  5
19
100
AcDbDictionary
280
0
281
1
  0
DICTIONARY
  5
1A
100
AcDbDictionary
281
1
  3
Layout1
350
1E
  3
Layout2
350
26
  3
Model
350
22
  0
LAYOUT
  5
1E
100
AcDbPlotSettings
  1

  2
C:\Program Files\AutoCAD 2002\plotters\DWF ePlot (optimized for plotting).pc3
  4

  6

 40
0.0
 41
0.0
 42
0.0
 43
0.0
 44
0.0
 45
0.0
 46
0.0
 47
0.0
 48
0.0
 49
0.0
140
0.0
141
0.0
142
1.0
143
1.0
 70
688
 72
0
 73
0
 74
5
  7

 75
16
147
1.0
148
0.0
149
0.0
100
AcDbLayout
  1
Layout1
 70
1
 71
1
 10
0.0
 20
0.0
 11
420.0
 21
297.0
 12
0.0
 22
0.0
 32
0.0
 14
100000000000000000000.0
 24
100000000000000000000.0
 34
100000000000000000000.0
 15
-100000000000000000000.0
 25
-100000000000000000000.0
 35
-100000000000000000000.0
146
0.0
 13
0.0
 23
0.0
 33
0.0
 16
1.0
 26
0.0
 36
0.0
 17
0.0
 27
1.0
 37
0.0
 76
0
330
1B
  0
LAYOUT
  5
22
100
AcDbPlotSettings
  1

  2
C:\Program Files\AutoCAD 2002\plotters\DWF ePlot (optimized for plotting).pc3
  4

  6

 40
0.0
 41
0.0
 42
0.0
 43
0.0
 44
0.0
 45
0.0
 46
0.0
 47
0.0
 48
0.0
 49
0.0
140
0.0
141
0.0
142
1.0
143
1.0
 70
1712
 72
0
 73
0
 74
0
  7

 75
0
147
1.0
148
0.0
149
0.0
100
AcDbLayout
  1
Model
 70
1
 71
0
 10
0.0
 20
0.0
 11
12.0
 21
9.0
 12
0.0
 22
0.0
 32
0.0
 14
0.0
 24
0.0
 34
0.0
 15
0.0
 25
0.0
 35
0.0
146
0.0
 13
0.0
 23
0.0
 33
0.0
 16
1.0
 26
0.0
 36
0.0
 17
0.0
 27
1.0
 37
0.0
 76
0
330
1F
  0
LAYOUT
  5
26
100
AcDbPlotSettings
  1

  2
C:\Program Files\AutoCAD 2002\plotters\DWF ePlot (optimized for plotting).pc3
  4

  6

 40
0.0
 41
0.0
 42
0.0
 43
0.0
 44
0.0
 45
0.0
 46
0.0
 47
0.0
 48
0.0
 49
0.0
140
0.0
141
0.0
142
1.0
143
1.0
 70
688
 72
0
 73
0
 74
5
  7

 75
16
147
1.0
148
0.0
149
0.0
100
AcDbLayout
  1
Layout2
 70
1
 71
2
 10
0.0
 20
0.0
 11
12.0
 21
9.0
 12
0.0
 22
0.0
 32
0.0
 14
0.0
 24
0.0
 34
0.0
 15
0.0
 25
0.0
 35
0.0
146
0.0
 13
0.0
 23
0.0
 33
0.0
 16
1.0
 26
0.0
 36
0.0
 17
0.0
 27
1.0
 37
0.0
 76
0
330
23
  0
DICTIONARY
  5
A3
100
AcDbDictionary
281
1
  3
DIMASSOC
350
A5
  3
HIDETEXT
350
A4
  0
DICTIONARYVAR
  5
A4
100
DictionaryVariables
280
0
  1
2
  0
DICTIONARYVAR
  5
A5
100
DictionaryVariables
280
0
  1
1
  0
ENDSEC
  0
EOF
