  0
SECTION
  2
BLOCKS
  0
ENDSEC
  0
SECTION
  2
ENTITIES
  0
LINE
  8
0
 10
-15.6
 11
-15.386
 20
0
 21
0.8
  0
LINE
  8
0
 10
-15.386
 11
-14.8
 20
0.8
 21
1.386
  0
LINE
  8
0
 10
-14.8
 11
-14
 20
1.386
 21
1.6
  0
LINE
  8
0
 10
-14
 11
-13.2
 20
1.6
 21
1.386
  0
LINE
  8
0
 10
-13.2
 11
-12.614
 20
1.386
 21
0.8
  0
LINE
  8
0
 10
-12.614
 11
-12.4
 20
0.8
 21
0
  0
LINE
  8
0
 10
-12.4
 11
-12.614
 20
0
 21
-0.8
  0
LINE
  8
0
 10
-12.614
 11
-13.2
 20
-0.8
 21
-1.386
  0
LINE
  8
0
 10
-13.2
 11
-14
 20
-1.386
 21
-1.6
  0
LINE
  8
0
 10
-14
 11
-14.8
 20
-1.6
 21
-1.386
  0
LINE
  8
0
 10
-14.8
 11
-15.386
 20
-1.386
 21
-0.8
  0
LINE
  8
0
 10
-15.386
 11
-15.6
 20
-0.8
 21
0
  0
LINE
  8
0
 10
-2.5
 11
-2.452
 20
0
 21
0.488
  0
LINE
  8
0
 10
-2.452
 11
-2.31
 20
0.488
 21
0.957
  0
LINE
  8
0
 10
-2.31
 11
-2.079
 20
0.957
 21
1.389
  0
LINE
  8
0
 10
-2.079
 11
-1.768
 20
1.389
 21
1.768
  0
LINE
  8
0
 10
-1.768
 11
-1.389
 20
1.768
 21
2.079
  0
LINE
  8
0
 10
-1.389
 11
-0.957
 20
2.079
 21
2.31
  0
LINE
  8
0
 10
-0.957
 11
-0.488
 20
2.31
 21
2.452
  0
LINE
  8
0
 10
-0.488
 11
0
 20
2.452
 21
2.5
  0
LINE
  8
0
 10
0
 11
0.488
 20
2.5
 21
2.452
  0
LINE
  8
0
 10
0.488
 11
0.957
 20
2.452
 21
2.31
  0
LINE
  8
0
 10
0.957
 11
1.389
 20
2.31
 21
2.079
  0
LINE
  8
0
 10
1.389
 11
1.768
 20
2.079
 21
1.768
  0
LINE
  8
0
 10
1.768
 11
2.079
 20
1.768
 21
1.389
  0
LINE
  8
0
 10
2.079
 11
2.31
 20
1.389
 21
0.957
  0
LINE
  8
0
 10
2.31
 11
2.452
 20
0.957
 21
0.488
  0
LINE
  8
0
 10
2.452
 11
2.5
 20
0.488
 21
0
  0
LINE
  8
0
 10
2.5
 11
2.452
 20
0
 21
-0.488
  0
LINE
  8
0
 10
2.452
 11
2.31
 20
-0.488
 21
-0.957
  0
LINE
  8
0
 10
2.31
 11
2.079
 20
-0.957
 21
-1.389
  0
LINE
  8
0
 10
2.079
 11
1.768
 20
-1.389
 21
-1.768
  0
LINE
  8
0
 10
1.768
 11
1.389
 20
-1.768
 21
-2.079
  0
LINE
  8
0
 10
1.389
 11
0.957
 20
-2.079
 21
-2.31
  0
LINE
  8
0
 10
0.957
 11
0.488
 20
-2.31
 21
-2.452
  0
LINE
  8
0
 10
0.488
 11
0
 20
-2.452
 21
-2.5
  0
LINE
  8
0
 10
0
 11
-0.488
 20
-2.5
 21
-2.452
  0
LINE
  8
0
 10
-0.488
 11
-0.957
 20
-2.452
 21
-2.31
  0
LINE
  8
0
 10
-0.957
 11
-1.389
 20
-2.31
 21
-2.079
  0
LINE
  8
0
 10
-1.389
 11
-1.768
 20
-2.079
 21
-1.768
  0
LINE
  8
0
 10
-1.768
 11
-2.079
 20
-1.768
 21
-1.389
  0
LINE
  8
0
 10
-2.079
 11
-2.31
 20
-1.389
 21
-0.957
  0
LINE
  8
0
 10
-2.31
 11
-2.452
 20
-0.957
 21
-0.488
  0
LINE
  8
0
 10
-2.452
 11
-2.5
 20
-0.488
 21
0
  0
LINE
  8
0
 10
12.4
 11
12.614
 20
0
 21
0.8
  0
LINE
  8
0
 10
12.614
 11
13.2
 20
0.8
 21
1.386
  0
LINE
  8
0
 10
13.2
 11
14
 20
1.386
 21
1.6
  0
LINE
  8
0
 10
14
 11
14.8
 20
1.6
 21
1.386
  0
LINE
  8
0
 10
14.8
 11
15.386
 20
1.386
 21
0.8
  0
LINE
  8
0
 10
15.386
 11
15.6
 20
0.8
 21
0
  0
LINE
  8
0
 10
15.6
 11
15.386
 20
0
 21
-0.8
  0
LINE
  8
0
 10
15.386
 11
14.8
 20
-0.8
 21
-1.386
  0
LINE
  8
0
 10
14.8
 11
14
 20
-1.386
 21
-1.6
  0
LINE
  8
0
 10
14
 11
13.2
 20
-1.6
 21
-1.386
  0
LINE
  8
0
 10
13.2
 11
12.614
 20
-1.386
 21
-0.8
  0
LINE
  8
0
 10
12.614
 11
12.4
 20
-0.8
 21
0
  0
LINE
  8
0
 10
-17.5
 11
-17.5
 20
-6
 21
6
  0
LINE
  8
0
 10
-17.5
 11
17.5
 20
6
 21
6
  0
LINE
  8
0
 10
17.5
 11
17.5
 20
6
 21
-6
  0
LINE
  8
0
 10
17.5
 11
-17.5
 20
-6
 21
-6
  0
ENDSEC
  0
SECTION
  2
OBJECTS
  0
DICTIONARY
  0
ENDSEC
  0
EOF
